<svg width="24" height="24" viewBox="0 0 24 24" fill="none" xmlns="http://www.w3.org/2000/svg">
<path d="M18.2454 15.8758C17.4613 15.1018 16.4825 15.1018 15.7035 15.8758C15.1092 16.4651 14.5149 17.0544 13.9306 17.6537C13.7708 17.8185 13.6359 17.8535 13.4412 17.7436C13.0566 17.5338 12.6471 17.364 12.2776 17.1343C10.5547 16.0506 9.11141 14.6573 7.83296 13.0892C7.19872 12.3102 6.6344 11.4762 6.23988 10.5373C6.15998 10.3475 6.17496 10.2227 6.32977 10.0679C6.92405 9.49355 7.50335 8.90426 8.08765 8.31497C8.90166 7.49596 8.90166 6.53712 8.08265 5.71312C7.61822 5.24368 7.15377 4.78424 6.68934 4.3148C6.20991 3.83538 5.73549 3.35097 5.25107 2.87654C4.46702 2.11246 3.4882 2.11246 2.70914 2.88153C2.10987 3.47082 1.53556 4.07509 0.926295 4.65439C0.361976 5.18875 0.0773198 5.84296 0.0173921 6.60704C-0.0774933 7.85054 0.227139 9.02412 0.65662 10.1677C1.53556 12.5349 2.87394 14.6373 4.49698 16.565C6.68934 19.1719 9.30618 21.2344 12.3675 22.7226C13.7458 23.3918 15.1741 23.9061 16.7272 23.991C17.7959 24.051 18.7248 23.7813 19.4689 22.9473C19.9783 22.378 20.5526 21.8586 21.0919 21.3143C21.891 20.5053 21.896 19.5264 21.1019 18.7274C20.1531 17.7736 19.1992 16.8247 18.2454 15.8758Z" fill="#FFC700"/>
<path d="M17.2914 11.8957L19.1342 11.581C18.8445 9.88809 18.0455 8.35494 16.832 7.13641C15.5485 5.85296 13.9255 5.04394 12.1376 4.79424L11.8779 6.647C13.2613 6.84177 14.5197 7.46601 15.5135 8.45981C16.4524 9.39868 17.0667 10.5872 17.2914 11.8957Z" fill="#FFC700"/>
<path d="M20.1748 3.88531C18.0474 1.75788 15.3556 0.4145 12.3842 0L12.1245 1.85276C14.6914 2.21233 17.0186 3.37592 18.8564 5.20871C20.5993 6.95161 21.7429 9.15395 22.1574 11.576L24.0002 11.2614C23.5158 8.45479 22.1924 5.90787 20.1748 3.88531Z" fill="#FFC700"/>
</svg>
