<svg width="32" height="32" viewBox="0 0 32 32" fill="none" xmlns="http://www.w3.org/2000/svg">
<path d="M31.8687 8.92274L26.2792 0.276913C26.2232 0.191974 26.1471 0.122224 26.0576 0.0739006C25.9682 0.0255769 25.8681 0.000186362 25.7664 0H6.17738C6.07567 0.000186362 5.9756 0.0255769 5.88611 0.0739006C5.79663 0.122224 5.72051 0.191974 5.66457 0.276913L0.0750401 8.92274C0.0348968 8.99549 0.0104406 9.07585 0.00324777 9.15863V10.8714C-0.00108259 10.9123 -0.00108259 10.9535 0.00324777 10.9945C0.141988 11.7562 0.48541 12.4659 0.996705 13.0473C1.508 13.6288 2.16789 14.0601 2.90564 14.2952C3.6434 14.5302 4.43121 14.56 5.18462 14.3815C5.93804 14.2029 6.62866 13.8227 7.18247 13.2816C7.97655 14.0324 9.02795 14.4508 10.1208 14.4508C11.2137 14.4508 12.2651 14.0324 13.0592 13.2816C13.8533 14.0324 14.9047 14.4508 15.9975 14.4508C17.0904 14.4508 18.1418 14.0324 18.9359 13.2816C19.73 14.0324 20.7814 14.4508 21.8742 14.4508C22.9671 14.4508 24.0185 14.0324 24.8126 13.2816C25.3685 13.8193 26.0598 14.1963 26.813 14.3722C27.5661 14.5482 28.3529 14.5167 29.0896 14.281C29.8262 14.0452 30.4852 13.6142 30.9962 13.0336C31.5073 12.4531 31.8514 11.7448 31.9918 10.9842C32.0186 10.2947 31.9774 9.60418 31.8687 8.92274ZM6.51582 1.23072H25.4279L30.2175 8.63557H1.716L6.51582 1.23072ZM30.6585 10.7688C30.5079 11.4475 30.132 12.0551 29.5919 12.4928C29.0518 12.9305 28.3794 13.1723 27.6843 13.179C27.2045 13.1765 26.7323 13.0587 26.3075 12.8356C25.8827 12.6125 25.5177 12.2906 25.2433 11.897C25.1825 11.8211 25.1062 11.759 25.0196 11.7148C24.9329 11.6706 24.8379 11.6453 24.7408 11.6406C24.6452 11.6406 24.551 11.6628 24.4656 11.7056C24.3801 11.7483 24.3058 11.8103 24.2485 11.8867C23.964 12.2661 23.5956 12.5746 23.1722 12.7881C22.7488 13.0016 22.2817 13.1143 21.8076 13.1175C21.3331 13.1219 20.8644 13.0136 20.44 12.8014C20.0156 12.5892 19.6477 12.2792 19.3666 11.897C19.3105 11.8124 19.2343 11.743 19.1448 11.6949C19.0553 11.6469 18.9554 11.6218 18.8538 11.6218C18.7523 11.6218 18.6523 11.6469 18.5628 11.6949C18.4734 11.743 18.3972 11.8124 18.341 11.897C18.0671 12.279 17.7093 12.5932 17.2951 12.8155C16.8808 13.0377 16.4212 13.1621 15.9514 13.179C15.4681 13.1798 14.9918 13.0636 14.5632 12.8403C14.1345 12.6171 13.7663 12.2934 13.4899 11.897C13.4337 11.8187 13.3598 11.7547 13.2743 11.7101C13.1888 11.6656 13.094 11.6418 12.9976 11.6406C12.9001 11.6372 12.8032 11.658 12.7156 11.7009C12.628 11.7438 12.5522 11.8076 12.4951 11.8867C12.2106 12.2661 11.8422 12.5746 11.4188 12.7881C10.9954 13.0016 10.5283 13.1143 10.0542 13.1175C9.5797 13.1219 9.11097 13.0136 8.68659 12.8014C8.2622 12.5892 7.89431 12.2792 7.61322 11.897C7.55698 11.8187 7.48314 11.7547 7.39762 11.7101C7.31211 11.6656 7.21734 11.6418 7.12093 11.6406C7.02313 11.6354 6.92561 11.6552 6.83765 11.6983C6.74969 11.7414 6.67421 11.8063 6.61838 11.8867C6.26239 12.3455 5.78382 12.6942 5.23799 12.8925C4.69216 13.0908 4.10136 13.1305 3.53389 13.0072C2.96642 12.8838 2.44545 12.6024 2.0312 12.1954C1.61695 11.7884 1.32633 11.2725 1.19295 10.7073V9.84578H30.6585V10.7688Z" fill="black"/>
<path d="M9.05047 3.29233C8.97242 3.26525 8.88972 3.25416 8.8073 3.25973C8.72488 3.2653 8.64442 3.28741 8.57073 3.32473C8.49703 3.36206 8.43161 3.41384 8.37835 3.47699C8.3251 3.54014 8.2851 3.61337 8.26075 3.69231L7.43001 5.74352C7.39896 5.81936 7.38337 5.90064 7.38415 5.98258C7.38494 6.06453 7.40209 6.1455 7.43459 6.22073C7.46709 6.29596 7.51429 6.36394 7.57342 6.42069C7.63255 6.47743 7.70242 6.52179 7.77893 6.55116C7.85544 6.58054 7.93704 6.59433 8.01895 6.59174C8.10086 6.58915 8.18143 6.57022 8.25593 6.53607C8.33043 6.50191 8.39735 6.45323 8.45278 6.39286C8.5082 6.33249 8.55101 6.26166 8.57869 6.18452L9.40943 4.05127C9.4568 3.90283 9.4461 3.74194 9.37947 3.60108C9.31285 3.46021 9.19527 3.34987 9.05047 3.29233ZM23.6858 3.69231C23.6249 3.54345 23.508 3.42437 23.3604 3.36058C23.2127 3.29679 23.0459 3.29335 22.8958 3.351C22.7456 3.40866 22.624 3.52282 22.557 3.66904C22.4899 3.81526 22.4828 3.98192 22.5371 4.13332L23.3679 6.26657C23.4372 6.4189 23.5643 6.53743 23.721 6.59609C23.8778 6.65475 24.0514 6.64874 24.2037 6.57938C24.3561 6.51002 24.4746 6.38299 24.5333 6.22623C24.5919 6.06948 24.5859 5.89584 24.5166 5.74352L23.6858 3.69231ZM13.6759 3.26156C13.5157 3.24107 13.3538 3.28444 13.2252 3.38231C13.0966 3.48017 13.0117 3.62467 12.9888 3.78461L12.7016 5.91787C12.6813 6.0797 12.726 6.24297 12.8261 6.37182C12.9261 6.50067 13.0731 6.58455 13.2349 6.60502H13.317C13.4651 6.60387 13.6079 6.5493 13.7191 6.45133C13.8302 6.35335 13.9023 6.21856 13.9221 6.07171L14.2092 3.93845C14.2267 3.77827 14.1806 3.61764 14.0809 3.49107C13.9811 3.3645 13.8358 3.2821 13.6759 3.26156ZM18.2706 3.26156C18.1088 3.28203 17.9618 3.36591 17.8618 3.49476C17.7618 3.6236 17.717 3.78688 17.7373 3.94871L18.004 6.08196C18.0237 6.22882 18.0958 6.36361 18.207 6.46158C18.3181 6.55956 18.4609 6.61413 18.6091 6.61528H18.6911C18.8529 6.5948 19 6.51092 19.1 6.38208C19.2 6.25323 19.2448 6.08995 19.2244 5.92812L18.9373 3.79487C18.9167 3.63701 18.8358 3.49326 18.7115 3.39381C18.5872 3.29436 18.4292 3.24696 18.2706 3.26156ZM28.6908 25.9479V17.0251C28.6908 16.8619 28.6259 16.7054 28.5105 16.59C28.3951 16.4746 28.2386 16.4098 28.0754 16.4098C27.9122 16.4098 27.7557 16.4746 27.6403 16.59C27.5249 16.7054 27.46 16.8619 27.46 17.0251V26.2556C27.4595 26.4115 27.5181 26.5617 27.6241 26.6761L29.2856 28.3683V30.7682H2.69173V28.3786L4.32244 26.6145C4.42842 26.5002 4.48707 26.3499 4.48653 26.194V16.9636C4.48653 16.8004 4.4217 16.6439 4.3063 16.5285C4.1909 16.4131 4.03438 16.3482 3.87117 16.3482C3.70797 16.3482 3.55145 16.4131 3.43605 16.5285C3.32064 16.6439 3.25581 16.8004 3.25581 16.9636V25.9069L1.59433 27.7119C1.48835 27.8262 1.4297 27.9765 1.43024 28.1324V31.3836C1.43024 31.5468 1.49507 31.7033 1.61047 31.8187C1.72588 31.9341 1.8824 31.9989 2.0456 31.9989H29.8497C30.0111 31.999 30.1661 31.9355 30.2812 31.8223C30.3963 31.7092 30.4624 31.5553 30.465 31.3938V28.1427C30.4656 27.9868 30.4069 27.8365 30.301 27.7222L28.6908 25.9479Z" fill="black"/>
<path d="M24.8569 28.122C25.0201 28.122 25.1766 28.0572 25.292 27.9418C25.4074 27.8264 25.4723 27.6699 25.4723 27.5067V17.025C25.4723 16.8618 25.4074 16.7053 25.292 16.5899C25.1766 16.4745 25.0201 16.4096 24.8569 16.4096H18.8366C18.6734 16.4096 18.5169 16.4745 18.4015 16.5899C18.2861 16.7053 18.2213 16.8618 18.2213 17.025V27.5067C18.2213 27.6699 18.2861 27.8264 18.4015 27.9418C18.5169 28.0572 18.6734 28.122 18.8366 28.122H24.8569ZM24.2416 17.6301V26.8605H19.452V22.8709H20.4776C20.6408 22.8709 20.7973 22.8061 20.9127 22.6907C21.0281 22.5753 21.093 22.4188 21.093 22.2556C21.093 22.0924 21.0281 21.9359 20.9127 21.8204C20.7973 21.705 20.6408 21.6402 20.4776 21.6402H19.452V17.6301H24.2416ZM15.5957 24.3273C15.7589 24.3273 15.9155 24.2625 16.0309 24.1471C16.1463 24.0317 16.2111 23.8751 16.2111 23.7119V17.025C16.2111 16.8618 16.1463 16.7053 16.0309 16.5899C15.9155 16.4745 15.7589 16.4096 15.5957 16.4096H7.09348C6.93028 16.4096 6.77376 16.4745 6.65836 16.5899C6.54295 16.7053 6.47812 16.8618 6.47812 17.025V23.7222C6.47812 23.8854 6.54295 24.0419 6.65836 24.1573C6.77376 24.2727 6.93028 24.3375 7.09348 24.3375L15.5957 24.3273ZM7.74987 17.6301H14.9291V23.0966H7.74987V17.6301Z" fill="black"/>
</svg>
