<svg width="33" height="31" viewBox="0 0 33 31" fill="none" xmlns="http://www.w3.org/2000/svg">
<path d="M32.4735 29.5853H30.8537V14.9551C30.855 14.8775 30.8409 14.8004 30.8122 14.7283C30.7834 14.6562 30.7406 14.5906 30.6862 14.5353C30.6318 14.4799 30.5669 14.4359 30.4953 14.4059C30.4237 14.3759 30.3469 14.3605 30.2693 14.3605H26.3734V4.89749C26.3747 4.81989 26.3606 4.7428 26.3318 4.67071C26.3031 4.59862 26.2603 4.53298 26.2059 4.47762C26.1515 4.42227 26.0866 4.3783 26.015 4.3483C25.9434 4.31829 25.8666 4.30284 25.789 4.30285H21.2676C21.1451 3.1224 20.5895 2.02923 19.7081 1.23453C18.8266 0.439834 17.6819 0 16.4951 0C15.3083 0 14.1637 0.439834 13.2822 1.23453C12.4008 2.02923 11.8451 3.1224 11.7226 4.30285H7.18081C7.10319 4.30284 7.02636 4.31829 6.95478 4.3483C6.8832 4.3783 6.81832 4.42227 6.76391 4.47762C6.70951 4.53298 6.66668 4.59862 6.63792 4.67071C6.60917 4.7428 6.59506 4.81989 6.59642 4.89749V14.3605H2.7005C2.62288 14.3605 2.54604 14.3759 2.47447 14.4059C2.40289 14.4359 2.33801 14.4799 2.2836 14.5353C2.2292 14.5906 2.18637 14.6562 2.15761 14.7283C2.12886 14.8004 2.11475 14.8775 2.11611 14.9551V29.5853H0.516729C0.373759 29.6042 0.242527 29.6744 0.147468 29.7829C0.0524085 29.8913 0 30.0306 0 30.1749C0 30.3191 0.0524085 30.4584 0.147468 30.5668C0.242527 30.6753 0.373759 30.7455 0.516729 30.7644H32.4838C32.6268 30.7455 32.758 30.6753 32.8531 30.5668C32.9481 30.4584 33.0005 30.3191 33.0005 30.1749C33.0005 30.0306 32.9481 29.8913 32.8531 29.7829C32.758 29.6744 32.6268 29.6042 32.4838 29.5853H32.4735ZM16.5003 1.18611C17.2368 1.1739 17.9603 1.38115 18.5787 1.78147C19.1971 2.18179 19.6823 2.75707 19.9727 3.43407C20.263 4.11107 20.3454 4.85916 20.2092 5.5831C20.073 6.30704 19.7245 6.97409 19.208 7.4993C18.6914 8.02452 18.0303 8.38415 17.3088 8.53241C16.5872 8.68068 15.8378 8.61086 15.1561 8.33185C14.4743 8.05284 13.891 7.57727 13.4804 6.96567C13.0698 6.35408 12.8505 5.63413 12.8504 4.89749C12.8463 4.41414 12.9375 3.93473 13.1188 3.48662C13.3 3.03851 13.5677 2.63049 13.9066 2.28585C14.2456 1.94122 14.6491 1.66672 15.0941 1.47802C15.5391 1.28933 16.0169 1.19014 16.5003 1.18611ZM7.75494 5.49213H11.7329C11.8554 6.67259 12.411 7.76576 13.2925 8.56045C14.1739 9.35515 15.3186 9.79499 16.5054 9.79499C17.6922 9.79499 18.8369 9.35515 19.7183 8.56045C20.5997 7.76576 21.1554 6.67259 21.2779 5.49213H25.2558V14.3605H23.5129V8.06549C23.5129 7.9105 23.4514 7.76186 23.3418 7.65227C23.2322 7.54267 23.0835 7.4811 22.9285 7.4811C22.7735 7.4811 22.6249 7.54267 22.5153 7.65227C22.4057 7.76186 22.3441 7.9105 22.3441 8.06549V14.3605H17.0847V12.1665C17.0847 12.0115 17.0231 11.8628 16.9135 11.7532C16.8039 11.6436 16.6553 11.5821 16.5003 11.5821C16.3453 11.5821 16.1966 11.6436 16.087 11.7532C15.9774 11.8628 15.9159 12.0115 15.9159 12.1665V14.3605H10.6564V8.06549C10.6564 7.9105 10.5948 7.76186 10.4852 7.65227C10.3756 7.54267 10.227 7.4811 10.072 7.4811C9.917 7.4811 9.76836 7.54267 9.65877 7.65227C9.54917 7.76186 9.4876 7.9105 9.4876 8.06549V14.3605H7.74469L7.75494 5.49213ZM15.9569 29.5751H12.8812V22.0908H15.9569V29.5751ZM20.2424 29.5751H17.1667V22.0908H20.2424V29.5751ZM26.8552 23.4236H24.9585C24.8008 23.4236 24.6496 23.4863 24.538 23.5978C24.4265 23.7093 24.3639 23.8606 24.3639 24.0183C24.3639 24.176 24.4265 24.3272 24.538 24.4387C24.6496 24.5503 24.8008 24.6129 24.9585 24.6129H26.8142V26.3558H24.9585C24.8008 26.3558 24.6496 26.4185 24.538 26.53C24.4265 26.6415 24.3639 26.7928 24.3639 26.9505C24.3639 27.1082 24.4265 27.2594 24.538 27.3709C24.6496 27.4825 24.8008 27.5451 24.9585 27.5451H26.8142V29.5956H21.3599V21.5372C21.3613 21.4596 21.3472 21.3825 21.3184 21.3104C21.2896 21.2383 21.2468 21.1727 21.1924 21.1173C21.138 21.062 21.0731 21.018 21.0016 20.988C20.93 20.958 20.8531 20.9425 20.7755 20.9425H12.2147C12.1371 20.9425 12.0603 20.958 11.9887 20.988C11.9171 21.018 11.8523 21.062 11.7979 21.1173C11.7435 21.1727 11.7006 21.2383 11.6719 21.3104C11.6431 21.3825 11.629 21.4596 11.6304 21.5372V29.6161H6.18632V27.5656H8.04201C8.19972 27.5656 8.35097 27.503 8.46249 27.3914C8.574 27.2799 8.63665 27.1287 8.63665 26.971C8.63665 26.8133 8.574 26.662 8.46249 26.5505C8.35097 26.439 8.19972 26.3763 8.04201 26.3763H6.18632V24.6129H8.04201C8.19972 24.6129 8.35097 24.5503 8.46249 24.4387C8.574 24.3272 8.63665 24.176 8.63665 24.0183C8.63665 23.8606 8.574 23.7093 8.46249 23.5978C8.35097 23.4863 8.19972 23.4236 8.04201 23.4236H6.18632V18.4615H26.8142L26.8552 23.4236ZM29.7567 29.5751H28.0137V17.9078C28.0151 17.8302 28.001 17.7531 27.9722 17.681C27.9435 17.6089 27.9006 17.5433 27.8462 17.488C27.7918 17.4326 27.727 17.3886 27.6554 17.3586C27.5838 17.3286 27.507 17.3132 27.4293 17.3132H5.60193C5.52432 17.3132 5.44748 17.3286 5.3759 17.3586C5.30433 17.3886 5.23944 17.4326 5.18504 17.488C5.13064 17.5433 5.08781 17.6089 5.05905 17.681C5.03029 17.7531 5.01618 17.8302 5.01754 17.9078V29.5853H3.28488V15.5395H29.7156L29.7567 29.5751Z" fill="black"/>
<path d="M14.8701 5.49218H15.8954V6.51742C15.8954 6.67241 15.9569 6.82105 16.0665 6.93064C16.1761 7.04024 16.3248 7.10181 16.4798 7.10181C16.6347 7.10181 16.7834 7.04024 16.893 6.93064C17.0026 6.82105 17.0641 6.67241 17.0641 6.51742V5.49218H18.0894C18.2471 5.49218 18.3983 5.42953 18.5099 5.31801C18.6214 5.20649 18.684 5.05525 18.684 4.89754C18.684 4.73983 18.6214 4.58858 18.5099 4.47706C18.3983 4.36555 18.2471 4.3029 18.0894 4.3029H17.0641V3.27765C17.0641 3.12266 17.0026 2.97402 16.893 2.86443C16.7834 2.75483 16.6347 2.69326 16.4798 2.69326C16.3248 2.69326 16.1761 2.75483 16.0665 2.86443C15.9569 2.97402 15.8954 3.12266 15.8954 3.27765V4.3029H14.8701C14.7272 4.32179 14.5959 4.392 14.5009 4.50045C14.4058 4.6089 14.3534 4.7482 14.3534 4.89241C14.3534 5.03662 14.4058 5.17592 14.5009 5.28437C14.5959 5.39282 14.7272 5.46303 14.8701 5.48193V5.49218Z" fill="black"/>
</svg>
