<svg width="65" height="35" viewBox="0 0 65 35" fill="none" xmlns="http://www.w3.org/2000/svg">
<path d="M25.1617 0.470189C25.2459 0.436852 24.2247 0.391232 23.9878 0.487735C18.5626 2.74765 13.6024 5.99717 9.70191 10.3661C7.53849 12.7892 2.86951 19.6742 2.71862 19.8971C3.77137 14.6929 6.44362 8.02548 8.88076 2.87749C9.54988 2.18305 9.94074 1.26709 9.97914 0.303502C9.97914 0.18419 8.48948 -0.103564 8.42632 0.0385583C8.04733 0.891292 7.68412 1.75455 7.3297 2.6108C6.68751 3.31263 5.82776 3.83901 4.93643 4.30749C3.83805 4.88475 1.66586 5.61466 1.92028 7.20608C1.9501 7.39733 3.30114 7.557 3.47134 7.47103C4.15354 7.07426 4.75813 6.55705 5.25576 5.94453C5.19435 6.01471 4.77325 5.82873 4.37846 5.70766C5.03995 5.21813 5.91198 4.87247 6.48398 4.57243L6.55241 4.53734C2.90285 12.433 1.25879 18.6548 0.00776555 25.5767C-0.0957556 26.3856 0.869272 27.3155 0.907873 27.1734C1.13039 26.3361 1.39627 25.5109 1.70446 24.7012C2.79056 21.8394 5.06451 17.5722 10.609 10.8978C14.4411 6.29369 19.6171 2.77924 25.1617 0.470189ZM26.4671 19.7707C26.8302 19.6314 27.1726 19.4431 27.4847 19.211L27.2689 19.104C26.9654 18.9022 26.4285 18.4987 26.2004 18.5776C25.8835 18.7003 25.5875 18.8713 25.3231 19.0847C23.3509 19.9111 21.749 18.5934 19.7487 19.0847C19.3399 19.1865 18.1906 19.769 18.4538 20.3024C18.717 20.8358 19.7943 21.0744 20.4137 21.0148C20.4997 21.0148 20.0733 20.7217 20.0277 20.6989C19.9558 20.6586 19.868 20.6024 19.775 20.548C19.9154 20.2884 20.2488 20.0866 20.4769 19.9462C21.2489 19.4847 22.1069 19.6356 22.7982 19.7392C23.2878 19.8111 23.6211 19.8936 24.1159 19.9515C23.3392 20.6498 22.6072 21.3964 21.9244 22.1868C20.7857 23.5045 19.8435 25.0538 20.9822 26.1031C22.0104 27.0506 23.6422 27.1558 25.2266 26.7277C25.7477 26.588 26.256 26.4042 26.7461 26.1785C27.676 25.7767 27.1514 25.5013 26.6811 24.8696C26.3302 25.0451 25.6021 25.4276 25.2564 25.5592C24.5077 25.8466 23.7358 26.0697 22.9491 26.2259C22.1701 26.3786 21.9911 26.1013 21.9525 25.9627C21.6016 24.6731 22.9631 23.2641 23.9352 22.2061C24.6019 21.4797 25.5301 20.441 26.4671 19.769V19.7707ZM15.6237 18.818C14.6452 18.4672 13.6118 18.2943 12.5724 18.3074C9.7756 18.3074 7.58411 19.4023 6.08042 20.9709C4.65218 22.4588 4.10826 24.1151 4.30302 25.7925C4.42408 26.8453 6.16464 26.9839 6.16464 26.9839C5.18382 25.8627 5.48386 24.4976 6.09621 23.015C6.79805 21.3218 8.1912 20.3164 9.38784 19.8076C10.3793 19.3445 11.4625 19.1112 12.5566 19.1251C14.22 19.1251 15.4763 19.5619 16.0957 20.3533C16.5799 20.9762 16.6922 21.8219 16.4273 22.8641C16.2167 23.6993 15.757 24.5555 14.9797 25.5627C14.887 25.6867 14.7856 25.804 14.6762 25.9136C14.6384 25.9279 14.5968 25.9288 14.5584 25.916C14.52 25.9032 14.4873 25.8776 14.4656 25.8434C14.0077 25.1731 13.7901 24.2029 13.8024 22.8781C13.8009 22.2483 13.8443 21.6191 13.9322 20.9955V20.9569C13.9336 20.9416 13.9319 20.9263 13.927 20.9118C13.9222 20.8973 13.9144 20.884 13.9042 20.8726C13.8708 20.8323 13.8024 20.7972 13.5392 20.7972C13.2092 20.8036 12.8809 20.846 12.5601 20.9235C12.4128 20.913 12.2654 20.9077 12.1162 20.9077C10.6441 20.9077 9.18957 21.4341 8.22805 22.3114C7.41743 23.0536 6.98229 23.8291 6.89456 24.6854C6.79981 25.6083 7.42093 26.7505 8.44737 26.9172C8.66037 26.9509 8.87567 26.9679 9.09131 26.9681C10.5494 26.9681 11.9232 26.2101 12.7093 25.5399C12.7836 25.7285 12.8716 25.9114 12.9725 26.0873C13.2181 26.5084 13.5655 26.7418 14.2428 26.7418C14.8593 26.737 15.464 26.5719 15.9974 26.2628C16.6834 25.8223 17.3204 25.0012 17.7046 24.066C18.1819 22.8992 18.2152 21.8289 17.8029 20.8814C17.3652 19.9416 16.586 19.2038 15.6237 18.818ZM11.8987 23.9291C11.4811 24.9451 10.6862 25.7364 9.46504 26.347C9.43521 26.3259 9.40714 26.3049 9.37731 26.2803C9.10003 26.0341 8.89757 25.7149 8.79303 25.3591C8.55967 24.7222 8.76145 24.0485 8.96849 23.5958C9.20536 23.0817 9.81947 22.1377 11.2495 21.578C11.5881 21.4448 11.9511 21.385 12.3145 21.4025H12.3654C12.3408 22.0535 12.125 23.3764 11.8987 23.9291ZM61.7696 0.403514C60.2834 1.08605 59.2219 2.9547 58.5183 4.311C56.6461 7.92722 55.4776 11.868 54.2318 15.7317C53.8809 15.7457 53.544 15.751 53.2019 15.7422C52.8597 15.7334 52.2614 16.2686 51.9964 16.4581C51.9438 16.5019 51.2841 17.0195 51.4174 17.0195C52.2336 17.0422 53.0503 17 53.8598 16.8932C52.8702 19.9374 51.8999 22.8887 50.8139 25.9188C50.7735 26.0276 50.8577 26.3049 51.3174 26.5435C51.5683 26.6751 51.8245 26.8137 51.9754 26.8944C53.179 23.5221 54.2108 20.0743 55.2881 16.6423C55.7916 16.5318 56.2882 16.4002 56.776 16.244C57.2076 16.1054 57.6164 15.7896 57.9814 15.5281C58.0656 15.4685 58.6411 14.9439 58.5621 14.9702C57.6009 15.2753 56.6135 15.4915 55.6127 15.6159C56.5479 12.6752 57.5322 9.75376 58.706 6.90956C59.5184 4.93915 60.336 3.20736 61.752 1.7914C62.0573 1.4861 62.7662 1.19308 63.1838 1.06851C63.2317 1.05331 63.2811 1.04331 63.3311 1.03868C63.6119 1.40539 63.8575 1.91598 63.4294 2.14232C63.5487 2.08091 64.4576 3.2214 64.7699 3.05822C65.7104 2.57395 63.5803 -0.429919 61.7696 0.403514ZM63.4662 1.05271C63.5154 1.06324 63.5171 1.07728 63.4662 1.05271V1.05271ZM52.3895 14.9719C51.4275 15.2764 50.4396 15.4919 49.4382 15.6159C50.3734 12.6752 51.3578 9.75376 52.5316 6.90956C53.3422 4.93915 54.1599 3.20736 55.5758 1.7914C55.8811 1.4861 56.59 1.19308 57.0093 1.06851C57.0572 1.05302 57.1066 1.04302 57.1567 1.03868C57.4375 1.40539 57.6831 1.91598 57.2532 2.14232C57.3725 2.08091 58.2832 3.2214 58.5937 3.05822C59.5359 2.57044 57.4059 -0.433428 55.5969 0.400005C54.1107 1.08254 53.0492 2.95119 52.3474 4.30749C50.4752 7.92722 49.3119 11.868 48.0609 15.7317C47.71 15.7457 47.3731 15.751 47.0309 15.7422C46.6888 15.7334 46.0887 16.2686 45.8255 16.4581C45.7624 16.5019 45.1079 17.0143 45.2448 17.016C46.0604 17.0387 46.8765 16.9965 47.6854 16.8897C46.6976 19.9339 45.7255 22.8852 44.6412 25.9153C44.6008 26.0241 44.685 26.3014 45.143 26.54C45.3957 26.6716 45.6518 26.8102 45.8027 26.8909C47.0064 23.5186 48.0381 20.0708 49.1154 16.6388C49.619 16.5283 50.1155 16.3967 50.6015 16.2405C51.0349 16.1019 51.442 15.7861 51.807 15.5246C51.8912 15.4702 52.4702 14.9456 52.3895 14.9719ZM57.2901 1.05271C57.3392 1.06324 57.3427 1.07728 57.2901 1.05271V1.05271ZM34.0346 18.5688C32.9293 18.3794 31.966 19.3725 31.2448 20.3656C31.2951 20.0392 31.3484 19.7199 31.4045 19.4075C31.4361 19.2321 31.0062 18.8654 30.9062 18.7601C30.8729 18.7215 30.2939 18.2127 30.2921 18.2232C29.9043 20.3603 29.7394 22.9238 28.5603 24.8433C28.3127 25.2254 28.0308 25.5843 27.7181 25.9153C27.6198 26.0189 28.5638 27.0558 28.6358 26.9821C28.8974 26.7238 29.1325 26.4398 29.3376 26.1347C30.8009 24.0941 31.5028 21.3973 33.689 19.9638C34.1434 19.6672 34.9348 19.4725 35.3594 19.8076C35.3861 19.9577 35.4008 20.1096 35.4032 20.262C35.4014 20.6535 35.3501 21.0432 35.2506 21.4218C34.9979 22.5606 34.4751 23.6045 34.0417 24.6766C33.8744 25.0816 33.7286 25.4951 33.6048 25.9153C33.5048 26.2663 34.6242 26.8453 34.7628 26.9453C34.9323 26.3745 35.1374 25.8148 35.3769 25.2697C35.8331 24.1906 36.3209 23.1519 36.4876 21.9236C36.6788 20.4936 35.4822 18.8162 34.0346 18.5688ZM42.0058 18.6636C40.8197 18.3127 39.0861 19.9673 38.7194 20.4428C37.8018 21.6341 36.4876 24.0239 37.5877 25.4609C38.2018 26.2628 39.0177 26.9611 40.0564 26.9769C41.811 27.0014 43.1796 25.4784 43.9165 24.0327C44.5815 22.7307 44.5728 20.7182 43.5937 19.597C43.1631 19.1423 42.6126 18.8186 42.0058 18.6636ZM42.4164 24.0888C40.7705 26.2733 38.7107 25.8767 38.4299 25.8259C38.4291 25.823 38.4291 25.82 38.4299 25.8171C38.1141 24.5362 38.744 22.8729 39.4914 21.9008C41.4689 19.3303 42.7374 19.6409 42.8006 19.6514C42.9041 19.8725 43.9183 22.0938 42.4164 24.0888Z" fill="white"/>
<path d="M38.6374 32.4057C38.6374 32.9602 38.5075 33.3901 38.2531 33.6813C38.1078 33.8349 37.9304 33.9546 37.7336 34.0319C37.5368 34.1093 37.3254 34.1423 37.1144 34.1287C36.7284 34.1287 36.4459 34.0217 36.2757 33.8112C36.1055 33.6006 36.0283 33.2602 36.0283 32.7584V29.9809H35.4756V32.9233C35.4695 33.1617 35.4847 33.4001 35.5212 33.6357C35.5464 33.7638 35.5945 33.8862 35.6633 33.9972C35.7864 34.1883 35.9635 34.3386 36.1722 34.4288C36.4391 34.5377 36.7256 34.5906 37.0138 34.5843C37.3021 34.5779 37.5859 34.5125 37.8478 34.3919C38.0943 34.26 38.2991 34.0619 38.4391 33.8199L38.6742 33.4322V34.4656H39.1831V29.9809H38.6374V32.4057ZM33.6315 28.6579H33.0876V29.9809H32.3858V30.3546H33.0876V33.6603C33.0876 33.9919 33.149 34.22 33.2736 34.3393C33.3982 34.4586 33.635 34.5148 33.9754 34.5148C34.0639 34.5141 34.1524 34.5089 34.2404 34.499C34.3158 34.4902 34.3965 34.4779 34.486 34.4639V34.0393H34.3579C34.2895 34.0393 34.2298 34.0393 34.1825 34.0393C34.1043 34.0475 34.0252 34.0384 33.9509 34.0127C33.8766 33.9869 33.8089 33.945 33.7526 33.8901C33.6552 33.74 33.6124 33.561 33.6315 33.383V30.3546H34.486V29.9739H33.6315V28.6579ZM30.4066 31.9337L29.6381 31.7583C29.4089 31.7219 29.1908 31.635 28.9994 31.5039C28.9331 31.4483 28.8804 31.3783 28.8454 31.2992C28.8104 31.2202 28.7941 31.1341 28.7976 31.0477C28.7922 30.9303 28.8175 30.8135 28.8711 30.7089C28.9246 30.6042 29.0045 30.5154 29.1029 30.4511C29.3457 30.3104 29.6246 30.2444 29.9048 30.2616C30.2011 30.247 30.4944 30.3276 30.7417 30.4915C30.8344 30.5565 30.9131 30.6393 30.9734 30.7351C31.0336 30.8309 31.0742 30.9378 31.0926 31.0494H31.619C31.6117 30.8836 31.5678 30.7215 31.4904 30.5747C31.4131 30.4279 31.3042 30.3 31.1716 30.2002C30.8029 29.9383 30.3563 29.809 29.9048 29.8335C29.4676 29.8099 29.0352 29.9334 28.6765 30.1844C28.5379 30.2883 28.4266 30.4244 28.3523 30.5809C28.278 30.7374 28.2429 30.9097 28.2502 31.0828C28.2397 31.2206 28.257 31.3592 28.301 31.4903C28.345 31.6214 28.4148 31.7424 28.5063 31.846C28.6818 32.0215 29.0169 32.1776 29.4924 32.2917L30.3838 32.5215C30.6131 32.5589 30.83 32.6517 31.0154 32.7917C31.0794 32.8563 31.1291 32.9335 31.1615 33.0184C31.1938 33.1033 31.208 33.1941 31.2032 33.2848C31.2062 33.4151 31.1755 33.5441 31.114 33.659C31.0525 33.774 30.9623 33.8712 30.8522 33.941C30.5882 34.1 30.2828 34.177 29.9749 34.1621C29.6396 34.1815 29.3079 34.0842 29.0362 33.8866C28.8263 33.7085 28.691 33.458 28.6572 33.1848H28.1309C28.1324 33.3786 28.1736 33.5701 28.2517 33.7475C28.3298 33.9249 28.4434 34.0845 28.5853 34.2165C28.8853 34.4832 29.3292 34.6183 29.9012 34.6183C30.4732 34.6183 30.954 34.4902 31.2751 34.2358C31.4333 34.1116 31.559 33.951 31.6415 33.7677C31.724 33.5843 31.7608 33.3837 31.7488 33.183C31.7591 33.042 31.7402 32.9004 31.6934 32.767C31.6466 32.6336 31.5729 32.5112 31.4769 32.4075C31.2909 32.2215 30.9294 32.0653 30.4066 31.9337ZM46.0225 28.8509H46.5664V28.1947H46.0225V28.8509ZM46.0225 34.4656H46.5664V29.9809H46.0225V34.4656ZM44.01 30.809L43.7836 30.5108C43.6229 30.2953 43.4129 30.1214 43.1713 30.0037C42.9137 29.8839 42.6324 29.8239 42.3484 29.8282C42.0789 29.8173 41.8107 29.8699 41.5653 29.9817C41.32 30.0936 41.1044 30.2616 40.9359 30.4722C40.585 30.9038 40.399 31.5004 40.399 32.2426C40.399 32.9847 40.5745 33.555 40.9341 33.9814C41.1043 34.1897 41.3208 34.3555 41.5663 34.4654C41.8118 34.5754 42.0796 34.6265 42.3484 34.6148C42.6226 34.6169 42.8937 34.5569 43.1414 34.4393C43.3933 34.3135 43.6143 34.1338 43.7889 33.9129L44.0135 33.641V34.4639H44.5398V28.2H44.0135L44.01 30.809ZM43.6432 33.6287C43.5102 33.8011 43.3376 33.939 43.14 34.0306C42.9424 34.1222 42.7256 34.1649 42.508 34.1551C42.2921 34.1639 42.0772 34.1224 41.8801 34.0338C41.6831 33.9452 41.5094 33.8119 41.3728 33.6445C41.0854 33.2539 40.9416 32.776 40.9657 32.2917C40.9657 31.6688 41.0991 31.1758 41.3588 30.8301C41.4907 30.6543 41.6635 30.5134 41.8623 30.4195C42.061 30.3256 42.2797 30.2817 42.4992 30.2914C42.7166 30.2777 42.9341 30.3151 43.1343 30.4008C43.3345 30.4864 43.5119 30.6178 43.652 30.7845C43.9064 31.1038 44.0363 31.5758 44.0363 32.1882C44.0363 32.8005 43.9099 33.2883 43.6503 33.6287H43.6432ZM51.5144 30.4458C51.1424 30.0335 50.609 29.8247 49.9352 29.8247C49.2615 29.8247 48.7281 30.0353 48.3561 30.4476C47.9841 30.8599 47.7929 31.46 47.7929 32.2162C47.7929 32.9725 47.9824 33.576 48.3578 33.9919C48.7333 34.4077 49.2615 34.6113 49.937 34.6113C50.6125 34.6113 51.1441 34.4025 51.5161 33.9901C51.8881 33.5778 52.0776 32.9777 52.0776 32.2162C52.0776 31.4547 51.8951 30.8599 51.5214 30.4458H51.5144ZM51.1073 33.6427C50.9668 33.8144 50.7877 33.9503 50.5846 34.0393C50.3815 34.1284 50.1601 34.1681 49.9387 34.1551C49.7159 34.1672 49.4933 34.1272 49.2886 34.0383C49.0839 33.9494 48.9028 33.8139 48.7596 33.6427C48.4894 33.3094 48.3543 32.8303 48.3543 32.2162C48.3543 31.6021 48.4894 31.1249 48.7579 30.7933C48.9012 30.6217 49.0825 30.4861 49.2876 30.3971C49.4926 30.3081 49.7156 30.2684 49.9387 30.2809C50.1604 30.2683 50.382 30.3085 50.5851 30.3982C50.7882 30.4879 50.9672 30.6245 51.1073 30.7968C51.3722 31.1284 51.5056 31.6074 51.5056 32.2162C51.5056 32.8251 51.3793 33.3094 51.1143 33.6427H51.1073Z" fill="white"/>
</svg>
