<svg width="27" height="30" viewBox="0 0 27 30" fill="none" xmlns="http://www.w3.org/2000/svg">
<path d="M10.6269 10.859L9.96079 10.3342C9.75589 10.2028 9.57964 10.0314 9.44264 9.83025C9.30563 9.62908 9.21069 9.4023 9.16352 9.16352V1.35233C9.16352 0.993667 9.02104 0.649698 8.76743 0.396087C8.51382 0.142477 8.16986 0 7.8112 0H5.20746C4.8488 0 4.50484 0.142477 4.25122 0.396087C3.99761 0.649698 3.85514 0.993667 3.85514 1.35233V9.18371C3.80692 9.42471 3.71057 9.65351 3.57184 9.8564C3.43311 10.0593 3.25487 10.2321 3.04778 10.3645L2.62392 10.6773L2.3918 10.859C0.999106 11.9489 0 12.6957 0 15.6729V27.1979C0 27.9286 0.29027 28.6294 0.806953 29.1461C1.32364 29.6627 2.02441 29.953 2.75511 29.953H10.3039C11.0346 29.953 11.7354 29.6627 12.2521 29.1461C12.7688 28.6294 13.059 27.9286 13.059 27.1979V15.6729C13.0288 12.6957 12.0196 11.9489 10.6269 10.859ZM8.02313 2.78539H4.99553V1.35233C4.99797 1.30494 5.01789 1.26013 5.05144 1.22658C5.085 1.19303 5.1298 1.17311 5.17719 1.17067H7.8011C7.84849 1.17311 7.8933 1.19303 7.92685 1.22658C7.9604 1.26013 7.98032 1.30494 7.98276 1.35233L8.02313 2.78539ZM4.99553 9.18371V3.93587H7.97267V9.18371C8.01523 9.59043 8.1478 9.98257 8.36077 10.3317C8.57373 10.6808 8.86173 10.9781 9.20389 11.2021C9.20389 11.2021 9.67821 11.5553 9.86996 11.7269C11.192 12.7361 11.7975 13.2205 11.7975 15.6123V27.2282C11.7975 27.6484 11.6306 28.0514 11.3335 28.3485C11.0363 28.6457 10.6333 28.8126 10.2131 28.8126H2.74502C2.3248 28.8126 1.92179 28.6457 1.62465 28.3485C1.32751 28.0514 1.16058 27.6484 1.16058 27.2282V15.6729C1.16058 13.271 1.7661 12.8067 3.09824 11.7773L3.76431 11.2526C4.11835 11.0267 4.41607 10.7228 4.63471 10.3643C4.85335 10.0057 4.98712 9.60189 5.02581 9.18371H4.99553Z" fill="black"/>
<path d="M3.04731 15.8647V23.464C3.04731 23.6165 3.10791 23.7629 3.21579 23.8707C3.32367 23.9786 3.46999 24.0392 3.62255 24.0392H9.39516C9.47071 24.0392 9.54551 24.0243 9.6153 23.9954C9.68509 23.9665 9.74851 23.9241 9.80192 23.8707C9.85534 23.8173 9.89771 23.7539 9.92662 23.6841C9.95553 23.6143 9.97041 23.5395 9.97041 23.464V15.8647C9.97178 15.7888 9.95783 15.7134 9.92941 15.643C9.90098 15.5726 9.85866 15.5086 9.80497 15.4549C9.75128 15.4012 9.68732 15.3589 9.61691 15.3305C9.5465 15.302 9.47108 15.2881 9.39516 15.2895H3.62255C3.46999 15.2895 3.32367 15.3501 3.21579 15.4579C3.10791 15.5658 3.04731 15.7121 3.04731 15.8647ZM4.21798 22.8685V16.44H8.81992V22.8685H4.21798ZM26.9956 16.2179C26.8639 13.8245 26.4575 11.4542 25.7845 9.15354C25.7562 9.0237 25.683 8.90801 25.5778 8.8268C25.4726 8.74559 25.3421 8.70405 25.2093 8.70949H16.6917C16.5641 8.7143 16.4412 8.75865 16.3399 8.83639C16.2387 8.91414 16.1641 9.02144 16.1265 9.14345C15.4526 11.4439 15.0462 13.8143 14.9155 16.2078C14.8577 17.7383 15.3899 19.2326 16.4022 20.382C17.4145 21.5314 18.8295 22.2481 20.3551 22.3841V28.7724H17.9229C17.7703 28.7724 17.624 28.833 17.5161 28.9408C17.4083 29.0487 17.3476 29.195 17.3476 29.3476C17.3476 29.5002 17.4083 29.6465 17.5161 29.7544C17.624 29.8622 17.7703 29.9228 17.9229 29.9228H23.9781C24.1306 29.9228 24.277 29.8622 24.3848 29.7544C24.4927 29.6465 24.5533 29.5002 24.5533 29.3476C24.5533 29.195 24.4927 29.0487 24.3848 28.9408C24.277 28.833 24.1306 28.7724 23.9781 28.7724H21.5661V22.3942C23.0889 22.2534 24.5 21.5349 25.5097 20.3863C26.5194 19.2378 27.0511 17.7462 26.9956 16.2179ZM22.7065 12.716C22.7065 12.5634 22.6459 12.4171 22.538 12.3093C22.4301 12.2014 22.2838 12.1408 22.1312 12.1408H16.6109C16.7825 11.3536 16.9642 10.5361 17.1458 9.88016H24.7653C25.3507 11.9558 25.6895 14.0932 25.7745 16.2482C25.8044 16.9063 25.7007 17.5637 25.4695 18.1806C25.2383 18.7974 24.8845 19.3611 24.4293 19.8374C23.9742 20.3137 23.4273 20.6928 22.8215 20.9518C22.2158 21.2108 21.5639 21.3444 20.9051 21.3444C20.2463 21.3444 19.5943 21.2108 18.9886 20.9518C18.3829 20.6928 17.8359 20.3137 17.3808 19.8374C16.9257 19.3611 16.5719 18.7974 16.3407 18.1806C16.1095 17.5637 16.0057 16.9063 16.0357 16.2482C16.0596 15.2667 16.1574 14.2883 16.3284 13.3215H22.0909C22.1724 13.3274 22.2542 13.3158 22.3308 13.2876C22.4075 13.2594 22.4773 13.2152 22.5355 13.1579C22.5938 13.1006 22.6391 13.0315 22.6686 12.9554C22.6981 12.8792 22.711 12.7976 22.7065 12.716Z" fill="black"/>
</svg>
