<svg width="710" height="676" viewBox="0 0 710 676" fill="none" xmlns="http://www.w3.org/2000/svg">
<path d="M34.5595 275.4L0.800271 294.836" stroke="#434447" stroke-miterlimit="10"/>
<path d="M233.572 160.817L214.572 171.754" stroke="#434447" stroke-miterlimit="10"/>
<path d="M35.0606 295.926L0.79196 314.491" stroke="#434447" stroke-miterlimit="10"/>
<path d="M191.339 211.268L176.219 219.461" stroke="#434447" stroke-miterlimit="10"/>
<path d="M233.571 188.39L214.642 198.645" stroke="#434447" stroke-miterlimit="10"/>
<path d="M34.6766 316.937L0.784138 334.139" stroke="#434447" stroke-miterlimit="10"/>
<path d="M192.053 237.046L176.18 245.106" stroke="#434447" stroke-miterlimit="10"/>
<path d="M233.571 215.964L214.18 225.812" stroke="#434447" stroke-miterlimit="10"/>
<path d="M35.0528 337.557L0.776316 353.786" stroke="#434447" stroke-miterlimit="10"/>
<path d="M191.825 263.311L176.235 270.696" stroke="#434447" stroke-miterlimit="10"/>
<path d="M233.572 243.546L214.352 252.64" stroke="#434447" stroke-miterlimit="10"/>
<path d="M34.6688 358.537L0.768495 373.441" stroke="#434447" stroke-miterlimit="10"/>
<path d="M191.504 289.607L176.235 296.318" stroke="#434447" stroke-miterlimit="10"/>
<path d="M233.571 271.119L214.736 279.399" stroke="#434447" stroke-miterlimit="10"/>
<path d="M34.4101 379.447L0.760673 393.088" stroke="#434447" stroke-miterlimit="10"/>
<path d="M191.394 315.8L176.196 321.963" stroke="#434447" stroke-miterlimit="10"/>
<path d="M233.572 298.693L214.854 306.283" stroke="#434447" stroke-miterlimit="10"/>
<path d="M34.5669 400.184L0.752851 412.736" stroke="#434447" stroke-miterlimit="10"/>
<path d="M191.872 341.759L176.125 347.608" stroke="#434447" stroke-miterlimit="10"/>
<path d="M233.572 326.275L215.497 332.986" stroke="#434447" stroke-miterlimit="10"/>
<path d="M34.708 420.929L0.745029 432.391" stroke="#434447" stroke-miterlimit="10"/>
<path d="M191.629 368L176.376 373.143" stroke="#434447" stroke-miterlimit="10"/>
<path d="M233.572 353.849L215.771 359.854" stroke="#434447" stroke-miterlimit="10"/>
<path d="M34.371 441.838L0.745029 452.038" stroke="#434447" stroke-miterlimit="10"/>
<path d="M192.233 393.959L176.282 398.796" stroke="#434447" stroke-miterlimit="10"/>
<path d="M233.572 381.422L215.497 386.903" stroke="#434447" stroke-miterlimit="10"/>
<path d="M34.9667 462.474L0.737207 471.686" stroke="#434447" stroke-miterlimit="10"/>
<path d="M191.935 420.208L176.156 424.457" stroke="#434447" stroke-miterlimit="10"/>
<path d="M233.571 408.996L215.598 413.841" stroke="#434447" stroke-miterlimit="10"/>
<path d="M34.7786 483.328L0.729385 491.333" stroke="#434447" stroke-miterlimit="10"/>
<path d="M192.248 446.292L176.313 450.039" stroke="#434447" stroke-miterlimit="10"/>
<path d="M233.571 436.578L216.766 440.529" stroke="#434447" stroke-miterlimit="10"/>
<path d="M34.8413 504.12L0.721564 510.988" stroke="#434447" stroke-miterlimit="10"/>
<path d="M191.958 472.525L176.313 475.669" stroke="#434447" stroke-miterlimit="10"/>
<path d="M233.571 464.151L216.382 467.609" stroke="#434447" stroke-miterlimit="10"/>
<path d="M35.2646 524.865L0.713742 530.636" stroke="#434447" stroke-miterlimit="10"/>
<path d="M191.99 498.679L175.874 501.369" stroke="#434447" stroke-miterlimit="10"/>
<path d="M233.571 491.725L216.805 494.532" stroke="#434447" stroke-miterlimit="10"/>
<path d="M35.1314 545.704L0.70592 550.283" stroke="#434447" stroke-miterlimit="10"/>
<path d="M192.899 524.717L175.506 527.029" stroke="#434447" stroke-miterlimit="10"/>
<path d="M233.571 519.307L216.366 521.596" stroke="#434447" stroke-miterlimit="10"/>
<path d="M10.927 568.927L0.698098 569.938" stroke="#434447" stroke-miterlimit="10"/>
<path d="M10.8094 588.927L0.690276 589.586" stroke="#434447" stroke-miterlimit="10"/>
<path d="M192.577 577.12L186.667 577.504" stroke="#434447" stroke-miterlimit="10"/>
<path d="M233.572 574.454L216.876 575.544" stroke="#434447" stroke-miterlimit="10"/>
<path d="M10.4881 608.935L0.682454 609.233" stroke="#434447" stroke-miterlimit="10"/>
<path d="M192.499 603.306L187.02 603.471" stroke="#434447" stroke-miterlimit="10"/>
<path d="M233.571 602.036L217.048 602.545" stroke="#434447" stroke-miterlimit="10"/>
<path d="M34.6927 253.417L0.800271 274.256" stroke="#434447" stroke-miterlimit="10"/>
<path d="M190.853 157.391L176.431 166.266" stroke="#434447" stroke-miterlimit="10"/>
<path d="M233.572 131.126L214.305 142.973" stroke="#434447" stroke-miterlimit="10"/>
<path d="M34.7001 230.437L0.79196 252.397" stroke="#434447" stroke-miterlimit="10"/>
<path d="M191.276 129.001L176.156 138.794" stroke="#434447" stroke-miterlimit="10"/>
<path d="M233.572 101.6L213.929 114.325" stroke="#434447" stroke-miterlimit="10"/>
<path d="M34.606 207.52L0.784138 230.539" stroke="#434447" stroke-miterlimit="10"/>
<path d="M191.473 100.738L175.961 111.291" stroke="#434447" stroke-miterlimit="10"/>
<path d="M233.571 72.0745L214.046 85.3713" stroke="#434447" stroke-miterlimit="10"/>
<path d="M191.496 72.576L0.776316 208.689" stroke="#434447" stroke-miterlimit="10"/>
<path d="M233.571 42.5564L213.741 56.7078" stroke="#434447" stroke-miterlimit="10"/>
<path d="M233.572 160.817L340.861 183.53" stroke="#434447" stroke-miterlimit="10"/>
<path d="M233.572 188.39L340.861 209.723" stroke="#434447" stroke-miterlimit="10"/>
<path d="M233.572 215.964L340.861 235.91" stroke="#434447" stroke-miterlimit="10"/>
<path d="M233.572 243.546L340.861 262.103" stroke="#434447" stroke-miterlimit="10"/>
<path d="M233.572 271.119L340.861 288.297" stroke="#434447" stroke-miterlimit="10"/>
<path d="M233.572 298.693L340.861 314.491" stroke="#434447" stroke-miterlimit="10"/>
<path d="M233.572 326.275L340.861 340.685" stroke="#434447" stroke-miterlimit="10"/>
<path d="M233.572 353.849L340.861 366.879" stroke="#434447" stroke-miterlimit="10"/>
<path d="M233.572 381.422L340.861 393.073" stroke="#434447" stroke-miterlimit="10"/>
<path d="M233.572 408.996L340.861 419.267" stroke="#434447" stroke-miterlimit="10"/>
<path d="M233.572 436.578L340.861 445.461" stroke="#434447" stroke-miterlimit="10"/>
<path d="M233.572 464.151L340.861 471.654" stroke="#434447" stroke-miterlimit="10"/>
<path d="M233.572 491.725L340.861 497.848" stroke="#434447" stroke-miterlimit="10"/>
<path d="M233.572 519.307L340.861 524.042" stroke="#434447" stroke-miterlimit="10"/>
<path d="M233.572 574.454L340.861 576.43" stroke="#434447" stroke-miterlimit="10"/>
<path d="M233.572 602.036L340.861 602.624" stroke="#434447" stroke-miterlimit="10"/>
<path d="M357.353 201.789L340.861 209.723" stroke="#434447" stroke-miterlimit="10"/>
<path d="M408.607 177.132L384.559 188.696" stroke="#434447" stroke-miterlimit="10"/>
<path d="M357.071 228.603L340.861 235.91" stroke="#434447" stroke-miterlimit="10"/>
<path d="M408.63 205.365L384.175 216.388" stroke="#434447" stroke-miterlimit="10"/>
<path d="M357.658 255.047L340.861 262.103" stroke="#434447" stroke-miterlimit="10"/>
<path d="M358.058 254.875L357.658 255.047" stroke="#434447" stroke-miterlimit="10"/>
<path d="M384.88 243.601L384.41 243.797" stroke="#434447" stroke-miterlimit="10"/>
<path d="M408.654 233.605L384.88 243.601" stroke="#434447" stroke-miterlimit="10"/>
<path d="M357.408 281.845L340.861 288.297" stroke="#434447" stroke-miterlimit="10"/>
<path d="M408.685 261.845L385.029 271.073" stroke="#434447" stroke-miterlimit="10"/>
<path d="M357.533 308.494L340.861 314.491" stroke="#434447" stroke-miterlimit="10"/>
<path d="M408.708 290.085L384.677 298.733" stroke="#434447" stroke-miterlimit="10"/>
<path d="M357.415 335.236L340.861 340.685" stroke="#434447" stroke-miterlimit="10"/>
<path d="M408.732 318.325L384.59 326.275" stroke="#434447" stroke-miterlimit="10"/>
<path d="M358.042 361.736L340.861 366.879" stroke="#434447" stroke-miterlimit="10"/>
<path d="M408.756 346.565L384.645 353.778" stroke="#434447" stroke-miterlimit="10"/>
<path d="M357.47 388.604L340.861 393.073" stroke="#434447" stroke-miterlimit="10"/>
<path d="M408.787 374.805L384.238 381.407" stroke="#434447" stroke-miterlimit="10"/>
<path d="M357.839 415.213L340.861 419.267" stroke="#434447" stroke-miterlimit="10"/>
<path d="M408.81 403.045L384.214 408.918" stroke="#434447" stroke-miterlimit="10"/>
<path d="M357.055 442.081L340.861 445.46" stroke="#434447" stroke-miterlimit="10"/>
<path d="M408.834 431.278L384.347 436.389" stroke="#434447" stroke-miterlimit="10"/>
<path d="M357.792 468.636L340.861 471.654" stroke="#434447" stroke-miterlimit="10"/>
<path d="M408.858 459.518L385.029 463.775" stroke="#434447" stroke-miterlimit="10"/>
<path d="M358.152 495.285L340.861 497.848" stroke="#434447" stroke-miterlimit="10"/>
<path d="M408.881 487.758L384.269 491.412" stroke="#434447" stroke-miterlimit="10"/>
<path d="M358.364 521.973L340.861 524.042" stroke="#434447" stroke-miterlimit="10"/>
<path d="M408.912 515.998L384.982 518.828" stroke="#434447" stroke-miterlimit="10"/>
<path d="M357.698 575.45L340.861 576.43" stroke="#434447" stroke-miterlimit="10"/>
<path d="M408.959 572.479L384.63 573.89" stroke="#434447" stroke-miterlimit="10"/>
<path d="M358.27 602.138L340.861 602.624" stroke="#434447" stroke-miterlimit="10"/>
<path d="M408.983 600.719L384.402 601.401" stroke="#434447" stroke-miterlimit="10"/>
<path d="M356.984 146.054L340.861 153.839" stroke="#434447" stroke-miterlimit="10"/>
<path d="M408.552 121.161L384.723 132.663" stroke="#434447" stroke-miterlimit="10"/>
<path d="M356.812 118.143L340.861 126.477" stroke="#434447" stroke-miterlimit="10"/>
<path d="M408.56 91.1101L384.363 103.748" stroke="#434447" stroke-miterlimit="10"/>
<path d="M357.478 89.7696L340.861 99.1151" stroke="#434447" stroke-miterlimit="10"/>
<path d="M384.881 74.3716L384.081 74.8185" stroke="#434447" stroke-miterlimit="10"/>
<path d="M408.567 61.0589L384.88 74.3714" stroke="#434447" stroke-miterlimit="10"/>
<path d="M356.663 62.2429L340.861 71.753" stroke="#434447" stroke-miterlimit="10"/>
<path d="M408.575 30.9999L384.457 45.5119" stroke="#434447" stroke-miterlimit="10"/>
<path d="M444.349 148.625L455.941 157.516" stroke="#434447" stroke-miterlimit="10"/>
<path d="M408.552 121.161L421.955 131.44" stroke="#434447" stroke-miterlimit="10"/>
<path d="M444.239 120.017L455.73 129.339" stroke="#434447" stroke-miterlimit="10"/>
<path d="M408.559 91.1101L421.947 101.953" stroke="#434447" stroke-miterlimit="10"/>
<path d="M444.365 91.6119L455.346 100.989" stroke="#434447" stroke-miterlimit="10"/>
<path d="M408.567 61.0589L422.018 72.5368" stroke="#434447" stroke-miterlimit="10"/>
<path d="M408.575 30.9999L556.129 163.318" stroke="#434447" stroke-miterlimit="10"/>
<path d="M615.339 250.453L556.129 255.533" stroke="#434447" stroke-miterlimit="10"/>
<path d="M615.339 272.719L556.129 277.494" stroke="#434447" stroke-miterlimit="10"/>
<path d="M615.339 294.985L556.129 299.446" stroke="#434447" stroke-miterlimit="10"/>
<path d="M615.339 317.251L556.129 321.406" stroke="#434447" stroke-miterlimit="10"/>
<path d="M615.339 339.517L556.129 343.366" stroke="#434447" stroke-miterlimit="10"/>
<path d="M615.339 361.775L556.129 365.326" stroke="#434447" stroke-miterlimit="10"/>
<path d="M615.339 384.041L556.129 387.279" stroke="#434447" stroke-miterlimit="10"/>
<path d="M615.339 406.307L556.129 409.239" stroke="#434447" stroke-miterlimit="10"/>
<path d="M615.339 428.573L556.129 431.199" stroke="#434447" stroke-miterlimit="10"/>
<path d="M615.339 450.839L556.129 453.152" stroke="#434447" stroke-miterlimit="10"/>
<path d="M615.339 473.105L556.129 475.112" stroke="#434447" stroke-miterlimit="10"/>
<path d="M615.339 495.371L556.129 497.072" stroke="#434447" stroke-miterlimit="10"/>
<path d="M615.339 517.629L556.129 519.025" stroke="#434447" stroke-miterlimit="10"/>
<path d="M615.339 539.895L556.129 540.985" stroke="#434447" stroke-miterlimit="10"/>
<path d="M615.339 584.427L556.129 584.897" stroke="#434447" stroke-miterlimit="10"/>
<path d="M615.339 606.693L556.129 606.858" stroke="#434447" stroke-miterlimit="10"/>
<path d="M615.339 228.94L556.129 234.396" stroke="#434447" stroke-miterlimit="10"/>
<path d="M615.339 203.993L556.129 210.704" stroke="#434447" stroke-miterlimit="10"/>
<path d="M615.339 179.053L556.129 187.011" stroke="#434447" stroke-miterlimit="10"/>
<path d="M615.339 154.106L556.129 163.318" stroke="#434447" stroke-miterlimit="10"/>
<path d="M615.34 250.453L626.737 259.414" stroke="#434447" stroke-miterlimit="10"/>
<path d="M699.154 334.782L709.21 342.222" stroke="#434447" stroke-miterlimit="10"/>
<path d="M615.34 272.719L627.481 281.712" stroke="#434447" stroke-miterlimit="10"/>
<path d="M699.412 353.339L709.21 360.136" stroke="#434447" stroke-miterlimit="10"/>
<path d="M615.34 294.985L627.121 303.162" stroke="#434447" stroke-miterlimit="10"/>
<path d="M699.569 371.803L709.21 378.051" stroke="#434447" stroke-miterlimit="10"/>
<path d="M615.34 317.251L627.168 324.911" stroke="#434447" stroke-miterlimit="10"/>
<path d="M698.95 389.796L709.21 395.958" stroke="#434447" stroke-miterlimit="10"/>
<path d="M615.34 339.517L627.442 346.793" stroke="#434447" stroke-miterlimit="10"/>
<path d="M699.31 408.377L709.21 413.873" stroke="#434447" stroke-miterlimit="10"/>
<path d="M615.34 361.775L626.493 367.969" stroke="#434447" stroke-miterlimit="10"/>
<path d="M699.663 426.926L709.21 431.779" stroke="#434447" stroke-miterlimit="10"/>
<path d="M615.34 384.041L627.364 390.156" stroke="#434447" stroke-miterlimit="10"/>
<path d="M699.577 445.241L709.21 449.694" stroke="#434447" stroke-miterlimit="10"/>
<path d="M615.34 406.307L627.222 411.803" stroke="#434447" stroke-miterlimit="10"/>
<path d="M699.741 463.673L709.21 467.609" stroke="#434447" stroke-miterlimit="10"/>
<path d="M615.34 428.573L627.066 433.449" stroke="#434447" stroke-miterlimit="10"/>
<path d="M699.789 482.035L709.21 485.516" stroke="#434447" stroke-miterlimit="10"/>
<path d="M615.34 450.839L627.089 455.182" stroke="#434447" stroke-miterlimit="10"/>
<path d="M700.494 500.616L709.21 503.43" stroke="#434447" stroke-miterlimit="10"/>
<path d="M615.34 473.105L626.556 476.727" stroke="#434447" stroke-miterlimit="10"/>
<path d="M699.812 518.742L709.21 521.345" stroke="#434447" stroke-miterlimit="10"/>
<path d="M615.34 495.371L627.34 498.687" stroke="#434447" stroke-miterlimit="10"/>
<path d="M699.428 537.002L709.21 539.252" stroke="#434447" stroke-miterlimit="10"/>
<path d="M615.34 517.629L627.019 520.326" stroke="#434447" stroke-miterlimit="10"/>
<path d="M699.287 555.34L709.21 557.167" stroke="#434447" stroke-miterlimit="10"/>
<path d="M615.34 539.895L627.293 542.098" stroke="#434447" stroke-miterlimit="10"/>
<path d="M700.11 592.157L709.21 592.988" stroke="#434447" stroke-miterlimit="10"/>
<path d="M615.34 584.427L626.956 585.485" stroke="#434447" stroke-miterlimit="10"/>
<path d="M700.353 610.503L709.21 610.903" stroke="#434447" stroke-miterlimit="10"/>
<path d="M615.34 606.693L626.752 607.203" stroke="#434447" stroke-miterlimit="10"/>
<path d="M698.864 295.887L709.21 304.174" stroke="#434447" stroke-miterlimit="10"/>
<path d="M615.34 228.94L627.207 238.45" stroke="#434447" stroke-miterlimit="10"/>
<path d="M699.632 275.722L709.21 283.868" stroke="#434447" stroke-miterlimit="10"/>
<path d="M615.34 203.993L627.042 213.95" stroke="#434447" stroke-miterlimit="10"/>
<path d="M699.342 254.671L709.21 263.554" stroke="#434447" stroke-miterlimit="10"/>
<path d="M615.34 179.053L627.128 189.661" stroke="#434447" stroke-miterlimit="10"/>
<path d="M615.34 154.106L709.21 244.8" stroke="#434447" stroke-miterlimit="10"/>
<path d="M600.541 568.535V628.7" stroke="#434447" stroke-miterlimit="10"/>
<path d="M600.541 251.582V549.374" stroke="#434447" stroke-miterlimit="10"/>
<path d="M600.541 131.777V234.632" stroke="#434447" stroke-miterlimit="10"/>
<path d="M585.735 569.233V628.818" stroke="#434447" stroke-miterlimit="10"/>
<path d="M585.735 252.75V549.546" stroke="#434447" stroke-miterlimit="10"/>
<path d="M585.735 134.396V236.019" stroke="#434447" stroke-miterlimit="10"/>
<path d="M570.936 569.758V628.818" stroke="#434447" stroke-miterlimit="10"/>
<path d="M570.936 254.718V549.201" stroke="#434447" stroke-miterlimit="10"/>
<path d="M570.936 137.006V237.878" stroke="#434447" stroke-miterlimit="10"/>
<path d="M325.966 176.158V533.584" stroke="#434447" stroke-miterlimit="10"/>
<path d="M309.947 174.155V532.583" stroke="#434447" stroke-miterlimit="10"/>
<path d="M294.929 171.152V532.583" stroke="#434447" stroke-miterlimit="10"/>
<path d="M279.911 168.148V531.581" stroke="#434447" stroke-miterlimit="10"/>
<path d="M263.892 166.146V530.58" stroke="#434447" stroke-miterlimit="10"/>
<path d="M248.874 163.142V530.08" stroke="#434447" stroke-miterlimit="10"/>
<path d="M325.529 557.356V629.602" stroke="#434447" stroke-miterlimit="10"/>
<path d="M310.206 556.806V629.645" stroke="#434447" stroke-miterlimit="10"/>
<path d="M294.882 556.258V629.645" stroke="#434447" stroke-miterlimit="10"/>
<path d="M279.551 555.708V629.645" stroke="#434447" stroke-miterlimit="10"/>
<path d="M264.227 555.159V629.688" stroke="#434447" stroke-miterlimit="10"/>
<path d="M248.895 554.609V629.688" stroke="#434447" stroke-miterlimit="10"/>
<path d="M16.8995 284.848V555.269" stroke="#434447" stroke-miterlimit="10"/>
<path d="M16.8995 175.219V270.445" stroke="#434447" stroke-miterlimit="10"/>
<path d="M391.653 552.51V628.818" stroke="#434447" stroke-miterlimit="10"/>
<path d="M391.653 11.8073V528.644" stroke="#434447" stroke-miterlimit="10"/>
<path d="M374.722 612.04V628.818" stroke="#434447" stroke-miterlimit="10"/>
<path d="M357.791 611.742V629.335" stroke="#434447" stroke-miterlimit="10"/>
<path d="M444.31 201.421L455.385 208.947" stroke="#434447" stroke-miterlimit="10"/>
<path d="M408.607 177.132L421.955 186.211" stroke="#434447" stroke-miterlimit="10"/>
<path d="M444.216 228.062L455.62 235.337" stroke="#434447" stroke-miterlimit="10"/>
<path d="M408.63 205.365L421.689 213.699" stroke="#434447" stroke-miterlimit="10"/>
<path d="M444.145 254.734L455.213 261.327" stroke="#434447" stroke-miterlimit="10"/>
<path d="M408.654 233.605L421.673 241.358" stroke="#434447" stroke-miterlimit="10"/>
<path d="M444.177 281.469L455.566 287.764" stroke="#434447" stroke-miterlimit="10"/>
<path d="M408.685 261.845L421.438 268.901" stroke="#434447" stroke-miterlimit="10"/>
<path d="M443.886 308.039L455.416 313.919" stroke="#434447" stroke-miterlimit="10"/>
<path d="M408.709 290.085L422.143 296.937" stroke="#434447" stroke-miterlimit="10"/>
<path d="M443.871 334.758L455.753 340.324" stroke="#434447" stroke-miterlimit="10"/>
<path d="M408.732 318.325L421.571 324.331" stroke="#434447" stroke-miterlimit="10"/>
<path d="M443.738 361.438L455.134 366.283" stroke="#434447" stroke-miterlimit="10"/>
<path d="M408.756 346.565L421.853 352.132" stroke="#434447" stroke-miterlimit="10"/>
<path d="M443.596 388.126L455.134 392.54" stroke="#434447" stroke-miterlimit="10"/>
<path d="M408.787 374.805L421.532 379.682" stroke="#434447" stroke-miterlimit="10"/>
<path d="M443.408 414.814L455.518 418.93" stroke="#434447" stroke-miterlimit="10"/>
<path d="M408.81 403.045L421.344 407.31" stroke="#434447" stroke-miterlimit="10"/>
<path d="M443.087 441.478L455.401 445.139" stroke="#434447" stroke-miterlimit="10"/>
<path d="M408.834 431.278L421.014 434.908" stroke="#434447" stroke-miterlimit="10"/>
<path d="M443.73 468.409L455.409 471.388" stroke="#434447" stroke-miterlimit="10"/>
<path d="M408.858 459.518L421.172 462.662" stroke="#434447" stroke-miterlimit="10"/>
<path d="M443.589 495.128L455.55 497.668" stroke="#434447" stroke-miterlimit="10"/>
<path d="M408.881 487.758L421.516 490.439" stroke="#434447" stroke-miterlimit="10"/>
<path d="M443.722 521.91L455.526 523.909" stroke="#434447" stroke-miterlimit="10"/>
<path d="M408.912 515.998L421.485 518.131" stroke="#434447" stroke-miterlimit="10"/>
<path d="M443.173 575.364L455.291 576.391" stroke="#434447" stroke-miterlimit="10"/>
<path d="M408.959 572.479L421.689 573.553" stroke="#434447" stroke-miterlimit="10"/>
<path d="M443.165 602.146L455.299 602.647" stroke="#434447" stroke-miterlimit="10"/>
<path d="M408.983 600.719L421.446 601.236" stroke="#434447" stroke-miterlimit="10"/>
<path d="M34.8961 161.044V199.092" stroke="#434447" stroke-miterlimit="10"/>
<path d="M10.7467 628.919L0.674633 628.888" stroke="white" stroke-width="1.5" stroke-miterlimit="10"/>
<path d="M340.861 557.049V628.99" stroke="white" stroke-width="1.5" stroke-miterlimit="10"/>
<path d="M340.861 44.3908V534.023" stroke="white" stroke-width="1.5" stroke-miterlimit="10"/>
<path d="M190.837 44.9318L0.776316 186.83" stroke="white" stroke-width="1.5" stroke-miterlimit="10"/>
<path d="M233.571 13.0302L214.415 27.3306" stroke="white" stroke-width="1.5" stroke-miterlimit="10"/>
<path d="M340.861 44.3907L233.571 13.0302L231.032 14.9353" stroke="white" stroke-width="1.5" stroke-miterlimit="10"/>
<path d="M444.819 35.0061L556.13 139.625" stroke="white" stroke-width="1.5" stroke-miterlimit="10"/>
<path d="M408.583 0.948641L421.634 13.2184" stroke="white" stroke-width="1.5" stroke-miterlimit="10"/>
<path d="M356.812 34.1594L340.861 44.3908L339.371 43.9517" stroke="white" stroke-width="1.5" stroke-miterlimit="10"/>
<path d="M409.814 2.10898L408.583 0.948641L384.637 16.3075" stroke="white" stroke-width="1.5" stroke-miterlimit="10"/>
<path d="M615.34 129.158L709.21 222.926" stroke="white" stroke-width="1.5" stroke-miterlimit="10"/>
<path d="M615.34 233.612V129.158" stroke="white" stroke-width="1.5" stroke-miterlimit="10"/>
<path d="M615.34 548.864V250.453" stroke="white" stroke-width="1.5" stroke-miterlimit="10"/>
<path d="M615.34 666.968V568.315" stroke="white" stroke-width="1.5" stroke-miterlimit="10"/>
<path d="M556.129 139.625L615.339 129.158L617.612 131.416" stroke="white" stroke-width="1.5" stroke-miterlimit="10"/>
<path d="M556.129 569.084V665.274" stroke="white" stroke-width="1.5" stroke-miterlimit="10"/>
<path d="M556.129 255.996V549.805" stroke="white" stroke-width="1.5" stroke-miterlimit="10"/>
<path d="M556.129 139.625V238.81" stroke="white" stroke-width="1.5" stroke-miterlimit="10"/>
<path d="M233.572 554.25V675.035" stroke="white" stroke-width="1.5" stroke-miterlimit="10"/>
<path d="M233.572 529.162L233.556 13.0539" stroke="white" stroke-width="1.5" stroke-miterlimit="10"/>
<path d="M0.768495 662.405L10.8641 663.189V667.375L169.941 675.035L170.897 675.082L187.122 668.536L233.336 675.035L340.861 667.14L408.583 675.035L556.129 665.274L615.339 666.968L709.21 658.43" stroke="white" stroke-width="1.5" stroke-miterlimit="10"/>
<path d="M709.21 658.43V222.926L707.141 220.88" stroke="white" stroke-width="1.5" stroke-miterlimit="10"/>
<path d="M408.583 0.979928V675.035" stroke="white" stroke-width="1.5" stroke-miterlimit="10"/>
<path d="M2.87696 662.569L0.776316 662.405V186.83L2.79074 185.325" stroke="white" stroke-width="1.5" stroke-miterlimit="10"/>
<path d="M34.7866 275.244V551.93" stroke="white" stroke-width="1.5" stroke-miterlimit="10"/>
<path d="M176.212 173.086V99.2089L34.7866 198.159V259.736" stroke="white" stroke-width="1.5" stroke-miterlimit="10"/>
<path d="M176.212 536.179V193.965" stroke="white" stroke-width="1.5" stroke-miterlimit="10"/>
<path d="M555.902 239.1V163.137L455.581 73.1404V162.933" stroke="white" stroke-width="1.5" stroke-miterlimit="10"/>
<path d="M555.902 256.349V239.1" stroke="white" stroke-width="1.5" stroke-miterlimit="10"/>
<path d="M555.902 550.15V256.349" stroke="white" stroke-width="1.5" stroke-miterlimit="10"/>
<path d="M555.902 569.766V550.15" stroke="white" stroke-width="1.5" stroke-miterlimit="10"/>
<path d="M455.581 184.956V604.78L555.902 608.951V569.766" stroke="white" stroke-width="1.5" stroke-miterlimit="10"/>
<path d="M700.118 301.437V236.137L626.963 165.756V242.801" stroke="white" stroke-width="1.5" stroke-miterlimit="10"/>
<path d="M700.118 563.478V317.055" stroke="white" stroke-width="1.5" stroke-miterlimit="10"/>
<path d="M626.963 570.197V610.041L700.118 613.051V579.817" stroke="white" stroke-width="1.5" stroke-miterlimit="10"/>
<path d="M626.963 259.297V550.487" stroke="white" stroke-width="1.5" stroke-miterlimit="10"/>
<path d="M233.572 629.61L187.013 629.461" stroke="white" stroke-width="1.5" stroke-miterlimit="10"/>
<path d="M233.572 629.609L340.861 628.818" stroke="white" stroke-width="1.5" stroke-miterlimit="10"/>
<path d="M409.014 628.959L340.861 628.818" stroke="white" stroke-width="1.5" stroke-miterlimit="10"/>
<path d="M615.339 628.959L556.129 628.818" stroke="white" stroke-width="1.5" stroke-miterlimit="10"/>
<path d="M409.014 628.959L556.13 628.818" stroke="white" stroke-width="1.5" stroke-miterlimit="10"/>
<path d="M615.34 628.959L709.21 628.818" stroke="white" stroke-width="1.5" stroke-miterlimit="10"/>
<path d="M340.861 667.258V628.99" stroke="white" stroke-width="1.5" stroke-miterlimit="10"/>
<path d="M192.695 611.86H217.08L213.992 23.3166L191.308 40.7844L192.695 611.86Z" stroke="#FFC700" stroke-width="1.5" stroke-miterlimit="10"/>
<path d="M197.304 582.122L211.703 580.962" stroke="#FFC700" stroke-width="1.5" stroke-miterlimit="10"/>
<path d="M197.218 555.356L211.601 553.748" stroke="#FFC700" stroke-width="1.5" stroke-miterlimit="10"/>
<path d="M196.959 528.59L211.334 526.528" stroke="#FFC700" stroke-width="1.5" stroke-miterlimit="10"/>
<path d="M197.272 501.823L211.632 499.307" stroke="#FFC700" stroke-width="1.5" stroke-miterlimit="10"/>
<path d="M197.1 475.057L211.452 472.093" stroke="#FFC700" stroke-width="1.5" stroke-miterlimit="10"/>
<path d="M197.171 448.291L211.507 444.873" stroke="#FFC700" stroke-width="1.5" stroke-miterlimit="10"/>
<path d="M196.669 421.446L210.99 417.573" stroke="#FFC700" stroke-width="1.5" stroke-miterlimit="10"/>
<path d="M196.904 394.758L211.217 390.439" stroke="#FFC700" stroke-width="1.5" stroke-miterlimit="10"/>
<path d="M196.653 367.992L210.943 363.218" stroke="#FFC700" stroke-width="1.5" stroke-miterlimit="10"/>
<path d="M196.559 341.226L210.84 336.005" stroke="#FFC700" stroke-width="1.5" stroke-miterlimit="10"/>
<path d="M196.543 314.46L210.817 308.784" stroke="#FFC700" stroke-width="1.5" stroke-miterlimit="10"/>
<path d="M196.207 287.615L210.464 281.484" stroke="#FFC700" stroke-width="1.5" stroke-miterlimit="10"/>
<path d="M196.277 260.928L210.527 254.35" stroke="#FFC700" stroke-width="1.5" stroke-miterlimit="10"/>
<path d="M196.191 234.004L210.417 226.964" stroke="#FFC700" stroke-width="1.5" stroke-miterlimit="10"/>
<path d="M195.768 207.395L210.449 199.853" stroke="#FFC700" stroke-width="1.5" stroke-miterlimit="10"/>
<path d="M195.76 180.629L210.449 172.601" stroke="#FFC700" stroke-width="1.5" stroke-miterlimit="10"/>
<path d="M195.744 153.863L209.939 145.474" stroke="#FFC700" stroke-width="1.5" stroke-miterlimit="10"/>
<path d="M195.736 127.097L209.916 118.253" stroke="#FFC700" stroke-width="1.5" stroke-miterlimit="10"/>
<path d="M195.729 100.33L209.892 91.0397" stroke="#FFC700" stroke-width="1.5" stroke-miterlimit="10"/>
<path d="M203.23 64.3754L205.095 605.713" stroke="#FFC700" stroke-width="1.5" stroke-miterlimit="10"/>
<path d="M210.002 59.5459L195.509 69.9419L197.375 605.681H211.867L210.002 59.5459Z" stroke="#FFC700" stroke-width="1.5" stroke-miterlimit="10"/>
<path d="M192.601 558.272L187.185 558.782V544.497L169.768 536.83L192.452 534.156" stroke="#FFC700" stroke-width="1.5" stroke-miterlimit="10"/>
<path d="M216.617 531.31L233.336 529.342V554.423L216.907 555.975" stroke="#FFC700" stroke-width="1.5" stroke-miterlimit="10"/>
<path d="M421.351 528.856L408.434 526.841L384.551 529.475" stroke="#FFC700" stroke-width="1.5" stroke-miterlimit="10"/>
<path d="M443.338 555.536L556.13 569.35L615.12 568.19L709.171 580.734V564.474L615.12 548.441L555.902 549.836L443.416 532.298" stroke="#FFC700" stroke-width="1.5" stroke-miterlimit="10"/>
<path d="M384.598 553.176L408.207 551.232L421.336 552.839" stroke="#FFC700" stroke-width="1.5" stroke-miterlimit="10"/>
<path d="M358.693 532.329L341.088 534.274L233.336 529.342V554.423L340.626 556.806L358.622 555.324" stroke="#FFC700" stroke-width="1.5" stroke-miterlimit="10"/>
<path d="M357.274 175.023L340.39 183.294L233.336 160.934L214.799 171.566" stroke="#FFC700" stroke-width="1.5" stroke-miterlimit="10"/>
<path d="M421.846 160.386L407.745 150.311L384.81 161.538" stroke="#FFC700" stroke-width="1.5" stroke-miterlimit="10"/>
<path d="M443.941 153.941L556.075 239.101L615.355 233.354L709.249 308.611V324.056L614.885 249.724L556.075 256.231L443.98 176.191" stroke="#FFC700" stroke-width="1.5" stroke-miterlimit="10"/>
<path d="M384.614 137.986L407.744 126.446L421.822 137.14" stroke="#FFC700" stroke-width="1.5" stroke-miterlimit="10"/>
<path d="M214.775 149.104L233.336 137.712L340.39 160.064L357.227 151.668" stroke="#FFC700" stroke-width="1.5" stroke-miterlimit="10"/>
<path d="M191.519 163.381L0.776366 280.238L0.752851 294.232L191.464 184.949" stroke="#FFC700" stroke-width="1.5" stroke-miterlimit="10"/>
<path d="M358.074 611.914H384.723V11.6663L357.109 29.6672L358.074 611.914Z" stroke="#FFC700" stroke-width="1.5" stroke-miterlimit="10"/>
<path d="M365.582 580.382L379.291 579.221" stroke="#FFC700" stroke-width="1.5" stroke-miterlimit="10"/>
<path d="M365.457 553.066L379.151 551.451" stroke="#FFC700" stroke-width="1.5" stroke-miterlimit="10"/>
<path d="M365.324 525.751L379.009 523.689" stroke="#FFC700" stroke-width="1.5" stroke-miterlimit="10"/>
<path d="M365.191 498.436L378.861 495.92" stroke="#FFC700" stroke-width="1.5" stroke-miterlimit="10"/>
<path d="M365.065 471.122L378.719 468.15" stroke="#FFC700" stroke-width="1.5" stroke-miterlimit="10"/>
<path d="M364.932 443.799L378.578 440.38" stroke="#FFC700" stroke-width="1.5" stroke-miterlimit="10"/>
<path d="M364.799 416.484L378.429 412.61" stroke="#FFC700" stroke-width="1.5" stroke-miterlimit="10"/>
<path d="M364.665 389.168L379.174 385.005" stroke="#FFC700" stroke-width="1.5" stroke-miterlimit="10"/>
<path d="M364.54 361.854L379.182 357.361" stroke="#FFC700" stroke-width="1.5" stroke-miterlimit="10"/>
<path d="M364.407 334.538L379.15 329.787" stroke="#FFC700" stroke-width="1.5" stroke-miterlimit="10"/>
<path d="M364.274 307.223L379.221 301.61" stroke="#FFC700" stroke-width="1.5" stroke-miterlimit="10"/>
<path d="M364.14 279.901L379.237 273.825" stroke="#FFC700" stroke-width="1.5" stroke-miterlimit="10"/>
<path d="M364.015 252.586L379.19 246.078" stroke="#FFC700" stroke-width="1.5" stroke-miterlimit="10"/>
<path d="M363.882 225.271L379.26 218.261" stroke="#FFC700" stroke-width="1.5" stroke-miterlimit="10"/>
<path d="M363.748 197.956L379.182 190.1" stroke="#FFC700" stroke-width="1.5" stroke-miterlimit="10"/>
<path d="M363.615 170.641L379.339 162.009" stroke="#FFC700" stroke-width="1.5" stroke-miterlimit="10"/>
<path d="M363.49 143.318L379.205 135.658" stroke="#FFC700" stroke-width="1.5" stroke-miterlimit="10"/>
<path d="M363.357 116.003L379.206 108.092" stroke="#FFC700" stroke-width="1.5" stroke-miterlimit="10"/>
<path d="M363.223 88.6877L379.033 79.6089" stroke="#FFC700" stroke-width="1.5" stroke-miterlimit="10"/>
<path d="M371.759 52.8034L372.904 603.769" stroke="#FFC700" stroke-width="1.5" stroke-miterlimit="10"/>
<path d="M379.174 48.7972L363.098 58.3543L365.834 604.168H379.174V48.7972Z" stroke="#FFC700" stroke-width="1.5" stroke-miterlimit="10"/>
<path d="M421.908 10.9371L421.453 613.545H443.267L444.662 32.0271L421.908 10.9371Z" stroke="#FFC700" stroke-width="1.5" stroke-miterlimit="10"/>
<path d="M438.509 579.511L427.191 578.249" stroke="#FFC700" stroke-width="1.5" stroke-miterlimit="10"/>
<path d="M438.556 552.267L427.183 550.464" stroke="#FFC700" stroke-width="1.5" stroke-miterlimit="10"/>
<path d="M438.604 525.022L427.183 522.686" stroke="#FFC700" stroke-width="1.5" stroke-miterlimit="10"/>
<path d="M438.643 497.778L427.183 494.9" stroke="#FFC700" stroke-width="1.5" stroke-miterlimit="10"/>
<path d="M438.69 470.533L427.175 467.123" stroke="#FFC700" stroke-width="1.5" stroke-miterlimit="10"/>
<path d="M433.485 54.0344L432.349 604.788" stroke="#FFC700" stroke-width="1.5" stroke-miterlimit="10"/>
<path d="M438.737 443.289L427.175 439.345" stroke="#FFC700" stroke-width="1.5" stroke-miterlimit="10"/>
<path d="M438.784 416.044L427.168 411.56" stroke="#FFC700" stroke-width="1.5" stroke-miterlimit="10"/>
<path d="M438.823 388.8L427.168 383.782" stroke="#FFC700" stroke-width="1.5" stroke-miterlimit="10"/>
<path d="M438.87 361.555L427.16 355.997" stroke="#FFC700" stroke-width="1.5" stroke-miterlimit="10"/>
<path d="M439.411 334.311L427.16 328.219" stroke="#FFC700" stroke-width="1.5" stroke-miterlimit="10"/>
<path d="M439.575 306.98L427.16 300.442" stroke="#FFC700" stroke-width="1.5" stroke-miterlimit="10"/>
<path d="M439.576 279.689L427.152 272.656" stroke="#FFC700" stroke-width="1.5" stroke-miterlimit="10"/>
<path d="M439.818 252.633L427.152 244.879" stroke="#FFC700" stroke-width="1.5" stroke-miterlimit="10"/>
<path d="M439.904 225.075L427.144 217.093" stroke="#FFC700" stroke-width="1.5" stroke-miterlimit="10"/>
<path d="M440.045 198.042L427.144 189.316" stroke="#FFC700" stroke-width="1.5" stroke-miterlimit="10"/>
<path d="M440.194 170.923L427.136 161.53" stroke="#FFC700" stroke-width="1.5" stroke-miterlimit="10"/>
<path d="M440.281 143.953L427.136 133.753" stroke="#FFC700" stroke-width="1.5" stroke-miterlimit="10"/>
<path d="M440.398 116.34L427.136 105.975" stroke="#FFC700" stroke-width="1.5" stroke-miterlimit="10"/>
<path d="M440.453 89.5422L427.128 78.1897" stroke="#FFC700" stroke-width="1.5" stroke-miterlimit="10"/>
<path d="M427.003 47.621L440.602 59.7183L438.282 604.788H427.003V47.621Z" stroke="#FFC700" stroke-width="1.5" stroke-miterlimit="10"/>
<path d="M169.941 536.657L187.122 544.176V668.567L170.678 675.169" stroke="#FFC700" stroke-width="1.5" stroke-miterlimit="10"/>
<path d="M169.941 675.035V536.657L10.864 555.991V667.376L169.941 675.035Z" stroke="#FFC700" stroke-width="1.5" stroke-miterlimit="10"/>
<path d="M161.232 669.234L16.6722 663.134V576.203L161.232 562.09V669.234Z" stroke="#FFC700" stroke-width="1.5" stroke-miterlimit="10"/>
<path d="M122.567 667.595L40.1871 663.871V552.431L122.567 542.412V667.595Z" stroke="#FFC700" stroke-width="1.5" stroke-miterlimit="10"/>
<path d="M122.567 667.595L161.232 669.234V662.397H122.567V667.595Z" stroke="#FFC700" stroke-width="1.5" stroke-miterlimit="10"/>
<path d="M161.225 654.102H132.623V662.389H161.225V654.102Z" stroke="#FFC700" stroke-width="1.5" stroke-miterlimit="10"/>
<path d="M161.225 646.043H141.723V654.102H161.225V646.043Z" stroke="#FFC700" stroke-width="1.5" stroke-miterlimit="10"/>
<path d="M161.224 639.817H150.721V646.043H161.224V639.817Z" stroke="#FFC700" stroke-width="1.5" stroke-miterlimit="10"/>
<path d="M16.6722 663.134L40.1869 663.871V660.061H16.6722V663.134Z" stroke="#FFC700" stroke-width="1.5" stroke-miterlimit="10"/>
<path d="M40.1793 653.232H23.8052V660.061H40.1793V653.232Z" stroke="#FFC700" stroke-width="1.5" stroke-miterlimit="10"/>
<path d="M40.179 646.591H30.2636V653.232H40.179V646.591Z" stroke="#FFC700" stroke-width="1.5" stroke-miterlimit="10"/>
<path d="M40.1871 641.464H36.6521V646.591H40.1871V641.464Z" stroke="#FFC700" stroke-width="1.5" stroke-miterlimit="10"/>
<path d="M47.0297 664.083L115.724 667.313L115.716 661.299H47.0297V664.083Z" stroke="#FFC700" stroke-width="1.5" stroke-miterlimit="10"/>
<path d="M115.724 653.412H61.6952V661.299H115.724V653.412Z" stroke="#FFC700" stroke-width="1.5" stroke-miterlimit="10"/>
<path d="M115.716 645.745H82.6386V653.412H115.716V645.745Z" stroke="#FFC700" stroke-width="1.5" stroke-miterlimit="10"/>
<path d="M115.716 639.817H96.1674V645.745H115.716V639.817Z" stroke="#FFC700" stroke-width="1.5" stroke-miterlimit="10"/>
<path d="M115.724 667.313L47.0297 664.083V573.239L115.724 566.661V667.313Z" stroke="#FFC700" stroke-width="1.5" stroke-miterlimit="10"/>
<path d="M340.861 534.023V557.049" stroke="#FFC700" stroke-width="1.5" stroke-miterlimit="10"/>
<path d="M615.339 250.453V233.613" stroke="#FFC700" stroke-width="1.5" stroke-miterlimit="10"/>
<path d="M615.339 568.316V548.864" stroke="#FFC700" stroke-width="1.5" stroke-miterlimit="10"/>
<path d="M299.985 81.9293C300.22 78.9579 300.337 77.4683 300.573 74.4733C297.908 72.6074 296.567 71.6587 293.894 69.7692C296.332 74.6693 297.555 77.0841 299.985 81.9293ZM280.389 66.0217C277.693 66.4921 276.352 66.7273 273.656 67.2212C273.868 70.4435 273.978 72.0507 274.189 75.2652L280.389 66.0217ZM280.883 88.9619L287.036 94.8577C289.497 93.76 290.728 93.2191 293.189 92.1371C288.267 90.867 285.805 90.2241 280.883 88.9619ZM287.036 64.9005C289.795 66.8684 291.167 67.8484 293.926 69.8006C291.214 64.3125 289.858 61.5371 287.138 55.9236C284.442 59.9848 283.086 61.9997 280.389 66.0217L287.036 64.9005ZM299.365 89.4323L293.189 92.1371C298.676 93.5562 301.435 94.2618 306.929 95.6182C304.155 90.1771 302.759 87.4409 299.985 81.9293C299.781 84.9242 299.616 86.4374 299.365 89.4323ZM274.699 83.0191C274.487 79.9222 274.385 78.3777 274.181 75.273C271.446 79.3577 270.082 81.404 267.346 85.5436C272.747 86.8686 275.451 87.5585 280.852 88.954L274.699 83.0191ZM287.028 49.0321C271.179 55.2572 261.852 70.5768 261.162 87.3233C267.652 94.2226 278.022 97.9859 287.028 100.22C294.741 102.149 305.393 104.078 312.894 100.22C312.322 80.7768 300.886 62.1251 287.036 49.0321H287.028ZM299.436 101.561C294.474 98.9032 291.99 97.5625 287.028 94.8655C282.059 95.0145 279.574 95.0929 274.605 95.2967L267.346 85.5514C265.99 81.0277 265.308 78.7619 263.96 74.2224C267.832 71.3843 269.776 69.9888 273.648 67.229C274.691 62.6347 275.216 60.3376 276.258 55.6962C280.609 55.7746 282.78 55.8295 287.13 55.9314C291.394 58.2364 293.526 59.3889 297.79 61.6626C298.911 66.8449 299.475 69.4086 300.596 74.489C304.398 79.1931 306.294 81.5451 310.096 86.2022C308.826 89.9733 308.183 91.8549 306.914 95.6103L299.436 101.561Z" fill="#FFC700"/>
<path d="M246.654 102.862L247.594 103.051C248.089 103.159 248.593 103.222 249.099 103.239C249.373 103.243 249.643 103.175 249.883 103.043C250.129 102.901 250.333 102.695 250.471 102.447C250.641 102.113 250.722 101.74 250.706 101.365C250.72 100.833 250.576 100.309 250.291 99.8596C250.043 99.46 249.687 99.1392 249.264 98.9345C248.714 98.7408 248.147 98.6016 247.571 98.5189L245.219 98.0642V105.379L246.662 105.653L246.654 102.862ZM246.654 99.546L247.351 99.6871C247.705 99.7438 248.053 99.8276 248.394 99.938C248.627 100.03 248.831 100.184 248.982 100.385C249.135 100.588 249.215 100.836 249.209 101.09C249.225 101.292 249.166 101.493 249.044 101.655C248.99 101.726 248.921 101.786 248.843 101.83C248.765 101.875 248.679 101.903 248.59 101.914C248.208 101.942 247.824 101.907 247.453 101.812L246.669 101.655L246.654 99.546ZM250.73 109.378C248.754 108.97 247.767 108.774 245.784 108.397V109.182C245.792 110.229 245.739 111.276 245.627 112.318C245.558 113.045 245.359 113.754 245.039 114.411L244.451 114.301V117.163L245.658 117.39V115.736C247.461 116.081 248.362 116.261 250.157 116.622V118.245L251.333 118.48V115.618L250.73 115.493V109.378ZM249.295 115.203L246.575 114.67C247.05 113.117 247.249 111.493 247.163 109.871L249.295 110.295V115.203ZM274.581 111.926C275.002 112.065 275.449 112.102 275.887 112.033C276.324 111.965 276.739 111.794 277.097 111.534C278.359 110.224 278.359 107.958 277.097 106.045C276.459 105.247 275.565 104.693 274.566 104.477C274.056 104.335 273.521 104.303 272.998 104.383C272.662 104.451 272.347 104.599 272.081 104.815C271.797 105.037 271.566 105.322 271.407 105.646C271.164 106.204 271.052 106.81 271.078 107.417C271.048 108.477 271.382 109.515 272.026 110.358C272.667 111.164 273.572 111.72 274.581 111.926ZM273.131 105.959C273.591 105.681 274.14 105.591 274.664 105.708C275.188 105.825 275.647 106.139 275.945 106.586L276 106.657C276.387 107.244 276.576 107.939 276.541 108.641C276.571 108.956 276.537 109.274 276.442 109.575C276.346 109.877 276.19 110.157 275.984 110.397C275.551 110.681 275.024 110.784 274.516 110.684C274.008 110.585 273.558 110.29 273.264 109.864L273.147 109.715C272.78 109.161 272.585 108.512 272.585 107.849C272.585 107.185 272.78 106.536 273.147 105.983L273.131 105.959ZM323.421 116.23L321.979 115.924V122.98L323.421 123.278V116.23ZM305.511 119.091C305.846 119.034 306.149 118.859 306.365 118.598C306.622 118.27 306.753 117.861 306.734 117.445C306.735 116.84 306.527 116.253 306.146 115.783C305.628 115.213 304.931 114.837 304.171 114.717L302.235 114.254V111.447L300.769 111.087V118.213L304.147 118.997C304.595 119.109 305.06 119.141 305.519 119.091H305.511ZM302.203 117.296V115.399L303.677 115.752C304.114 115.828 304.527 116.005 304.884 116.269C304.997 116.366 305.087 116.486 305.148 116.622C305.209 116.757 305.239 116.904 305.237 117.053C305.247 117.152 305.233 117.251 305.198 117.344C305.163 117.436 305.106 117.519 305.033 117.586C304.971 117.647 304.897 117.696 304.817 117.728C304.736 117.76 304.649 117.776 304.562 117.774C304.242 117.759 303.924 117.709 303.614 117.625L302.203 117.296ZM309.367 117.053L312.197 117.704V120.84L313.639 121.161V114.105L312.197 113.776V116.551L309.367 115.9V113.117L307.925 112.78V119.875L309.367 120.213V117.053ZM327.818 116.739C327.996 116.789 328.182 116.8 328.364 116.773C328.546 116.746 328.721 116.681 328.877 116.583C329.021 116.473 329.138 116.332 329.219 116.17C329.301 116.009 329.345 115.831 329.347 115.65L328.681 115.524C328.678 115.616 328.654 115.705 328.611 115.786C328.567 115.866 328.505 115.935 328.43 115.987C328.247 116.076 328.038 116.096 327.842 116.042C327.622 116.003 327.418 115.903 327.254 115.752C327.114 115.595 327.031 115.396 327.019 115.187L326.345 115.054C326.371 115.458 326.53 115.842 326.796 116.146C327.063 116.451 327.422 116.659 327.818 116.739ZM257.361 106.61C255.746 106.257 254.931 106.085 253.308 105.748V103.74C254.751 104.038 255.472 104.195 256.906 104.524V103.301L253.308 102.517V100.894C254.876 101.224 255.66 101.388 257.173 101.733V100.542C255.064 100.071 254.037 99.8439 251.89 99.4049V106.704C254.069 107.151 255.158 107.386 257.337 107.857L257.361 106.61ZM280.664 110.107L283.493 110.797V113.933L284.936 114.285V107.127L283.438 106.751V109.574L280.609 108.884V106.092L279.167 105.74V112.945L280.609 113.298C280.64 112.012 280.648 111.377 280.672 110.107H280.664ZM268.616 105.653V110.358L269.965 110.671V103.458L268.475 103.105C267.315 104.744 266.735 105.567 265.583 107.221V102.423L264.235 102.11V109.378L265.677 109.707C266.861 108.092 267.449 107.276 268.624 105.653H268.616ZM260.049 102.376L263.459 103.16V101.969C261.515 101.522 260.551 101.302 258.607 100.871V108.154L260.049 108.468V102.376ZM291.261 115.853L292.829 116.238L289.96 108.397L288.431 108.021C287.318 110.601 286.762 111.894 285.641 114.513L287.209 114.881L287.796 113.392L290.657 114.089L291.261 115.853ZM288.22 112.263L289.184 109.848C289.584 111 289.78 111.581 290.171 112.749L288.22 112.263ZM320.78 121.843C321.019 121.477 321.146 121.05 321.146 120.612C321.146 120.175 321.019 119.747 320.78 119.382C320.553 119.004 320.239 118.686 319.863 118.456C319.454 118.227 319.013 118.063 318.554 117.97L316.618 117.547V114.756L315.175 114.434V121.491L318.554 122.227C318.996 122.342 319.454 122.385 319.91 122.353C320.255 122.296 320.567 122.115 320.788 121.843H320.78ZM319.455 120.863C319.326 120.985 319.155 121.053 318.977 121.051C318.659 121.045 318.343 121 318.036 120.918L316.633 120.612V118.731L318.099 119.052C318.542 119.121 318.961 119.296 319.322 119.562C319.433 119.659 319.522 119.779 319.58 119.915C319.639 120.051 319.665 120.198 319.659 120.346C319.663 120.442 319.646 120.539 319.61 120.628C319.573 120.717 319.518 120.798 319.447 120.863H319.455ZM316.241 127.363L313.412 126.743V123.944L311.97 123.615V130.844L313.412 131.165V128.029L316.241 128.656V131.792L317.691 132.098V124.909L316.241 124.595V127.363ZM306.836 126.43L310.433 127.214V126.03C308.991 125.708 308.278 125.544 306.836 125.207V123.584L310.7 124.47V123.341C308.583 122.863 307.564 122.619 305.417 122.126V129.362C307.588 129.864 308.67 130.146 310.841 130.601V129.409L306.843 128.5C306.836 127.653 306.836 127.261 306.836 126.43ZM253.779 114.074L257.369 114.858V113.643L253.763 112.859V111.196C255.331 111.518 256.114 111.683 257.627 111.98V110.797C255.511 110.334 254.492 110.114 252.344 109.675V117.069C254.508 117.516 255.597 117.743 257.76 118.205V116.99L253.763 116.144L253.779 114.074ZM303.802 121.773L302.36 121.436V127.433L299.562 126.775V120.769L298.112 120.424V127.684L303.199 128.876V130.444L304.374 130.71V127.888L303.786 127.755C303.794 125.332 303.794 124.125 303.802 121.773ZM329.284 119.883V124.493L330.632 124.752V117.696L329.198 117.421C328.038 119.052 327.458 119.875 326.298 121.522V116.818L324.95 116.543V123.6L326.392 123.89L329.284 119.883ZM318.593 126.257L320.717 126.704V132.694L322.159 132.992V127.01L324.283 127.449V126.273C322.01 125.81 320.874 125.575 318.601 125.081L318.593 126.257ZM330.225 128.217C329.973 127.824 329.614 127.511 329.19 127.316C328.634 127.113 328.059 126.966 327.474 126.877L325.161 126.414V133.604L326.635 133.901V131.181L327.575 131.361C328.067 131.476 328.568 131.542 329.073 131.557C329.346 131.549 329.614 131.479 329.856 131.353C330.107 131.218 330.312 131.01 330.444 130.758C330.617 130.43 330.701 130.062 330.687 129.691C330.696 129.174 330.548 128.666 330.264 128.233L330.225 128.217ZM328.978 129.958C328.925 130.029 328.858 130.088 328.782 130.133C328.705 130.177 328.62 130.206 328.532 130.217C328.147 130.246 327.76 130.209 327.387 130.107L326.604 129.958V127.919L327.301 128.061C327.652 128.118 327.998 128.202 328.336 128.311C328.571 128.392 328.776 128.543 328.924 128.743C329.056 128.909 329.134 129.112 329.145 129.325C329.156 129.537 329.101 129.747 328.986 129.926L328.978 129.958ZM269 113.251C268.489 113.114 267.954 113.09 267.433 113.18C267.09 113.244 266.771 113.399 266.508 113.627C266.223 113.854 265.995 114.144 265.842 114.474C265.603 115.047 265.491 115.664 265.512 116.285C265.478 117.356 265.809 118.407 266.453 119.264C267.085 120.073 267.986 120.63 268.993 120.832C269.417 120.966 269.868 120.997 270.307 120.922C270.746 120.847 271.16 120.668 271.517 120.401C272.771 119.06 272.771 116.747 271.517 114.826C270.898 114.023 270.015 113.465 269.024 113.251H269ZM270.435 119.256C270.246 119.426 270.015 119.545 269.767 119.6C269.518 119.655 269.26 119.644 269.016 119.57C268.463 119.431 267.977 119.1 267.644 118.637C267.236 118.041 267.033 117.328 267.064 116.606C267.03 116.29 267.06 115.969 267.153 115.665C267.246 115.36 267.4 115.078 267.605 114.834C267.806 114.676 268.042 114.568 268.293 114.522C268.545 114.475 268.804 114.491 269.048 114.568C269.626 114.687 270.138 115.021 270.482 115.501C270.841 116.068 271.031 116.726 271.031 117.398C271.031 118.07 270.841 118.727 270.482 119.295L270.435 119.256ZM278.203 118.974C278.498 118.909 278.76 118.739 278.939 118.496C279.125 118.244 279.219 117.937 279.206 117.625C279.209 117.311 279.133 117.001 278.986 116.724C278.853 116.447 278.666 116.199 278.438 115.995C278.224 115.787 277.971 115.625 277.693 115.516C277.283 115.36 276.861 115.237 276.431 115.148L273.562 114.466V121.773L276 122.345C276.579 122.506 277.168 122.629 277.764 122.714C278.092 122.763 278.428 122.722 278.736 122.596C278.99 122.457 279.194 122.24 279.316 121.977C279.467 121.695 279.548 121.38 279.551 121.059C279.551 120.636 279.428 120.222 279.198 119.868C278.956 119.492 278.621 119.184 278.226 118.974H278.203ZM275.012 116.01L275.843 116.206L277.074 116.504C277.291 116.575 277.482 116.709 277.623 116.888C277.743 117.063 277.806 117.272 277.803 117.484C277.811 117.581 277.796 117.679 277.76 117.769C277.723 117.859 277.665 117.938 277.591 118.002C277.506 118.06 277.411 118.101 277.31 118.123C277.209 118.145 277.105 118.146 277.003 118.127L275.961 117.876L275.012 117.657V116.01ZM277.865 121.224C277.794 121.286 277.71 121.333 277.62 121.361C277.53 121.389 277.434 121.399 277.34 121.389C277.004 121.356 276.67 121.293 276.345 121.2L275.012 120.887V118.919L276.18 119.201C276.623 119.286 277.055 119.422 277.466 119.609C277.649 119.715 277.803 119.866 277.913 120.048C278.018 120.232 278.075 120.44 278.077 120.652C278.081 120.755 278.064 120.858 278.028 120.955C277.991 121.052 277.936 121.141 277.865 121.216V121.224ZM259.383 115.399V116.653C259.383 116.982 259.328 117.178 259.234 117.225C259.043 117.288 258.837 117.288 258.646 117.225L258.325 117.155V118.307L259.242 118.566C259.593 118.678 259.974 118.653 260.308 118.496C260.425 118.406 260.523 118.295 260.596 118.167C260.669 118.039 260.715 117.897 260.731 117.751C260.803 117.129 260.832 116.503 260.817 115.877V112.741L262.973 113.227V119.342L264.392 119.664V112.365L259.383 111.243V115.399ZM291.089 117.594C290.865 117.543 290.661 117.428 290.501 117.265C290.361 117.099 290.279 116.893 290.266 116.677L289.56 116.512C289.587 116.941 289.749 117.35 290.023 117.68C290.303 117.994 290.672 118.216 291.081 118.315C291.256 118.371 291.441 118.389 291.623 118.367C291.806 118.346 291.982 118.285 292.139 118.19C292.281 118.077 292.398 117.934 292.479 117.772C292.56 117.609 292.605 117.431 292.609 117.249L291.943 117.069C291.943 117.161 291.921 117.252 291.879 117.334C291.837 117.416 291.775 117.486 291.7 117.539C291.603 117.58 291.499 117.601 291.394 117.601C291.289 117.601 291.185 117.58 291.089 117.539V117.594ZM289.591 123.153V118.331L288.235 118.002V125.293L289.686 125.638C290.838 123.992 291.418 123.176 292.578 121.545V126.336L293.926 126.657V119.421L292.476 119.068C291.347 120.667 290.767 121.498 289.591 123.153ZM283.658 116.755C283.148 116.614 282.613 116.584 282.09 116.669C281.748 116.732 281.428 116.881 281.158 117.1C280.878 117.324 280.648 117.605 280.483 117.923C280.244 118.49 280.131 119.103 280.154 119.719C280.123 120.788 280.458 121.836 281.103 122.69C282.537 124.368 284.724 124.893 286.158 123.897C287.42 122.572 287.42 120.283 286.158 118.354C285.53 117.532 284.63 116.959 283.619 116.739L283.658 116.755ZM285.092 122.745C284.9 122.911 284.67 123.025 284.421 123.077C284.173 123.129 283.916 123.117 283.674 123.043C283.095 122.9 282.588 122.551 282.247 122.063C281.885 121.501 281.692 120.846 281.692 120.177C281.692 119.509 281.885 118.854 282.247 118.292C282.447 118.132 282.684 118.025 282.936 117.981C283.188 117.937 283.447 117.958 283.689 118.041C284.267 118.167 284.778 118.502 285.124 118.982C285.482 119.545 285.673 120.199 285.673 120.867C285.673 121.535 285.482 122.189 285.124 122.753L285.092 122.745ZM299.201 117.798V110.687L294.177 109.448V114.717C294.177 115.038 294.122 115.218 294.02 115.265C293.83 115.332 293.623 115.332 293.432 115.265L293.127 115.195V116.285C293.576 116.431 293.882 116.525 294.044 116.567C294.386 116.702 294.767 116.702 295.11 116.567C295.228 116.486 295.327 116.38 295.4 116.257C295.474 116.134 295.519 115.996 295.533 115.853C295.605 115.253 295.634 114.647 295.619 114.042V111L297.775 111.526V117.461L299.201 117.798Z" fill="#FFC700"/>
</svg>
