<svg width="824" height="819" viewBox="0 0 824 819" fill="none" xmlns="http://www.w3.org/2000/svg">
<path fill-rule="evenodd" clip-rule="evenodd" d="M404.47 652.141H303.085V818.713H404.47V652.141Z" fill="#EAEAEA"/>
<path fill-rule="evenodd" clip-rule="evenodd" d="M186.442 167.953L212.794 122.252L253.738 145.871L227.605 191.303L186.442 167.953ZM290.31 295.523L270.575 284.098L236.652 342.866L123.239 277.429L185.404 169.729L228.519 194.19L239.726 174.684L313.161 217.124L312.122 257.705L290.31 295.523Z" fill="#EAEAEA"/>
<path fill-rule="evenodd" clip-rule="evenodd" d="M292.085 296.552L314.199 258.245L313.918 219.918L345.068 165.97H368.366V326.902L362.393 337.216L292.085 296.552Z" fill="#EAEAEA"/>
<path fill-rule="evenodd" clip-rule="evenodd" d="M303.085 818.713H201.794V683.821L220.116 652.141H303.085V818.713Z" fill="#EAEAEA"/>
<path fill-rule="evenodd" clip-rule="evenodd" d="M548.316 502.78L513.022 441.654L551.463 419.468V397.365L616.193 361.417L674.816 326.278L693.803 360.69L636.198 395.651L634.952 400.305L657.668 439.649L548.316 502.78Z" fill="#EAEAEA"/>
<path fill-rule="evenodd" clip-rule="evenodd" d="M224.395 575.82L113.112 511.962L142.672 460.901L145.622 462.604L148.853 456.996L256.958 519.524L224.395 575.82Z" fill="#EAEAEA"/>
<path fill-rule="evenodd" clip-rule="evenodd" d="M613.96 611.965V605.868H607.728L565.558 532.912L676.187 468.961L678.732 473.375L684.756 479.732L727.342 553.478L613.96 611.965ZM613.96 611.965L565.558 533.026L676.156 469.044L684.735 479.825L727.321 553.571L613.96 611.965ZM613.96 611.965L565.558 532.912L677.953 467.933L727.342 553.478L613.96 611.965ZM676.166 469.013L613.96 504.909L676.166 469.013Z" fill="#EAEAEA"/>
<path fill-rule="evenodd" clip-rule="evenodd" d="M432.232 606.668V557.695H503.444V512.138H511.753V509.417L568.6 607.707L558.919 617.398H451.136V606.668H432.232Z" fill="#EAEAEA"/>
<path fill-rule="evenodd" clip-rule="evenodd" d="M378.409 613.482V617.398H251.691L244.607 610.304L301.256 512.139H378.419V613.482H378.409ZM350.998 421.888L303.811 503.621L350.998 421.888Z" fill="#EAEAEA"/>
<path fill-rule="evenodd" clip-rule="evenodd" d="M265.121 421.483L277.232 428.432L265.121 421.483ZM265.609 420.621L265.017 420.278L265.183 419.988L265.775 420.33L265.609 420.621ZM278.312 427.892L277.72 427.549L277.886 427.258L278.478 427.591L278.312 427.892ZM279.112 427.757C279.124 427.773 279.131 427.793 279.131 427.814C279.131 427.835 279.124 427.855 279.112 427.871V427.954L278.073 427.352V427.279C278.088 427.265 278.109 427.256 278.13 427.256C278.151 427.256 278.172 427.265 278.187 427.279L279.07 427.788L279.112 427.757ZM264.248 421.888L264.84 422.221L264.248 421.888ZM264.716 421.753L264.373 422.345L264.716 421.753ZM264.633 422.055C264.633 422.043 264.63 422.031 264.625 422.02C264.621 422.009 264.614 422 264.605 421.992C264.596 421.984 264.585 421.978 264.574 421.975C264.563 421.971 264.551 421.97 264.539 421.971C264.517 421.971 264.496 421.98 264.48 421.996C264.465 422.011 264.456 422.033 264.456 422.055C264.458 422.076 264.468 422.096 264.483 422.111C264.498 422.126 264.518 422.135 264.539 422.138C264.562 422.138 264.585 422.129 264.602 422.114C264.619 422.099 264.63 422.078 264.633 422.055ZM265.193 422.449L258.11 434.82L257.518 434.488L264.612 422.138L265.193 422.47V422.449ZM278.115 429.938C278.133 429.952 278.154 429.959 278.177 429.959C278.199 429.959 278.221 429.952 278.239 429.938V429.865L277.201 429.273V429.346C277.186 429.362 277.178 429.382 277.178 429.403C277.178 429.424 277.186 429.445 277.201 429.46L278.083 429.969L278.115 429.938ZM277.232 428.411L277.419 428.515L277.066 429.138L277.46 429.367L278.312 427.892L277.72 427.549L277.232 428.411ZM264.768 419.51C264.761 419.501 264.752 419.494 264.742 419.489C264.732 419.485 264.722 419.482 264.711 419.482C264.7 419.482 264.689 419.485 264.679 419.489C264.669 419.494 264.66 419.501 264.653 419.51V419.583L265.692 420.175V420.102C265.707 420.086 265.715 420.066 265.715 420.045C265.715 420.024 265.707 420.003 265.692 419.988L264.809 419.479L264.768 419.51ZM263.303 421.483C263.288 421.468 263.28 421.447 263.28 421.426C263.28 421.405 263.288 421.385 263.303 421.369V421.296L264.342 421.888V421.961C264.324 421.975 264.302 421.982 264.279 421.982C264.257 421.982 264.235 421.975 264.217 421.961L263.334 421.452L263.303 421.483ZM265.079 421.483L264.882 421.369L264.529 421.992L264.124 421.764L264.975 420.278L265.567 420.621L265.079 421.483ZM257.611 432.722C257.542 432.684 257.482 432.633 257.434 432.571C257.385 432.51 257.35 432.439 257.33 432.363C257.309 432.288 257.304 432.208 257.315 432.131C257.326 432.053 257.353 431.979 257.393 431.912L258.224 430.447C258.248 430.408 258.286 430.379 258.331 430.367C258.375 430.356 258.423 430.362 258.463 430.385C258.482 430.396 258.499 430.41 258.513 430.427C258.526 430.445 258.536 430.465 258.542 430.486C258.548 430.507 258.549 430.529 258.546 430.551C258.543 430.573 258.536 430.594 258.525 430.613L257.684 432.078C257.666 432.106 257.654 432.138 257.649 432.171C257.644 432.204 257.645 432.238 257.654 432.27C257.663 432.302 257.679 432.332 257.7 432.358C257.721 432.384 257.747 432.406 257.777 432.421L258.297 432.722L258.13 433.013L257.611 432.722ZM258.151 433.324H258.068C258.056 433.308 258.049 433.288 258.049 433.267C258.049 433.246 258.056 433.226 258.068 433.21L258.411 432.618C258.426 432.603 258.447 432.595 258.468 432.595C258.489 432.595 258.51 432.603 258.525 432.618H258.598L258.182 433.355L258.151 433.324ZM258.733 433.667H258.816C258.831 433.682 258.852 433.69 258.873 433.69C258.894 433.69 258.915 433.682 258.93 433.667L259.263 433.075C259.271 433.068 259.278 433.059 259.283 433.05C259.288 433.04 259.29 433.029 259.29 433.018C259.29 433.007 259.288 432.996 259.283 432.986C259.278 432.976 259.271 432.967 259.263 432.961H259.19L258.764 433.698L258.733 433.667ZM259.533 433.823C259.6 433.862 259.675 433.887 259.752 433.897C259.829 433.907 259.908 433.902 259.983 433.882C260.058 433.862 260.129 433.827 260.191 433.779C260.252 433.732 260.304 433.672 260.343 433.605L261.184 432.14C261.195 432.121 261.202 432.1 261.205 432.078C261.208 432.056 261.207 432.034 261.201 432.013C261.195 431.992 261.185 431.972 261.172 431.954C261.158 431.937 261.141 431.922 261.122 431.912C261.082 431.889 261.034 431.882 260.99 431.894C260.945 431.906 260.907 431.934 260.883 431.974L260.052 433.428C260.017 433.487 259.961 433.53 259.896 433.549C259.83 433.569 259.76 433.562 259.699 433.532L259.18 433.231L259.013 433.522L259.533 433.823ZM265.142 419.988L278.437 427.612L265.142 419.988ZM264.529 421.992L276.993 429.159L264.529 421.992ZM149.838 455.23L180.074 402.86L181.175 400.949L196.641 409.871H205.158V401.437L211.12 391.102L301.173 443.036L257.944 517.82L149.88 455.23H149.838Z" fill="#EAEAEA"/>
<path fill-rule="evenodd" clip-rule="evenodd" d="M463.55 355.964H475.702V309.805H518.766V392.483L493.162 407.264L463.55 355.964Z" fill="#EAEAEA"/>
<path fill-rule="evenodd" clip-rule="evenodd" d="M432.232 388.661H442.079L500.006 488.82L432.232 488.166V388.661Z" fill="#EAEAEA"/>
<path fill-rule="evenodd" clip-rule="evenodd" d="M455.957 100.492H376.363V0L486.535 0.166188L522.328 62.175L455.957 100.492Z" fill="#EAEAEA"/>
<path fill-rule="evenodd" clip-rule="evenodd" d="M473.666 223.45L403.109 221.404V148.603H428.12V124.142L469.449 123.872L455.957 100.492L522.328 62.1749L612.464 218.298L547.858 255.597L526.939 223.45H475.702H473.666Z" fill="#EAEAEA"/>
<path fill-rule="evenodd" clip-rule="evenodd" d="M378.41 512.138H301.247L361.449 407.824H378.41V512.138Z" fill="#EAEAEA"/>
<path fill-rule="evenodd" clip-rule="evenodd" d="M224.395 575.82L113.163 511.993L0 708.001H2.52398V716.518H97.2198V683.821L152.228 682.969V669.342H165.585L200.765 616.691L224.395 575.82Z" fill="#EAEAEA"/>
<path fill-rule="evenodd" clip-rule="evenodd" d="M473.666 353.918H403.109V307.759H473.666V353.918Z" fill="#EAEAEA"/>
<path fill-rule="evenodd" clip-rule="evenodd" d="M473.666 307.759H403.109V223.45H473.666V307.759Z" fill="#EAEAEA"/>
<path fill-rule="evenodd" clip-rule="evenodd" d="M670.349 379.874L696.898 364.543L743.742 445.664L717.193 460.994L670.349 379.874Z" fill="#EAEAEA"/>
<path fill-rule="evenodd" clip-rule="evenodd" d="M513.022 441.654L493.162 407.264L518.766 392.483V307.759H475.702V223.45H526.94L548.887 257.362L613.493 220.064L674.816 326.278L551.463 397.365V419.468L513.022 441.654Z" fill="#EAEAEA"/>
<path fill-rule="evenodd" clip-rule="evenodd" d="M608.85 683.821L590.528 652.141H404.47L404.74 818.713H608.85V683.821Z" fill="#FFC700"/>
<path fill-rule="evenodd" clip-rule="evenodd" d="M727.32 553.478L824 716.207H715.967V683.509H662.237L660.959 682.658V669.03H646.989L613.959 611.914L727.32 553.478Z" fill="#FFC700"/>
<path fill-rule="evenodd" clip-rule="evenodd" d="M225.985 365.436L271.323 286.902L361.376 338.981L315.976 417.484L225.985 365.436Z" fill="#FFC700"/>
</svg>
