<svg width="158" height="69" viewBox="0 0 158 69" fill="none" xmlns="http://www.w3.org/2000/svg">
<path fill-rule="evenodd" clip-rule="evenodd" d="M154.464 61.6527C153.549 61.7559 152.624 61.5841 151.807 61.1589C151.412 60.8057 151.201 60.2897 151.234 59.7595V36.4648C151.177 36.1796 151.177 35.8857 151.234 35.6005C151.329 35.3706 151.484 35.1713 151.684 35.0243C152.503 34.6015 153.427 34.4297 154.341 34.5304C155.256 34.4248 156.181 34.5967 156.998 35.0243C157.199 35.1697 157.355 35.3695 157.448 35.6005C157.504 35.8858 157.504 36.1795 157.448 36.4648V59.5949C157.505 59.8801 157.505 60.174 157.448 60.4592C157.353 60.6661 157.214 60.8489 157.039 60.9942C156.264 61.4652 155.368 61.6944 154.464 61.6527Z" fill="#D40E14"/>
<path fill-rule="evenodd" clip-rule="evenodd" d="M133.48 61.679C131.868 61.7111 130.262 61.4763 128.725 60.9838C127.498 60.578 126.371 59.9085 125.421 59.0209C124.553 58.1947 123.891 57.1717 123.487 56.0356C123.079 54.853 122.875 53.608 122.883 52.355V36.4061C122.83 36.1224 122.83 35.8311 122.883 35.5474C122.97 35.3154 123.125 35.1158 123.326 34.9748C125.003 34.3419 126.847 34.3419 128.524 34.9748C128.918 35.3219 129.127 35.8374 129.088 36.3652V52.2324C129.085 52.7736 129.166 53.312 129.33 53.8273C129.476 54.2752 129.724 54.6816 130.055 55.0132C130.422 55.3668 130.863 55.6323 131.344 55.7902C131.996 55.9946 132.677 56.0913 133.359 56.0765C134.296 56.1134 135.226 55.902 136.059 55.463C136.635 55.1597 137.081 54.6496 137.308 54.0317C137.51 53.4535 137.619 52.8459 137.63 52.2324V36.4061C137.585 36.1354 137.585 35.859 137.63 35.5883C137.728 35.3506 137.897 35.1503 138.114 35.0157C139.79 34.3828 141.635 34.3828 143.311 35.0157C143.69 35.3708 143.884 35.8851 143.835 36.4061V52.355C143.845 53.6081 143.64 54.8534 143.231 56.0356C142.827 57.1717 142.165 58.1947 141.297 59.0209C140.346 59.9075 139.22 60.5768 137.993 60.9838C136.533 61.4506 135.01 61.6851 133.48 61.679Z" fill="#D40E14"/>
<path fill-rule="evenodd" clip-rule="evenodd" d="M106.635 60.6092C105.723 60.707 104.801 60.5402 103.984 60.1294C103.58 59.794 103.367 59.2872 103.413 58.7701V39.7795H97.377C96.9146 39.8182 96.4501 39.7354 96.0312 39.5396C95.8191 39.4106 95.6602 39.2124 95.5825 38.9799C95.5423 38.7148 95.5423 38.4453 95.5825 38.1802C95.5316 37.635 95.5316 37.0863 95.5825 36.5411C95.6569 36.0801 95.8085 35.6343 96.0312 35.2217C96.1993 34.8972 96.4931 34.6524 96.8468 34.542C97.2254 34.4862 97.6103 34.4862 97.9888 34.542H116.586H117.117C117.329 34.671 117.487 34.8692 117.565 35.1018C117.603 35.3536 117.603 35.6095 117.565 35.8614C117.603 36.3538 117.603 36.8482 117.565 37.3407C117.499 37.8544 117.347 38.3541 117.117 38.8199C116.948 39.1444 116.655 39.3892 116.301 39.4996C115.922 39.5521 115.538 39.5521 115.159 39.4996H109.775V58.6102C109.823 58.8746 109.823 59.1453 109.775 59.4098C109.691 59.6276 109.55 59.8203 109.368 59.9695C108.545 60.4514 107.591 60.6747 106.635 60.6092Z" fill="#D40E14"/>
<path fill-rule="evenodd" clip-rule="evenodd" d="M86.0955 8.1155C86.0955 12.5976 82.3683 16.231 77.7705 16.231C73.1727 16.231 69.4455 12.5976 69.4455 8.1155C69.4455 3.63343 73.1727 0 77.7705 0C82.3683 0 86.0955 3.63343 86.0955 8.1155ZM65.283 37.0473C67.6556 32.0562 68.613 30.6766 71.7349 31.407C75.8974 32.4214 76.1887 34.6938 74.4821 39.8471C61.8697 78.0306 18.9542 82.0883 10.3794 31.6505L5.09305 31.9751C3.34633 32.3127 1.57276 31.5298 0.680785 30.0274C0.165749 28.9071 -0.0627884 27.6818 0.0147834 26.4565C0.0147834 22.3988 1.63816 20.8568 4.71842 20.8568H26.863C28.0079 20.6962 29.1698 21.0073 30.07 21.7155C30.9702 22.4237 31.5275 23.4651 31.6082 24.59C32.2743 27.6333 32.0661 30.2708 27.862 30.5549L20.6192 31.0012C25.6975 58.5939 51.2137 66.7094 65.283 37.2096V37.0473Z" fill="#D40E14"/>
</svg>
