<svg width="428" height="469" viewBox="0 0 428 469" fill="none" xmlns="http://www.w3.org/2000/svg">
<path d="M367.275 301.592L369.216 310.687L395.567 305.064L393.626 295.969L367.275 301.592Z" stroke="#848383" stroke-miterlimit="10" stroke-linecap="round" stroke-linejoin="round"/>
<path d="M364.633 289.593L366.574 298.688L392.925 293.065L390.984 283.97L364.633 289.593Z" stroke="#848383" stroke-miterlimit="10" stroke-linecap="round" stroke-linejoin="round"/>
<path d="M362.055 277.49L363.995 286.585L390.346 280.962L388.405 271.867L362.055 277.49Z" stroke="#848383" stroke-miterlimit="10" stroke-linecap="round" stroke-linejoin="round"/>
<path d="M359.498 265.472L361.439 274.568L387.79 268.944L385.849 259.849L359.498 265.472Z" stroke="#848383" stroke-miterlimit="10" stroke-linecap="round" stroke-linejoin="round"/>
<path d="M356.853 253.473L358.794 262.568L385.145 256.945L383.204 247.85L356.853 253.473Z" stroke="#848383" stroke-miterlimit="10" stroke-linecap="round" stroke-linejoin="round"/>
<path d="M354.294 241.455L356.235 250.551L382.586 244.927L380.645 235.832L354.294 241.455Z" stroke="#848383" stroke-miterlimit="10" stroke-linecap="round" stroke-linejoin="round"/>
<path d="M351.736 229.438L353.677 238.533L380.028 232.91L378.087 223.814L351.736 229.438Z" stroke="#848383" stroke-miterlimit="10" stroke-linecap="round" stroke-linejoin="round"/>
<path d="M349.074 217.353L351.014 226.449L377.365 220.826L375.425 211.73L349.074 217.353Z" stroke="#848383" stroke-miterlimit="10" stroke-linecap="round" stroke-linejoin="round"/>
<path d="M346.515 205.336L348.456 214.431L374.807 208.808L372.866 199.712L346.515 205.336Z" stroke="#848383" stroke-miterlimit="10" stroke-linecap="round" stroke-linejoin="round"/>
<path d="M343.87 193.336L345.811 202.431L372.162 196.808L370.221 187.713L343.87 193.336Z" stroke="#848383" stroke-miterlimit="10" stroke-linecap="round" stroke-linejoin="round"/>
<path d="M341.313 181.318L343.254 190.414L369.605 184.791L367.664 175.695L341.313 181.318Z" stroke="#848383" stroke-miterlimit="10" stroke-linecap="round" stroke-linejoin="round"/>
<path d="M338.753 169.301L340.694 178.396L367.045 172.773L365.104 163.678L338.753 169.301Z" stroke="#848383" stroke-miterlimit="10" stroke-linecap="round" stroke-linejoin="round"/>
<path d="M332.92 158.319L337.412 166.462L361.004 153.449L356.512 145.306L332.92 158.319Z" stroke="#848383" stroke-miterlimit="10" stroke-linecap="round" stroke-linejoin="round"/>
<path d="M327.859 148.023L332.351 156.166L355.943 143.153L351.451 135.01L327.859 148.023Z" stroke="#848383" stroke-miterlimit="10" stroke-linecap="round" stroke-linejoin="round"/>
<path d="M322.834 137.609L327.326 145.752L350.918 132.739L346.426 124.596L322.834 137.609Z" stroke="#848383" stroke-miterlimit="10" stroke-linecap="round" stroke-linejoin="round"/>
<path d="M317.775 127.314L322.267 135.457L345.859 122.443L341.367 114.3L317.775 127.314Z" stroke="#848383" stroke-miterlimit="10" stroke-linecap="round" stroke-linejoin="round"/>
<path d="M312.715 117.018L317.206 125.161L340.798 112.147L336.306 104.004L312.715 117.018Z" stroke="#848383" stroke-miterlimit="10" stroke-linecap="round" stroke-linejoin="round"/>
<path d="M307.503 102.875L311.995 111.018L335.587 98.0043L331.095 89.8613L307.503 102.875Z" stroke="#848383" stroke-miterlimit="10" stroke-linecap="round" stroke-linejoin="round"/>
<path d="M301.014 92.7089L305.506 100.852L329.098 87.8381L324.606 79.695L301.014 92.7089Z" stroke="#848383" stroke-miterlimit="10" stroke-linecap="round" stroke-linejoin="round"/>
<path d="M294.569 82.6193L299.061 90.7623L322.653 77.7485L318.161 69.6055L294.569 82.6193Z" stroke="#848383" stroke-miterlimit="10" stroke-linecap="round" stroke-linejoin="round"/>
<path d="M288.045 72.5713L292.536 80.7143L316.128 67.7005L311.637 59.5575L288.045 72.5713Z" stroke="#848383" stroke-miterlimit="10" stroke-linecap="round" stroke-linejoin="round"/>
<path d="M281.557 62.4056L286.049 70.5486L309.641 57.5347L305.149 49.3917L281.557 62.4056Z" stroke="#848383" stroke-miterlimit="10" stroke-linecap="round" stroke-linejoin="round"/>
<path d="M275.109 52.3158L279.6 60.4588L303.192 47.445L298.701 39.302L275.109 52.3158Z" stroke="#848383" stroke-miterlimit="10" stroke-linecap="round" stroke-linejoin="round"/>
<path d="M268.545 42.1918L273.037 50.3348L296.629 37.321L292.137 29.1779L268.545 42.1918Z" stroke="#848383" stroke-miterlimit="10" stroke-linecap="round" stroke-linejoin="round"/>
<path d="M262.098 32.102L266.59 40.245L290.182 27.2312L285.69 19.0882L262.098 32.102Z" stroke="#848383" stroke-miterlimit="10" stroke-linecap="round" stroke-linejoin="round"/>
<path d="M255.652 22.0125L260.144 30.1555L283.736 17.1417L279.244 8.99863L255.652 22.0125Z" stroke="#848383" stroke-miterlimit="10" stroke-linecap="round" stroke-linejoin="round"/>
<path d="M242.446 193.413L246.752 201.657L270.635 189.182L266.329 180.938L242.446 193.413Z" stroke="#848383" stroke-miterlimit="10" stroke-linecap="round" stroke-linejoin="round"/>
<path d="M236.827 182.631L241.132 190.874L265.015 178.399L260.71 170.156L236.827 182.631Z" stroke="#848383" stroke-miterlimit="10" stroke-linecap="round" stroke-linejoin="round"/>
<path d="M231.207 171.848L235.513 180.092L259.396 167.617L255.09 159.373L231.207 171.848Z" stroke="#848383" stroke-miterlimit="10" stroke-linecap="round" stroke-linejoin="round"/>
<path d="M225.589 161.066L229.895 169.309L253.778 156.834L249.472 148.591L225.589 161.066Z" stroke="#848383" stroke-miterlimit="10" stroke-linecap="round" stroke-linejoin="round"/>
<path d="M219.928 150.206L224.234 158.45L248.117 145.975L243.811 137.731L219.928 150.206Z" stroke="#848383" stroke-miterlimit="10" stroke-linecap="round" stroke-linejoin="round"/>
<path d="M214.233 139.464L218.538 147.707L242.421 135.232L238.115 126.989L214.233 139.464Z" stroke="#848383" stroke-miterlimit="10" stroke-linecap="round" stroke-linejoin="round"/>
<path d="M208.613 128.681L212.919 136.925L236.802 124.45L232.496 116.206L208.613 128.681Z" stroke="#848383" stroke-miterlimit="10" stroke-linecap="round" stroke-linejoin="round"/>
<path d="M202.993 117.899L207.299 126.142L231.182 113.667L226.876 105.424L202.993 117.899Z" stroke="#848383" stroke-miterlimit="10" stroke-linecap="round" stroke-linejoin="round"/>
<path d="M197.375 107.116L201.681 115.36L225.564 102.885L221.258 94.6413L197.375 107.116Z" stroke="#848383" stroke-miterlimit="10" stroke-linecap="round" stroke-linejoin="round"/>
<path d="M286.391 303.484L292.226 314.655L316.109 302.18L310.274 291.009L286.391 303.484Z" stroke="#848383" stroke-miterlimit="10" stroke-linecap="round" stroke-linejoin="round"/>
<path d="M278.75 288.795L284.585 299.966L308.468 287.491L302.633 276.32L278.75 288.795Z" stroke="#848383" stroke-miterlimit="10" stroke-linecap="round" stroke-linejoin="round"/>
<path d="M270.994 274.071L276.829 285.242L300.712 272.767L294.877 261.596L270.994 274.071Z" stroke="#848383" stroke-miterlimit="10" stroke-linecap="round" stroke-linejoin="round"/>
<path d="M263.353 259.382L269.188 270.553L293.071 258.079L287.236 246.907L263.353 259.382Z" stroke="#848383" stroke-miterlimit="10" stroke-linecap="round" stroke-linejoin="round"/>
<path d="M255.671 244.618L261.506 255.789L285.389 243.314L279.554 232.143L255.671 244.618Z" stroke="#848383" stroke-miterlimit="10" stroke-linecap="round" stroke-linejoin="round"/>
<path d="M247.913 229.893L253.748 241.064L277.631 228.589L271.796 217.418L247.913 229.893Z" stroke="#848383" stroke-miterlimit="10" stroke-linecap="round" stroke-linejoin="round"/>
<path d="M162.897 42.3642L161.333 18.8971" stroke="#848383" stroke-miterlimit="10" stroke-linecap="round" stroke-linejoin="round"/>
<path d="M179.499 42.0165L178.282 17.3326" stroke="#848383" stroke-miterlimit="10" stroke-linecap="round" stroke-linejoin="round"/>
<path d="M196.88 40.7128L196.185 16.7242" stroke="#848383" stroke-miterlimit="10" stroke-linecap="round" stroke-linejoin="round"/>
<path d="M213.395 40.2781L212.7 16.2895" stroke="#848383" stroke-miterlimit="10" stroke-linecap="round" stroke-linejoin="round"/>
<path d="M189.408 112.678L199.925 95.6429" stroke="#848383" stroke-miterlimit="10" stroke-linecap="round" stroke-linejoin="round"/>
<path d="M164.29 112.157L173.503 91.3842" stroke="#848383" stroke-miterlimit="10" stroke-linecap="round" stroke-linejoin="round"/>
<path d="M177.24 113.634L186.453 92.7747" stroke="#848383" stroke-miterlimit="10" stroke-linecap="round" stroke-linejoin="round"/>
<path d="M149.689 113.895L160.293 89.9934" stroke="#848383" stroke-miterlimit="10" stroke-linecap="round" stroke-linejoin="round"/>
<path d="M6.97428 163.003L29.6592 170.043" stroke="#848383" stroke-miterlimit="10" stroke-linecap="round" stroke-linejoin="round"/>
<path d="M14.101 147.966L37.3943 157.874" stroke="#848383" stroke-miterlimit="10" stroke-linecap="round" stroke-linejoin="round"/>
<path d="M21.1418 132.408L41.7407 143.707" stroke="#848383" stroke-miterlimit="10" stroke-linecap="round" stroke-linejoin="round"/>
<path d="M29.2243 115.808L50.2578 128.236" stroke="#848383" stroke-miterlimit="10" stroke-linecap="round" stroke-linejoin="round"/>
<path d="M70.683 54.8799L91.108 67.8303" stroke="#848383" stroke-miterlimit="10" stroke-linecap="round" stroke-linejoin="round"/>
<path d="M80.5912 42.1032L102.059 55.7489" stroke="#848383" stroke-miterlimit="10" stroke-linecap="round" stroke-linejoin="round"/>
<path d="M90.9353 29.5874L112.49 43.2331" stroke="#848383" stroke-miterlimit="10" stroke-linecap="round" stroke-linejoin="round"/>
<path d="M62.5124 162.481L82.2422 168.826" stroke="#848383" stroke-miterlimit="10" stroke-linecap="round" stroke-linejoin="round"/>
<path d="M70.769 147.966L91.7155 156.31" stroke="#848383" stroke-miterlimit="10" stroke-linecap="round" stroke-linejoin="round"/>
<path d="M38.4191 341.493L39.6359 465.956L409.895 466.999L418.586 455.96L425.54 433.623L416.587 409.287L411.372 379.649L412.155 367.828L367.828 157.493L338.798 100.303L327.847 75.1845L278.914 2.00183L244.93 14.6045L141.587 19.298L142.891 41.2875L118.207 44.0688L111.341 22.2531L93.0888 25.1213L61.5385 64.5808L83.9627 78.4003L57.7143 114.296L35.9855 100.129L2.00159 172.79L38.4191 341.493Z" stroke="white" stroke-width="4" stroke-miterlimit="10" stroke-linecap="round" stroke-linejoin="round"/>
<path d="M103.605 147.324L90.7418 139.936L103.779 118.903L120.119 127.073L103.605 147.324Z" stroke="white" stroke-width="4" stroke-miterlimit="10" stroke-linecap="round" stroke-linejoin="round"/>
<path d="M35.9855 100.129L61.5386 64.5807" stroke="white" stroke-width="4" stroke-miterlimit="10" stroke-linecap="round" stroke-linejoin="round"/>
<path d="M111.342 22.2529L141.589 19.2978" stroke="white" stroke-width="4" stroke-miterlimit="10" stroke-linecap="round" stroke-linejoin="round"/>
</svg>
