<svg width="529" height="646" viewBox="0 0 529 646" fill="none" xmlns="http://www.w3.org/2000/svg">
<path d="M422.599 531.935L446.757 542.015" stroke="#848383" stroke-miterlimit="10" stroke-linecap="round" stroke-linejoin="round"/>
<path d="M109.075 457.203L9.8378 258.208" stroke="#848383" stroke-miterlimit="10" stroke-linecap="round" stroke-linejoin="round"/>
<path d="M132.45 445.559L33.2128 246.477" stroke="#848383" stroke-miterlimit="10" stroke-linecap="round" stroke-linejoin="round"/>
<path d="M10.0117 223.71L114.289 57.3884" stroke="#848383" stroke-miterlimit="10" stroke-linecap="round" stroke-linejoin="round"/>
<path d="M32.1692 237.614L136.446 71.292" stroke="#848383" stroke-miterlimit="10" stroke-linecap="round" stroke-linejoin="round"/>
<path d="M148.004 622.829L109.074 457.203" stroke="#848383" stroke-miterlimit="10" stroke-linecap="round" stroke-linejoin="round"/>
<path d="M173.466 616.833L134.536 451.207" stroke="#848383" stroke-miterlimit="10" stroke-linecap="round" stroke-linejoin="round"/>
<path d="M471.611 169.399L259.234 68.685" stroke="#848383" stroke-miterlimit="10" stroke-linecap="round" stroke-linejoin="round"/>
<path d="M460.4 193.035L248.37 92.4951" stroke="#848383" stroke-miterlimit="10" stroke-linecap="round" stroke-linejoin="round"/>
<path d="M447.714 221.798L163.995 87.2811" stroke="#848383" stroke-miterlimit="10" stroke-linecap="round" stroke-linejoin="round"/>
<path d="M436.505 245.434L152.785 110.917" stroke="#848383" stroke-miterlimit="10" stroke-linecap="round" stroke-linejoin="round"/>
<path d="M425.293 269.07L141.573 134.553" stroke="#848383" stroke-miterlimit="10" stroke-linecap="round" stroke-linejoin="round"/>
<path d="M463.963 322.164L132.885 165.141" stroke="#848383" stroke-miterlimit="10" stroke-linecap="round" stroke-linejoin="round"/>
<path d="M452.753 345.801L109.769 183.216" stroke="#848383" stroke-miterlimit="10" stroke-linecap="round" stroke-linejoin="round"/>
<path d="M441.544 369.437L98.5597 206.852" stroke="#848383" stroke-miterlimit="10" stroke-linecap="round" stroke-linejoin="round"/>
<path d="M248.37 92.4948L259.58 68.8587" stroke="#848383" stroke-miterlimit="10" stroke-linecap="round" stroke-linejoin="round"/>
<path d="M260.19 98.1431L271.399 74.5071" stroke="#848383" stroke-miterlimit="10" stroke-linecap="round" stroke-linejoin="round"/>
<path d="M248.37 92.4948L259.58 68.8587" stroke="#848383" stroke-miterlimit="10" stroke-linecap="round" stroke-linejoin="round"/>
<path d="M272.007 103.705L283.217 80.0687" stroke="#848383" stroke-miterlimit="10" stroke-linecap="round" stroke-linejoin="round"/>
<path d="M283.827 109.353L295.036 85.717" stroke="#848383" stroke-miterlimit="10" stroke-linecap="round" stroke-linejoin="round"/>
<path d="M295.644 114.914L306.854 91.2784" stroke="#848383" stroke-miterlimit="10" stroke-linecap="round" stroke-linejoin="round"/>
<path d="M307.461 120.563L318.671 96.9267" stroke="#848383" stroke-miterlimit="10" stroke-linecap="round" stroke-linejoin="round"/>
<path d="M319.279 126.124L330.489 102.488" stroke="#848383" stroke-miterlimit="10" stroke-linecap="round" stroke-linejoin="round"/>
<path d="M331.096 131.773L342.306 108.137" stroke="#848383" stroke-miterlimit="10" stroke-linecap="round" stroke-linejoin="round"/>
<path d="M342.916 137.334L354.126 113.698" stroke="#848383" stroke-miterlimit="10" stroke-linecap="round" stroke-linejoin="round"/>
<path d="M354.733 142.982L365.943 119.346" stroke="#848383" stroke-miterlimit="10" stroke-linecap="round" stroke-linejoin="round"/>
<path d="M366.551 148.544L377.761 124.908" stroke="#848383" stroke-miterlimit="10" stroke-linecap="round" stroke-linejoin="round"/>
<path d="M378.368 154.192L389.578 130.556" stroke="#848383" stroke-miterlimit="10" stroke-linecap="round" stroke-linejoin="round"/>
<path d="M390.188 159.753L401.484 136.117" stroke="#848383" stroke-miterlimit="10" stroke-linecap="round" stroke-linejoin="round"/>
<path d="M402.093 165.402L413.303 141.766" stroke="#848383" stroke-miterlimit="10" stroke-linecap="round" stroke-linejoin="round"/>
<path d="M413.911 170.963L425.12 147.327" stroke="#848383" stroke-miterlimit="10" stroke-linecap="round" stroke-linejoin="round"/>
<path d="M425.728 176.611L436.938 152.975" stroke="#848383" stroke-miterlimit="10" stroke-linecap="round" stroke-linejoin="round"/>
<path d="M437.546 182.173L448.755 158.537" stroke="#848383" stroke-miterlimit="10" stroke-linecap="round" stroke-linejoin="round"/>
<path d="M449.365 187.821L460.575 164.185" stroke="#848383" stroke-miterlimit="10" stroke-linecap="round" stroke-linejoin="round"/>
<path d="M461.182 193.383L472.392 169.747" stroke="#848383" stroke-miterlimit="10" stroke-linecap="round" stroke-linejoin="round"/>
<path d="M413.477 263.509L435.896 216.15" stroke="#848383" stroke-miterlimit="10" stroke-linecap="round" stroke-linejoin="round"/>
<path d="M401.657 257.861L424.077 210.589" stroke="#848383" stroke-miterlimit="10" stroke-linecap="round" stroke-linejoin="round"/>
<path d="M389.84 252.299L412.259 204.94" stroke="#848383" stroke-miterlimit="10" stroke-linecap="round" stroke-linejoin="round"/>
<path d="M378.02 246.651L400.44 199.379" stroke="#848383" stroke-miterlimit="10" stroke-linecap="round" stroke-linejoin="round"/>
<path d="M366.203 241.003L388.622 193.731" stroke="#848383" stroke-miterlimit="10" stroke-linecap="round" stroke-linejoin="round"/>
<path d="M354.385 235.441L376.805 188.169" stroke="#848383" stroke-miterlimit="10" stroke-linecap="round" stroke-linejoin="round"/>
<path d="M342.568 229.793L364.988 182.521" stroke="#848383" stroke-miterlimit="10" stroke-linecap="round" stroke-linejoin="round"/>
<path d="M330.751 224.231L353.17 176.959" stroke="#848383" stroke-miterlimit="10" stroke-linecap="round" stroke-linejoin="round"/>
<path d="M318.845 218.583L341.352 171.311" stroke="#848383" stroke-miterlimit="10" stroke-linecap="round" stroke-linejoin="round"/>
<path d="M307.028 213.021L329.534 165.749" stroke="#848383" stroke-miterlimit="10" stroke-linecap="round" stroke-linejoin="round"/>
<path d="M295.208 207.373L317.628 160.101" stroke="#848383" stroke-miterlimit="10" stroke-linecap="round" stroke-linejoin="round"/>
<path d="M283.391 201.812L305.81 154.54" stroke="#848383" stroke-miterlimit="10" stroke-linecap="round" stroke-linejoin="round"/>
<path d="M271.571 196.163L293.991 148.891" stroke="#848383" stroke-miterlimit="10" stroke-linecap="round" stroke-linejoin="round"/>
<path d="M259.754 190.602L282.173 143.33" stroke="#848383" stroke-miterlimit="10" stroke-linecap="round" stroke-linejoin="round"/>
<path d="M247.936 184.954L270.356 137.682" stroke="#848383" stroke-miterlimit="10" stroke-linecap="round" stroke-linejoin="round"/>
<path d="M236.119 179.392L258.538 132.12" stroke="#848383" stroke-miterlimit="10" stroke-linecap="round" stroke-linejoin="round"/>
<path d="M224.301 173.744L246.721 126.472" stroke="#848383" stroke-miterlimit="10" stroke-linecap="round" stroke-linejoin="round"/>
<path d="M212.482 168.183L234.901 120.91" stroke="#848383" stroke-miterlimit="10" stroke-linecap="round" stroke-linejoin="round"/>
<path d="M200.664 162.534L223.084 115.262" stroke="#848383" stroke-miterlimit="10" stroke-linecap="round" stroke-linejoin="round"/>
<path d="M188.847 156.973L211.267 109.701" stroke="#848383" stroke-miterlimit="10" stroke-linecap="round" stroke-linejoin="round"/>
<path d="M177.03 151.324L199.449 104.052" stroke="#848383" stroke-miterlimit="10" stroke-linecap="round" stroke-linejoin="round"/>
<path d="M165.21 145.763L187.63 98.4908" stroke="#848383" stroke-miterlimit="10" stroke-linecap="round" stroke-linejoin="round"/>
<path d="M153.391 140.115L175.81 92.8425" stroke="#848383" stroke-miterlimit="10" stroke-linecap="round" stroke-linejoin="round"/>
<path d="M136.447 71.292L114.288 57.3884" stroke="#848383" stroke-miterlimit="10" stroke-linecap="round" stroke-linejoin="round"/>
<path d="M129.495 82.4149L107.336 68.5114" stroke="#848383" stroke-miterlimit="10" stroke-linecap="round" stroke-linejoin="round"/>
<path d="M122.544 93.4507L100.385 79.5471" stroke="#848383" stroke-miterlimit="10" stroke-linecap="round" stroke-linejoin="round"/>
<path d="M115.591 104.574L93.4317 90.6701" stroke="#848383" stroke-miterlimit="10" stroke-linecap="round" stroke-linejoin="round"/>
<path d="M108.639 115.61L86.4804 101.793" stroke="#848383" stroke-miterlimit="10" stroke-linecap="round" stroke-linejoin="round"/>
<path d="M101.688 126.732L79.529 112.829" stroke="#848383" stroke-miterlimit="10" stroke-linecap="round" stroke-linejoin="round"/>
<path d="M94.7365 137.855L72.5777 123.952" stroke="#848383" stroke-miterlimit="10" stroke-linecap="round" stroke-linejoin="round"/>
<path d="M87.7832 148.891L65.6244 134.988" stroke="#848383" stroke-miterlimit="10" stroke-linecap="round" stroke-linejoin="round"/>
<path d="M80.8319 160.014L58.6731 146.111" stroke="#848383" stroke-miterlimit="10" stroke-linecap="round" stroke-linejoin="round"/>
<path d="M73.8805 171.05L51.7217 157.147" stroke="#848383" stroke-miterlimit="10" stroke-linecap="round" stroke-linejoin="round"/>
<path d="M66.9292 182.173L44.7704 168.27" stroke="#848383" stroke-miterlimit="10" stroke-linecap="round" stroke-linejoin="round"/>
<path d="M59.9759 193.209L37.8171 179.392" stroke="#848383" stroke-miterlimit="10" stroke-linecap="round" stroke-linejoin="round"/>
<path d="M53.0246 204.332L30.8657 190.428" stroke="#848383" stroke-miterlimit="10" stroke-linecap="round" stroke-linejoin="round"/>
<path d="M46.0732 215.455L23.9144 201.551" stroke="#848383" stroke-miterlimit="10" stroke-linecap="round" stroke-linejoin="round"/>
<path d="M39.1219 226.491L16.9631 212.587" stroke="#848383" stroke-miterlimit="10" stroke-linecap="round" stroke-linejoin="round"/>
<path d="M32.1705 237.614L10.0117 223.71" stroke="#848383" stroke-miterlimit="10" stroke-linecap="round" stroke-linejoin="round"/>
<path d="M122.283 218.062L144.702 170.703" stroke="#848383" stroke-miterlimit="10" stroke-linecap="round" stroke-linejoin="round"/>
<path d="M134.1 223.623L156.52 176.351" stroke="#848383" stroke-miterlimit="10" stroke-linecap="round" stroke-linejoin="round"/>
<path d="M145.92 229.271L168.339 181.999" stroke="#848383" stroke-miterlimit="10" stroke-linecap="round" stroke-linejoin="round"/>
<path d="M157.737 234.833L180.156 187.561" stroke="#848383" stroke-miterlimit="10" stroke-linecap="round" stroke-linejoin="round"/>
<path d="M169.556 240.481L191.976 193.209" stroke="#848383" stroke-miterlimit="10" stroke-linecap="round" stroke-linejoin="round"/>
<path d="M181.374 246.042L203.793 198.77" stroke="#848383" stroke-miterlimit="10" stroke-linecap="round" stroke-linejoin="round"/>
<path d="M193.191 251.691L215.611 204.419" stroke="#848383" stroke-miterlimit="10" stroke-linecap="round" stroke-linejoin="round"/>
<path d="M382.279 341.369L404.698 294.097" stroke="#848383" stroke-miterlimit="10" stroke-linecap="round" stroke-linejoin="round"/>
<path d="M370.461 335.721L392.881 288.449" stroke="#848383" stroke-miterlimit="10" stroke-linecap="round" stroke-linejoin="round"/>
<path d="M358.644 330.159L381.063 282.887" stroke="#848383" stroke-miterlimit="10" stroke-linecap="round" stroke-linejoin="round"/>
<path d="M346.826 324.511L369.246 277.239" stroke="#848383" stroke-miterlimit="10" stroke-linecap="round" stroke-linejoin="round"/>
<path d="M335.007 318.949L357.426 271.677" stroke="#848383" stroke-miterlimit="10" stroke-linecap="round" stroke-linejoin="round"/>
<path d="M323.189 313.301L345.609 266.029" stroke="#848383" stroke-miterlimit="10" stroke-linecap="round" stroke-linejoin="round"/>
<path d="M311.372 307.74L333.791 260.467" stroke="#848383" stroke-miterlimit="10" stroke-linecap="round" stroke-linejoin="round"/>
<path d="M299.554 302.091L321.974 254.819" stroke="#848383" stroke-miterlimit="10" stroke-linecap="round" stroke-linejoin="round"/>
<path d="M287.737 296.53L310.157 249.258" stroke="#848383" stroke-miterlimit="10" stroke-linecap="round" stroke-linejoin="round"/>
<path d="M275.918 290.881L298.337 243.609" stroke="#848383" stroke-miterlimit="10" stroke-linecap="round" stroke-linejoin="round"/>
<path d="M264.098 285.32L286.518 238.048" stroke="#848383" stroke-miterlimit="10" stroke-linecap="round" stroke-linejoin="round"/>
<path d="M252.281 279.672L274.7 232.4" stroke="#848383" stroke-miterlimit="10" stroke-linecap="round" stroke-linejoin="round"/>
<path d="M240.463 274.11L262.883 226.838" stroke="#848383" stroke-miterlimit="10" stroke-linecap="round" stroke-linejoin="round"/>
<path d="M228.646 268.462L251.065 221.19" stroke="#848383" stroke-miterlimit="10" stroke-linecap="round" stroke-linejoin="round"/>
<path d="M216.826 262.901L239.246 215.629" stroke="#848383" stroke-miterlimit="10" stroke-linecap="round" stroke-linejoin="round"/>
<path d="M205.009 257.252L227.428 209.98" stroke="#848383" stroke-miterlimit="10" stroke-linecap="round" stroke-linejoin="round"/>
<path d="M430.855 399.155L100.037 242.219" stroke="#848383" stroke-miterlimit="10" stroke-linecap="round" stroke-linejoin="round"/>
<path d="M419.646 422.792L88.8275 265.855" stroke="#848383" stroke-miterlimit="10" stroke-linecap="round" stroke-linejoin="round"/>
<path d="M408.522 446.428L101.253 300.701" stroke="#848383" stroke-miterlimit="10" stroke-linecap="round" stroke-linejoin="round"/>
<path d="M406.612 480.318L150.96 359.096" stroke="#848383" stroke-miterlimit="10" stroke-linecap="round" stroke-linejoin="round"/>
<path d="M395.401 503.954L147.135 386.208" stroke="#848383" stroke-miterlimit="10" stroke-linecap="round" stroke-linejoin="round"/>
<path d="M384.192 527.59L159.562 421.054" stroke="#848383" stroke-miterlimit="10" stroke-linecap="round" stroke-linejoin="round"/>
<path d="M375.067 558.004L185.978 468.326" stroke="#848383" stroke-miterlimit="10" stroke-linecap="round" stroke-linejoin="round"/>
<path d="M363.859 581.64L174.77 491.962" stroke="#848383" stroke-miterlimit="10" stroke-linecap="round" stroke-linejoin="round"/>
<path d="M352.648 605.276L187.196 526.808" stroke="#848383" stroke-miterlimit="10" stroke-linecap="round" stroke-linejoin="round"/>
<path d="M100.645 271.503L111.855 247.867" stroke="#848383" stroke-miterlimit="10" stroke-linecap="round" stroke-linejoin="round"/>
<path d="M101.253 300.701L123.672 253.429" stroke="#848383" stroke-miterlimit="10" stroke-linecap="round" stroke-linejoin="round"/>
<path d="M113.072 306.349L135.579 259.077" stroke="#848383" stroke-miterlimit="10" stroke-linecap="round" stroke-linejoin="round"/>
<path d="M124.89 311.998L147.396 264.639" stroke="#848383" stroke-miterlimit="10" stroke-linecap="round" stroke-linejoin="round"/>
<path d="M136.795 317.559L159.215 270.287" stroke="#848383" stroke-miterlimit="10" stroke-linecap="round" stroke-linejoin="round"/>
<path d="M148.613 323.208L171.032 275.848" stroke="#848383" stroke-miterlimit="10" stroke-linecap="round" stroke-linejoin="round"/>
<path d="M160.432 328.769L182.851 281.497" stroke="#848383" stroke-miterlimit="10" stroke-linecap="round" stroke-linejoin="round"/>
<path d="M349.519 418.447L371.939 371.175" stroke="#848383" stroke-miterlimit="10" stroke-linecap="round" stroke-linejoin="round"/>
<path d="M337.702 412.885L360.121 365.613" stroke="#848383" stroke-miterlimit="10" stroke-linecap="round" stroke-linejoin="round"/>
<path d="M325.882 407.237L348.302 359.965" stroke="#848383" stroke-miterlimit="10" stroke-linecap="round" stroke-linejoin="round"/>
<path d="M314.065 401.676L336.484 354.404" stroke="#848383" stroke-miterlimit="10" stroke-linecap="round" stroke-linejoin="round"/>
<path d="M302.247 396.027L324.667 348.755" stroke="#848383" stroke-miterlimit="10" stroke-linecap="round" stroke-linejoin="round"/>
<path d="M290.43 390.466L312.85 343.194" stroke="#848383" stroke-miterlimit="10" stroke-linecap="round" stroke-linejoin="round"/>
<path d="M278.613 384.818L301.032 337.546" stroke="#848383" stroke-miterlimit="10" stroke-linecap="round" stroke-linejoin="round"/>
<path d="M266.793 379.256L289.213 331.984" stroke="#848383" stroke-miterlimit="10" stroke-linecap="round" stroke-linejoin="round"/>
<path d="M254.976 373.608L277.395 326.336" stroke="#848383" stroke-miterlimit="10" stroke-linecap="round" stroke-linejoin="round"/>
<path d="M243.156 368.047L265.576 320.774" stroke="#848383" stroke-miterlimit="10" stroke-linecap="round" stroke-linejoin="round"/>
<path d="M231.339 362.398L253.758 315.126" stroke="#848383" stroke-miterlimit="10" stroke-linecap="round" stroke-linejoin="round"/>
<path d="M219.521 356.837L241.941 309.565" stroke="#848383" stroke-miterlimit="10" stroke-linecap="round" stroke-linejoin="round"/>
<path d="M207.702 351.188L230.121 303.916" stroke="#848383" stroke-miterlimit="10" stroke-linecap="round" stroke-linejoin="round"/>
<path d="M195.884 345.627L218.304 298.268" stroke="#848383" stroke-miterlimit="10" stroke-linecap="round" stroke-linejoin="round"/>
<path d="M184.067 339.979L206.486 292.706" stroke="#848383" stroke-miterlimit="10" stroke-linecap="round" stroke-linejoin="round"/>
<path d="M172.249 334.417L194.669 287.058" stroke="#848383" stroke-miterlimit="10" stroke-linecap="round" stroke-linejoin="round"/>
<path d="M110.377 212.413L132.884 165.141" stroke="#848383" stroke-miterlimit="10" stroke-linecap="round" stroke-linejoin="round"/>
<path d="M98.5597 206.852L109.77 183.216" stroke="#848383" stroke-miterlimit="10" stroke-linecap="round" stroke-linejoin="round"/>
<path d="M88.8275 265.855L100.037 242.219" stroke="#848383" stroke-miterlimit="10" stroke-linecap="round" stroke-linejoin="round"/>
<path d="M141.573 134.553L163.993 87.2811" stroke="#848383" stroke-miterlimit="10" stroke-linecap="round" stroke-linejoin="round"/>
<path d="M313.195 493.961L335.615 446.689" stroke="#848383" stroke-miterlimit="10" stroke-linecap="round" stroke-linejoin="round"/>
<path d="M170.77 397.418L181.98 373.782" stroke="#848383" stroke-miterlimit="10" stroke-linecap="round" stroke-linejoin="round"/>
<path d="M171.38 426.702L193.799 379.43" stroke="#848383" stroke-miterlimit="10" stroke-linecap="round" stroke-linejoin="round"/>
<path d="M158.953 391.856L170.162 368.22" stroke="#848383" stroke-miterlimit="10" stroke-linecap="round" stroke-linejoin="round"/>
<path d="M147.135 386.208L158.345 362.572" stroke="#848383" stroke-miterlimit="10" stroke-linecap="round" stroke-linejoin="round"/>
<path d="M183.197 432.263L205.617 384.991" stroke="#848383" stroke-miterlimit="10" stroke-linecap="round" stroke-linejoin="round"/>
<path d="M195.017 437.912L217.436 390.64" stroke="#848383" stroke-miterlimit="10" stroke-linecap="round" stroke-linejoin="round"/>
<path d="M206.834 443.473L229.254 396.201" stroke="#848383" stroke-miterlimit="10" stroke-linecap="round" stroke-linejoin="round"/>
<path d="M218.654 449.122L241.073 401.85" stroke="#848383" stroke-miterlimit="10" stroke-linecap="round" stroke-linejoin="round"/>
<path d="M230.471 454.683L252.891 407.411" stroke="#848383" stroke-miterlimit="10" stroke-linecap="round" stroke-linejoin="round"/>
<path d="M242.289 460.331L264.708 413.059" stroke="#848383" stroke-miterlimit="10" stroke-linecap="round" stroke-linejoin="round"/>
<path d="M254.106 465.893L276.525 418.621" stroke="#848383" stroke-miterlimit="10" stroke-linecap="round" stroke-linejoin="round"/>
<path d="M265.923 471.541L288.343 424.269" stroke="#848383" stroke-miterlimit="10" stroke-linecap="round" stroke-linejoin="round"/>
<path d="M277.743 477.103L300.162 429.831" stroke="#848383" stroke-miterlimit="10" stroke-linecap="round" stroke-linejoin="round"/>
<path d="M289.56 482.751L311.98 435.479" stroke="#848383" stroke-miterlimit="10" stroke-linecap="round" stroke-linejoin="round"/>
<path d="M301.378 488.312L323.797 441.04" stroke="#848383" stroke-miterlimit="10" stroke-linecap="round" stroke-linejoin="round"/>
<path d="M281.739 571.647L292.949 548.011" stroke="#848383" stroke-miterlimit="10" stroke-linecap="round" stroke-linejoin="round"/>
<path d="M159.562 421.054L181.982 373.782" stroke="#848383" stroke-miterlimit="10" stroke-linecap="round" stroke-linejoin="round"/>
<path d="M174.77 491.962L185.98 468.326" stroke="#848383" stroke-miterlimit="10" stroke-linecap="round" stroke-linejoin="round"/>
<path d="M186.588 497.61L197.798 473.974" stroke="#848383" stroke-miterlimit="10" stroke-linecap="round" stroke-linejoin="round"/>
<path d="M187.196 526.808L198.405 503.172" stroke="#848383" stroke-miterlimit="10" stroke-linecap="round" stroke-linejoin="round"/>
<path d="M199.013 532.456L210.223 508.82" stroke="#848383" stroke-miterlimit="10" stroke-linecap="round" stroke-linejoin="round"/>
<path d="M210.833 538.018L222.042 514.382" stroke="#848383" stroke-miterlimit="10" stroke-linecap="round" stroke-linejoin="round"/>
<path d="M222.65 543.666L233.86 520.03" stroke="#848383" stroke-miterlimit="10" stroke-linecap="round" stroke-linejoin="round"/>
<path d="M234.468 549.227L245.677 525.591" stroke="#848383" stroke-miterlimit="10" stroke-linecap="round" stroke-linejoin="round"/>
<path d="M246.285 554.876L257.495 531.24" stroke="#848383" stroke-miterlimit="10" stroke-linecap="round" stroke-linejoin="round"/>
<path d="M269.922 566.085L281.132 542.449" stroke="#848383" stroke-miterlimit="10" stroke-linecap="round" stroke-linejoin="round"/>
<path d="M258.102 560.437L269.312 536.801" stroke="#848383" stroke-miterlimit="10" stroke-linecap="round" stroke-linejoin="round"/>
<path d="M134.535 451.207L109.074 457.203" stroke="#848383" stroke-miterlimit="10" stroke-linecap="round" stroke-linejoin="round"/>
<path d="M137.489 463.981L112.029 469.977" stroke="#848383" stroke-miterlimit="10" stroke-linecap="round" stroke-linejoin="round"/>
<path d="M140.531 476.755L114.983 482.664" stroke="#848383" stroke-miterlimit="10" stroke-linecap="round" stroke-linejoin="round"/>
<path d="M143.485 489.442L118.024 495.438" stroke="#848383" stroke-miterlimit="10" stroke-linecap="round" stroke-linejoin="round"/>
<path d="M146.527 502.216L120.979 508.212" stroke="#848383" stroke-miterlimit="10" stroke-linecap="round" stroke-linejoin="round"/>
<path d="M149.483 514.903L124.022 520.899" stroke="#848383" stroke-miterlimit="10" stroke-linecap="round" stroke-linejoin="round"/>
<path d="M152.438 527.677L126.977 533.673" stroke="#848383" stroke-miterlimit="10" stroke-linecap="round" stroke-linejoin="round"/>
<path d="M155.479 540.364L130.018 546.36" stroke="#848383" stroke-miterlimit="10" stroke-linecap="round" stroke-linejoin="round"/>
<path d="M158.431 553.138L132.971 559.134" stroke="#848383" stroke-miterlimit="10" stroke-linecap="round" stroke-linejoin="round"/>
<path d="M161.472 565.825L136.011 571.821" stroke="#848383" stroke-miterlimit="10" stroke-linecap="round" stroke-linejoin="round"/>
<path d="M164.427 578.599L138.966 584.595" stroke="#848383" stroke-miterlimit="10" stroke-linecap="round" stroke-linejoin="round"/>
<path d="M167.47 591.373L142.009 597.368" stroke="#848383" stroke-miterlimit="10" stroke-linecap="round" stroke-linejoin="round"/>
<path d="M170.425 604.06L144.964 610.056" stroke="#848383" stroke-miterlimit="10" stroke-linecap="round" stroke-linejoin="round"/>
<path d="M173.466 616.833L148.005 622.829" stroke="#848383" stroke-miterlimit="10" stroke-linecap="round" stroke-linejoin="round"/>
<path d="M109.074 457.203L132.449 445.559" stroke="#848383" stroke-miterlimit="10" stroke-linecap="round" stroke-linejoin="round"/>
<path d="M103.166 445.559L126.628 433.828" stroke="#848383" stroke-miterlimit="10" stroke-linecap="round" stroke-linejoin="round"/>
<path d="M97.3422 433.828L120.805 422.184" stroke="#848383" stroke-miterlimit="10" stroke-linecap="round" stroke-linejoin="round"/>
<path d="M91.5204 422.096L114.983 410.452" stroke="#848383" stroke-miterlimit="10" stroke-linecap="round" stroke-linejoin="round"/>
<path d="M85.7006 410.366L109.076 398.721" stroke="#848383" stroke-miterlimit="10" stroke-linecap="round" stroke-linejoin="round"/>
<path d="M79.8769 398.721L103.252 386.99" stroke="#848383" stroke-miterlimit="10" stroke-linecap="round" stroke-linejoin="round"/>
<path d="M74.0551 386.99L97.4305 375.346" stroke="#848383" stroke-miterlimit="10" stroke-linecap="round" stroke-linejoin="round"/>
<path d="M68.1454 375.259L91.6077 363.615" stroke="#848383" stroke-miterlimit="10" stroke-linecap="round" stroke-linejoin="round"/>
<path d="M62.3236 363.528L85.7859 351.884" stroke="#848383" stroke-miterlimit="10" stroke-linecap="round" stroke-linejoin="round"/>
<path d="M56.5019 351.884L79.9642 340.153" stroke="#848383" stroke-miterlimit="10" stroke-linecap="round" stroke-linejoin="round"/>
<path d="M50.6801 340.152L74.0555 328.508" stroke="#848383" stroke-miterlimit="10" stroke-linecap="round" stroke-linejoin="round"/>
<path d="M44.8583 328.421L68.2337 316.777" stroke="#848383" stroke-miterlimit="10" stroke-linecap="round" stroke-linejoin="round"/>
<path d="M39.0346 316.69L62.41 305.046" stroke="#848383" stroke-miterlimit="10" stroke-linecap="round" stroke-linejoin="round"/>
<path d="M33.1268 305.046L56.5891 293.315" stroke="#848383" stroke-miterlimit="10" stroke-linecap="round" stroke-linejoin="round"/>
<path d="M27.3031 293.315L50.7654 281.67" stroke="#848383" stroke-miterlimit="10" stroke-linecap="round" stroke-linejoin="round"/>
<path d="M21.4833 281.584L44.9456 269.939" stroke="#848383" stroke-miterlimit="10" stroke-linecap="round" stroke-linejoin="round"/>
<path d="M15.6596 269.852L39.0349 258.208" stroke="#848383" stroke-miterlimit="10" stroke-linecap="round" stroke-linejoin="round"/>
<path d="M9.8378 258.208L33.2132 246.477" stroke="#848383" stroke-miterlimit="10" stroke-linecap="round" stroke-linejoin="round"/>
<path d="M293.557 577.295L304.767 553.659" stroke="#848383" stroke-miterlimit="10" stroke-linecap="round" stroke-linejoin="round"/>
<path d="M305.376 582.944L316.586 559.308" stroke="#848383" stroke-miterlimit="10" stroke-linecap="round" stroke-linejoin="round"/>
<path d="M295.383 612.923L212.57 573.646" stroke="#848383" stroke-miterlimit="10" stroke-linecap="round" stroke-linejoin="round"/>
<path d="M284.173 636.559L201.36 597.282" stroke="#848383" stroke-miterlimit="10" stroke-linecap="round" stroke-linejoin="round"/>
<path d="M284.172 636.559L295.382 612.923" stroke="#848383" stroke-miterlimit="10" stroke-linecap="round" stroke-linejoin="round"/>
<path d="M272.267 630.911L283.477 607.275" stroke="#848383" stroke-miterlimit="10" stroke-linecap="round" stroke-linejoin="round"/>
<path d="M260.45 625.263L271.659 601.627" stroke="#848383" stroke-miterlimit="10" stroke-linecap="round" stroke-linejoin="round"/>
<path d="M248.632 619.701L259.842 596.065" stroke="#848383" stroke-miterlimit="10" stroke-linecap="round" stroke-linejoin="round"/>
<path d="M236.813 614.053L248.022 590.417" stroke="#848383" stroke-miterlimit="10" stroke-linecap="round" stroke-linejoin="round"/>
<path d="M224.995 608.491L236.205 584.855" stroke="#848383" stroke-miterlimit="10" stroke-linecap="round" stroke-linejoin="round"/>
<path d="M213.178 602.843L224.387 579.207" stroke="#848383" stroke-miterlimit="10" stroke-linecap="round" stroke-linejoin="round"/>
<path d="M201.36 597.282L212.57 573.646" stroke="#848383" stroke-miterlimit="10" stroke-linecap="round" stroke-linejoin="round"/>
<path d="M201.36 597.282L212.57 573.646" stroke="#848383" stroke-miterlimit="10" stroke-linecap="round" stroke-linejoin="round"/>
<path d="M336.832 505.171L348.042 481.534" stroke="#848383" stroke-miterlimit="10" stroke-linecap="round" stroke-linejoin="round"/>
<path d="M317.194 588.505L328.403 564.869" stroke="#848383" stroke-miterlimit="10" stroke-linecap="round" stroke-linejoin="round"/>
<path d="M425.294 269.07L447.714 221.798" stroke="#848383" stroke-miterlimit="10" stroke-linecap="round" stroke-linejoin="round"/>
<path d="M394.096 347.017L416.603 299.745" stroke="#848383" stroke-miterlimit="10" stroke-linecap="round" stroke-linejoin="round"/>
<path d="M361.337 424.008L383.756 376.736" stroke="#848383" stroke-miterlimit="10" stroke-linecap="round" stroke-linejoin="round"/>
<path d="M336.832 505.17L359.339 457.898" stroke="#848383" stroke-miterlimit="10" stroke-linecap="round" stroke-linejoin="round"/>
<path d="M325.015 499.522L347.434 452.25" stroke="#848383" stroke-miterlimit="10" stroke-linecap="round" stroke-linejoin="round"/>
<path d="M348.652 510.732L371.071 463.46" stroke="#848383" stroke-miterlimit="10" stroke-linecap="round" stroke-linejoin="round"/>
<path d="M317.194 588.505L328.403 564.869" stroke="#848383" stroke-miterlimit="10" stroke-linecap="round" stroke-linejoin="round"/>
<path d="M329.013 594.067L340.223 570.431" stroke="#848383" stroke-miterlimit="10" stroke-linecap="round" stroke-linejoin="round"/>
<path d="M188.325 617.094L175.29 617.702" stroke="#848383" stroke-miterlimit="10" stroke-linecap="round" stroke-linejoin="round"/>
<path d="M189.542 643.25L176.508 643.858" stroke="#848383" stroke-miterlimit="10" stroke-linecap="round" stroke-linejoin="round"/>
<path d="M189.542 643.25L188.325 617.094" stroke="#848383" stroke-miterlimit="10" stroke-linecap="round" stroke-linejoin="round"/>
<path d="M176.507 643.858L175.29 617.702" stroke="#848383" stroke-miterlimit="10" stroke-linecap="round" stroke-linejoin="round"/>
<path d="M176.507 643.858L175.29 617.702" stroke="#848383" stroke-miterlimit="10" stroke-linecap="round" stroke-linejoin="round"/>
<path d="M201.36 616.486L188.325 617.094" stroke="#848383" stroke-miterlimit="10" stroke-linecap="round" stroke-linejoin="round"/>
<path d="M202.664 642.555L189.543 643.251" stroke="#848383" stroke-miterlimit="10" stroke-linecap="round" stroke-linejoin="round"/>
<path d="M202.664 642.555L201.36 616.486" stroke="#848383" stroke-miterlimit="10" stroke-linecap="round" stroke-linejoin="round"/>
<path d="M189.542 643.25L188.325 617.094" stroke="#848383" stroke-miterlimit="10" stroke-linecap="round" stroke-linejoin="round"/>
<path d="M189.542 643.25L188.325 617.094" stroke="#848383" stroke-miterlimit="10" stroke-linecap="round" stroke-linejoin="round"/>
<path d="M100.036 242.219L88.2177 236.658" stroke="#848383" stroke-miterlimit="10" stroke-linecap="round" stroke-linejoin="round"/>
<path d="M88.828 265.855L77.01 260.294" stroke="#848383" stroke-miterlimit="10" stroke-linecap="round" stroke-linejoin="round"/>
<path d="M88.8275 265.855L100.037 242.219" stroke="#848383" stroke-miterlimit="10" stroke-linecap="round" stroke-linejoin="round"/>
<path d="M77.01 260.294L88.2197 236.658" stroke="#848383" stroke-miterlimit="10" stroke-linecap="round" stroke-linejoin="round"/>
<path d="M77.01 260.294L88.2197 236.658" stroke="#848383" stroke-miterlimit="10" stroke-linecap="round" stroke-linejoin="round"/>
<path d="M88.827 265.855L83.2656 277.673" stroke="#848383" stroke-miterlimit="10" stroke-linecap="round" stroke-linejoin="round"/>
<path d="M112.462 277.065L106.901 288.883" stroke="#848383" stroke-miterlimit="10" stroke-linecap="round" stroke-linejoin="round"/>
<path d="M112.464 277.065L88.8275 265.855" stroke="#848383" stroke-miterlimit="10" stroke-linecap="round" stroke-linejoin="round"/>
<path d="M106.902 288.883L83.2656 277.673" stroke="#848383" stroke-miterlimit="10" stroke-linecap="round" stroke-linejoin="round"/>
<path d="M106.902 288.883L83.2656 277.673" stroke="#848383" stroke-miterlimit="10" stroke-linecap="round" stroke-linejoin="round"/>
<path d="M170.771 397.418L158.953 391.856" stroke="#848383" stroke-miterlimit="10" stroke-linecap="round" stroke-linejoin="round"/>
<path d="M159.561 421.054L147.743 415.492" stroke="#848383" stroke-miterlimit="10" stroke-linecap="round" stroke-linejoin="round"/>
<path d="M159.562 421.054L170.772 397.418" stroke="#848383" stroke-miterlimit="10" stroke-linecap="round" stroke-linejoin="round"/>
<path d="M147.743 415.492L158.953 391.856" stroke="#848383" stroke-miterlimit="10" stroke-linecap="round" stroke-linejoin="round"/>
<path d="M147.743 415.492L158.953 391.856" stroke="#848383" stroke-miterlimit="10" stroke-linecap="round" stroke-linejoin="round"/>
<path d="M158.345 362.572L146.527 356.924" stroke="#848383" stroke-miterlimit="10" stroke-linecap="round" stroke-linejoin="round"/>
<path d="M147.136 386.208L135.318 380.646" stroke="#848383" stroke-miterlimit="10" stroke-linecap="round" stroke-linejoin="round"/>
<path d="M147.135 386.208L158.345 362.572" stroke="#848383" stroke-miterlimit="10" stroke-linecap="round" stroke-linejoin="round"/>
<path d="M135.318 380.647L146.527 356.924" stroke="#848383" stroke-miterlimit="10" stroke-linecap="round" stroke-linejoin="round"/>
<path d="M135.318 380.647L146.527 356.924" stroke="#848383" stroke-miterlimit="10" stroke-linecap="round" stroke-linejoin="round"/>
<path d="M132.797 165.141L120.979 159.493" stroke="#848383" stroke-miterlimit="10" stroke-linecap="round" stroke-linejoin="round"/>
<path d="M121.587 188.777L109.769 183.129" stroke="#848383" stroke-miterlimit="10" stroke-linecap="round" stroke-linejoin="round"/>
<path d="M121.587 188.777L132.797 165.141" stroke="#848383" stroke-miterlimit="10" stroke-linecap="round" stroke-linejoin="round"/>
<path d="M109.769 183.129L120.979 159.493" stroke="#848383" stroke-miterlimit="10" stroke-linecap="round" stroke-linejoin="round"/>
<path d="M109.769 183.129L120.979 159.493" stroke="#848383" stroke-miterlimit="10" stroke-linecap="round" stroke-linejoin="round"/>
<path d="M207.009 604.668L201.36 616.486" stroke="#848383" stroke-miterlimit="10" stroke-linecap="round" stroke-linejoin="round"/>
<path d="M230.643 615.878L224.995 627.696" stroke="#848383" stroke-miterlimit="10" stroke-linecap="round" stroke-linejoin="round"/>
<path d="M230.644 615.878L207.008 604.668" stroke="#848383" stroke-miterlimit="10" stroke-linecap="round" stroke-linejoin="round"/>
<path d="M224.996 627.696L201.36 616.486" stroke="#848383" stroke-miterlimit="10" stroke-linecap="round" stroke-linejoin="round"/>
<path d="M224.996 627.696L201.36 616.486" stroke="#848383" stroke-miterlimit="10" stroke-linecap="round" stroke-linejoin="round"/>
<path d="M233.858 59.0395L227.688 70.5968" stroke="#848383" stroke-miterlimit="10" stroke-linecap="round" stroke-linejoin="round"/>
<path d="M256.974 71.292L250.891 82.8494" stroke="#848383" stroke-miterlimit="10" stroke-linecap="round" stroke-linejoin="round"/>
<path d="M256.974 71.292L233.86 59.0395" stroke="#848383" stroke-miterlimit="10" stroke-linecap="round" stroke-linejoin="round"/>
<path d="M250.89 82.8493L227.688 70.5968" stroke="#848383" stroke-miterlimit="10" stroke-linecap="round" stroke-linejoin="round"/>
<path d="M250.89 82.8493L227.688 70.5968" stroke="#848383" stroke-miterlimit="10" stroke-linecap="round" stroke-linejoin="round"/>
<path d="M210.745 46.7869L204.575 58.3443" stroke="#848383" stroke-miterlimit="10" stroke-linecap="round" stroke-linejoin="round"/>
<path d="M233.858 59.0395L227.688 70.5968" stroke="#848383" stroke-miterlimit="10" stroke-linecap="round" stroke-linejoin="round"/>
<path d="M233.859 59.0395L210.745 46.7869" stroke="#848383" stroke-miterlimit="10" stroke-linecap="round" stroke-linejoin="round"/>
<path d="M227.69 70.5968L204.575 58.3443" stroke="#848383" stroke-miterlimit="10" stroke-linecap="round" stroke-linejoin="round"/>
<path d="M227.69 70.5968L204.575 58.3443" stroke="#848383" stroke-miterlimit="10" stroke-linecap="round" stroke-linejoin="round"/>
<path d="M292.949 548.011L304.159 524.375" stroke="#848383" stroke-miterlimit="10" stroke-linecap="round" stroke-linejoin="round"/>
<path d="M198.405 503.172L209.615 479.536" stroke="#848383" stroke-miterlimit="10" stroke-linecap="round" stroke-linejoin="round"/>
<path d="M210.223 508.82L221.433 485.184" stroke="#848383" stroke-miterlimit="10" stroke-linecap="round" stroke-linejoin="round"/>
<path d="M222.04 514.382L233.25 490.745" stroke="#848383" stroke-miterlimit="10" stroke-linecap="round" stroke-linejoin="round"/>
<path d="M233.86 520.03L245.07 496.394" stroke="#848383" stroke-miterlimit="10" stroke-linecap="round" stroke-linejoin="round"/>
<path d="M245.677 525.591L256.887 501.955" stroke="#848383" stroke-miterlimit="10" stroke-linecap="round" stroke-linejoin="round"/>
<path d="M257.495 531.24L268.704 507.604" stroke="#848383" stroke-miterlimit="10" stroke-linecap="round" stroke-linejoin="round"/>
<path d="M281.132 542.449L292.341 518.813" stroke="#848383" stroke-miterlimit="10" stroke-linecap="round" stroke-linejoin="round"/>
<path d="M269.312 536.801L280.522 513.165" stroke="#848383" stroke-miterlimit="10" stroke-linecap="round" stroke-linejoin="round"/>
<path d="M304.768 553.659L315.978 530.023" stroke="#848383" stroke-miterlimit="10" stroke-linecap="round" stroke-linejoin="round"/>
<path d="M316.672 559.308L327.882 535.671" stroke="#848383" stroke-miterlimit="10" stroke-linecap="round" stroke-linejoin="round"/>
<path d="M328.403 564.869L339.613 541.233" stroke="#848383" stroke-miterlimit="10" stroke-linecap="round" stroke-linejoin="round"/>
<path d="M328.403 564.869L339.613 541.233" stroke="#848383" stroke-miterlimit="10" stroke-linecap="round" stroke-linejoin="round"/>
<path d="M340.221 570.43L351.431 546.794" stroke="#848383" stroke-miterlimit="10" stroke-linecap="round" stroke-linejoin="round"/>
<path d="M340.831 599.715L352.04 576.079" stroke="#848383" stroke-miterlimit="10" stroke-linecap="round" stroke-linejoin="round"/>
<path d="M373.154 429.657L395.574 382.298" stroke="#848383" stroke-miterlimit="10" stroke-linecap="round" stroke-linejoin="round"/>
<path d="M384.886 435.218L407.305 387.946" stroke="#848383" stroke-miterlimit="10" stroke-linecap="round" stroke-linejoin="round"/>
<path d="M396.703 440.779L419.123 393.507" stroke="#848383" stroke-miterlimit="10" stroke-linecap="round" stroke-linejoin="round"/>
<path d="M408.523 446.428L430.942 399.069" stroke="#848383" stroke-miterlimit="10" stroke-linecap="round" stroke-linejoin="round"/>
<path d="M360.555 516.38L382.975 469.108" stroke="#848383" stroke-miterlimit="10" stroke-linecap="round" stroke-linejoin="round"/>
<path d="M417.559 544.1L441.717 554.094" stroke="#848383" stroke-miterlimit="10" stroke-linecap="round" stroke-linejoin="round"/>
<path d="M427.553 519.856L451.711 529.849" stroke="#848383" stroke-miterlimit="10" stroke-linecap="round" stroke-linejoin="round"/>
<path d="M432.593 507.777L456.751 517.771" stroke="#848383" stroke-miterlimit="10" stroke-linecap="round" stroke-linejoin="round"/>
<path d="M442.586 483.533L466.743 493.526" stroke="#848383" stroke-miterlimit="10" stroke-linecap="round" stroke-linejoin="round"/>
<path d="M447.628 471.454L471.785 481.448" stroke="#848383" stroke-miterlimit="10" stroke-linecap="round" stroke-linejoin="round"/>
<path d="M452.58 459.376L476.824 469.369" stroke="#848383" stroke-miterlimit="10" stroke-linecap="round" stroke-linejoin="round"/>
<path d="M457.62 447.21L481.777 457.203" stroke="#848383" stroke-miterlimit="10" stroke-linecap="round" stroke-linejoin="round"/>
<path d="M462.66 435.131L486.817 445.124" stroke="#848383" stroke-miterlimit="10" stroke-linecap="round" stroke-linejoin="round"/>
<path d="M467.614 423.052L491.858 433.046" stroke="#848383" stroke-miterlimit="10" stroke-linecap="round" stroke-linejoin="round"/>
<path d="M472.652 410.887L496.81 420.88" stroke="#848383" stroke-miterlimit="10" stroke-linecap="round" stroke-linejoin="round"/>
<path d="M477.694 398.808L501.852 408.801" stroke="#848383" stroke-miterlimit="10" stroke-linecap="round" stroke-linejoin="round"/>
<path d="M482.646 386.729L506.804 396.723" stroke="#848383" stroke-miterlimit="10" stroke-linecap="round" stroke-linejoin="round"/>
<path d="M487.686 374.564L511.844 384.557" stroke="#848383" stroke-miterlimit="10" stroke-linecap="round" stroke-linejoin="round"/>
<path d="M492.638 362.485L516.883 372.478" stroke="#848383" stroke-miterlimit="10" stroke-linecap="round" stroke-linejoin="round"/>
<path d="M497.68 350.406L521.838 360.399" stroke="#848383" stroke-miterlimit="10" stroke-linecap="round" stroke-linejoin="round"/>
<path d="M437.633 495.612L461.791 505.692" stroke="#848383" stroke-miterlimit="10" stroke-linecap="round" stroke-linejoin="round"/>
<path d="M372.373 522.028L394.792 474.669" stroke="#848383" stroke-miterlimit="10" stroke-linecap="round" stroke-linejoin="round"/>
<path d="M384.192 527.59L406.611 480.318" stroke="#848383" stroke-miterlimit="10" stroke-linecap="round" stroke-linejoin="round"/>
<path d="M352.04 576.079L363.25 552.442" stroke="#848383" stroke-miterlimit="10" stroke-linecap="round" stroke-linejoin="round"/>
<path d="M363.858 581.64L375.068 558.004" stroke="#848383" stroke-miterlimit="10" stroke-linecap="round" stroke-linejoin="round"/>
<path d="M352.648 605.363L363.858 581.727" stroke="#848383" stroke-miterlimit="10" stroke-linecap="round" stroke-linejoin="round"/>
<path d="M406.004 352.666L428.423 305.394" stroke="#848383" stroke-miterlimit="10" stroke-linecap="round" stroke-linejoin="round"/>
<path d="M417.821 358.227L440.241 310.955" stroke="#848383" stroke-miterlimit="10" stroke-linecap="round" stroke-linejoin="round"/>
<path d="M429.725 363.875L452.144 316.603" stroke="#848383" stroke-miterlimit="10" stroke-linecap="round" stroke-linejoin="round"/>
<path d="M441.544 369.523L463.963 322.164" stroke="#848383" stroke-miterlimit="10" stroke-linecap="round" stroke-linejoin="round"/>
<path d="M116.532 50.1423L112.535 56.5727L2.00117 232.974L7.91021 258.957L106.886 458.125L148.336 634.353L176.404 643.999L287.024 636.96L337.338 637.395L352.545 605.416L374.965 558.144L385.305 563.097L404.51 552.148L441.615 554.234L526.687 348.635L502.617 338.381L513.827 311.269L430.492 271.731L472.985 169.539L259.043 68.8252L257.219 71.6059L210.729 46.2319L145.469 2.00117L141.385 8.51847" stroke="white" stroke-width="4" stroke-miterlimit="10" stroke-linecap="round" stroke-linejoin="round"/>
</svg>
