<svg width="32" height="32" viewBox="0 0 32 32" fill="none" xmlns="http://www.w3.org/2000/svg">
<path d="M31.5459 0.0269627C31.4685 0.00325592 31.3872 -0.00493615 31.3066 0.0028555C31.226 0.0106472 31.1478 0.0342695 31.0763 0.0723682C31.0049 0.110467 30.9417 0.162292 30.8903 0.224873C30.839 0.287453 30.8005 0.359557 30.777 0.43705C30.654 0.857389 30.1721 2.57975 29.7518 4.09708L29.4237 5.28633C29.0137 6.73189 28.7574 6.7934 27.8039 7.03945L26.8607 7.2855C26.7186 6.99821 26.5186 6.74337 26.2734 6.53696C26.0282 6.33055 25.743 6.17702 25.4356 6.086C25.149 6.00032 24.8483 5.97252 24.5508 6.0042C24.2533 6.03588 23.9652 6.12642 23.703 6.27054C23.4305 6.41959 23.1904 6.62148 22.9967 6.8644C22.8031 7.10732 22.6598 7.38641 22.5753 7.68534L19.6739 18.1118H13.8097C13.6338 17.8768 13.4419 17.6541 13.2356 17.4454C12.6489 16.8548 11.9507 16.3866 11.1816 16.0681C10.4125 15.7495 9.58782 15.5869 8.75536 15.5898C8.31794 15.5896 7.88165 15.6343 7.45333 15.723L6.01803 10.597H10.0061C10.1693 10.597 10.3257 10.5321 10.4411 10.4168C10.5564 10.3014 10.6213 10.145 10.6213 9.98183V8.81308C10.6086 8.36141 10.4599 7.92407 10.1947 7.55825C9.92945 7.19243 9.56002 6.91514 9.13469 6.76264C7.10967 6.06983 5.03197 5.54183 2.92187 5.18381C2.146 5.18652 1.40283 5.49664 0.855171 6.04622C0.307507 6.59581 -4.7427e-06 7.34005 0 8.11593V10.0023C0 10.1655 0.0648082 10.3219 0.180168 10.4373C0.295527 10.5527 0.451988 10.6175 0.61513 10.6175H4.716L6.25383 16.0921C4.7533 16.7287 3.5564 17.9199 2.91271 19.4174C2.26903 20.9148 2.22823 22.603 2.79884 24.1298C1.94791 26.5186 1.00471 29.1124 0.994461 29.1124C0.981804 29.1836 0.981804 29.2565 0.994461 29.3277C0.99579 29.6795 1.06674 30.0275 1.20322 30.3517C1.3397 30.676 1.53901 30.97 1.78967 31.2168C2.04032 31.4637 2.33735 31.6585 2.66364 31.7899C2.98993 31.9214 3.33902 31.9871 3.69078 31.983H26.4096C27.1148 31.9803 27.7901 31.6982 28.2878 31.1986C28.7855 30.6991 29.0649 30.0226 29.0649 29.3174C29.0764 29.2496 29.0764 29.1802 29.0649 29.1124C29.0649 29.1124 26.5736 22.1717 25.9893 20.5826C25.8822 20.1288 25.6844 19.7014 25.4078 19.3261C25.1311 18.9508 24.7814 18.6354 24.3797 18.3989L27.035 8.95661C27.0781 8.80606 27.1056 8.65145 27.117 8.49526L28.1422 8.23895C29.3417 7.93139 30.0491 7.65458 30.6232 5.62465L30.9513 4.42515C31.3717 2.91808 31.8433 1.20596 31.9765 0.785624C31.9983 0.707536 32.0044 0.625913 31.9946 0.545449C31.9847 0.464985 31.959 0.387268 31.919 0.316764C31.879 0.246261 31.8254 0.184363 31.7614 0.134628C31.6974 0.0848937 31.6241 0.0483038 31.5459 0.0269627ZM1.23026 8.11593C1.23025 7.66634 1.40815 7.23501 1.72509 6.91614C2.04204 6.59727 2.47229 6.41678 2.92187 6.41407C4.89776 6.74761 6.84471 7.23435 8.74511 7.86988C8.93265 7.94453 9.09399 8.07288 9.20889 8.23885C9.32379 8.40481 9.38714 8.601 9.39099 8.80282V9.3872H1.18925L1.23026 8.11593ZM25.3639 22.469H21.7961C21.633 22.469 21.4765 22.5338 21.3612 22.6491C21.2458 22.7645 21.181 22.921 21.181 23.0841C21.181 23.2472 21.2458 23.4037 21.3612 23.5191C21.4765 23.6344 21.633 23.6992 21.7961 23.6992H25.8047L26.6762 26.2418H19.4996C19.3365 26.2418 19.18 26.3066 19.0647 26.4219C18.9493 26.5373 18.8845 26.6938 18.8845 26.8569C18.8845 27.02 18.9493 27.1765 19.0647 27.2919C19.18 27.4072 19.3365 27.472 19.4996 27.472H27.1683L27.8757 29.461C27.8498 29.8218 27.6887 30.1596 27.4244 30.4067C27.1602 30.6539 26.8124 30.7921 26.4506 30.7937H3.69078C3.329 30.7921 2.98119 30.6539 2.71696 30.4067C2.45273 30.1596 2.29157 29.8218 2.26573 29.461L3.64977 25.6471C3.84852 25.9387 4.07144 26.2131 4.31616 26.4673C5.50055 27.6324 7.094 28.2874 8.75536 28.2922C9.25264 28.293 9.74825 28.2345 10.2317 28.1179C10.3907 28.0799 10.5282 27.9802 10.6137 27.8408C10.6993 27.7014 10.726 27.5337 10.6879 27.3746C10.6498 27.2156 10.5501 27.0781 10.4107 26.9926C10.2713 26.907 10.1037 26.8804 9.94461 26.9184C8.77549 27.2063 7.54205 27.0683 6.4655 26.5291C5.38895 25.9899 4.53971 25.0847 4.07011 23.976C4.0535 23.9103 4.02576 23.8479 3.9881 23.7915C3.63081 22.8672 3.54911 21.8591 3.7529 20.8892C3.95669 19.9194 4.43722 19.0295 5.13634 18.3271C5.93024 17.5524 6.95402 17.0561 8.05398 16.9127C9.15394 16.7694 10.2707 16.9867 11.2367 17.5321C12.2026 18.0774 12.9656 18.9214 13.411 19.9373C13.8565 20.9532 13.9604 22.0862 13.7072 23.1661C13.6883 23.2449 13.6852 23.3266 13.6979 23.4066C13.7106 23.4865 13.739 23.5632 13.7813 23.6322C13.8669 23.7716 14.0043 23.8713 14.1634 23.9094C14.3224 23.9475 14.4901 23.9208 14.6295 23.8352C14.7689 23.7497 14.8686 23.6122 14.9067 23.4532C15.2428 22.0832 15.113 20.6403 14.5376 19.3523H23.0161C23.1902 19.3402 23.3649 19.3402 23.539 19.3523C24.0106 19.4651 24.4104 19.8137 24.7898 20.9414L25.3639 22.469ZM25.8457 8.57728L23.1699 18.1221H20.9554L23.7645 8.02366C23.8049 7.88284 23.8728 7.75143 23.9643 7.63704C24.0558 7.52265 24.1691 7.42756 24.2977 7.35727C24.4185 7.29043 24.5517 7.24871 24.6891 7.23461C24.8265 7.22052 24.9654 7.23434 25.0973 7.27525C25.3724 7.3541 25.6053 7.53829 25.7454 7.78782C25.8856 8.03736 25.9216 8.33209 25.8457 8.60803V8.57728Z" fill="black"/>
<path d="M9.22782 21.4846C9.1735 21.4185 9.10601 21.3646 9.02967 21.3261C8.95333 21.2876 8.8698 21.2655 8.78442 21.2611C8.69904 21.2567 8.61368 21.2701 8.53378 21.3006C8.45389 21.331 8.38122 21.3778 8.32041 21.4378C8.2596 21.4979 8.21199 21.5701 8.1806 21.6496C8.14922 21.7291 8.13476 21.8143 8.13815 21.8997C8.14153 21.9852 8.16268 22.0689 8.20026 22.1457C8.23784 22.2225 8.29101 22.2906 8.35638 22.3457L12.3855 26.4466C12.4398 26.5126 12.5073 26.5666 12.5836 26.6051C12.66 26.6436 12.7435 26.6657 12.8289 26.6701C12.9143 26.6745 12.9996 26.6611 13.0795 26.6306C13.1594 26.6002 13.2321 26.5534 13.2929 26.4933C13.3537 26.4332 13.4013 26.3611 13.4327 26.2816C13.4641 26.2021 13.4785 26.1169 13.4752 26.0314C13.4718 25.946 13.4506 25.8622 13.413 25.7854C13.3755 25.7086 13.3223 25.6405 13.2569 25.5854L9.22782 21.4846Z" fill="black"/>
</svg>
