<svg width="222" height="33" viewBox="0 0 222 33" fill="none" xmlns="http://www.w3.org/2000/svg">
<path d="M210.828 17.728H216.007V17.6698L214.555 16.7551V16.489L218.265 11.4999V16.7967L216.812 17.7114V17.7696H222V17.7114L220.547 16.7967V9.71219L222 8.79752V8.74763H216.804V8.79752L218.257 9.71219V9.97827L214.546 14.9674V9.71219L215.999 8.79752V8.74763H210.828V8.79752L212.28 9.71219V16.7551L210.828 17.6698V17.728ZM199.099 17.728H204.279V17.6698L202.826 16.7551V13.5039H206.578V16.7551L205.125 17.6698V17.728H210.305V17.6698L208.852 16.7551V9.71219L210.305 8.79752V8.74763H205.125V8.79752L206.578 9.71219V12.6558H202.826V9.71219L204.279 8.79752V8.74763H199.099V8.79752L200.552 9.71219V16.7551L199.099 17.6698V17.728ZM194.692 17.9608C197.124 17.9608 198.792 16.6803 198.792 15.1586C198.792 13.6369 197.572 12.9135 196.053 12.8387L196.643 12.689C197.088 12.624 197.497 12.4061 197.8 12.0724C198.103 11.7387 198.28 11.3101 198.303 10.8597C198.303 9.83692 197.423 8.53975 194.858 8.53975C193.93 8.53851 193.013 8.73701 192.169 9.12181V11.791H192.227L193.713 9.37127C193.884 9.32981 194.059 9.31025 194.235 9.31306C194.473 9.30617 194.709 9.34791 194.93 9.43573C195.15 9.52355 195.351 9.6556 195.519 9.82377C195.686 9.99195 195.818 10.1927 195.906 10.4137C195.994 10.6348 196.035 10.8714 196.028 11.1091C196.028 12.2234 195.024 12.7722 193.754 12.8719L193.804 13.587H194.177C194.441 13.5595 194.707 13.5865 194.959 13.6662C195.212 13.746 195.445 13.8769 195.645 14.0507C195.845 14.2245 196.008 14.4377 196.122 14.6769C196.236 14.9161 196.301 15.1763 196.311 15.4413C196.311 16.3893 195.48 17.2208 194.036 17.2208C193.333 17.1969 192.639 17.0622 191.978 16.8216L191.762 17.3289C192.667 17.771 193.66 18.004 194.667 18.0107L194.692 17.9608ZM180.034 17.7779H185.213V17.7197L183.76 16.805V16.5389L187.479 11.5498V16.8466L186.026 17.7613V17.8195H191.206V17.7613L189.753 16.8466V9.71219L191.206 8.79752V8.74763H186.026V8.79752L187.479 9.71219V9.97827L183.769 14.9674V9.71219L185.221 8.79752V8.74763H180.042V8.79752L181.494 9.71219V16.7551L180.042 17.6698L180.034 17.7779ZM176.772 17.7779H179.519L175.568 12.4728L179.287 8.79752V8.74763H175.195V8.79752L176.954 9.71219L173.551 13.2877L176.772 17.7779ZM169.691 17.7779H174.73V17.7197L173.277 16.805V9.71219L174.73 8.79752V8.74763H169.691V8.79752L171.144 9.71219V16.7551L169.691 17.6698V17.7779ZM164.902 17.7779H167.666L170.804 13.3043L167.4 9.72882L169.152 8.81415V8.76426H165.068V8.81415L168.828 12.4396L164.902 17.7779ZM154.004 11.9573C154.03 11.3702 154.201 10.7989 154.502 10.2942C154.678 10.022 154.917 9.79651 155.199 9.6372C155.481 9.47789 155.797 9.38948 156.12 9.37958C157.05 9.37958 157.714 10.0614 157.714 11.4085C157.714 11.4999 157.714 11.7328 157.714 11.8741L154.004 11.9573ZM155.797 17.9774C156.217 17.9753 156.632 17.8876 157.017 17.7197C158.068 17.2415 159.056 16.6325 159.955 15.907L159.648 15.4746C158.913 16.0181 158.022 16.3097 157.108 16.3061C155.257 16.3061 154.037 14.8343 153.987 12.714H159.905C159.905 12.4978 159.905 12.3897 159.905 12.2067C159.905 9.94501 158.669 8.50649 156.51 8.50649C155.876 8.50043 155.247 8.62333 154.662 8.86777C154.076 9.11221 153.546 9.47309 153.104 9.9286C152.662 10.3841 152.316 10.9248 152.089 11.5179C151.861 12.111 151.756 12.7442 151.779 13.3792C151.779 16.0151 153.539 17.9608 155.78 17.9608L155.797 17.9774ZM140.009 17.728H145.197V17.6698L143.745 16.7551V16.489L147.455 11.4999V16.7967L146.085 17.6698V17.728H151.265V17.6698L149.812 16.7551V9.71219L151.265 8.79752V8.74763H146.085V8.79752L147.538 9.71219V9.97827L143.828 14.9674V9.71219L145.28 8.79752V8.74763H140.092V8.79752L141.545 9.71219V16.7551L140.092 17.6698L140.009 17.728ZM128.289 17.728H133.469V17.6698L132.016 16.7551V13.5039H135.76V16.7551L134.307 17.6698V17.728H139.495V17.6698L138.042 16.7551V9.71219L139.495 8.79752V8.74763H134.307V8.79752L135.76 9.71219V12.6558H132.016V9.71219L133.469 8.79752V8.74763H128.289V8.79752L129.742 9.71219V16.7551L128.289 17.6698V17.728ZM122.604 16.5057C122.429 16.5162 122.255 16.4901 122.091 16.4291C121.927 16.3681 121.778 16.2735 121.653 16.1514C121.528 16.0292 121.43 15.8823 121.365 15.7199C121.3 15.5575 121.269 15.3833 121.276 15.2085C121.276 14.5849 121.583 14.1109 122.587 13.8116L124.147 13.321V16.0733C123.672 16.3334 123.144 16.4813 122.604 16.5057ZM121.442 17.9608C121.722 17.96 122.001 17.9237 122.272 17.8527L124.206 16.7219H124.247V17.9359H124.297L127.883 17.1044V17.0462L126.43 16.3477V11.1174C126.464 10.7604 126.417 10.4004 126.293 10.0638C126.17 9.72717 125.973 9.42251 125.717 9.17215C125.46 8.92178 125.151 8.73205 124.812 8.61686C124.473 8.50168 124.113 8.46397 123.757 8.50649C123.041 8.52 122.329 8.62906 121.641 8.83078C120.96 9.03035 119.524 9.46273 119.524 10.6102C119.526 10.7686 119.56 10.9249 119.622 11.0704C119.685 11.2158 119.775 11.3475 119.888 11.4579C120.002 11.5684 120.136 11.6553 120.282 11.7139C120.429 11.7725 120.586 11.8015 120.744 11.7993C121.127 11.7901 121.503 11.6904 121.84 11.5083L121.392 9.71219C121.839 9.53189 122.313 9.42789 122.795 9.40453C122.982 9.38529 123.171 9.40879 123.347 9.47324C123.524 9.5377 123.684 9.64144 123.815 9.77667C123.946 9.91191 124.045 10.0751 124.104 10.2541C124.163 10.433 124.181 10.623 124.156 10.8098V12.4728L121.234 13.2129C119.74 13.587 119.134 14.4352 119.134 15.5494C119.131 15.8574 119.188 16.1629 119.303 16.4487C119.417 16.7344 119.587 16.9948 119.802 17.2148C120.017 17.4349 120.273 17.6104 120.556 17.7312C120.839 17.8521 121.142 17.916 121.45 17.9192L121.442 17.9608ZM113.631 16.963C113.263 16.9703 112.899 16.8906 112.569 16.7302V13.321H113.216C114.835 13.321 115.532 14.2523 115.532 15.2917C115.526 15.5294 115.472 15.7634 115.371 15.9788C115.27 16.1942 115.126 16.3862 114.947 16.5427C114.768 16.6991 114.559 16.8165 114.332 16.8875C114.106 16.9584 113.867 16.9813 113.631 16.9547V16.963ZM112.569 12.5726V9.53757C112.799 9.48103 113.037 9.45586 113.274 9.46273C114.527 9.46273 115.208 10.1446 115.208 11.1258C115.208 11.9573 114.652 12.5975 113.415 12.5975L112.569 12.5726ZM108.875 17.6781H113.955C116.893 17.6781 117.931 16.2895 117.931 15.0671C117.931 13.6369 116.602 12.8969 115.191 12.7888L115.781 12.6391C116.226 12.5741 116.635 12.3562 116.938 12.0225C117.241 11.6889 117.419 11.2602 117.441 10.8098C117.441 9.77039 116.528 8.731 113.963 8.731H108.85V8.78089L110.303 9.69556V16.7385L108.85 17.6532L108.875 17.6781ZM103.837 17.1376C102.177 17.1376 101.471 15.0671 101.471 12.8636C101.471 11.0676 101.919 10.2028 102.392 9.73713C102.547 9.57649 102.733 9.44878 102.938 9.36164C103.144 9.27449 103.365 9.22969 103.588 9.22991C105.248 9.22991 105.953 11.3004 105.953 13.5039C105.953 15.3 105.505 16.1647 105.04 16.6304C104.884 16.792 104.697 16.9203 104.49 17.0075C104.283 17.0947 104.061 17.139 103.837 17.1376ZM103.355 17.9109C106.335 17.9109 108.501 16.0899 108.501 13.1463C108.532 12.5441 108.44 11.942 108.232 11.3763C108.023 10.8106 107.703 10.293 107.289 9.8548C106.876 9.41656 106.378 9.06674 105.826 8.82644C105.274 8.58614 104.679 8.46033 104.077 8.4566C101.097 8.4566 98.9311 10.2776 98.9311 13.2212C98.9008 13.8234 98.9926 14.4255 99.2009 14.9912C99.4092 15.5569 99.7298 16.0745 100.143 16.5127C100.557 16.951 101.054 17.3008 101.606 17.5411C102.158 17.7814 102.753 17.9072 103.355 17.9109ZM89.3027 17.6781H93.3367V17.6199L91.3944 16.672L93.511 14.1358L96.0011 17.6947H98.7734L95.1461 12.7056L98.5908 8.78921V8.73932H94.8639V8.78921L96.5821 9.68724L94.6481 11.949L92.9881 9.67061L94.3659 8.78921V8.73932H89.2197V8.78921L90.4731 9.77039L93.0545 13.4124L89.3442 17.6698L89.3027 17.6781ZM83.9407 16.4558C83.7664 16.4663 83.5918 16.4402 83.4281 16.3792C83.2644 16.3182 83.1153 16.2236 82.9903 16.1015C82.8652 15.9793 82.767 15.8324 82.702 15.67C82.637 15.5076 82.6065 15.3335 82.6126 15.1586C82.6126 14.535 82.9198 14.061 83.9241 13.7617L85.4929 13.3043V16.0566C85.0178 16.3167 84.4898 16.4646 83.949 16.489L83.9407 16.4558ZM82.7704 17.9608C83.0505 17.96 83.3294 17.9237 83.6004 17.8527L85.5344 16.7219V17.9359H85.5925L89.1782 17.1044V17.0462L87.7256 16.3477V11.1174C87.7591 10.7604 87.7124 10.4004 87.589 10.0638C87.4655 9.72717 87.2684 9.42251 87.0121 9.17215C86.7558 8.92178 86.4468 8.73205 86.1078 8.61686C85.7688 8.50168 85.4084 8.46397 85.0529 8.50649C84.3361 8.51921 83.6242 8.62828 82.9364 8.83078C82.2557 9.03035 80.8198 9.46273 80.8198 10.6102C80.8219 10.7686 80.8552 10.9249 80.9177 11.0704C80.9802 11.2158 81.0707 11.3475 81.184 11.4579C81.2973 11.5684 81.4312 11.6553 81.5781 11.7139C81.7249 11.7725 81.8819 11.8015 82.0399 11.7993C82.4229 11.7901 82.7983 11.6904 83.1356 11.5083L82.6874 9.71219C83.1318 9.53264 83.6031 9.42866 84.0818 9.40453C84.2728 9.37694 84.4675 9.39419 84.6507 9.45492C84.8339 9.51565 85.0005 9.6182 85.1373 9.75447C85.2741 9.89075 85.3775 10.057 85.4392 10.2402C85.5009 10.4233 85.5193 10.6183 85.4929 10.8098V12.4728L82.5711 13.2129C81.0771 13.587 80.4712 14.4352 80.4712 15.5494C80.4668 15.857 80.523 16.1623 80.6367 16.4481C80.7504 16.7338 80.9193 16.9942 81.1337 17.2143C81.3481 17.4345 81.6037 17.6101 81.886 17.7311C82.1683 17.852 82.4716 17.916 82.7787 17.9192L82.7704 17.9608ZM74.7024 17.0794C74.1796 17.0974 73.6694 16.9162 73.2748 16.5722V10.6102C73.6927 10.3117 74.1894 10.1439 74.7024 10.1279C76.0305 10.1279 77.1925 11.3336 77.1925 13.7201C77.1925 16.1065 75.9226 17.0462 74.7024 17.0462V17.0794ZM69.5396 21.819H75.1756V21.7692L73.2748 20.8545V17.9026C73.522 17.9405 73.7717 17.96 74.0218 17.9608C75.8396 17.9608 79.5083 16.6637 79.5083 12.5726C79.5541 11.5558 79.2012 10.5613 78.525 9.80159C77.8489 9.04186 76.903 8.57708 75.8894 8.50649C75.5302 8.50673 75.1736 8.5686 74.8352 8.68942L73.1752 9.91175V8.53144H73.1254L69.5396 9.36295V9.42116L70.9922 10.1196V20.8878L69.5396 21.8024V21.819ZM61.9448 17.6615H67.1242V17.6033L65.6717 16.6886V9.58746H67.2321L68.7179 11.9739H68.776V8.74763H60.2931V11.9739H60.3429L61.8369 9.58746H63.3974V16.7551L61.9448 17.6698V17.6615ZM54.3915 17.9276C55.2838 17.8993 56.1614 17.693 56.9729 17.3206C57.9733 16.8318 58.924 16.247 59.8116 15.5744L59.3966 15.0339C58.3682 15.7691 57.1481 16.1881 55.8856 16.2396C53.3955 16.2396 51.2706 14.3354 51.2706 10.7932C51.2706 8.29861 52.1006 6.88504 53.2295 6.21983C53.8606 5.81787 54.5988 5.61777 55.3461 5.64608C55.8782 5.63118 56.4057 5.7483 56.8816 5.987L59.0895 9.39621H59.1476V5.72923C58.0152 5.18549 56.7761 4.90143 55.5204 4.89772C51.2955 4.88109 48.5149 7.48373 48.5149 11.6413C48.5149 15.1087 51.0963 18.0024 54.3915 18.0024" fill="#444E69"/>
<path d="M37.7167 9.14667H37.6586L35.6914 6.01185H32.1223V10.8097H34.3136L35.8574 8.58123H35.9072V13.9196H35.8574L34.297 11.6745H32.0808V16.6303L34.3219 17.6531V17.7113H27.8144V17.6531L29.6239 16.6303V6.22805L27.8144 5.20528V5.15539H37.7167V9.14667ZM26.7603 8.91384C26.7603 11.1922 24.1955 12.5392 22.137 12.5392C21.8582 12.5516 21.579 12.5264 21.3069 12.4644V11.9489C21.6941 11.9932 22.0863 11.9499 22.4545 11.8224C22.8228 11.6948 23.1579 11.4861 23.435 11.2117C23.7121 10.9372 23.9243 10.604 24.0559 10.2366C24.1875 9.86913 24.2352 9.4768 24.1955 9.08846C24.239 8.68415 24.1935 8.27519 24.0619 7.89047C23.9304 7.50575 23.7162 7.15465 23.4343 6.86199C23.1525 6.56934 22.8099 6.34225 22.4308 6.19679C22.0518 6.05133 21.6454 5.99103 21.2405 6.02017C20.9613 6.01855 20.6827 6.04924 20.4105 6.11163V16.6303L22.6516 17.6531V17.7113H16.1109V17.6531L17.9204 16.6303V6.22805L16.1109 5.20528V5.15539H21.7054C25.482 5.15539 26.7603 6.90989 26.7603 8.87226V8.91384ZM15.0485 8.87226C15.0485 11.1506 12.492 12.4977 10.4252 12.4977C10.1464 12.5111 9.8671 12.486 9.59518 12.4228V11.9073C9.98234 11.9516 10.3745 11.9084 10.7428 11.7808C11.1111 11.6532 11.4461 11.4445 11.7232 11.1701C12.0004 10.8956 12.2125 10.5624 12.3442 10.195C12.4758 9.82755 12.5234 9.43523 12.4837 9.04688C12.5274 8.64183 12.4817 8.23209 12.3497 7.84673C12.2177 7.46137 12.0027 7.10981 11.7199 6.817C11.4371 6.5242 11.0935 6.2973 10.7134 6.15241C10.3333 6.00751 9.92603 5.94817 9.52048 5.97859C9.24126 5.97805 8.96286 6.00872 8.69044 6.07006V16.6303L10.9315 17.6531V17.7113H4.39917V17.6531L6.21695 16.6303V6.22805L4.39917 5.20528V5.15539H9.96039C13.7453 5.15539 15.0153 6.90989 15.0153 8.87226H15.0485ZM42.3317 0H0V32.9945H42.3317V0Z" fill="#444E69"/>
</svg>
