<svg width="62" height="80" viewBox="0 0 62 80" fill="none" xmlns="http://www.w3.org/2000/svg">
<g filter="url(#filter0_d_118_2262)">
<path d="M31 0C16.6704 0 5.00915 11.7421 5.00915 26.1785C5.00915 46.6911 28.5568 67.8707 29.5589 68.7602C29.9719 69.1269 30.4859 69.3089 31 69.3089C31.514 69.3089 32.0281 69.1269 32.441 68.7631C33.4431 67.8707 56.9908 46.6911 56.9908 26.1785C56.9908 11.7421 45.3296 0 31 0Z" fill="#FFC700"/>
</g>
<path d="M38.7556 25.99L39.1072 21.4212L35.1094 19.684L38.7556 25.99ZM27.0189 19.6528L22.9895 21.4212L23.3059 26.0943L27.0189 19.6528ZM27.3178 33.2029L30.9991 35.7809L34.6839 33.2029H27.3178ZM30.9991 17.9156L35.127 19.7014L31.0624 12.6345L27.0189 19.6528L30.9991 17.9156ZM38.3829 30.6144L34.6839 33.2029H42.9116L38.7556 25.99L38.3829 30.6144ZM23.6153 30.6144L23.3059 26.0977L19.2132 33.2029H27.3002L23.6153 30.6144ZM30.9991 8.66329C30.9991 8.66329 15.9433 17.5716 15.5284 35.1242C20.0606 38.8904 29.67 39.0051 30.9991 38.9842C32.3282 38.9634 41.9376 38.8835 46.4698 35.1242C46.0514 17.5716 30.9991 8.66329 30.9991 8.66329ZM38.4321 37.9072L30.9991 35.7809L23.5626 37.9072L19.2132 33.2029L17.1844 27.008L22.9895 21.4212L24.5506 14.257L31.0624 12.6345L37.4441 14.257L39.1247 21.4212L44.8138 27.008L42.908 33.2029L38.4321 37.9072Z" fill="black"/>
<defs>
<filter id="filter0_d_118_2262" x="0" y="0" width="62" height="79.3271" filterUnits="userSpaceOnUse" color-interpolation-filters="sRGB">
<feFlood flood-opacity="0" result="BackgroundImageFix"/>
<feColorMatrix in="SourceAlpha" type="matrix" values="0 0 0 0 0 0 0 0 0 0 0 0 0 0 0 0 0 0 127 0" result="hardAlpha"/>
<feOffset dy="5"/>
<feGaussianBlur stdDeviation="2.5"/>
<feColorMatrix type="matrix" values="0 0 0 0 0 0 0 0 0 0 0 0 0 0 0 0 0 0 0.4 0"/>
<feBlend mode="normal" in2="BackgroundImageFix" result="effect1_dropShadow_118_2262"/>
<feBlend mode="normal" in="SourceGraphic" in2="effect1_dropShadow_118_2262" result="shape"/>
</filter>
</defs>
</svg>
