<svg width="88" height="61" viewBox="0 0 88 61" fill="none" xmlns="http://www.w3.org/2000/svg">
<g opacity="0.4" clip-path="url(#clip0_59_77)">
<path fill-rule="evenodd" clip-rule="evenodd" d="M87.992 21.6567C87.992 21.6567 85.8766 19.2304 85.8766 16.525C85.8766 13.8196 87.8749 10.9791 87.8749 10.9791C83.7056 11.6503 79.4614 11.717 75.273 11.1772C75.3585 12.3791 75.4935 13.626 75.6826 14.972C75.733 15.063 75.7722 15.1597 75.7996 15.2601C75.85 15.4634 75.8358 15.6774 75.7591 15.8723C75.641 16.1344 75.4423 16.3521 75.192 16.4935C74.8757 16.6734 74.5344 16.8054 74.1793 16.8851C73.3698 17.078 72.6054 17.4266 71.929 17.9115C71.902 19.0728 71.857 20.2162 71.803 21.3461C76.5377 22.8046 86.8128 22.4085 87.9695 21.6567" fill="white"/>
<path fill-rule="evenodd" clip-rule="evenodd" d="M0.00805664 21.6568C0.00805664 21.6568 2.12788 19.4061 2.12788 16.7052C2.12788 14.0042 0.129575 11.1548 0.129575 11.1548C4.32139 11.8299 8.58893 11.8936 12.799 11.3438C12.709 12.5232 12.574 13.7477 12.3895 15.0576C12.3354 15.4357 12.619 15.8139 13.0195 16.264C13.2509 16.5563 13.5644 16.7726 13.9197 16.8852C14.5067 17.0283 15.0704 17.2542 15.5939 17.5559C15.6209 18.8824 15.666 20.1893 15.729 21.4768C10.8097 22.7777 1.13323 22.3861 0.00805664 21.6568Z" fill="white"/>
<path fill-rule="evenodd" clip-rule="evenodd" d="M71.6905 14.5759C71.5014 33.7074 69.5166 48.8234 45.4334 60.2168L43.7817 61L42.1299 60.2168C17.9117 48.7649 16.0259 33.7839 15.8684 14.5894C17.0386 14.5894 18.2133 14.5309 19.3924 14.4904C19.532 33.1852 21.1342 46.7798 43.7817 57.4348C66.4381 46.7752 68.0314 33.1762 68.1664 14.4679C69.3456 14.5129 70.5203 14.5489 71.6905 14.5759Z" fill="white"/>
<path fill-rule="evenodd" clip-rule="evenodd" d="M15.5488 14.5984C15.5488 15.4672 15.5488 16.3315 15.5848 17.1823C15.0827 16.9141 14.5489 16.7099 13.996 16.5746C13.4019 16.426 12.6458 15.5887 12.7313 15.2241C12.8128 15.0333 12.9552 14.875 13.1364 14.774C13.4222 14.657 13.7277 14.5959 14.0365 14.5939C14.2616 14.5939 15.0087 14.5939 15.5533 14.5939L15.5488 14.5984ZM75.4709 15.2511C75.5879 15.5707 75.597 16.2009 74.1207 16.5701C73.3554 16.7575 72.6289 17.0774 71.9739 17.5154C71.9739 16.5476 72.0099 15.5662 72.0234 14.5804C72.361 14.5804 73.7562 14.6344 74.0802 14.6209C74.389 14.6181 74.6952 14.6779 74.9804 14.7965C75.1941 14.8834 75.3675 15.0472 75.4664 15.2556L75.4709 15.2511ZM69.8406 11.5914C69.8406 11.6724 69.8181 11.7174 69.7911 11.7354C69.7406 11.7463 69.6885 11.7463 69.638 11.7354H69.4265C69.3719 11.7358 69.318 11.7235 69.269 11.6994C69.242 11.6994 69.233 11.6319 69.2375 11.5554L69.404 8.98951C69.404 8.91299 69.404 8.86347 69.4535 8.84997C69.5054 8.83834 69.5592 8.83834 69.611 8.84997H69.8226C69.8738 8.84889 69.9247 8.85968 69.9711 8.88148C69.9981 8.88148 70.0116 8.949 70.0071 9.03003L69.8406 11.5914ZM67.0546 11.5914C67.0001 11.5918 66.9461 11.5795 66.8971 11.5554C66.8701 11.5554 66.8611 11.4924 66.8656 11.4113L67.0276 8.84546C67.0276 8.76894 67.0276 8.71942 67.0816 8.70592C67.1335 8.69429 67.1873 8.69429 67.2392 8.70592H67.4507C67.5024 8.70573 67.5534 8.71809 67.5992 8.74193C67.6262 8.74193 67.6397 8.80495 67.6352 8.88598L67.5767 9.74127H67.7523H67.9278C68.106 9.74971 68.2819 9.78461 68.4499 9.8448C68.5772 9.89054 68.6926 9.96439 68.7874 10.0609C68.872 10.1455 68.9326 10.2512 68.9629 10.367C68.996 10.4886 69.0082 10.6149 68.9989 10.7406C68.9917 10.8609 68.9659 10.9793 68.9224 11.0917C68.8769 11.2065 68.8061 11.3096 68.7154 11.3933C68.6101 11.4891 68.4836 11.5585 68.3463 11.5959C68.1654 11.6489 67.9757 11.6657 67.7883 11.6454L67.0546 11.5914ZM67.8468 10.2409H67.7072H67.5452L67.4912 11.0692H67.7748C67.9314 11.0969 68.0926 11.0631 68.2248 10.9747C68.2715 10.9326 68.3088 10.8812 68.3343 10.8238C68.3599 10.7665 68.3732 10.7044 68.3733 10.6416C68.3786 10.5889 68.3721 10.5357 68.3542 10.4858C68.3363 10.436 68.3074 10.3908 68.2698 10.3535C68.1448 10.2679 67.9922 10.2326 67.8423 10.2544L67.8468 10.2409ZM65.8305 9.98885C65.9263 10.0148 66.0175 10.0559 66.1005 10.1104C66.2319 10.2003 66.3237 10.3373 66.357 10.493C66.366 10.5648 66.366 10.6373 66.357 10.7091C66.354 10.8457 66.3152 10.9792 66.2445 11.0962C66.1789 11.2023 66.0895 11.2917 65.9835 11.3573C65.8699 11.4249 65.7448 11.4707 65.6144 11.4924C65.4737 11.5197 65.33 11.5288 65.1869 11.5194C65.0121 11.5099 64.8395 11.4766 64.6738 11.4203C64.5231 11.3709 64.3806 11.2997 64.2507 11.2088C64.2507 11.2088 64.2507 11.2088 64.2237 11.1863C64.2111 11.1774 64.2016 11.1648 64.1967 11.1502C64.1917 11.1326 64.1917 11.1139 64.1967 11.0962C64.1994 11.0689 64.2087 11.0427 64.2237 11.0197L64.3407 10.8081C64.3677 10.7586 64.3947 10.7361 64.4217 10.7451C64.455 10.7494 64.4871 10.7601 64.5163 10.7766C64.6248 10.8323 64.7377 10.879 64.8538 10.9162C64.9632 10.9515 65.0766 10.9726 65.1914 10.9792C65.3307 10.9975 65.4722 10.9673 65.5919 10.8937C65.6338 10.8636 65.6685 10.8246 65.6934 10.7794C65.7184 10.7342 65.7329 10.6841 65.7359 10.6326C65.7423 10.5761 65.7332 10.519 65.7093 10.4674C65.6855 10.4158 65.648 10.3717 65.6009 10.34C65.4621 10.2668 65.3077 10.2282 65.1509 10.2274H64.9258C64.8493 10.2274 64.7998 10.2274 64.7863 10.1779C64.7752 10.1275 64.7752 10.0753 64.7863 10.0249V9.93933C64.7847 9.88655 64.7955 9.83413 64.8178 9.78628C64.8178 9.75927 64.8853 9.74577 64.9663 9.75027H65.2184C65.3004 9.76267 65.3839 9.76267 65.4659 9.75027C65.5255 9.7363 65.581 9.70855 65.6279 9.66924C65.6668 9.63791 65.6976 9.5978 65.7179 9.5522C65.7353 9.50595 65.7459 9.45744 65.7495 9.40815C65.7558 9.35121 65.7464 9.29363 65.7224 9.2416C65.7011 9.19784 65.6685 9.16055 65.6279 9.13356C65.5846 9.10417 65.5355 9.08423 65.4839 9.07504C65.428 9.06092 65.3706 9.05337 65.3129 9.05254C65.1982 9.04356 65.0827 9.05267 64.9708 9.07954C64.8528 9.10511 64.737 9.13973 64.6243 9.18308C64.6066 9.18765 64.588 9.18765 64.5703 9.18308C64.5506 9.17874 64.533 9.16758 64.5208 9.15157C64.4984 9.11415 64.4832 9.07296 64.4758 9.03003C64.4714 8.98813 64.4714 8.94588 64.4758 8.90399C64.4809 8.83211 64.5078 8.76348 64.5528 8.70721C64.5978 8.65094 64.6588 8.60968 64.7278 8.58888C64.9332 8.51926 65.1509 8.4932 65.3669 8.51235C65.499 8.52165 65.6301 8.54274 65.7584 8.57537C65.8786 8.60317 65.9928 8.65193 66.096 8.71942C66.1914 8.78219 66.2701 8.86714 66.3255 8.96701C66.3833 9.07776 66.4082 9.20268 66.3975 9.32713C66.3879 9.47638 66.3364 9.6199 66.249 9.74127C66.1446 9.87699 65.9941 9.96984 65.826 10.0024L65.8305 9.98885ZM61.9419 10.1104L61.8834 10.5065L62.0769 10.1554L63.2156 8.62039C63.2514 8.57549 63.2922 8.53473 63.3371 8.49885C63.3859 8.4654 63.4446 8.44953 63.5036 8.45383H63.7331C63.7859 8.45222 63.8383 8.46302 63.8862 8.48534C63.9132 8.48534 63.9267 8.55287 63.9222 8.63389L63.7826 11.1953C63.7826 11.2763 63.7826 11.3258 63.7331 11.3393C63.6813 11.3509 63.6275 11.3509 63.5756 11.3393H63.3641C63.3129 11.3393 63.2623 11.3286 63.2156 11.3078C63.1886 11.3078 63.1751 11.2403 63.1796 11.1592L63.2651 9.57021C63.2651 9.57021 63.2651 9.57021 63.2651 9.50269C63.2651 9.43516 63.2651 9.41265 63.2651 9.36314C63.2651 9.31362 63.2651 9.26411 63.2876 9.22359C63.3101 9.18308 63.2876 9.15607 63.2876 9.15157L63.1075 9.50719L61.9059 11.1232C61.8803 11.1574 61.85 11.1877 61.8158 11.2133C61.7976 11.2276 61.7766 11.2382 61.7542 11.2444C61.7318 11.2505 61.7084 11.2522 61.6853 11.2493H61.4333C61.382 11.2503 61.3312 11.2396 61.2848 11.2178C61.2533 11.2178 61.2443 11.1502 61.2443 11.0737L61.3838 8.50785C61.3838 8.42682 61.4063 8.38181 61.4378 8.3683C61.4863 8.35392 61.5378 8.35392 61.5863 8.3683H61.8023C61.8553 8.36376 61.9085 8.37471 61.9554 8.39982C61.9824 8.39982 61.9914 8.46284 61.9869 8.54386L61.9419 10.1104ZM60.1416 8.85897L60.0381 11.0152C60.0381 11.0962 60.0381 11.1412 59.9886 11.1592C59.9382 11.1704 59.8859 11.1704 59.8355 11.1592H59.624C59.5711 11.163 59.5181 11.1521 59.471 11.1277C59.444 11.1277 59.4305 11.0647 59.435 10.9837L59.534 8.82296L58.7734 8.78695C58.6969 8.78695 58.6474 8.78695 58.6339 8.73743C58.6227 8.68854 58.6227 8.63776 58.6339 8.58888V8.40432C58.6322 8.35154 58.643 8.29912 58.6654 8.25127C58.6654 8.22426 58.7329 8.21075 58.8094 8.21525L60.9337 8.31429C61.0147 8.31429 61.0597 8.31429 61.0777 8.3638C61.0894 8.41568 61.0894 8.46948 61.0777 8.52136V8.70142C61.0788 8.7527 61.068 8.80354 61.0462 8.84997C61.0462 8.87698 60.9787 8.89048 60.8977 8.88598L60.1416 8.85897ZM57.4412 8.16123C57.6314 8.16363 57.8199 8.19708 57.9993 8.26027C58.1316 8.30433 58.2529 8.3765 58.3548 8.47184C58.4424 8.55648 58.5074 8.66172 58.5438 8.77794C58.581 8.89887 58.5977 9.02514 58.5933 9.15157C58.5872 9.29038 58.5583 9.42725 58.5078 9.5567C58.4589 9.67943 58.3818 9.78891 58.2828 9.87631C58.1688 9.9719 58.0351 10.0411 57.8912 10.0789C57.7048 10.1269 57.5118 10.1451 57.3197 10.1329H57.1756H57.0271L56.9956 10.9072C56.9956 10.9882 56.9956 11.0377 56.9461 11.0512C56.8957 11.0628 56.8434 11.0628 56.7931 11.0512H56.5815C56.5274 11.0521 56.4737 11.0414 56.424 11.0197C56.397 11.0197 56.388 10.9567 56.388 10.8756L56.496 8.30978C56.496 8.22876 56.496 8.18374 56.5455 8.16574C56.5976 8.15587 56.651 8.15587 56.7031 8.16574L57.4412 8.16123ZM57.2882 9.60622C57.3939 9.61253 57.5 9.60343 57.6032 9.57921C57.677 9.56108 57.7461 9.52731 57.8057 9.48018C57.8555 9.44125 57.8942 9.39006 57.9182 9.33163C57.9419 9.27138 57.9541 9.20727 57.9543 9.14256C57.9605 9.08214 57.9529 9.02107 57.9318 8.96409C57.9107 8.90711 57.8768 8.85574 57.8327 8.81395C57.7016 8.72115 57.5431 8.67517 57.3827 8.68341H57.0856L57.0496 9.58371H57.1801L57.2882 9.60622ZM54.5877 9.74127V10.4255L55.7264 10.4615C55.8074 10.4615 55.8569 10.4615 55.8704 10.5065C55.8822 10.5584 55.8822 10.6122 55.8704 10.6641V10.8126C55.8715 10.8635 55.8623 10.914 55.8434 10.9612C55.8254 10.9882 55.7759 11.0017 55.6949 11.0017L54.1512 10.9477C54.0972 10.9524 54.043 10.9431 53.9936 10.9207C53.9666 10.9207 53.9531 10.8531 53.9576 10.7766L54.0432 8.20625C54.0432 8.12972 54.0432 8.08021 54.0882 8.0667C54.1397 8.0523 54.1942 8.0523 54.2457 8.0667L55.7939 8.11622C55.8704 8.11622 55.9199 8.11622 55.9334 8.16123C55.9452 8.21309 55.9452 8.26693 55.9334 8.31879V8.46734C55.9368 8.51832 55.9275 8.56935 55.9064 8.61589C55.9064 8.6429 55.8389 8.6564 55.7624 8.6564L54.6192 8.61589V9.22359L55.5194 9.2506C55.6004 9.2506 55.6454 9.2506 55.6634 9.30012C55.676 9.35188 55.676 9.40591 55.6634 9.45767V9.60172C55.6654 9.65262 55.6562 9.70334 55.6364 9.75027C55.6364 9.78178 55.5689 9.79078 55.4879 9.79078L54.5877 9.74127ZM53.17 10.7496C53.17 10.8261 53.17 10.8756 53.125 10.8937C53.0744 10.903 53.0226 10.903 52.972 10.8937H52.756C52.7035 10.8984 52.6506 10.8891 52.6029 10.8666C52.5759 10.8666 52.5669 10.7991 52.5669 10.7226L52.6164 8.52586L51.4058 8.49885L51.3562 10.6911C51.3562 10.7721 51.3562 10.8216 51.3067 10.8351C51.26 10.8552 51.2088 10.863 51.1582 10.8576H50.9467C50.8925 10.859 50.8387 10.8482 50.7892 10.8261C50.7622 10.8261 50.7486 10.7631 50.7486 10.6821L50.8117 8.11622C50.8117 8.03519 50.8117 7.99018 50.8567 7.97217C50.9085 7.95991 50.9624 7.95991 51.0142 7.97217L53.0395 8.01719C53.0918 8.01575 53.1439 8.02494 53.1925 8.0442C53.2195 8.0442 53.233 8.11172 53.233 8.18824L53.17 10.7496ZM50.3076 8.3593C50.3066 8.40369 50.299 8.44768 50.2851 8.48985C50.2697 8.53391 50.2468 8.57502 50.2176 8.61139C50.202 8.625 50.182 8.6325 50.1613 8.6325C50.1406 8.6325 50.1206 8.625 50.1051 8.61139C49.9862 8.54742 49.861 8.49613 49.7315 8.45833C49.6103 8.42213 49.4844 8.40393 49.3579 8.40432C49.236 8.40151 49.1145 8.41823 48.9979 8.45383C48.8903 8.48942 48.7909 8.54603 48.7053 8.62039C48.6201 8.70429 48.5541 8.80564 48.5118 8.91749C48.4564 9.0609 48.4304 9.21398 48.4353 9.36764C48.4275 9.52033 48.4489 9.67312 48.4983 9.81779C48.5395 9.93311 48.6039 10.0388 48.6873 10.1284C48.7624 10.2104 48.8568 10.2723 48.9619 10.3085C49.0665 10.3498 49.1779 10.3712 49.2904 10.3715C49.4276 10.3724 49.5646 10.3618 49.7 10.34C49.8351 10.3161 49.9667 10.2752 50.0915 10.2184C50.121 10.2099 50.1522 10.2099 50.1816 10.2184C50.1989 10.2239 50.2148 10.2333 50.228 10.2457C50.2412 10.2582 50.2515 10.2735 50.2581 10.2905L50.3436 10.4795C50.3523 10.497 50.3568 10.5163 50.3568 10.5358C50.3568 10.5553 50.3523 10.5746 50.3436 10.5921C50.3274 10.6289 50.3008 10.6601 50.2671 10.6821C50.1102 10.7759 49.938 10.8414 49.7585 10.8756C49.5881 10.9097 49.4147 10.9263 49.2409 10.9252C49.0429 10.9238 48.8466 10.8888 48.6603 10.8216C48.4917 10.7605 48.3382 10.6637 48.2103 10.538C48.0748 10.4022 47.9717 10.2376 47.9087 10.0564C47.8305 9.84168 47.7938 9.61405 47.8007 9.38565C47.8016 9.17652 47.8397 8.96923 47.9132 8.77344C47.9796 8.59652 48.0823 8.4355 48.2148 8.30078C48.3528 8.16817 48.5168 8.0655 48.6963 7.99918C48.9021 7.92961 49.1183 7.8961 49.3354 7.90015C49.4455 7.90055 49.5553 7.90958 49.664 7.92716C49.7735 7.93774 49.8811 7.96349 49.9835 8.00368C50.0726 8.03579 50.1539 8.08642 50.2221 8.15223C50.2781 8.21186 50.3088 8.29096 50.3076 8.37281V8.3593ZM45.9149 9.08405H46.248L46.8421 8.0442C46.8634 8.00687 46.8926 7.97461 46.9276 7.94966C46.9772 7.92835 47.0312 7.91909 47.0851 7.92266H47.3641C47.3903 7.91922 47.417 7.9219 47.442 7.93049C47.4669 7.93909 47.4896 7.95335 47.5082 7.97217C47.5082 8.00368 47.5082 8.0532 47.4767 8.11172L46.7385 9.32263L47.6072 10.6371C47.6186 10.6569 47.6247 10.6794 47.6247 10.7023C47.6247 10.7253 47.6186 10.7478 47.6072 10.7676C47.5994 10.7869 47.5855 10.8031 47.5676 10.8137C47.5497 10.8242 47.5288 10.8286 47.5082 10.8261H47.1436C47.1003 10.8315 47.0564 10.8315 47.0131 10.8261C46.9657 10.8081 46.9271 10.7727 46.9051 10.7271L46.293 9.74127C46.2699 9.70114 46.2375 9.66717 46.1985 9.64223C46.1579 9.62246 46.113 9.61318 46.0679 9.61522H45.9149V10.6641C45.9149 10.7451 45.9149 10.7946 45.8699 10.8081C45.8214 10.8277 45.769 10.8354 45.7169 10.8306H45.5053C45.4533 10.8339 45.4012 10.8262 45.3523 10.8081C45.3208 10.8081 45.3073 10.7406 45.3073 10.6641V8.09371C45.3073 8.01719 45.3073 7.96767 45.3478 7.94966C45.3984 7.93205 45.4519 7.9244 45.5053 7.92716H45.7169C45.7693 7.92343 45.8219 7.93271 45.8699 7.95417C45.8969 7.95417 45.9149 8.01719 45.9104 8.09821L45.9149 9.08405ZM42.9895 9.57021C42.913 9.57021 42.8634 9.57021 42.8454 9.52519C42.8357 9.47464 42.8357 9.4227 42.8454 9.37214V9.28211C42.8408 9.22815 42.8501 9.17388 42.8724 9.12456C42.8724 9.09755 42.9355 9.08405 43.0165 9.08405H44.1866C44.1829 8.96664 44.1538 8.85144 44.1011 8.74643C44.0554 8.66217 43.9907 8.58973 43.9121 8.53486C43.8346 8.48121 43.7475 8.44301 43.6556 8.42232C43.555 8.40049 43.4524 8.38993 43.3495 8.39081C43.2331 8.3907 43.1169 8.40277 43.003 8.42682C42.9064 8.44871 42.8127 8.48196 42.7239 8.52586L42.6249 8.56637C42.6024 8.56637 42.5799 8.56637 42.5484 8.50785C42.5274 8.47891 42.5107 8.44706 42.4989 8.41332C42.4795 8.37273 42.4717 8.32753 42.4764 8.28278C42.4747 8.24063 42.4823 8.19862 42.4986 8.15973C42.515 8.12084 42.5396 8.08601 42.5709 8.0577C42.6375 7.99868 42.7157 7.95422 42.8004 7.92716C42.8951 7.89456 42.9933 7.8734 43.093 7.86413H43.372C43.5691 7.86263 43.7652 7.89303 43.9526 7.95417C44.1209 8.00734 44.2748 8.09817 44.4027 8.21976C44.5286 8.34841 44.6267 8.50165 44.6907 8.66991C44.762 8.88304 44.7955 9.10697 44.7897 9.33163C44.7945 9.5643 44.7579 9.79597 44.6817 10.0159C44.614 10.1951 44.5132 10.36 44.3847 10.502C44.2573 10.6285 44.1037 10.7254 43.9346 10.7856C43.7648 10.849 43.5848 10.881 43.4035 10.8801H43.156C43.0679 10.8701 42.9806 10.8535 42.8949 10.8306C42.8075 10.8082 42.7218 10.7797 42.6384 10.7451C42.5576 10.7097 42.4806 10.666 42.4089 10.6146C42.3788 10.5949 42.3553 10.5667 42.3414 10.5335C42.3334 10.5174 42.3293 10.4997 42.3293 10.4818C42.3293 10.4638 42.3334 10.4461 42.3414 10.43L42.4359 10.2364C42.4629 10.1869 42.4899 10.1554 42.5124 10.1509C42.5472 10.1508 42.5814 10.1602 42.6114 10.1779C42.7245 10.2312 42.842 10.2749 42.9625 10.3085C43.0894 10.3378 43.2192 10.3529 43.3495 10.3535C43.444 10.3536 43.538 10.34 43.6286 10.313C43.7208 10.2852 43.8065 10.2393 43.8806 10.1779C43.9574 10.1104 44.0215 10.0296 44.0696 9.93933C44.1216 9.82928 44.1507 9.70983 44.1551 9.58821L42.9895 9.57021ZM38.9388 9.68275L38.9073 10.0789L39.0784 9.71426L40.1135 8.10272C40.1451 8.05442 40.1829 8.01052 40.226 7.97217C40.2711 7.93399 40.3291 7.91464 40.3881 7.91815H40.6176C40.6693 7.90538 40.7234 7.90538 40.7751 7.91815C40.8066 7.91815 40.8201 7.98117 40.8201 8.0622L40.8516 10.6281C40.8516 10.7091 40.8516 10.7541 40.8111 10.7721C40.7618 10.7945 40.7076 10.8038 40.6536 10.7991H40.4421C40.393 10.8089 40.3426 10.8089 40.2936 10.7991C40.262 10.7991 40.2485 10.7316 40.2485 10.6551V9.06154C40.2485 9.06154 40.2485 9.06154 40.2485 8.99401C40.2485 8.92649 40.2485 8.90399 40.2485 8.85447C40.2485 8.80495 40.2485 8.75543 40.2485 8.71042C40.2471 8.68793 40.2471 8.66538 40.2485 8.6429L40.0955 9.00752L39.0019 10.7001C38.9759 10.7338 38.9473 10.7654 38.9163 10.7946C38.8988 10.8106 38.8781 10.8228 38.8557 10.8305C38.8333 10.8382 38.8095 10.8413 38.7858 10.8396H38.5338C38.4832 10.8427 38.4326 10.835 38.3853 10.8171C38.3538 10.8171 38.3403 10.7541 38.3358 10.6731L38.3132 8.10272C38.3132 8.02169 38.3132 7.97217 38.3583 7.95867C38.4045 7.93662 38.4557 7.9273 38.5068 7.93166H38.7138C38.7673 7.92842 38.8209 7.93608 38.8713 7.95417C38.8983 7.95417 38.9118 8.01719 38.9118 8.09821L38.9388 9.68275ZM39.5824 7.84163C39.3934 7.84725 39.2065 7.80051 39.0424 7.70658C38.9764 7.67007 38.9158 7.62462 38.8623 7.57154C38.8142 7.53052 38.7731 7.48185 38.7408 7.42749C38.7177 7.40104 38.7035 7.36795 38.7003 7.33296C38.7003 7.30145 38.7003 7.26994 38.7723 7.22942L38.9253 7.11238C38.9748 7.07187 39.0154 7.06287 39.0424 7.07637C39.0785 7.09745 39.1105 7.1249 39.1369 7.1574C39.1964 7.22881 39.2662 7.29101 39.3439 7.34196C39.4123 7.38147 39.4899 7.40227 39.5689 7.40227C39.6479 7.40227 39.7256 7.38147 39.794 7.34196C39.8702 7.28893 39.9384 7.22526 39.9965 7.1529C40.0191 7.11744 40.05 7.08808 40.0865 7.06737C40.118 7.06737 40.154 7.06737 40.208 7.09888L40.3611 7.21142C40.4151 7.25193 40.4376 7.28344 40.4376 7.31495C40.4343 7.35051 40.4219 7.38463 40.4016 7.41398C40.367 7.46542 40.3278 7.51363 40.2845 7.55803C40.2324 7.61392 40.1716 7.66104 40.1045 7.69758C39.9406 7.79354 39.7544 7.84476 39.5644 7.84613L39.5824 7.84163ZM34.7712 9.48018C34.7644 9.28519 34.7902 9.09043 34.8477 8.90399C34.9011 8.72373 34.9916 8.5566 35.1133 8.41332C35.238 8.26938 35.3913 8.15289 35.5633 8.07121C35.7741 7.98156 36.0004 7.93415 36.2294 7.93166C36.4579 7.92271 36.6859 7.95944 36.9 8.03969C37.0794 8.11178 37.2407 8.22243 37.3726 8.3638C37.5002 8.49977 37.5983 8.66071 37.6606 8.83646C37.7248 9.02044 37.7598 9.21335 37.7642 9.40815C37.7713 9.60316 37.7454 9.79796 37.6877 9.98435C37.6343 10.1646 37.5438 10.3317 37.4221 10.475C37.2979 10.6195 37.1445 10.7361 36.972 10.8171C36.7619 10.9089 36.5352 10.9564 36.3059 10.9567C36.0774 10.9656 35.8495 10.9289 35.6353 10.8486C35.4649 10.7742 35.3117 10.6654 35.1853 10.529C35.0571 10.3917 34.959 10.2292 34.8972 10.0519C34.8232 9.86981 34.7806 9.6765 34.7712 9.48018ZM37.1386 9.42616C37.1367 9.2962 37.1154 9.16724 37.0756 9.04353C37.0411 8.93274 36.9844 8.83012 36.909 8.74193C36.8369 8.65141 36.7422 8.58153 36.6345 8.53936C36.5124 8.48743 36.3799 8.46432 36.2474 8.47184C36.1152 8.47189 35.9846 8.5011 35.8649 8.55737C35.7613 8.60459 35.6715 8.6774 35.6038 8.76894C35.5308 8.86179 35.4786 8.96925 35.4508 9.08405C35.4168 9.20863 35.4017 9.3376 35.4058 9.46667C35.4077 9.59517 35.4289 9.72264 35.4688 9.8448C35.5039 9.95671 35.5604 10.0607 35.6353 10.1509C35.7088 10.2389 35.8032 10.307 35.9099 10.349C36.0305 10.4005 36.1614 10.4236 36.2924 10.4165C36.4247 10.4164 36.5553 10.3872 36.675 10.331C36.7799 10.2839 36.8712 10.2111 36.9405 10.1194C37.0135 10.0265 37.0657 9.91908 37.0936 9.80429C37.1273 9.68119 37.1425 9.55374 37.1386 9.42616ZM34.2536 10.7766C34.2536 10.8576 34.2536 10.9072 34.2131 10.9207C34.1667 10.9425 34.1159 10.9532 34.0646 10.9522H33.8486C33.7965 10.962 33.7431 10.962 33.691 10.9522C33.664 10.9522 33.6505 10.8892 33.646 10.8081L33.61 9.75927L32.3588 9.80429L32.4128 10.8486C32.4128 10.9297 32.4128 10.9747 32.3723 10.9927C32.3256 11.0135 32.275 11.0242 32.2238 11.0242H32.0123C31.9592 11.0381 31.9034 11.0381 31.8503 11.0242C31.8233 11.0242 31.8098 10.9612 31.8053 10.8847L31.7152 8.31879C31.7152 8.23776 31.7152 8.18824 31.7512 8.17024C31.8012 8.15011 31.8549 8.1409 31.9088 8.14323H32.1203C32.1691 8.13156 32.22 8.13156 32.2688 8.14323C32.3003 8.14323 32.3183 8.20625 32.3183 8.28728L32.3543 9.26861L33.6055 9.22359L33.5695 8.24226C33.5695 8.16123 33.5695 8.11172 33.6055 8.09821C33.6532 8.07539 33.7057 8.06457 33.7585 8.0667H33.9746C34.0236 8.05734 34.074 8.05734 34.1231 8.0667C34.1546 8.0667 34.1726 8.12972 34.1726 8.21075L34.2536 10.7766ZM30.014 9.77278H29.942H29.8519H29.7529H29.6719L29.7124 10.6011H30.014C30.1746 10.6115 30.3339 10.5653 30.464 10.4705C30.5075 10.4294 30.5408 10.3787 30.5611 10.3224C30.5814 10.2661 30.5883 10.2058 30.5811 10.1464C30.5817 10.0956 30.5725 10.0452 30.5541 9.99785C30.5335 9.95115 30.5009 9.91076 30.4595 9.88081C30.4092 9.84637 30.3526 9.82192 30.293 9.80879C30.2016 9.78695 30.1079 9.77636 30.014 9.77728V9.77278ZM29.6269 8.75543V9.28661H29.7079H29.8114H29.915H29.996C30.1757 9.27639 30.356 9.29155 30.5316 9.33163C30.6636 9.36282 30.7877 9.42107 30.8961 9.50269C30.9874 9.57509 31.0586 9.66961 31.1031 9.77728C31.1526 9.88938 31.1786 10.0104 31.1797 10.1329C31.1887 10.2529 31.175 10.3736 31.1391 10.4885C31.1067 10.6051 31.0482 10.7129 30.9681 10.8036C30.8707 10.9066 30.7526 10.9879 30.6216 11.0422C30.4457 11.1076 30.2601 11.1426 30.0725 11.1457L29.2984 11.1772C29.2449 11.1884 29.1898 11.1884 29.1363 11.1772C29.1093 11.1772 29.0958 11.1142 29.0913 11.0332L28.9833 8.46734C28.9833 8.38631 28.9833 8.3413 29.0193 8.32329C29.0688 8.3012 29.1226 8.29044 29.1768 8.29178L30.7476 8.22426C30.8286 8.22426 30.8781 8.22426 30.8961 8.26027C30.9157 8.3104 30.9249 8.36401 30.9231 8.41782V8.56187C30.9324 8.61246 30.9324 8.66433 30.9231 8.71492C30.9231 8.74643 30.8601 8.75994 30.7791 8.76444L29.6269 8.75543ZM27.2461 10.0114L27.2776 10.6911L28.4162 10.6371C28.4972 10.6371 28.5468 10.6371 28.5603 10.6731C28.5846 10.7204 28.597 10.7729 28.5963 10.8261V10.9747C28.6101 11.0232 28.6101 11.0747 28.5963 11.1232C28.5963 11.1547 28.5377 11.1727 28.4567 11.1772L26.8995 11.2538C26.8476 11.2654 26.7938 11.2654 26.742 11.2538C26.7105 11.2538 26.697 11.1908 26.6925 11.1097L26.5619 8.55287C26.5619 8.47184 26.5619 8.42232 26.598 8.40432C26.6458 8.38199 26.6982 8.3712 26.751 8.37281L28.2947 8.29628C28.3757 8.29628 28.4252 8.29628 28.4432 8.33229C28.4653 8.38181 28.4761 8.43564 28.4747 8.48985V8.63389C28.4858 8.68431 28.4858 8.73653 28.4747 8.78695C28.4747 8.81395 28.4117 8.83196 28.3307 8.83646L27.192 8.89048L27.2235 9.49818L28.1237 9.45317C28.2047 9.45317 28.2497 9.45317 28.2677 9.48918C28.2921 9.53632 28.303 9.58929 28.2992 9.64223V9.79078C28.3109 9.83961 28.3109 9.8905 28.2992 9.93933C28.2992 9.97084 28.2362 9.98885 28.1597 9.99335L27.2461 10.0114ZM24.3116 9.02553C24.3116 9.19658 24.3116 9.37214 24.3116 9.5432C24.3076 9.71188 24.294 9.8802 24.2711 10.0474C24.2524 10.1988 24.2254 10.3491 24.1901 10.4975C24.1605 10.623 24.1183 10.7452 24.0641 10.8621L25.1847 10.8036L25.0857 9.00302L24.3116 9.02553ZM23.1009 11.0917C23.1009 11.0107 23.1009 10.9612 23.1369 10.9432C23.1851 10.922 23.2373 10.9113 23.2899 10.9117H23.425C23.4954 10.7896 23.5513 10.6596 23.5915 10.5245C23.6398 10.3639 23.676 10.1999 23.6995 10.0339C23.7264 9.8353 23.743 9.63546 23.749 9.43516C23.749 9.21909 23.749 8.98501 23.749 8.71942V8.62489C23.7439 8.60573 23.7439 8.58554 23.749 8.56637C23.7641 8.54832 23.7846 8.53568 23.8075 8.53036C23.8449 8.52677 23.8826 8.52677 23.92 8.53036L25.4458 8.44483C25.4973 8.43042 25.5518 8.43042 25.6033 8.44483C25.6303 8.44483 25.6438 8.50785 25.6483 8.58438L25.7698 10.7766H25.9724C26.0213 10.7657 26.072 10.7657 26.1209 10.7766C26.1524 10.7766 26.1704 10.8396 26.1749 10.9207L26.2244 11.821C26.2244 11.8975 26.2244 11.947 26.1884 11.965C26.1416 11.9858 26.091 11.9966 26.0399 11.9965H25.9364C25.8843 12.0064 25.8309 12.0064 25.7788 11.9965C25.7518 11.9965 25.7338 11.9335 25.7293 11.857L25.7023 11.3348L23.605 11.4518L23.632 11.974C23.632 12.0505 23.632 12.1001 23.6005 12.1181C23.551 12.1402 23.4972 12.1509 23.443 12.1496H23.344C23.2936 12.1607 23.2413 12.1607 23.1909 12.1496C23.1594 12.1496 23.1414 12.0866 23.1369 12.01L23.1009 11.0917ZM22.3448 10.529C22.2818 10.7091 22.2233 10.8621 22.1738 10.9792C22.1294 11.0926 22.0736 11.2012 22.0073 11.3033C21.9523 11.3826 21.8819 11.45 21.8002 11.5014C21.7113 11.5484 21.6128 11.5746 21.5122 11.5779C21.4314 11.587 21.3499 11.587 21.2691 11.5779C21.209 11.5728 21.1499 11.5592 21.0936 11.5374C21.0612 11.5237 21.0309 11.5056 21.0036 11.4834C20.9721 11.4608 20.9721 11.4113 21.0036 11.3438L21.0576 11.1322C21.0668 11.0933 21.0836 11.0566 21.1071 11.0242C21.1071 11.0242 21.1611 11.0242 21.2241 11.0242H21.3231H21.4357C21.4927 11.023 21.5473 11.0005 21.5887 10.9612C21.6283 10.9022 21.6572 10.8366 21.6742 10.7676L20.549 8.91749C20.5181 8.87457 20.5052 8.82126 20.513 8.76894C20.513 8.72392 20.5625 8.69691 20.639 8.69241L21.0036 8.66991C21.0419 8.65958 21.0823 8.65958 21.1206 8.66991C21.1603 8.69256 21.1919 8.72723 21.2106 8.76894L21.9577 10.1914L22.3223 8.70142C22.3251 8.68013 22.3321 8.65962 22.343 8.64107C22.3538 8.62253 22.3682 8.60632 22.3853 8.59338C22.4196 8.57371 22.4583 8.56288 22.4978 8.56187H22.8174C22.8484 8.55387 22.8809 8.55387 22.9119 8.56187C22.9308 8.57034 22.9465 8.58451 22.9569 8.60238C22.9638 8.62436 22.9638 8.64793 22.9569 8.66991C22.9609 8.69677 22.9609 8.72407 22.9569 8.75093L22.3448 10.529ZM20.4005 9.13356C20.4068 9.17685 20.4068 9.22082 20.4005 9.26411C20.3895 9.30956 20.3696 9.35239 20.342 9.39015C20.342 9.42166 20.2835 9.42616 20.2295 9.39015C20.1055 9.33395 19.9757 9.29168 19.8424 9.26411C19.7196 9.23898 19.594 9.2299 19.4689 9.2371C19.3467 9.24435 19.2266 9.27172 19.1133 9.31812C19.0087 9.35966 18.9149 9.42429 18.8388 9.50719C18.7577 9.59621 18.6977 9.70238 18.6632 9.81779C18.624 9.96441 18.6103 10.1167 18.6227 10.2679C18.6264 10.423 18.66 10.5758 18.7217 10.7181C18.7703 10.831 18.8424 10.9323 18.9333 11.0152C19.0154 11.0874 19.1121 11.1411 19.2168 11.1727C19.3247 11.2049 19.4376 11.2171 19.5499 11.2088C19.6868 11.2024 19.8226 11.1812 19.9549 11.1457C20.0891 11.1132 20.2179 11.0617 20.3375 10.9927C20.3684 10.984 20.4011 10.984 20.432 10.9927C20.449 10.9974 20.4648 11.006 20.478 11.0177C20.4913 11.0294 20.5017 11.0439 20.5085 11.0602L20.612 11.2403C20.6196 11.2581 20.6235 11.2772 20.6235 11.2965C20.6235 11.3159 20.6196 11.335 20.612 11.3528C20.5978 11.3907 20.5727 11.4235 20.54 11.4473C20.3912 11.5531 20.2252 11.6322 20.0495 11.6814C19.8817 11.727 19.7098 11.7557 19.5364 11.7669C19.3397 11.7816 19.142 11.7634 18.9513 11.7129C18.769 11.6599 18.6012 11.566 18.4607 11.4383C18.3165 11.3149 18.2012 11.1612 18.1232 10.9882C18.0298 10.7794 17.9764 10.5549 17.9656 10.3265C17.949 10.1173 17.9703 9.90682 18.0286 9.70525C18.0806 9.52442 18.1712 9.35701 18.2942 9.21459C18.417 9.06968 18.5708 8.95429 18.7443 8.87698C18.9433 8.78824 19.1568 8.73638 19.3743 8.72392C19.4779 8.72392 19.5859 8.72392 19.7029 8.72392C19.8129 8.72723 19.9219 8.7454 20.0269 8.77794C20.1173 8.80234 20.2016 8.84526 20.2745 8.90399C20.3107 8.93133 20.341 8.9658 20.3635 9.00528C20.3859 9.04476 20.4 9.08842 20.405 9.13356H20.4005ZM71.7399 4.95166C71.7309 5.0129 71.7374 5.07541 71.7586 5.13355C71.7798 5.19169 71.8151 5.24365 71.8614 5.28477C71.983 5.36517 72.1252 5.40892 72.2709 5.41081L72.5635 5.43332L72.622 4.56903L72.343 4.54652C72.2681 4.53973 72.1928 4.53973 72.1179 4.54652C72.0539 4.55431 71.9915 4.57255 71.9334 4.60054C71.8782 4.6301 71.8316 4.67354 71.7984 4.72658C71.7619 4.79614 71.7419 4.87314 71.7399 4.95166ZM73.0361 4.05135C73.0848 4.05154 73.1328 4.06391 73.1756 4.08737C73.2026 4.08737 73.2116 4.15039 73.2071 4.23141L73.0406 6.79278C73.0406 6.8738 73.0181 6.91882 72.9911 6.93232C72.9443 6.94778 72.8938 6.94778 72.847 6.93232H72.649C72.5987 6.9327 72.5492 6.92031 72.505 6.89631C72.4825 6.89631 72.469 6.82879 72.478 6.75226L72.532 5.88347L72.2484 5.86096C72.2109 5.85559 72.1727 5.86356 72.1404 5.88347C72.1095 5.90846 72.0836 5.93899 72.0639 5.9735L71.6138 6.73876C71.592 6.77912 71.5571 6.81086 71.5148 6.82879C71.4613 6.83859 71.4064 6.83859 71.3528 6.82879H71.0468C71.0224 6.82914 70.9983 6.82309 70.977 6.81124C70.9557 6.79939 70.9378 6.78216 70.9252 6.76126C70.9252 6.72525 70.9252 6.66673 70.9747 6.59921L71.5688 5.71691C71.4136 5.63968 71.292 5.50841 71.2268 5.34779C71.1698 5.19086 71.1468 5.02361 71.1593 4.85712C71.1623 4.69818 71.2073 4.54287 71.2898 4.40697C71.3618 4.29867 71.4571 4.20791 71.5688 4.14138C71.6864 4.07738 71.8144 4.03471 71.9469 4.01534C72.089 3.99955 72.2324 3.99955 72.3745 4.01534L73.0361 4.05135ZM68.7379 5.47383L68.6794 5.86996L68.8639 5.51885L69.9486 4.00634C69.9802 3.96073 70.0181 3.91981 70.0611 3.8848C70.0834 3.86798 70.1088 3.85575 70.1358 3.84879C70.1629 3.84184 70.191 3.84031 70.2186 3.84428H70.4302C70.4802 3.84545 70.5294 3.85775 70.5742 3.8803C70.6012 3.8803 70.6102 3.94782 70.6057 4.02885L70.4437 6.59021C70.4437 6.67123 70.4212 6.71625 70.3942 6.72975C70.3453 6.74125 70.2945 6.74125 70.2456 6.72975H70.0521C70.0033 6.72957 69.9554 6.71719 69.9126 6.69374C69.8856 6.69374 69.8766 6.62622 69.8811 6.54969L69.9801 4.96066C69.9801 4.96066 69.9801 4.93365 69.9801 4.89314C69.9801 4.85262 69.9801 4.80311 69.9801 4.75359C69.9801 4.70407 69.9801 4.65456 70.0026 4.61404C70.0251 4.57353 70.0026 4.54652 70.0026 4.54652L69.8316 4.89764L68.6929 6.49568L68.6074 6.5812C68.5899 6.59542 68.5697 6.60594 68.5481 6.61213C68.5264 6.61832 68.5037 6.62005 68.4814 6.61722H68.2473C68.199 6.61806 68.1511 6.60725 68.1078 6.58571C68.0808 6.58571 68.0718 6.51818 68.0763 6.43716L68.2383 3.87579C68.2383 3.79477 68.2383 3.74975 68.2878 3.73625C68.3352 3.72513 68.3845 3.72513 68.4319 3.73625H68.6299C68.6802 3.73525 68.7299 3.74768 68.7739 3.77226C68.7739 3.77226 68.8054 3.83528 68.8009 3.91631L68.7379 5.47383ZM66.7576 3.6012C66.9332 3.61062 67.1062 3.64706 67.2707 3.70924C67.3963 3.76 67.5098 3.8367 67.6037 3.93431C67.6834 4.02299 67.7405 4.12952 67.7703 4.24492C67.8029 4.3666 67.8151 4.49287 67.8063 4.61854C67.8001 4.75736 67.7712 4.89423 67.7207 5.02368C67.6733 5.14344 67.5976 5.24999 67.5002 5.33428C67.394 5.42679 67.2676 5.49309 67.1312 5.52785C66.9582 5.57447 66.7784 5.58972 66.6001 5.57287H66.4651L66.3255 5.55036L66.2805 6.32462C66.2805 6.40564 66.258 6.45066 66.231 6.46416C66.1852 6.4756 66.1373 6.4756 66.0915 6.46416H65.8935C65.8434 6.463 65.7942 6.4507 65.7495 6.42815C65.7224 6.42815 65.7134 6.36063 65.7179 6.2796L65.871 3.71824C65.871 3.63721 65.871 3.5922 65.916 3.57869C65.9648 3.56719 66.0157 3.56719 66.0645 3.57869L66.7576 3.6012ZM66.5776 5.04169C66.6759 5.05874 66.7763 5.05874 66.8746 5.04169C66.9433 5.02316 67.0076 4.99101 67.0637 4.94715C67.1122 4.9081 67.1495 4.85683 67.1717 4.7986C67.1951 4.73968 67.2088 4.67735 67.2122 4.61404C67.2193 4.55401 67.2133 4.49315 67.1947 4.43565C67.176 4.37814 67.1451 4.32536 67.1042 4.28093C66.9872 4.18593 66.8407 4.13495 66.6901 4.13688H66.411L66.357 5.03718L66.4786 5.05969L66.5776 5.04169ZM62.4865 4.7761C62.4976 4.58234 62.537 4.39125 62.6035 4.20891C62.6679 4.0419 62.7642 3.88902 62.887 3.75876C63.0127 3.62481 63.1663 3.52029 63.3371 3.45265C63.5366 3.37791 63.7507 3.35019 63.9627 3.37162C64.1778 3.37859 64.3885 3.43398 64.5793 3.53368C64.7426 3.62096 64.8853 3.74222 64.9978 3.8893C65.1064 4.03916 65.1844 4.20895 65.2274 4.38897C65.2667 4.57377 65.2803 4.76312 65.2679 4.95166C65.2567 5.14542 65.2173 5.3365 65.1509 5.51885C65.0864 5.68585 64.9901 5.83873 64.8673 5.969C64.7418 6.10201 64.588 6.20508 64.4172 6.2706C64.216 6.34483 64.0009 6.37403 63.7872 6.35613C63.5735 6.34911 63.3642 6.2937 63.1751 6.19407C63.0115 6.10526 62.8687 5.98247 62.7565 5.83395C62.6471 5.68624 62.569 5.51775 62.527 5.33879C62.4874 5.15248 62.4738 4.96162 62.4865 4.7716V4.7761ZM64.6918 4.91564C64.701 4.78747 64.6919 4.65862 64.6648 4.53302C64.6398 4.42122 64.5957 4.3146 64.5343 4.21791C64.4729 4.12411 64.3894 4.04681 64.2912 3.99283C64.1819 3.9351 64.0616 3.90123 63.9383 3.89347C63.8149 3.88571 63.6913 3.90423 63.5756 3.94782C63.4748 3.98915 63.3853 4.05397 63.3146 4.13688C63.2408 4.22619 63.1843 4.32847 63.148 4.43848C63.1084 4.55931 63.0857 4.68505 63.0805 4.81211C63.0708 4.94029 63.0799 5.0692 63.1075 5.19474C63.13 5.3087 63.1744 5.41723 63.2381 5.51435C63.2991 5.60683 63.3807 5.68387 63.4766 5.73942C63.5864 5.7982 63.7078 5.83201 63.8322 5.83845C63.9547 5.84724 64.0776 5.82879 64.1922 5.78444C64.2946 5.74153 64.3856 5.67524 64.4577 5.59087C64.531 5.50362 64.5861 5.40261 64.6198 5.29377C64.6609 5.17006 64.6852 5.04135 64.6918 4.91114V4.91564ZM61.5728 3.84879L61.4648 6.00501C61.4648 6.08604 61.4648 6.13555 61.4198 6.14906C61.3724 6.16002 61.3231 6.16002 61.2758 6.14906H61.0822C61.031 6.15013 60.9801 6.13935 60.9337 6.11755C60.9112 6.11755 60.8977 6.05003 60.9022 5.969L61.0102 3.81277L60.3171 3.77226C60.2406 3.77226 60.2001 3.74975 60.1866 3.71824C60.1754 3.66936 60.1754 3.61858 60.1866 3.56969V3.38513C60.185 3.33235 60.1958 3.27993 60.2181 3.23208C60.2181 3.20507 60.2811 3.19156 60.3531 3.19607L62.3334 3.3086C62.4054 3.3086 62.4504 3.33111 62.4639 3.36262C62.4738 3.41468 62.4738 3.46812 62.4639 3.52017V3.70024C62.4646 3.75147 62.4538 3.80221 62.4324 3.84879C62.4324 3.87579 62.3694 3.8893 62.2974 3.8848L61.5728 3.84879ZM60.1371 5.92848C60.1371 5.987 60.1371 6.03202 60.1371 6.05453C60.1196 6.07014 60.0987 6.08151 60.076 6.08776C60.0534 6.094 60.0296 6.09495 60.0066 6.09054H59.7185C59.679 6.08953 59.6403 6.0787 59.606 6.05903C59.5753 6.03033 59.5547 5.9924 59.5475 5.95099L59.417 5.40181L58.4133 5.34779L58.1973 5.85196C58.1867 5.89292 58.163 5.92929 58.1298 5.95549C58.0928 5.9643 58.0543 5.9643 58.0173 5.95549H57.7652C57.7189 5.95772 57.6736 5.94154 57.6392 5.91048C57.6296 5.89006 57.6246 5.86777 57.6246 5.84521C57.6246 5.82264 57.6296 5.80035 57.6392 5.77993L58.7464 3.17356C58.7629 3.13442 58.7875 3.09916 58.8184 3.07002C58.8459 3.05055 58.8792 3.04103 58.9129 3.04301H59.0929C59.1278 3.04277 59.1616 3.05562 59.1874 3.07903C59.2164 3.10981 59.2379 3.14675 59.2505 3.18706L60.1371 5.92848ZM59.0569 4.1999L58.9624 3.74975L58.8319 4.1999L58.5708 4.89764L59.255 4.93365L59.0569 4.1999ZM56.6311 3.01601C56.8075 3.01934 56.9823 3.05127 57.1486 3.11054C57.276 3.15628 57.3913 3.23013 57.4862 3.32661C57.5676 3.41367 57.6277 3.51846 57.6617 3.63271C57.6939 3.7545 57.7076 3.88047 57.7022 4.00634C57.6985 4.1446 57.6727 4.28138 57.6257 4.41147C57.5806 4.53279 57.5082 4.64213 57.4142 4.73108C57.308 4.82317 57.1839 4.89216 57.0496 4.93365C56.8769 4.9814 56.6973 4.99966 56.5185 4.98767H56.3835L56.2665 4.95166L56.235 5.73042C56.235 5.81144 56.235 5.85646 56.19 5.87447C56.1439 5.88356 56.0965 5.88356 56.0505 5.87447H55.8524C55.8012 5.87554 55.7503 5.86476 55.7039 5.84296C55.7039 5.84296 55.6679 5.77543 55.6724 5.69441L55.7714 3.12854C55.7714 3.05202 55.7714 3.0025 55.8164 2.989C55.8652 2.97698 55.9162 2.97698 55.965 2.989L56.6311 3.01601ZM56.487 4.46099C56.5854 4.46744 56.6841 4.45833 56.7796 4.43398C56.8493 4.41582 56.914 4.38194 56.9686 4.33495C57.0171 4.29681 57.0531 4.2451 57.0721 4.1864C57.0957 4.12615 57.1079 4.06204 57.1081 3.99734C57.1149 3.93764 57.1083 3.87719 57.0889 3.82036C57.0694 3.76352 57.0375 3.71173 56.9956 3.66872C56.8766 3.57525 56.7282 3.52735 56.577 3.53368H56.298L56.262 4.43398H56.3835L56.487 4.46099ZM52.3824 4.30344C52.3868 4.10863 52.4217 3.91573 52.4859 3.73175C52.5456 3.56547 52.6374 3.41253 52.756 3.28159C52.8828 3.14682 53.036 3.03956 53.206 2.96649C53.4046 2.88746 53.6183 2.85363 53.8316 2.86746C54.047 2.86672 54.2596 2.91603 54.4527 3.0115C54.6265 3.09234 54.7802 3.21072 54.9028 3.35812C55.014 3.50426 55.0951 3.67104 55.1413 3.84879C55.1955 4.03579 55.2183 4.2305 55.2088 4.42498C55.2041 4.61938 55.1708 4.81202 55.1098 4.99667C55.0482 5.16305 54.955 5.31592 54.8353 5.44682C54.7118 5.58546 54.5577 5.69335 54.3852 5.76193C54.187 5.8425 53.9732 5.87786 53.7596 5.86546C53.5462 5.86192 53.3359 5.8128 53.143 5.72142C52.9694 5.64032 52.8157 5.52198 52.6929 5.3748C52.5793 5.22956 52.4966 5.06257 52.4499 4.88413C52.3998 4.69478 52.3771 4.49923 52.3824 4.30344ZM54.5922 4.37996C54.5953 4.25269 54.5817 4.12556 54.5517 4.00184C54.5266 3.88858 54.4792 3.78145 54.4122 3.68673C54.3492 3.59668 54.266 3.52267 54.1692 3.47066C54.0593 3.4134 53.9375 3.38257 53.8136 3.38063C53.6904 3.37424 53.5673 3.39578 53.4536 3.44365C53.3532 3.48992 53.2641 3.55751 53.1925 3.64172C53.1233 3.73424 53.0701 3.83771 53.035 3.94782C52.9988 4.07071 52.9792 4.19787 52.9765 4.32595C52.9722 4.4545 52.9843 4.58308 53.0125 4.70857C53.0413 4.82059 53.0885 4.92706 53.152 5.02368C53.2156 5.11487 53.3006 5.18906 53.3996 5.23975C53.5097 5.29593 53.6315 5.32524 53.7551 5.32528C53.8784 5.3335 54.0019 5.31188 54.1152 5.26226C54.2159 5.2187 54.3041 5.1506 54.3717 5.06419C54.4427 4.97277 54.4961 4.86899 54.5292 4.75809C54.5677 4.63559 54.5889 4.50832 54.5922 4.37996ZM50.9917 4.37996H50.6676V5.16773H50.9467C51.0955 5.18461 51.2455 5.14791 51.3697 5.06419C51.4268 5.00598 51.467 4.93335 51.486 4.85407C51.5051 4.77479 51.5022 4.69183 51.4778 4.61404C51.4646 4.56697 51.438 4.52474 51.4013 4.4925C51.3555 4.45655 51.3037 4.42911 51.2482 4.41147C51.1582 4.39092 51.0656 4.38484 50.9737 4.39347L50.9917 4.37996ZM50.6901 3.34011V3.87129H50.7667H51.0367C51.2048 3.87007 51.3719 3.89591 51.5318 3.94782C51.6534 3.98911 51.7652 4.055 51.8603 4.14138C51.9402 4.22344 52.0016 4.32168 52.0403 4.42948C52.0759 4.54611 52.0927 4.66769 52.0899 4.7896C52.0865 4.90877 52.0668 5.02691 52.0313 5.14072C51.992 5.25456 51.9291 5.35884 51.8468 5.44682C51.7528 5.54111 51.6391 5.61337 51.5138 5.65839C51.3476 5.71588 51.1718 5.74035 50.9962 5.73042H50.2716C50.2209 5.72984 50.1707 5.72071 50.1231 5.70341C50.1006 5.70341 50.087 5.63589 50.0915 5.55936L50.1456 2.989C50.1456 2.91247 50.1456 2.86295 50.1861 2.84945C50.2348 2.83687 50.2859 2.83687 50.3346 2.84945L51.8018 2.88546C51.8738 2.88546 51.9188 2.88546 51.9323 2.93048C51.9446 2.98228 51.9446 3.03623 51.9323 3.08803V3.23208C51.9315 3.28421 51.9224 3.33587 51.9053 3.38513C51.9053 3.41214 51.8468 3.42564 51.7703 3.42564L50.6901 3.34011ZM49.754 5.51435C49.7639 5.53388 49.769 5.55547 49.769 5.57737C49.769 5.59926 49.7639 5.62085 49.754 5.64039C49.7372 5.65588 49.7172 5.66753 49.6954 5.67453C49.6737 5.68152 49.6507 5.6837 49.628 5.6809H49.3354C49.3153 5.68408 49.2948 5.68322 49.275 5.67835C49.2552 5.67348 49.2366 5.66471 49.2202 5.65255C49.2039 5.64039 49.1901 5.62508 49.1798 5.60754C49.1694 5.58999 49.1627 5.57055 49.1599 5.55036L48.9934 5.03268H47.9897L47.8142 5.54586C47.8048 5.58622 47.7827 5.62252 47.7512 5.64939C47.7145 5.66598 47.6744 5.67369 47.6342 5.6719H47.3821C47.3191 5.6719 47.2786 5.65839 47.2606 5.63138C47.2606 5.60438 47.2606 5.55936 47.2606 5.50084L48.2823 2.85395C48.2962 2.81321 48.3193 2.77624 48.3498 2.74591C48.3725 2.72179 48.4026 2.70595 48.4353 2.7009H48.6153C48.649 2.69891 48.6823 2.70844 48.7098 2.72791C48.7392 2.76084 48.7621 2.79902 48.7773 2.84045L49.754 5.51435ZM48.6153 3.83978L48.5118 3.38963L48.3948 3.83978L48.1653 4.54652H48.8494L48.6153 3.83978ZM45.6539 3.2906C45.6539 3.70474 45.6089 4.06486 45.5729 4.36646C45.5465 4.6196 45.4968 4.86975 45.4243 5.11371C45.3797 5.28263 45.2929 5.43749 45.1723 5.56386C45.1217 5.61101 45.0622 5.64763 44.9973 5.67159C44.9324 5.69554 44.8634 5.70636 44.7942 5.70341H44.6637C44.625 5.70086 44.5869 5.69173 44.5512 5.6764H44.5152C44.5026 5.67012 44.4918 5.66084 44.4837 5.64939C44.4727 5.63472 44.465 5.61782 44.4612 5.59987C44.4566 5.57306 44.4566 5.54566 44.4612 5.51885L44.4927 5.26676C44.4927 5.20824 44.5197 5.17223 44.5377 5.16773C44.5809 5.1609 44.625 5.1609 44.6682 5.16773C44.7001 5.16681 44.7315 5.15911 44.7602 5.14514C44.7889 5.13117 44.8143 5.11125 44.8347 5.0867C44.9033 4.99175 44.9495 4.88247 44.9698 4.76709C45.0171 4.53114 45.0457 4.29182 45.0553 4.05135C45.0823 3.76776 45.1003 3.38963 45.1093 2.92597C45.1093 2.84945 45.1093 2.79993 45.1453 2.78193C45.1943 2.7716 45.2448 2.7716 45.2938 2.78193H46.7385C46.7866 2.77785 46.8349 2.7872 46.8781 2.80894C46.9096 2.80894 46.9231 2.87196 46.9231 2.95298V5.51885C46.9231 5.59987 46.9231 5.64489 46.8826 5.6629C46.8389 5.68265 46.7907 5.69042 46.743 5.6854H46.5405C46.4914 5.68848 46.4423 5.6808 46.3965 5.6629C46.3965 5.6629 46.3605 5.59987 46.3605 5.51885V3.2906H45.6539ZM41.7473 3.74075C41.7408 3.79809 41.7481 3.85614 41.7684 3.91014C41.7887 3.96414 41.8216 4.01254 41.8643 4.05135C41.9918 4.12263 42.1371 4.15546 42.2829 4.14588H42.5754V3.2906H42.3144C42.2395 3.28356 42.1642 3.28356 42.0893 3.2906C42.0237 3.30228 41.961 3.32675 41.9048 3.36262C41.8533 3.39635 41.8114 3.44289 41.7833 3.49767C41.7452 3.57113 41.728 3.65368 41.7338 3.73625L41.7473 3.74075ZM42.985 2.75492C43.031 2.74533 43.0785 2.74533 43.1245 2.75492C43.1515 2.75492 43.165 2.82244 43.165 2.89897V5.46933C43.165 5.55036 43.165 5.59537 43.1245 5.61338C43.0801 5.63051 43.0325 5.63818 42.985 5.63589H42.7644C42.7139 5.63891 42.6633 5.63124 42.6159 5.61338C42.6159 5.61338 42.5799 5.55036 42.5799 5.46933V4.61404H42.3144C42.2778 4.61141 42.2414 4.62091 42.2108 4.64105C42.1812 4.66785 42.1568 4.6999 42.1388 4.73558L41.7428 5.53685C41.724 5.57744 41.6924 5.61067 41.6528 5.63138C41.5977 5.64106 41.5413 5.64106 41.4862 5.63138H41.1847C41.1608 5.63445 41.1365 5.63106 41.1143 5.62156C41.0921 5.61206 41.0729 5.5968 41.0587 5.57737C41.0362 5.53685 41.0587 5.48283 41.0947 5.40631L41.6213 4.50601C41.4604 4.44113 41.3291 4.31936 41.2522 4.16389C41.1836 4.01118 41.1498 3.84512 41.1532 3.67773C41.1493 3.52187 41.1833 3.3674 41.2522 3.22758C41.3172 3.11103 41.408 3.01094 41.5177 2.93498C41.6246 2.8694 41.7418 2.82223 41.8643 2.79543C42.0121 2.76296 42.1631 2.74786 42.3144 2.75042L42.985 2.75492ZM40.9642 5.49184C40.9642 5.55036 40.9912 5.59537 40.9642 5.61788C40.9371 5.64039 40.9011 5.65839 40.8381 5.6629H40.5501C40.5113 5.66485 40.4726 5.65711 40.4376 5.64039C40.406 5.61351 40.3839 5.57722 40.3746 5.53685L40.1945 5.02368L39.1639 5.04169L39.0019 5.55936C38.9925 5.59973 38.9704 5.63602 38.9388 5.6629C38.9045 5.68196 38.8656 5.6913 38.8263 5.6899H38.5743C38.5113 5.6899 38.4708 5.6899 38.4483 5.65389C38.4389 5.6334 38.4341 5.61114 38.4341 5.58862C38.4341 5.5661 38.4389 5.54384 38.4483 5.52335L39.4114 2.84945C39.4253 2.80871 39.4484 2.77174 39.4789 2.74141C39.5083 2.71433 39.547 2.69979 39.5869 2.7009H39.767C39.8006 2.69891 39.834 2.70844 39.8615 2.72791C39.892 2.75823 39.9151 2.79521 39.929 2.83594L40.9642 5.49184ZM39.794 3.83528L39.677 3.38513L39.5689 3.83528L39.3484 4.55102H40.0325L39.794 3.83528ZM38.1467 5.53235C38.1467 5.61338 38.1467 5.65839 38.1107 5.6764C38.0675 5.6977 38.0193 5.70703 37.9712 5.70341H37.7687C37.7215 5.71601 37.6718 5.71601 37.6246 5.70341C37.5976 5.70341 37.5841 5.64039 37.5841 5.55936V4.51051L36.4185 4.54202L36.441 5.59087C36.441 5.6674 36.441 5.71691 36.4005 5.73492C36.356 5.75226 36.3087 5.76141 36.2609 5.76193H36.0134C35.9662 5.77413 35.9166 5.77413 35.8694 5.76193C35.8424 5.76193 35.8289 5.69891 35.8289 5.62238L35.7704 3.05202C35.7704 2.97549 35.7704 2.92597 35.8064 2.90797C35.8526 2.88592 35.9039 2.8766 35.9549 2.88096H36.1529C36.1987 2.86952 36.2466 2.86952 36.2924 2.88096C36.3194 2.88096 36.3329 2.94398 36.3374 3.02501V4.00634L37.5031 3.97933V2.998C37.5031 2.91697 37.5031 2.86746 37.5346 2.85395C37.5794 2.83204 37.6288 2.82123 37.6786 2.82244H37.8812C37.9272 2.81245 37.9747 2.81245 38.0207 2.82244C38.0477 2.82244 38.0657 2.88546 38.0657 2.96649L38.1467 5.53235ZM33.5605 5.85196C33.5117 5.86397 33.4608 5.86397 33.412 5.85196C33.385 5.85196 33.3715 5.78894 33.3715 5.70791L33.313 3.10604C33.313 3.02951 33.313 2.97999 33.349 2.96199C33.3936 2.93988 33.4434 2.93053 33.493 2.93498H33.691C33.7384 2.92369 33.7877 2.92369 33.8351 2.93498C33.8621 2.93498 33.8756 2.998 33.8801 3.07903L33.9026 3.93431H33.9791H34.0736H34.1681H34.2131C34.3797 3.92312 34.5471 3.93985 34.7082 3.98383C34.8349 4.01586 34.9521 4.07758 35.0502 4.16389C35.1412 4.24013 35.2097 4.33973 35.2483 4.45199C35.3348 4.68907 35.3443 4.94746 35.2753 5.19024C35.2449 5.309 35.1862 5.41865 35.1043 5.50984C35.0139 5.61172 34.9015 5.69176 34.7757 5.74392C34.6103 5.80698 34.4351 5.8405 34.2581 5.84296L33.5605 5.85196ZM34.2131 4.43398H34.0781L33.9206 4.46099L33.9476 5.29377H34.2221C34.3731 5.30432 34.5225 5.25772 34.6407 5.16323C34.6851 5.11896 34.7187 5.06509 34.739 5.00578C34.7593 4.94647 34.7657 4.88329 34.7577 4.82111C34.7592 4.76677 34.7487 4.71277 34.7269 4.66297C34.7051 4.61317 34.6726 4.56879 34.6317 4.53302C34.5096 4.44846 34.3601 4.4131 34.2131 4.43398ZM31.2787 3.56519C31.2787 3.97933 31.2787 4.33945 31.2382 4.64105C31.2243 4.89819 31.1836 5.15316 31.1166 5.40181C31.0824 5.56991 31.003 5.72552 30.8871 5.85196C30.787 5.94983 30.6535 6.00613 30.5136 6.00951H30.383C30.3445 6.00867 30.3064 6.00105 30.2705 5.987C30.2589 5.99152 30.2461 5.99152 30.2345 5.987C30.2199 5.98208 30.2073 5.97261 30.1985 5.95999C30.1952 5.94517 30.1952 5.9298 30.1985 5.91498C30.1914 5.88843 30.1914 5.8605 30.1985 5.83395V5.57737C30.1985 5.51885 30.221 5.48283 30.239 5.47383C30.2822 5.46701 30.3263 5.46701 30.3695 5.47383C30.4332 5.46594 30.4912 5.43367 30.5316 5.3838C30.5966 5.28661 30.6382 5.17567 30.6531 5.05969C30.6946 4.83823 30.7201 4.61408 30.7296 4.38897C30.7296 4.10087 30.7296 3.72724 30.7296 3.25909C30.7296 3.18256 30.7296 3.13304 30.7656 3.11504C30.8104 3.09312 30.8598 3.08232 30.9096 3.08353L32.3543 3.02051C32.4017 3.00922 32.451 3.00922 32.4984 3.02051C32.5254 3.02051 32.5389 3.08353 32.5434 3.16456L32.6424 5.73042C32.6424 5.80694 32.6424 5.85646 32.6064 5.87447C32.5631 5.89601 32.5152 5.90682 32.4669 5.90598H32.2643C32.2168 5.9158 32.1678 5.9158 32.1203 5.90598C32.0933 5.90598 32.0798 5.84296 32.0798 5.76193L31.9943 3.56969L31.2787 3.56519ZM30.2165 5.81595C30.2275 5.83593 30.2333 5.85839 30.2333 5.88122C30.2333 5.90405 30.2275 5.9265 30.2165 5.94649C30.2165 5.9735 30.158 5.987 30.095 5.99151H29.8069C29.7686 6.00205 29.7282 6.00205 29.6899 5.99151C29.6582 5.96397 29.6348 5.92811 29.6224 5.88797L29.4244 5.3838L28.4207 5.43782L28.2767 5.95999C28.2672 6.00058 28.247 6.03787 28.2182 6.06803C28.1847 6.08917 28.1451 6.09867 28.1057 6.09504H27.8536C27.8316 6.09905 27.809 6.09832 27.7872 6.09288C27.7655 6.08745 27.7452 6.07744 27.7276 6.06353C27.7276 6.03652 27.7276 5.99601 27.7276 5.93299L28.6008 3.23208C28.6103 3.1915 28.6305 3.1542 28.6593 3.12404C28.6856 3.10135 28.719 3.0886 28.7538 3.08803H28.9338C28.9641 3.07577 28.998 3.07577 29.0283 3.08803C29.0596 3.11689 29.0841 3.15223 29.1003 3.19156L30.2165 5.81595ZM28.9923 4.1999L28.8573 3.74975L28.7673 4.1999L28.5693 4.95166L29.2624 4.89764L28.9923 4.1999ZM26.4764 3.27259C26.656 3.25515 26.8372 3.26886 27.012 3.31311C27.1406 3.34711 27.2604 3.40853 27.3631 3.49317C27.4522 3.57203 27.5216 3.67071 27.5656 3.78126C27.6121 3.89743 27.638 4.02082 27.6421 4.14588C27.6521 4.28523 27.6384 4.42525 27.6016 4.56002C27.5651 4.68455 27.5022 4.79972 27.4171 4.89764C27.322 5.00343 27.2033 5.08519 27.0705 5.13622C26.9045 5.20423 26.7277 5.24233 26.5484 5.24876H26.2739L26.3099 6.02752C26.3099 6.10404 26.3099 6.15356 26.2784 6.17157C26.2351 6.19311 26.1872 6.20392 26.1389 6.20308H25.9409C25.8924 6.21746 25.8408 6.21746 25.7923 6.20308C25.7653 6.20308 25.7518 6.14456 25.7473 6.06353L25.6213 3.49767C25.6213 3.41664 25.6213 3.37162 25.6528 3.35362C25.6966 3.32899 25.7468 3.31802 25.7968 3.32211L26.4764 3.27259ZM26.4764 4.72208C26.5749 4.72106 26.6724 4.70278 26.7645 4.66806C26.8317 4.64138 26.8929 4.6016 26.9445 4.55102C26.9887 4.50799 27.0199 4.4534 27.0345 4.39347C27.0511 4.33033 27.0587 4.26516 27.057 4.1999C27.055 4.14047 27.0413 4.08202 27.0165 4.02794C26.9918 3.97385 26.9566 3.9252 26.913 3.8848C26.78 3.79841 26.6189 3.7662 26.4629 3.79477H26.1884L26.2334 4.69507H26.3549L26.4764 4.72208ZM24.0011 5.10921L24.0371 5.78894L25.0992 5.72142C25.1757 5.72142 25.2207 5.72141 25.2342 5.75743C25.2566 5.80528 25.2674 5.8577 25.2657 5.91048V6.05453C25.2769 6.10494 25.2769 6.15717 25.2657 6.20758C25.2657 6.23909 25.2072 6.25709 25.1352 6.2616L23.695 6.35163C23.6462 6.36313 23.5953 6.36313 23.5465 6.35163C23.5195 6.35163 23.506 6.28861 23.5015 6.20758L23.3575 3.64622C23.3575 3.56519 23.3575 3.52017 23.389 3.50217C23.4331 3.47817 23.4827 3.46578 23.533 3.46616L24.9732 3.37613C25.0497 3.37613 25.0947 3.37613 25.1082 3.40764C25.1303 3.45716 25.1411 3.51098 25.1397 3.56519V3.70924C25.1508 3.75965 25.1508 3.81188 25.1397 3.86229C25.1397 3.8893 25.0812 3.9073 25.0092 3.91181L23.947 3.97933L23.9786 4.58703L24.7617 4.5015C24.8382 4.5015 24.8832 4.5015 24.8967 4.53302C24.9188 4.58254 24.9295 4.63636 24.9282 4.69057V4.83462C24.9393 4.88503 24.9393 4.93726 24.9282 4.98767C24.9282 5.01918 24.8697 5.03268 24.7977 5.04169L24.0011 5.10921ZM21.2466 4.14588C21.2466 4.31694 21.2466 4.488 21.2466 4.66356C21.2466 4.83912 21.2466 5.00567 21.2151 5.16773C21.1979 5.31907 21.1724 5.46935 21.1386 5.61788C21.1124 5.74409 21.0748 5.86765 21.0261 5.987L22.0613 5.91948L21.9622 4.09637L21.2466 4.14588ZM20.135 6.22108C20.135 6.14006 20.135 6.09054 20.171 6.07253C20.2126 6.05084 20.259 6.04 20.306 6.04102H20.4365C20.5006 5.91596 20.5518 5.78475 20.5895 5.64939C20.633 5.48838 20.6646 5.32438 20.684 5.15873C20.7035 4.95676 20.7125 4.75392 20.7111 4.55102C20.7111 4.33495 20.7111 4.10087 20.7111 3.83528V3.74075C20.7038 3.72036 20.7038 3.69812 20.7111 3.67773C20.723 3.66141 20.7407 3.65016 20.7606 3.64622C20.7964 3.64188 20.8327 3.64188 20.8686 3.64622L22.2908 3.54718C22.338 3.53499 22.3876 3.53499 22.4348 3.54718C22.4618 3.54718 22.4753 3.6102 22.4798 3.68673L22.6103 5.87897H22.7994C22.8452 5.86806 22.893 5.86806 22.9389 5.87897C22.9659 5.87897 22.9839 5.94199 22.9884 6.02302L23.0424 6.92332C23.0424 6.99984 23.0424 7.04936 23.0109 7.06737C22.9679 7.09015 22.9201 7.10248 22.8714 7.10338H22.7769C22.728 7.11488 22.6772 7.11488 22.6283 7.10338C22.6013 7.10338 22.5878 7.04036 22.5788 6.96383L22.5518 6.44166L20.5985 6.5767L20.6255 7.09438C20.6255 7.1754 20.6255 7.22492 20.5985 7.24293C20.5533 7.26411 20.5044 7.27634 20.4545 7.27894H20.36C20.3126 7.29006 20.2633 7.29006 20.216 7.27894C20.189 7.27894 20.171 7.21592 20.1665 7.13489L20.135 6.22108ZM18.7533 5.46933L18.7938 6.14906L19.8559 6.07253C19.9279 6.07253 19.9729 6.07253 19.9909 6.10404C20.0133 6.15189 20.0241 6.20432 20.0224 6.25709V6.40564C20.0307 6.45482 20.0307 6.50502 20.0224 6.55419C20.0224 6.58721 19.9774 6.60521 19.8874 6.60821L18.4607 6.71175C18.4125 6.72788 18.3604 6.72788 18.3122 6.71175C18.2852 6.71175 18.2672 6.65323 18.2627 6.5722L18.1007 4.01084C18.1007 3.92981 18.1007 3.8848 18.1322 3.86679C18.1763 3.84279 18.2259 3.8304 18.2762 3.83078L19.7164 3.72724C19.7884 3.72724 19.8334 3.72724 19.8514 3.75876C19.8737 3.80661 19.8845 3.85903 19.8829 3.91181V4.05585C19.894 4.10627 19.894 4.15849 19.8829 4.20891C19.8829 4.24042 19.8289 4.25842 19.7524 4.26292L18.6947 4.33945L18.7172 4.95166L19.5454 4.89314C19.6174 4.89314 19.6624 4.89314 19.6804 4.92465C19.7025 4.97417 19.7132 5.02799 19.7119 5.0822V5.22625C19.723 5.27666 19.723 5.32889 19.7119 5.3793C19.7119 5.40631 19.6579 5.42431 19.5814 5.43332L18.7533 5.46933ZM15.3102 5.40181C15.3133 5.58447 15.3784 5.76066 15.4948 5.90147C15.559 5.96625 15.6365 6.0163 15.722 6.04816C15.8075 6.08003 15.8989 6.09295 15.9898 6.08604L15.8908 4.61854C15.7861 4.62813 15.6848 4.66038 15.5938 4.71308C15.5205 4.76154 15.4577 4.82432 15.4092 4.89764C15.3661 4.97114 15.3371 5.05206 15.3237 5.13622C15.3057 5.22354 15.3011 5.31311 15.3102 5.40181ZM16.4984 6.04552C16.6033 6.034 16.7046 6.00024 16.7955 5.94649C16.8695 5.90082 16.9325 5.83933 16.98 5.76643C17.0257 5.69539 17.0563 5.61572 17.07 5.53235C17.0791 5.44406 17.0791 5.35506 17.07 5.26676C17.0667 5.082 16.9999 4.904 16.881 4.76259C16.818 4.69742 16.7413 4.64705 16.6564 4.61514C16.5716 4.58322 16.4807 4.57054 16.3904 4.57803L16.4984 6.04552ZM16.5659 6.73426C16.5659 6.81078 16.5659 6.8603 16.5344 6.8783C16.4916 6.90175 16.4437 6.91413 16.3949 6.91432H16.2104C16.1615 6.92582 16.1107 6.92582 16.0618 6.91432C16.0348 6.91432 16.0168 6.8558 16.0123 6.77477V6.5722C15.8332 6.58902 15.6525 6.5691 15.4813 6.51368C15.3362 6.46424 15.2051 6.38091 15.0987 6.2706C14.9934 6.16457 14.912 6.03715 14.8602 5.89697C14.8034 5.75292 14.7685 5.6012 14.7566 5.44682C14.7428 5.28041 14.7581 5.11285 14.8016 4.95166C14.8395 4.80372 14.9086 4.66559 15.0042 4.54652C15.1007 4.42732 15.2221 4.33055 15.3597 4.26292C15.5126 4.18634 15.6796 4.14191 15.8503 4.13238V3.98383C15.8503 3.9028 15.8503 3.85779 15.8773 3.83528C15.9221 3.81337 15.9715 3.80256 16.0213 3.80377H16.2059C16.2529 3.79026 16.3028 3.79026 16.3499 3.80377C16.3769 3.80377 16.3949 3.86229 16.3994 3.94332V4.09187C16.5759 4.07406 16.7542 4.09559 16.9215 4.15489C17.0663 4.20541 17.1983 4.28682 17.3085 4.39347C17.4158 4.49879 17.4988 4.62631 17.5516 4.76709C17.6108 4.91035 17.6458 5.06249 17.6551 5.21725C17.668 5.38217 17.6528 5.54809 17.6101 5.70791C17.5687 5.85538 17.4983 5.9931 17.403 6.11305C17.3072 6.23115 17.1876 6.32777 17.052 6.39664C16.8989 6.47264 16.732 6.51704 16.5614 6.52719L16.5659 6.73426ZM13.0599 1.31893C23.0154 0.607696 33.4525 -0.0585284 44.0516 -8.73255e-06C54.6507 -0.0630299 65.0878 0.603194 75.0389 1.31443C75.2594 1.31443 75.4889 1.46298 75.4439 1.63854C74.7122 5.9563 74.6742 10.3632 75.3314 14.6929C75.2494 14.6051 75.1517 14.5334 75.0434 14.4814C74.7301 14.3548 74.3956 14.2891 74.0577 14.2878C73.7427 14.2878 72.3475 14.2563 72.0099 14.2473H71.6994L69.9441 14.1978L68.1798 14.1392H67.8513C60.2586 13.8466 52.4049 13.2975 44.0516 13.266C35.5003 13.2975 27.4756 13.8737 19.7119 14.1663H19.3878L17.6236 14.2248L16.1609 14.2608H15.5443C15.0042 14.2608 14.2616 14.2968 14.041 14.2833C13.7028 14.2857 13.3683 14.353 13.0554 14.4814C12.9426 14.5322 12.8414 14.6058 12.7583 14.6974C13.415 10.3605 13.3816 5.947 12.6593 1.62054C12.6323 1.46748 12.8438 1.35045 13.0599 1.31893Z" fill="white"/>
<path fill-rule="evenodd" clip-rule="evenodd" d="M35.5635 37.7002H51.991L43.8042 34.5221L35.5635 37.7002Z" fill="white"/>
<path fill-rule="evenodd" clip-rule="evenodd" d="M37.5078 51.2633C37.5078 51.5108 37.6563 51.7134 37.8319 51.7134H49.7227C50.1142 51.7134 50.2358 50.8131 49.5877 50.8131H37.9714C37.8573 50.8128 37.7473 50.8559 37.6638 50.9336C37.5802 51.0114 37.5293 51.1179 37.5213 51.2318" fill="white"/>
<path fill-rule="evenodd" clip-rule="evenodd" d="M40.0056 50.1963C40.0056 50.5339 40.1541 50.705 40.5592 50.705H46.9907C47.7873 50.705 47.6613 49.8047 47.0852 49.8047H40.4692C40.3558 49.8043 40.2465 49.8468 40.163 49.9236C40.0796 50.0003 40.0282 50.1058 40.0191 50.2188" fill="white"/>
<path fill-rule="evenodd" clip-rule="evenodd" d="M41.4143 38.614V48.9359C41.3002 48.9745 41.2022 49.0497 41.1354 49.1499C41.0686 49.25 41.0369 49.3695 41.0452 49.4896H42.661C42.6025 49.2195 42.5575 49.0035 42.2919 48.9359V38.614C42.5935 38.4519 42.58 38.4204 42.661 38.0558H41.0272C41.0229 38.1781 41.0582 38.2986 41.128 38.3992C41.1977 38.4999 41.2982 38.5752 41.4143 38.614Z" fill="white"/>
<path fill-rule="evenodd" clip-rule="evenodd" d="M43.3407 38.614V48.9359C43.2266 48.975 43.1284 49.0502 43.061 49.1501C42.9936 49.25 42.9606 49.3692 42.9671 49.4896H44.5874C44.5244 49.2195 44.4838 49.0035 44.2183 48.9359V38.614C44.5199 38.4519 44.5064 38.4204 44.5874 38.0558H42.9671C42.9625 38.1763 42.9962 38.2953 43.0633 38.3955C43.1304 38.4958 43.2275 38.5723 43.3407 38.614Z" fill="white"/>
<path fill-rule="evenodd" clip-rule="evenodd" d="M45.2806 38.614V48.9359C45.1674 48.9758 45.0702 49.0513 45.0036 49.1511C44.9371 49.251 44.9047 49.3698 44.9115 49.4896H46.5318C46.4688 49.2195 46.4283 49.0035 46.1627 48.9359V38.614C46.4643 38.4519 46.4463 38.4204 46.5318 38.0558H44.9115C44.9066 38.1758 44.9396 38.2943 45.0059 38.3945C45.0721 38.4947 45.1682 38.5715 45.2806 38.614Z" fill="white"/>
<path fill-rule="evenodd" clip-rule="evenodd" d="M40.0641 45.1411H37.1342V37.9387L40.0641 45.1411ZM37.3637 37.6461L40.4107 45.1276L40.4512 45.1591C41.0858 46.3025 37.5303 46.7167 37.1027 46.7167C36.3691 46.7167 33.4256 46.3746 33.6507 45.2762C33.6578 45.2378 33.6761 45.2023 33.7033 45.1742C33.7306 45.1462 33.7655 45.1269 33.8037 45.1186L36.8417 37.6461H37.3637ZM36.9722 37.9162L36.9137 45.1186H34.0512L36.9722 37.9162Z" fill="white"/>
<path fill-rule="evenodd" clip-rule="evenodd" d="M53.5211 45.1411H50.6137V37.9387L53.5211 45.1411ZM50.7982 37.6461L53.8452 45.1276L53.8857 45.1591C54.5203 46.3025 50.9647 46.7167 50.5372 46.7167C49.8035 46.7167 46.8601 46.3746 47.0896 45.2762C47.0949 45.237 47.1126 45.2005 47.1402 45.1722C47.1677 45.1438 47.2036 45.125 47.2426 45.1186L50.2761 37.6461H50.7982ZM50.4066 37.9162L50.3481 45.1186H47.5307L50.4066 37.9162Z" fill="white"/>
<path d="M62.4729 30.4077H57.6887V27.7068H61.7393C61.9883 27.7191 62.2322 27.6334 62.4189 27.4682C62.5035 27.3853 62.5697 27.2856 62.6131 27.1755C62.6565 27.0653 62.6762 26.9472 62.6709 26.829V25.2084H57.7202V22.602H62.6709V21.013C62.6928 20.8607 62.6788 20.7055 62.6302 20.5595C62.5816 20.4136 62.4997 20.2809 62.391 20.1722C62.2822 20.0634 62.1496 19.9814 62.0037 19.9328C61.8577 19.8842 61.7025 19.8703 61.5503 19.8921H55.8794L57.9092 17.2812H62.2974C63.6026 17.2812 64.5522 17.5814 65.1463 18.1816C65.7359 18.7667 66.0465 19.7031 66.0465 20.9995V26.892C66.0465 28.0984 65.7584 28.9897 65.1868 29.5569C64.6152 30.1241 63.7151 30.4077 62.4864 30.4077" fill="white"/>
<path d="M51.1313 30.4077C49.9101 30.4077 49.01 30.1241 48.4309 29.5569C47.8548 28.9897 47.5713 28.0984 47.5713 26.892V20.977C47.5713 19.6806 47.8683 18.7263 48.4714 18.1591C49.0745 17.5919 50.0107 17.2588 51.3159 17.2588H57.4233L55.416 19.8697H52.063C51.9112 19.848 51.7564 19.8619 51.6108 19.9103C51.4653 19.9586 51.333 20.0401 51.2243 20.1484C51.1157 20.2566 51.0337 20.3886 50.9847 20.534C50.9358 20.6794 50.9212 20.8341 50.9423 20.986V26.7795C50.9355 26.9044 50.9548 27.0294 50.999 27.1464C51.0431 27.2634 51.1112 27.37 51.1988 27.4592C51.2885 27.5461 51.3952 27.6133 51.5122 27.6567C51.6291 27.7001 51.7539 27.7187 51.8784 27.7113H54.6869H57.9274V30.3762C55.8346 30.3762 53.2242 30.3762 51.1313 30.3762" fill="white"/>
<path d="M40.4512 27.4592C40.4553 28.2407 40.1551 28.9931 39.6141 29.5569C39.3676 29.8145 39.0692 30.0167 38.7387 30.1502C38.4081 30.2837 38.053 30.3454 37.6968 30.3312H36.9947H29.384L31.3823 27.8104H36.5311C36.6406 27.8205 36.7509 27.8082 36.8554 27.7742C36.9599 27.7401 37.0563 27.685 37.1387 27.6123C37.303 27.3656 37.3906 27.0759 37.3908 26.7795L37.4628 17.2633H47.1303V30.3177H43.7682V19.8787H40.5457L40.4512 27.4592Z" fill="white"/>
<path d="M24.8968 23.7995C24.8749 23.9518 24.8889 24.107 24.9375 24.253C24.9861 24.3989 25.068 24.5316 25.1768 24.6403C25.2855 24.7491 25.4181 24.8311 25.564 24.8797C25.71 24.9283 25.8652 24.9422 26.0174 24.9204H27.6962V19.8967H26.0174C25.8652 19.8749 25.71 19.8888 25.564 19.9374C25.4181 19.986 25.2855 20.0679 25.1768 20.1767C25.068 20.2855 24.9861 20.4181 24.9375 20.5641C24.8889 20.71 24.8749 20.8653 24.8968 21.0176V23.7995ZM33.4841 21.0176C33.5059 20.8653 33.492 20.71 33.4434 20.5641C33.3948 20.4181 33.3129 20.2855 33.2041 20.1767C33.0953 20.0679 32.9627 19.986 32.8168 19.9374C32.6709 19.8888 32.5157 19.8749 32.3634 19.8967H30.6847V24.9204H32.3634C32.5157 24.9422 32.6709 24.9283 32.8168 24.8797C32.9627 24.8311 33.0953 24.7491 33.2041 24.6403C33.3129 24.5316 33.3948 24.3989 33.4434 24.253C33.492 24.107 33.5059 23.9518 33.4841 23.7995V21.0176ZM36.8416 23.7995C36.8416 25.1049 36.549 26.0503 35.9415 26.649C35.3339 27.2477 34.4022 27.5493 33.097 27.5493H30.8467V27.8239L28.8394 30.3492H27.4892V27.5358H25.2388C23.9291 27.5358 22.9885 27.2387 22.3899 26.6354C21.7913 26.0322 21.4897 25.0959 21.4897 23.786V21.0176C21.4897 19.7121 21.7898 18.7623 22.3899 18.1681C22.984 17.5784 23.9291 17.2678 25.2388 17.2678H27.4892V16.9707H30.8512V17.2678H33.1015C34.4067 17.2678 35.3549 17.5679 35.946 18.1681C36.54 18.7623 36.8461 19.7121 36.8461 21.0176L36.8416 23.7995Z" fill="white"/>
</g>
<defs>
<clipPath id="clip0_59_77">
<rect width="88" height="61" fill="white"/>
</clipPath>
</defs>
</svg>
