<svg width="92" height="107" viewBox="0 0 92 107" fill="none" xmlns="http://www.w3.org/2000/svg">
<path fill-rule="evenodd" clip-rule="evenodd" d="M46.0001 19.4471L16.8421 36.2817C16.8421 37.9015 16.8421 39.5225 16.8421 41.1422H25.2651L46.0001 29.1706L61.3389 38.0266L66.7376 41.1435L83.5785 50.7919V53.1163V74.8127L64.7899 85.6602L46.0001 96.509L27.2103 85.6602L15.3826 78.832L15.34 78.9046L0 70.0486V79.6757L46.0001 106.234L92.0002 79.6757V55.6173V46.0778V45.8926L46.0001 19.4471Z" fill="#00B650"/>
<path d="M18.5397 56.0027V58.913H19.9792V56.0027H21.5889V63.8486H19.9792V60.6617H18.5397V63.8486H16.93V56.0027H18.5397Z" fill="#0071BC"/>
<path d="M28.9425 59.9369C28.9425 62.6444 27.7809 63.9875 25.9797 63.9875C24.1671 63.9875 22.9842 62.6444 22.9842 59.9256C22.9842 57.2181 24.1571 55.885 25.9684 55.885C27.7696 55.8863 28.9425 57.2081 28.9425 59.9369ZM24.604 59.9369C24.604 61.8771 25.2224 62.4103 25.9684 62.4103C26.7044 62.4103 27.3328 61.8458 27.3328 59.9269C27.3328 58.0079 26.7044 57.4534 25.9471 57.4534C25.2011 57.4522 24.604 57.9967 24.604 59.9369Z" fill="#0071BC"/>
<path d="M33.7618 59.7229C34.1774 60.0421 34.5191 60.5541 34.5191 61.4604C34.5191 63.1765 33.7831 63.8912 31.9293 63.8912C31.3648 63.8912 30.7139 63.87 30.3408 63.8374V56.0554C30.8415 56.0015 31.4812 55.9803 32.0144 55.9803C33.7306 55.9803 34.3602 56.6524 34.3602 58.0056C34.3577 58.8918 34.091 59.4038 33.7618 59.7229ZM31.928 59.1897H32.3762C32.6102 59.1897 32.7605 58.8705 32.7605 58.2622C32.7605 57.7502 32.6753 57.6013 32.3236 57.6013C32.2059 57.6013 32.0357 57.6113 31.9293 57.6338V59.1897H31.928ZM31.928 62.2602C32.0557 62.2815 32.3123 62.3028 32.45 62.3028C32.7917 62.3028 32.9082 62.0687 32.9082 61.4391C32.9082 60.7782 32.7479 60.4803 32.4287 60.4803H31.928V62.2602Z" fill="#0071BC"/>
<path d="M41.5323 59.9369C41.5323 62.6444 40.3707 63.9875 38.5694 63.9875C36.7569 63.9875 35.574 62.6444 35.574 59.9256C35.574 57.2181 36.7469 55.885 38.5581 55.885C40.3594 55.8863 41.5323 57.2081 41.5323 59.9369ZM37.1937 59.9369C37.1937 61.8771 37.8121 62.4103 38.5581 62.4103C39.2942 62.4103 39.9225 61.8458 39.9225 59.9269C39.9225 58.0079 39.2942 57.4534 38.5369 57.4534C37.7908 57.4522 37.1937 57.9967 37.1937 59.9369Z" fill="#0071BC"/>
<path d="M47.2145 57.8477C46.8202 57.5711 46.2544 57.4534 45.8388 57.4534C45.0077 57.4534 44.2717 58.0079 44.2717 59.9368C44.2717 61.8658 45.0077 62.4103 45.785 62.4103C46.2119 62.4103 46.8302 62.2826 47.1607 61.9834L47.6614 63.5293C47.1181 63.8172 46.2331 63.9875 45.6148 63.9875C43.8874 63.9875 42.6619 62.6331 42.6619 59.9368C42.6619 57.2606 43.8448 55.8862 45.6361 55.8862C46.2331 55.8862 47.1181 56.0352 47.6614 56.3231L47.2145 57.8477Z" fill="#0071BC"/>
<path d="M52.7147 56.0027V57.6225H51.4567V63.8474H49.8369V57.6225H48.579V56.0027H52.7147Z" fill="#0071BC"/>
<path d="M55.4756 63.8486H53.8658V56.0779C54.314 56.024 54.7821 55.9715 55.2841 55.9715C57.1917 55.9715 57.8952 56.75 57.8952 58.4124C57.8952 60.1498 57.1166 60.9809 55.7097 60.9809H55.4756V63.8486ZM55.4643 59.4989H55.8486C56.1252 59.4989 56.318 59.1146 56.318 58.4649C56.318 57.8791 56.169 57.6225 55.8173 57.6225C55.7322 57.6225 55.6145 57.6338 55.4656 57.6551V59.4989H55.4643Z" fill="#0071BC"/>
<path d="M64.835 59.9369C64.835 62.6444 63.6734 63.9875 61.8721 63.9875C60.0596 63.9875 58.8767 62.6444 58.8767 59.9256C58.8767 57.2181 60.0496 55.885 61.8609 55.885C63.6621 55.8863 64.835 57.2081 64.835 59.9369ZM60.4965 59.9369C60.4965 61.8771 61.1148 62.4103 61.8609 62.4103C62.5969 62.4103 63.2253 61.8458 63.2253 59.9269C63.2253 58.0079 62.5969 57.4534 61.8396 57.4534C61.0923 57.4522 60.4965 57.9967 60.4965 59.9369Z" fill="#0071BC"/>
<path d="M69.6957 56.0028V57.6225H67.8406V58.9331H69.4929V60.4677H67.8406V62.2264H69.717V63.8462H66.2309V56.0003H69.6957V56.0028Z" fill="#0071BC"/>
<path d="M72.7008 56.0028V59.2222H72.8185L74.3218 56.0028H76.038L74.2042 59.6691L76.1656 63.8474H74.3318L72.8185 60.2023H72.7008V63.8474H71.0811V56.0015H72.7008V56.0028Z" fill="#0071BC"/>
<path d="M18.7989 44.5631L20.0143 49.7228L21.2398 44.5631H23.2325V52.409H21.6128V49.0506L20.7491 52.409H19.257L18.3933 48.9868V52.409H16.8474V44.5631H18.7989Z" fill="#00B650"/>
<path d="M28.2644 44.5631L30.3223 52.409H28.6274L28.2219 50.7454H26.4206L26.015 52.409H24.3628L26.4632 44.5631H28.2644ZM27.3269 47.0366L26.8049 49.1683H27.8388L27.3269 47.0366Z" fill="#00B650"/>
<path d="M34.9272 44.5631V46.1829H33.0621V52.4078H31.4424V44.5619H34.9272V44.5631Z" fill="#00B650"/>
<path d="M38.9242 44.5631L40.982 52.409H39.2872L38.8816 50.7454H37.0804L36.6748 52.409H35.0225L37.1229 44.5631H38.9242ZM37.9866 47.0366L37.4646 49.1683H38.4986L37.9866 47.0366Z" fill="#00B650"/>
<path d="M41.7821 44.8409C42.2515 44.5743 42.8048 44.4466 43.4132 44.4466C44.6386 44.4466 45.6087 45.1188 45.6087 46.7273C45.6087 47.5059 45.3421 47.9853 45.0116 48.2832C45.4272 48.6024 45.7577 49.1143 45.7577 50.0632C45.7577 51.8331 44.6173 52.5366 43.3806 52.5366C42.7835 52.5366 42.1764 52.3664 41.6532 52.0672L42.1539 50.5426C42.4205 50.7666 42.9425 50.9794 43.4332 50.9794C43.86 50.9794 44.1792 50.7241 44.1792 49.9342C44.1792 49.2833 43.9764 48.9854 43.5396 48.9854H42.7297V47.7061H43.5183C43.8813 47.7061 44.0303 47.4608 44.0303 46.9388C44.0303 46.2353 43.7424 46.0013 43.3693 46.0013C42.9425 46.0013 42.4531 46.2041 42.1326 46.3856L41.7821 44.8409Z" fill="#00B650"/>
<path d="M48.7741 44.5631V48.1231L50.4589 44.5631H51.8121V52.409H50.2023V48.4122L48.3047 52.409H47.1531V44.5631H48.7741Z" fill="#00B650"/>
<path d="M55.074 44.5631V47.4734H56.5135V44.5631H58.1233V52.409H56.5135V49.2221H55.074V52.409H53.4643V44.5631H55.074Z" fill="#00B650"/>
<path fill-rule="evenodd" clip-rule="evenodd" d="M46.0001 0L0 26.5581V50.5915V60.2812V60.315C2.80639 60.345 5.61404 60.375 8.42044 60.4038C8.42044 58.744 8.42044 57.0842 8.42044 55.4244V53.1175V50.624V31.4199L27.2103 20.5723L46.0001 9.7235L64.7899 20.5723L83.5785 31.4199V31.4474L92.0002 36.3091V26.5581L46.0001 0Z" fill="#0071BC"/>
<path fill-rule="evenodd" clip-rule="evenodd" d="M77.4288 68.699H60.4865L46.0365 77.0405L46.0002 77.0618L45.9639 77.0405L31.5151 68.699H14.5715L46.0002 86.7853L77.4288 68.699Z" fill="#0071BC"/>
</svg>
