<svg width="88" height="58" viewBox="0 0 88 58" fill="none" xmlns="http://www.w3.org/2000/svg">
<path d="M8.20183 44.4563C7.77086 44.0926 7.30622 43.8435 6.80792 43.7088C6.30962 43.5606 5.82478 43.4866 5.35341 43.4866C5.04365 43.4866 4.73389 43.5337 4.42414 43.628C4.11438 43.7088 3.83829 43.8502 3.59587 44.0522C3.35346 44.2542 3.15144 44.5169 2.98983 44.8401C2.84168 45.1633 2.76761 45.5539 2.76761 46.0118V50.0723C2.76761 50.5302 2.84168 50.9207 2.98983 51.244C3.15144 51.5537 3.35346 51.8096 3.59587 52.0116C3.85176 52.2136 4.12785 52.3618 4.42414 52.4561C4.73389 52.5503 5.04365 52.5975 5.35341 52.5975C5.82478 52.5975 6.29615 52.5301 6.76752 52.3955C7.25235 52.2608 7.73719 52.0049 8.22203 51.6278L9.53513 53.7692C9.02335 54.2001 8.39711 54.5368 7.65638 54.7792C6.91566 55.0217 6.13453 55.1429 5.31301 55.1429C4.65309 55.1429 4.00664 55.0486 3.37366 54.86C2.74068 54.6715 2.17503 54.3954 1.67673 54.0318C1.17842 53.6547 0.774392 53.1901 0.464635 52.6379C0.154878 52.0722 0 51.4123 0 50.6581V45.4461C0 44.7054 0.148145 44.059 0.444434 43.5068C0.754191 42.9411 1.15149 42.4698 1.63632 42.0927C2.13463 41.7156 2.70027 41.4328 3.33325 41.2442C3.96624 41.0557 4.61269 40.9614 5.2726 40.9614C6.08066 40.9614 6.85506 41.0691 7.59578 41.2846C8.34997 41.5001 8.99642 41.8435 9.53513 42.3149L8.20183 44.4563Z" fill="black"/>
<path fill-rule="evenodd" clip-rule="evenodd" d="M78.426 21.094C74.1729 10.4784 62.1195 5.32046 51.5038 9.57352C40.8882 13.8266 35.7303 25.8801 39.9834 36.4957C44.2364 47.1113 56.2899 52.2692 66.9055 48.0162C77.5212 43.7631 82.6791 31.7096 78.426 21.094ZM85.927 18.0888C80.0142 3.33045 63.257 -3.84027 48.4986 2.07252C33.7403 7.98531 26.5696 24.7426 32.4823 39.5009C38.3951 54.2592 55.1524 61.43 69.9107 55.5172C84.6691 49.6044 91.8398 32.8471 85.927 18.0888Z" fill="black"/>
<path d="M17.1576 44.3217L24.546 34.9215L28.9926 46.0202L17.1576 44.3217Z" fill="black"/>
</svg>
