<svg width="168" height="39" viewBox="0 0 168 39" fill="none" xmlns="http://www.w3.org/2000/svg">
<g opacity="0.4" clip-path="url(#clip0_59_47)">
<path d="M54.6168 11.1871C54.6067 10.7211 54.7636 10.2668 55.0591 9.90635C55.2181 9.76725 55.4033 9.6612 55.6037 9.59439C55.8042 9.52757 56.0159 9.50132 56.2266 9.51717H64.4737C65.5445 9.51717 66.0811 10.0785 66.0835 11.2013V26.6729C66.0835 26.8568 66.0481 26.9771 65.9809 27.0267C65.8646 27.0877 65.733 27.1135 65.6023 27.101H63.4795C63.357 27.1091 63.2346 27.0834 63.1257 27.0267C63.0479 26.9771 63.0125 26.8568 63.0125 26.6729V12.1919H57.4578L57.3022 14.3819C57.1725 16.2688 57.0356 17.9446 56.8918 19.4094C56.7844 20.7127 56.5377 22.0008 56.1559 23.2516C55.8614 24.2526 55.3409 25.1726 54.6345 25.9405C53.8716 26.7051 52.9193 27.2534 51.8749 27.529C51.7384 27.5676 51.5939 27.5676 51.4574 27.529C51.3912 27.4921 51.3335 27.4414 51.2884 27.3804C51.2433 27.3194 51.2116 27.2494 51.1956 27.1752L50.6685 25.6893C50.637 25.5663 50.637 25.4373 50.6685 25.3143C50.6897 25.2117 50.7958 25.1197 50.9798 25.0383C51.6123 24.7852 52.1768 24.3878 52.6285 23.8778C53.064 23.3225 53.3764 22.6809 53.5448 21.9956C53.791 21.0265 53.9543 20.0382 54.0331 19.0414C54.1439 17.8621 54.2619 16.3997 54.3869 14.6543L54.6345 11.1836" fill="white"/>
<path d="M80.7557 20.439C80.7557 22.668 80.2415 24.3815 79.2131 25.5797C78.1847 26.7779 76.6516 27.377 74.6137 27.377C72.5877 27.377 71.0746 26.7944 70.0745 25.6293C69.0744 24.4641 68.572 22.7611 68.5673 20.5204C68.5492 19.5217 68.7024 18.5273 69.0202 17.5803C69.2873 16.7818 69.7147 16.0462 70.2762 15.4186C70.8089 14.8336 71.4651 14.3743 72.1973 14.0742C72.9835 13.7551 73.8255 13.5963 74.6739 13.6072C76.6693 13.6072 78.1824 14.2145 79.2131 15.4292C80.2438 16.644 80.758 18.3162 80.7557 20.4461V20.439ZM77.7661 20.5204C77.7692 19.9454 77.7219 19.3712 77.6246 18.8045C77.548 18.3093 77.3877 17.8307 77.1505 17.3893C76.9337 16.9861 76.6122 16.6488 76.22 16.4128C75.7622 16.1619 75.2451 16.0396 74.7234 16.059C74.2289 16.0513 73.7409 16.1732 73.3082 16.4128C72.9072 16.6398 72.5635 16.9557 72.3034 17.3362C72.0207 17.7584 71.8203 18.2301 71.7126 18.7266C71.5843 19.2991 71.5214 19.8842 71.5251 20.4709C71.5251 21.8672 71.7503 22.9663 72.2008 23.7683C72.6572 24.5714 73.4604 24.9712 74.6173 24.9712C75.109 24.9932 75.5973 24.8798 76.029 24.6433C76.4608 24.4069 76.8193 24.0565 77.0656 23.6303C77.3224 23.1929 77.5008 22.7139 77.5927 22.2151C77.7082 21.6576 77.7663 21.0897 77.7661 20.5204Z" fill="white"/>
<path d="M108.288 20.439C108.288 22.6679 107.774 24.3815 106.746 25.5797C105.718 26.7779 104.184 27.377 102.147 27.377C100.118 27.377 98.605 26.7944 97.6073 25.6292C96.6096 24.464 96.1072 22.7611 96.1001 20.5203C96.0844 19.5221 96.2363 18.5283 96.5494 17.5803C96.8191 16.7821 97.2476 16.0468 97.809 15.4186C98.3423 14.8342 98.9984 14.3751 99.7301 14.0741C100.516 13.7557 101.358 13.5969 102.207 13.6071C104.204 13.6071 105.718 14.2145 106.746 15.4292C107.774 16.6439 108.288 18.3162 108.288 20.446V20.439ZM105.302 20.5203C105.303 19.9456 105.257 19.3717 105.164 18.8044C105.082 18.3096 104.92 17.8316 104.683 17.3892C104.466 16.986 104.145 16.6487 103.753 16.4127C103.296 16.1623 102.78 16.04 102.26 16.0589C101.765 16.0512 101.277 16.1732 100.845 16.4127C100.444 16.6389 100.101 16.955 99.8433 17.3362C99.5581 17.7573 99.3563 18.2294 99.2489 18.7266C99.1206 19.299 99.0577 19.8842 99.0614 20.4708C99.0614 21.8671 99.2878 22.9663 99.7407 23.7682C100.194 24.5702 100.998 24.9711 102.154 24.9711C102.672 24.9938 103.187 24.8713 103.64 24.6173C104.036 24.3771 104.368 24.0429 104.605 23.6444C104.861 23.2062 105.039 22.7276 105.133 22.2292C105.248 21.6669 105.305 21.0943 105.302 20.5203Z" fill="white"/>
<path d="M112.633 27.1011C112.436 27.1237 112.236 27.1063 112.046 27.0497C111.855 26.9932 111.678 26.8987 111.526 26.772C111.301 26.4659 111.194 26.0891 111.225 25.7106V11.212C111.225 10.0728 111.759 9.50314 112.835 9.50314H122.309C122.493 9.50314 122.61 9.54205 122.663 9.61635C122.724 9.73636 122.75 9.87138 122.737 10.0055V11.7179C122.751 11.8407 122.725 11.9646 122.663 12.0717C122.614 12.1389 122.497 12.1708 122.309 12.1708H114.314V16.0626H118.442C119.263 16.0463 120.082 16.1427 120.876 16.3491C121.48 16.5125 122.053 16.7717 122.575 17.1169C123.003 17.4038 123.377 17.763 123.682 18.1783C123.949 18.5527 124.16 18.9639 124.308 19.3989C124.445 19.7897 124.539 20.1942 124.588 20.6053C124.627 20.991 124.648 21.3342 124.648 21.6384C124.658 22.3946 124.501 23.1437 124.188 23.832C123.887 24.4903 123.456 25.0812 122.921 25.5691C122.37 26.0618 121.73 26.4459 121.036 26.7013C120.294 26.971 119.511 27.1064 118.722 27.1011H112.633ZM121.457 21.4403C121.468 20.7052 121.192 19.9947 120.689 19.459C120.396 19.1753 120.046 18.9563 119.663 18.8162C119.279 18.676 118.871 18.6178 118.464 18.6453H114.314V24.3379H118.414C118.924 24.3557 119.431 24.2564 119.896 24.0478C120.252 23.8792 120.569 23.6382 120.827 23.3402C121.057 23.0677 121.224 22.7474 121.315 22.4026C121.406 22.0946 121.453 21.7755 121.457 21.4544V21.4403Z" fill="white"/>
<path d="M137.922 25.6644C137.938 25.8353 137.9 26.0068 137.815 26.1555C137.729 26.3043 137.6 26.4231 137.445 26.4959C137.059 26.6709 136.659 26.8141 136.249 26.9239C135.815 27.0434 135.375 27.1356 134.929 27.1999C134.483 27.2685 134.033 27.3145 133.581 27.3379C133.139 27.3662 132.718 27.3768 132.315 27.3768C131.386 27.3989 130.459 27.2857 129.562 27.0407C128.928 26.8614 128.338 26.5531 127.829 26.135C127.415 25.7799 127.107 25.3187 126.937 24.8012C126.586 23.7209 126.598 22.5551 126.972 21.4825C127.169 20.9427 127.492 20.4576 127.914 20.0673C128.406 19.6242 128.984 19.286 129.612 19.0732C130.434 18.8018 131.297 18.6737 132.163 18.6946H134.993V18.27C134.996 17.9734 134.963 17.6776 134.894 17.3891C134.829 17.122 134.694 16.8775 134.501 16.6815C134.281 16.4633 134.01 16.3039 133.712 16.218C133.288 16.0972 132.848 16.0423 132.407 16.0553C131.784 16.0592 131.162 16.1089 130.546 16.2039C129.991 16.2783 129.443 16.3966 128.908 16.5577C128.78 16.6042 128.641 16.6128 128.508 16.5824C128.423 16.547 128.366 16.4551 128.335 16.3029L127.981 14.8877C127.912 14.6188 127.987 14.4419 128.204 14.357C128.951 14.0799 129.727 13.89 130.517 13.791C131.301 13.6874 132.09 13.633 132.881 13.6282C134.624 13.6282 135.901 14.0138 136.712 14.7851C137.524 15.5564 137.932 16.6791 137.937 18.1533V25.6644H137.922ZM134.968 20.9165H132.555C132.272 20.9165 131.964 20.9341 131.639 20.966C131.314 21.0013 130.997 21.0948 130.705 21.2419C130.411 21.3938 130.161 21.6193 129.98 21.8965C129.767 22.2526 129.666 22.6641 129.69 23.0782C129.69 23.7858 129.934 24.3023 130.415 24.5853C131.004 24.8919 131.662 25.0394 132.325 25.0134C132.442 25.0134 132.605 25.0134 132.814 25.0134C133.037 25.0064 133.261 24.9863 133.482 24.9533C133.716 24.9179 133.963 24.8755 134.222 24.8259C134.464 24.7834 134.701 24.717 134.929 24.6278L134.968 20.9165Z" fill="white"/>
<path d="M143.98 27.0124C143.85 27.0827 143.702 27.1134 143.555 27.1009H141.737C141.591 27.11 141.447 27.0742 141.323 26.9983C141.272 26.946 141.233 26.883 141.21 26.8137C141.186 26.7445 141.179 26.6709 141.188 26.5985V14.3818C141.18 14.3126 141.188 14.2425 141.211 14.1768C141.234 14.1111 141.273 14.0517 141.323 14.0032C141.447 13.9273 141.591 13.8915 141.737 13.9006H143.555C143.702 13.8899 143.849 13.9205 143.98 13.9891C144.065 14.0492 144.103 14.1766 144.103 14.3818V18.8538H149.662V14.3818C149.652 14.3123 149.66 14.2415 149.684 14.1756C149.708 14.1097 149.748 14.0505 149.8 14.0032C149.923 13.9257 150.068 13.8898 150.214 13.9006H152.046C152.195 13.8842 152.345 13.9152 152.474 13.9891C152.559 14.1014 152.596 14.2425 152.577 14.3818V26.5985C152.577 26.8178 152.542 26.9523 152.474 27.0124C152.345 27.0863 152.195 27.1173 152.046 27.1009H150.214C150.068 27.1117 149.923 27.0758 149.8 26.9983C149.747 26.9473 149.706 26.8845 149.682 26.815C149.658 26.7455 149.651 26.6713 149.662 26.5985V21.2278H144.103V26.5985C144.103 26.8178 144.065 26.9523 143.98 27.0124Z" fill="white"/>
<path d="M167.928 26.6374L163.683 20.1028L167.521 14.4031C167.555 14.3621 167.577 14.3128 167.584 14.2604C167.592 14.208 167.585 14.1546 167.564 14.1059C167.543 14.0565 167.508 14.0144 167.463 13.9849C167.419 13.9553 167.366 13.9396 167.313 13.9396H164.705C164.666 13.9396 164.626 13.9482 164.59 13.9646C164.554 13.9811 164.522 14.0052 164.496 14.0351L161.125 18.9069H158.747V14.3076C158.747 14.1236 158.715 14.0104 158.648 13.9538C158.538 13.8999 158.416 13.8767 158.294 13.8865H156.281C156.159 13.8781 156.038 13.9012 155.927 13.9538C155.853 13.9927 155.818 14.1059 155.818 14.3076V26.6905C155.818 26.8709 155.853 26.9842 155.927 27.0443C156.039 27.092 156.16 27.1126 156.281 27.1044H158.294C158.415 27.1139 158.537 27.0932 158.648 27.0443C158.715 26.9983 158.747 26.8851 158.747 26.6905V21.1925H160.962L164.833 26.9948C164.858 27.0274 164.891 27.0539 164.928 27.0722C164.966 27.0906 165.007 27.1004 165.048 27.1009H167.705C167.759 27.1015 167.812 27.0864 167.857 27.0575C167.902 27.0286 167.938 26.9871 167.96 26.9382C167.982 26.889 167.989 26.8349 167.981 26.7818C167.974 26.7287 167.952 26.6787 167.918 26.6374" fill="white"/>
<path d="M95.357 26.6376L91.0937 20.1029L94.9289 14.4032C94.9651 14.3638 94.9886 14.3143 94.9962 14.2612C95.0038 14.2082 94.9951 14.1541 94.9713 14.106C94.9509 14.0564 94.916 14.014 94.8712 13.9844C94.8264 13.9548 94.7738 13.9392 94.7201 13.9397H92.1162C92.0767 13.9402 92.0376 13.9489 92.0017 13.9654C91.9657 13.9819 91.9336 14.0057 91.9074 14.0353L88.5322 18.9071H86.1618V14.3077C86.1618 14.1237 86.1264 14.0105 86.0556 13.9539C85.946 13.8997 85.8237 13.8765 85.7018 13.8867H83.6922C83.5705 13.8782 83.4486 13.9014 83.3384 13.9539C83.2641 13.9928 83.2252 14.106 83.2252 14.3077V26.6906C83.2252 26.8711 83.2641 26.9843 83.3384 27.0444C83.4499 27.0926 83.5712 27.1132 83.6922 27.1046H85.7018C85.8229 27.1145 85.9446 27.0938 86.0556 27.0444C86.1264 26.9973 86.1618 26.8793 86.1618 26.6906V21.1926H88.373L92.2648 26.9949C92.2895 27.0279 92.3215 27.0546 92.3584 27.073C92.3952 27.0915 92.4359 27.101 92.4771 27.101H95.1624C95.2151 27.1012 95.2666 27.0858 95.3107 27.0569C95.3547 27.0279 95.3893 26.9867 95.4101 26.9383C95.4316 26.8896 95.4398 26.836 95.4335 26.7831C95.4273 26.7302 95.407 26.6799 95.3747 26.6376" fill="white"/>
<path d="M30.4316 38.2739H7.85922C5.77821 38.2711 3.78313 37.4437 2.31097 35.9728C0.83881 34.502 0.00957614 32.5077 0.00489739 30.4267L0.00489739 7.85432C0.00770553 5.77209 0.836114 3.77594 2.30848 2.30358C3.78084 0.831217 5.77699 0.00280814 7.85922 0L30.4316 0C32.5138 0.00280814 34.5099 0.831217 35.9823 2.30358C37.4547 3.77594 38.2831 5.77209 38.2859 7.85432V30.4267C38.2812 32.5077 37.452 34.502 35.9798 35.9728C34.5076 37.4437 32.5126 38.2711 30.4316 38.2739ZM7.85922 0.555463C5.92402 0.557337 4.06861 1.32692 2.70022 2.69532C1.33182 4.06372 0.562234 5.91912 0.560361 7.85432V30.4267C0.564106 32.3606 1.33452 34.2142 2.70271 35.5811C4.07091 36.948 5.92524 37.7166 7.85922 37.7184H30.4316C32.364 37.7138 34.216 36.944 35.5825 35.5776C36.9489 34.2111 37.7187 32.3591 37.7233 30.4267V7.85432C37.7215 5.92035 36.9529 4.06601 35.586 2.69782C34.2191 1.32962 32.3655 0.559209 30.4316 0.555463H7.85922Z" fill="white"/>
<path d="M17.1676 5.57231C17.732 5.24436 18.3691 5.06198 19.0215 5.04162C18.3458 5.06167 17.6865 5.25426 17.1062 5.60104C16.526 5.94783 16.0441 6.4373 15.7064 7.02289L4.25042 26.8427C3.72495 27.7519 3.5822 28.8327 3.85357 29.8472C4.12495 30.8616 4.78821 31.7268 5.69745 32.2523C6.6067 32.7777 7.68744 32.9205 8.70193 32.6491C9.71642 32.3777 10.5816 31.7145 11.107 30.8052L19.1418 16.908L15.7206 10.9677C15.4604 10.5178 15.2914 10.021 15.2233 9.50578C15.1552 8.99052 15.1894 8.4669 15.3237 7.96484C15.4581 7.46278 15.6901 6.99213 16.0065 6.57978C16.3229 6.16744 16.7174 5.82148 17.1676 5.5617" fill="white"/>
<path d="M34.0222 26.8427L22.5768 7.02999C22.2389 6.44462 21.7569 5.95534 21.1767 5.60858C20.5965 5.26183 19.9373 5.06911 19.2617 5.04872C19.943 5.07238 20.6065 5.27153 21.1882 5.62688C21.7699 5.98223 22.2499 6.48174 22.5819 7.07706C22.9139 7.67237 23.0866 8.34332 23.0832 9.02494C23.0799 9.70656 22.9005 10.3758 22.5627 10.9678L19.1414 16.908L27.1656 30.8052C27.6911 31.7145 28.5562 32.3777 29.5707 32.6491C30.5852 32.9205 31.6659 32.7777 32.5752 32.2523C33.4844 31.7268 34.1477 30.8617 34.419 29.8472C34.6904 28.8327 34.5477 27.7519 34.0222 26.8427Z" fill="white"/>
<path d="M21.1161 5.57231C20.5513 5.24532 19.9145 5.06301 19.2622 5.04162H19.0216C18.3394 5.06463 17.6747 5.26367 17.092 5.61941C16.5094 5.97514 16.0286 6.47548 15.6965 7.07185C15.3643 7.66822 15.1919 8.34035 15.1962 9.02298C15.2004 9.70561 15.3811 10.3755 15.7207 10.9677L19.1419 16.8974L22.5631 10.9677C22.8233 10.5178 22.9923 10.021 23.0604 9.50578C23.1285 8.99052 23.0943 8.4669 22.96 7.96484C22.8256 7.46278 22.5936 6.99213 22.2772 6.57978C21.9608 6.16744 21.5663 5.82148 21.1161 5.5617" fill="white"/>
<path d="M23.2173 28.8487C23.2159 29.6545 22.9757 30.4418 22.527 31.1111C22.0783 31.7804 21.4413 32.3017 20.6964 32.6091C19.9515 32.9165 19.1323 32.9962 18.3421 32.8382C17.552 32.6801 16.8264 32.2914 16.2571 31.7211C15.6878 31.1508 15.3003 30.4246 15.1436 29.6341C14.9869 28.8437 15.0681 28.0246 15.3768 27.2803C15.6855 26.5359 16.2079 25.8998 16.878 25.4522C17.5481 25.0047 18.3358 24.7658 19.1416 24.7658C19.6776 24.7654 20.2083 24.8707 20.7035 25.0758C21.1987 25.2809 21.6485 25.5818 22.0271 25.9611C22.4058 26.3404 22.7058 26.7907 22.9101 27.2862C23.1143 27.7818 23.2187 28.3127 23.2173 28.8487Z" fill="white"/>
</g>
<defs>
<clipPath id="clip0_59_47">
<rect width="167.5" height="38.16" fill="white" transform="scale(1.00299)"/>
</clipPath>
</defs>
</svg>
