<svg width="32" height="32" viewBox="0 0 32 32" fill="none" xmlns="http://www.w3.org/2000/svg">
<path d="M30.8626 14.5227H1.12015C0.956946 14.5227 0.800427 14.5875 0.685024 14.7029C0.569621 14.8183 0.504789 14.9748 0.504789 15.1381V31.3836C0.504789 31.5468 0.569621 31.7033 0.685024 31.8187C0.800427 31.9341 0.956946 31.999 1.12015 31.999H30.8626C31.0258 31.999 31.1823 31.9341 31.2978 31.8187C31.4132 31.7033 31.478 31.5468 31.478 31.3836V15.1381C31.478 14.9748 31.4132 14.8183 31.2978 14.7029C31.1823 14.5875 31.0258 14.5227 30.8626 14.5227ZM30.2473 30.7682H1.75602V15.7534H30.2473V30.7682Z" fill="black"/>
<path d="M15.9997 28.5735C18.4406 28.5735 20.4303 26.1941 20.4303 23.2711C20.4303 20.3481 18.4304 17.9687 15.9997 17.9687C13.569 17.9687 11.5691 20.3481 11.5691 23.2711C11.5691 26.1941 13.5382 28.5735 15.9997 28.5735ZM15.9997 19.1994C17.7637 19.1994 19.1996 21.025 19.1996 23.3019C19.1996 25.5787 17.7637 27.4043 15.9997 27.4043C14.2357 27.4043 12.7998 25.5787 12.7998 23.3019C12.7998 21.025 14.2151 19.2097 15.9997 19.2097V19.1994ZM4.5232 26.5735C4.89857 26.5735 5.25857 26.7226 5.52399 26.9881C5.78942 27.2535 5.93853 27.6135 5.93853 27.9889C5.93853 28.1521 6.00336 28.3086 6.11877 28.424C6.23417 28.5394 6.39069 28.6042 6.55389 28.6042H10.0615C10.2247 28.6042 10.3812 28.5394 10.4966 28.424C10.612 28.3086 10.6768 28.1521 10.6768 27.9889C10.6768 27.8257 10.612 27.6691 10.4966 27.5537C10.3812 27.4383 10.2247 27.3735 10.0615 27.3735H7.10772C6.99303 26.8984 6.74948 26.4641 6.40386 26.1185C6.05824 25.7728 5.62395 25.5293 5.14882 25.4146V21.1276C5.62395 21.0129 6.05824 20.7693 6.40386 20.4237C6.74948 20.0781 6.99303 19.6438 7.10772 19.1687H10.0717C10.2349 19.1687 10.3914 19.1038 10.5068 18.9884C10.6222 18.873 10.6871 18.7165 10.6871 18.5533C10.6871 18.3901 10.6222 18.2336 10.5068 18.1182C10.3914 18.0028 10.2349 17.938 10.0717 17.938H6.56415C6.48334 17.938 6.40332 17.9539 6.32866 17.9848C6.254 18.0157 6.18616 18.061 6.12902 18.1182C6.07188 18.1753 6.02655 18.2432 5.99563 18.3178C5.9647 18.3925 5.94879 18.4725 5.94879 18.5533C5.94879 18.9287 5.79967 19.2887 5.53425 19.5541C5.26882 19.8195 4.90883 19.9686 4.53346 19.9686C4.37025 19.9686 4.21373 20.0335 4.09833 20.1489C3.98293 20.2643 3.9181 20.4208 3.9181 20.584V25.9479C3.91674 26.0287 3.93131 26.109 3.96099 26.1842C3.99066 26.2594 4.03486 26.328 4.09105 26.3861C4.14724 26.4442 4.21433 26.4906 4.28848 26.5228C4.36263 26.5549 4.44239 26.5722 4.5232 26.5735ZM24.8301 27.3427H21.8661C21.7029 27.3427 21.5464 27.4076 21.431 27.523C21.3156 27.6384 21.2508 27.7949 21.2508 27.9581C21.2508 28.1213 21.3156 28.2778 21.431 28.3932C21.5464 28.5086 21.7029 28.5735 21.8661 28.5735H25.3737C25.5369 28.5735 25.6934 28.5086 25.8088 28.3932C25.9242 28.2778 25.9891 28.1213 25.9891 27.9581C25.9891 27.5827 26.1382 27.2227 26.4036 26.9573C26.669 26.6919 27.029 26.5428 27.4044 26.5428C27.4852 26.5428 27.5652 26.5268 27.6399 26.4959C27.7145 26.465 27.7824 26.4197 27.8395 26.3625C27.8967 26.3054 27.942 26.2375 27.9729 26.1629C28.0038 26.0882 28.0198 26.0082 28.0198 25.9274V20.5943C28.0198 20.5135 28.0038 20.4334 27.9729 20.3588C27.942 20.2841 27.8967 20.2163 27.8395 20.1591C27.7824 20.102 27.7145 20.0567 27.6399 20.0257C27.5652 19.9948 27.4852 19.9789 27.4044 19.9789C27.029 19.9789 26.669 19.8298 26.4036 19.5644C26.1382 19.2989 25.9891 18.9389 25.9891 18.5636C25.9891 18.4004 25.9242 18.2438 25.8088 18.1284C25.6934 18.013 25.5369 17.9482 25.3737 17.9482H21.8661C21.7029 17.9482 21.5464 18.013 21.431 18.1284C21.3156 18.2438 21.2508 18.4004 21.2508 18.5636C21.2508 18.7268 21.3156 18.8833 21.431 18.9987C21.5464 19.1141 21.7029 19.1789 21.8661 19.1789H24.8301C24.9473 19.6535 25.1931 20.0865 25.5406 20.4303C25.888 20.7741 26.3235 21.0154 26.7993 21.1276V25.3736C26.321 25.4874 25.8836 25.7318 25.536 26.0794C25.1883 26.4271 24.944 26.8644 24.8301 27.3427ZM29.0761 0.000166814H2.92326C2.53739 -0.00397753 2.1546 0.0691386 1.79742 0.215208C1.44025 0.361278 1.11591 0.577348 0.843527 0.85069C0.57114 1.12403 0.356208 1.44912 0.21139 1.80681C0.066572 2.16449 -0.0052025 2.54754 0.000293361 2.93339V7.92807C-0.00105584 8.31327 0.0734789 8.69496 0.219642 9.05135C0.365805 9.40775 0.580734 9.73186 0.852157 10.0052C1.12358 10.2785 1.44618 10.4957 1.80154 10.6444C2.1569 10.793 2.53806 10.8702 2.92326 10.8716H4.36936C4.53256 10.8716 4.68908 10.8067 4.80449 10.6913C4.91989 10.5759 4.98472 10.4194 4.98472 10.2562C4.98472 10.093 4.91989 9.93647 4.80449 9.82107C4.68908 9.70566 4.53256 9.64083 4.36936 9.64083H2.92326C2.69881 9.63949 2.47684 9.59379 2.27013 9.50635C2.06341 9.41891 1.87602 9.29145 1.71875 9.13132C1.56147 8.97118 1.43741 8.78153 1.35371 8.57327C1.27001 8.36501 1.22831 8.14225 1.23102 7.91782V2.93339C1.22829 2.70992 1.27012 2.48815 1.35407 2.28103C1.43801 2.07391 1.5624 1.8856 1.71995 1.7271C1.8775 1.56859 2.06505 1.44308 2.27166 1.35788C2.47827 1.27268 2.69978 1.22951 2.92326 1.23089H29.0761C29.5259 1.2336 29.9563 1.41416 30.2734 1.73315C30.5904 2.05214 30.7684 2.48363 30.7684 2.93339V7.95884C30.7657 8.40682 30.5865 8.83569 30.2697 9.15247C29.953 9.46924 29.5241 9.6484 29.0761 9.65109H27.63C27.5492 9.65109 27.4692 9.667 27.3945 9.69793C27.3199 9.72885 27.252 9.77418 27.1949 9.83132C27.1378 9.88846 27.0924 9.9563 27.0615 10.031C27.0306 10.1056 27.0147 10.1856 27.0147 10.2664C27.0147 10.3473 27.0306 10.4273 27.0615 10.5019C27.0924 10.5766 27.1378 10.6444 27.1949 10.7016C27.252 10.7587 27.3199 10.804 27.3945 10.835C27.4692 10.8659 27.5492 10.8818 27.63 10.8818H29.0761C29.8505 10.8791 30.5924 10.5703 31.14 10.0227C31.6876 9.47513 31.9964 8.73323 31.9991 7.95884V2.93339C31.9991 2.15722 31.6915 1.4127 31.1436 0.862905C30.5957 0.313113 29.8523 0.00288068 29.0761 0.000166814Z" fill="black"/>
<path d="M8.40994 11.7124V8.35872C8.40994 8.19552 8.34511 8.039 8.22971 7.92359C8.1143 7.80819 7.95778 7.74336 7.79458 7.74336C7.63138 7.74336 7.47486 7.80819 7.35945 7.92359C7.24405 8.039 7.17922 8.19552 7.17922 8.35872V11.7227C7.17922 11.8859 7.24405 12.0424 7.35945 12.1578C7.47486 12.2732 7.63138 12.3381 7.79458 12.3381C7.95778 12.3381 8.1143 12.2732 8.22971 12.1578C8.34511 12.0424 8.40994 11.8859 8.40994 11.7227V11.7124ZM12.5021 11.7124V6.47161C12.5021 6.30841 12.4373 6.15189 12.3219 6.03649C12.2065 5.92108 12.0499 5.85625 11.8867 5.85625C11.7235 5.85625 11.567 5.92108 11.4516 6.03649C11.3362 6.15189 11.2714 6.30841 11.2714 6.47161V11.7124C11.2714 11.8756 11.3362 12.0322 11.4516 12.1476C11.567 12.263 11.7235 12.3278 11.8867 12.3278C12.0499 12.3278 12.2065 12.263 12.3219 12.1476C12.4373 12.0322 12.5021 11.8756 12.5021 11.7124ZM16.5942 11.7124V4.77937C16.5942 4.61616 16.5294 4.45964 16.414 4.34424C16.2986 4.22884 16.1421 4.16401 15.9789 4.16401C15.8157 4.16401 15.6592 4.22884 15.5438 4.34424C15.4284 4.45964 15.3635 4.61616 15.3635 4.77937V11.7124C15.3635 11.8756 15.4284 12.0322 15.5438 12.1476C15.6592 12.263 15.8157 12.3278 15.9789 12.3278C16.1421 12.3278 16.2986 12.263 16.414 12.1476C16.5294 12.0322 16.5942 11.8756 16.5942 11.7124ZM20.6967 11.7124V6.47161C20.6967 6.30841 20.6318 6.15189 20.5164 6.03649C20.401 5.92108 20.2445 5.85625 20.0813 5.85625C19.9181 5.85625 19.7616 5.92108 19.6462 6.03649C19.5308 6.15189 19.4659 6.30841 19.4659 6.47161V11.7124C19.4659 11.8756 19.5308 12.0322 19.6462 12.1476C19.7616 12.263 19.9181 12.3278 20.0813 12.3278C20.2445 12.3278 20.401 12.263 20.5164 12.1476C20.6318 12.0322 20.6967 11.8756 20.6967 11.7124ZM24.7888 11.7124V8.35872C24.7888 8.19552 24.724 8.039 24.6086 7.92359C24.4932 7.80819 24.3367 7.74336 24.1735 7.74336C24.0102 7.74336 23.8537 7.80819 23.7383 7.92359C23.6229 8.039 23.5581 8.19552 23.5581 8.35872V11.7227C23.5581 11.8859 23.6229 12.0424 23.7383 12.1578C23.8537 12.2732 24.0102 12.3381 24.1735 12.3381C24.3367 12.3381 24.4932 12.2732 24.6086 12.1578C24.724 12.0424 24.7888 11.8859 24.7888 11.7227V11.7124Z" fill="black"/>
</svg>
