<svg width="168" height="39" viewBox="0 0 168 39" fill="none" xmlns="http://www.w3.org/2000/svg">
<g opacity="0.4" clip-path="url(#clip0_59_104)">
<path d="M54.6171 11.1871C54.6069 10.7211 54.7638 10.2668 55.0593 9.90635C55.2184 9.76725 55.4035 9.6612 55.604 9.59439C55.8044 9.52757 56.0162 9.50132 56.2269 9.51717H64.4739C65.5447 9.51717 66.0813 10.0785 66.0837 11.2013V26.6729C66.0837 26.8568 66.0483 26.9771 65.9811 27.0267C65.8648 27.0877 65.7333 27.1135 65.6025 27.101H63.4797C63.3572 27.1091 63.2348 27.0834 63.1259 27.0267C63.0481 26.9771 63.0127 26.8568 63.0127 26.6729V12.1919H57.4581L57.3024 14.3819C57.1727 16.2688 57.0359 17.9446 56.892 19.4094C56.7846 20.7127 56.5379 22.0008 56.1561 23.2516C55.8617 24.2526 55.3412 25.1726 54.6348 25.9405C53.8719 26.7051 52.9195 27.2534 51.8752 27.529C51.7387 27.5676 51.5942 27.5676 51.4577 27.529C51.3914 27.4921 51.3338 27.4414 51.2886 27.3804C51.2435 27.3194 51.2119 27.2494 51.1959 27.1752L50.6687 25.6893C50.6373 25.5663 50.6373 25.4373 50.6687 25.3143C50.6899 25.2117 50.7961 25.1197 50.98 25.0383C51.6125 24.7852 52.1771 24.3878 52.6287 23.8778C53.0642 23.3225 53.3766 22.6809 53.5451 21.9956C53.7912 21.0265 53.9546 20.0382 54.0333 19.0414C54.1442 17.8621 54.2621 16.3997 54.3871 14.6543L54.6348 11.1836" fill="white"/>
<path d="M80.7557 20.4389C80.7557 22.6678 80.2415 24.3814 79.2131 25.5796C78.1847 26.7778 76.6516 27.3769 74.6137 27.3769C72.5877 27.3769 71.0746 26.7943 70.0745 25.6291C69.0744 24.464 68.572 22.761 68.5673 20.5203C68.5492 19.5216 68.7024 18.5272 69.0202 17.5802C69.2873 16.7817 69.7147 16.0461 70.2762 15.4185C70.8089 14.8334 71.4651 14.3742 72.1973 14.0741C72.9835 13.755 73.8255 13.5962 74.6739 13.6071C76.6693 13.6071 78.1824 14.2144 79.2131 15.4291C80.2438 16.6438 80.758 18.3161 80.7557 20.446V20.4389ZM77.7661 20.5203C77.7692 19.9453 77.7219 19.3711 77.6246 18.8044C77.548 18.3091 77.3877 17.8306 77.1505 17.3892C76.9337 16.986 76.6122 16.6487 76.22 16.4127C75.7622 16.1618 75.2451 16.0395 74.7234 16.0589C74.2289 16.0511 73.7409 16.1731 73.3082 16.4127C72.9072 16.6397 72.5635 16.9556 72.3034 17.3361C72.0207 17.7583 71.8203 18.23 71.7126 18.7265C71.5843 19.299 71.5214 19.8841 71.5251 20.4707C71.5251 21.8671 71.7503 22.9662 72.2008 23.7681C72.6572 24.5713 73.4604 24.9711 74.6173 24.9711C75.109 24.9931 75.5973 24.8797 76.029 24.6432C76.4608 24.4068 76.8193 24.0564 77.0656 23.6302C77.3224 23.1928 77.5008 22.7138 77.5927 22.215C77.7082 21.6575 77.7663 21.0896 77.7661 20.5203Z" fill="white"/>
<path d="M108.288 20.439C108.288 22.6679 107.774 24.3815 106.746 25.5797C105.717 26.7779 104.184 27.377 102.146 27.377C100.118 27.377 98.6048 26.7944 97.607 25.6292C96.6093 24.464 96.1069 22.7611 96.0999 20.5203C96.0842 19.5221 96.236 18.5283 96.5492 17.5803C96.8189 16.7821 97.2473 16.0468 97.8087 15.4186C98.3421 14.8342 98.9981 14.3751 99.7298 14.0741C100.516 13.7557 101.358 13.5969 102.206 13.6071C104.204 13.6071 105.717 14.2145 106.746 15.4292C107.774 16.6439 108.288 18.3162 108.288 20.446V20.439ZM105.302 20.5203C105.303 19.9456 105.257 19.3717 105.164 18.8044C105.082 18.3096 104.919 17.8316 104.683 17.3892C104.466 16.986 104.145 16.6487 103.753 16.4127C103.296 16.1623 102.78 16.04 102.259 16.0589C101.765 16.0512 101.277 16.1732 100.844 16.4127C100.444 16.6389 100.101 16.955 99.843 17.3362C99.5578 17.7573 99.356 18.2294 99.2487 18.7266C99.1204 19.299 99.0575 19.8842 99.0612 20.4708C99.0612 21.8671 99.2876 22.9663 99.7404 23.7682C100.193 24.5702 100.998 24.9711 102.153 24.9711C102.672 24.9938 103.187 24.8713 103.639 24.6173C104.036 24.3771 104.368 24.0429 104.605 23.6444C104.86 23.2062 105.039 22.7276 105.132 22.2292C105.248 21.6669 105.305 21.0943 105.302 20.5203Z" fill="white"/>
<path d="M112.633 27.1009C112.436 27.1236 112.236 27.1062 112.046 27.0496C111.855 26.9931 111.678 26.8986 111.526 26.7719C111.301 26.4658 111.194 26.089 111.225 25.7105V11.2119C111.225 10.0726 111.759 9.50301 112.835 9.50301H122.309C122.493 9.50301 122.61 9.54193 122.663 9.61623C122.724 9.73623 122.75 9.87125 122.737 10.0054V11.7178C122.751 11.8406 122.725 11.9645 122.663 12.0716C122.614 12.1388 122.497 12.1707 122.309 12.1707H114.314V16.0624H118.442C119.263 16.0462 120.082 16.1426 120.876 16.349C121.48 16.5124 122.053 16.7716 122.575 17.1168C123.003 17.4037 123.377 17.7628 123.682 18.1782C123.949 18.5526 124.16 18.9638 124.308 19.3988C124.445 19.7895 124.539 20.1941 124.588 20.6052C124.627 20.9908 124.648 21.334 124.648 21.6383C124.658 22.3945 124.501 23.1436 124.188 23.8318C123.887 24.4902 123.456 25.081 122.921 25.569C122.37 26.0616 121.73 26.4457 121.036 26.7012C120.294 26.9709 119.511 27.1063 118.722 27.1009H112.633ZM121.457 21.4402C121.468 20.7051 121.192 19.9946 120.689 19.4589C120.396 19.1752 120.046 18.9562 119.663 18.8161C119.279 18.6759 118.871 18.6177 118.464 18.6452H114.314V24.3378H118.414C118.924 24.3556 119.431 24.2563 119.896 24.0477C120.252 23.8791 120.569 23.6381 120.827 23.3401C121.057 23.0675 121.224 22.7473 121.315 22.4025C121.406 22.0944 121.453 21.7754 121.457 21.4543V21.4402Z" fill="white"/>
<path d="M137.922 25.6646C137.938 25.8354 137.9 26.0069 137.815 26.1557C137.729 26.3044 137.6 26.4232 137.445 26.496C137.059 26.671 136.659 26.8142 136.249 26.9241C135.815 27.0435 135.375 27.1357 134.929 27.2C134.483 27.2686 134.033 27.3146 133.581 27.338C133.139 27.3663 132.718 27.3769 132.315 27.3769C131.386 27.399 130.459 27.2858 129.562 27.0408C128.928 26.8615 128.338 26.5532 127.829 26.1351C127.415 25.78 127.107 25.3188 126.937 24.8013C126.586 23.721 126.598 22.5552 126.972 21.4827C127.169 20.9429 127.492 20.4577 127.914 20.0675C128.406 19.6243 128.984 19.2861 129.612 19.0733C130.434 18.8019 131.297 18.6738 132.163 18.6947H134.993V18.2702C134.996 17.9736 134.963 17.6777 134.894 17.3892C134.829 17.1221 134.694 16.8776 134.501 16.6816C134.281 16.4634 134.01 16.304 133.712 16.2181C133.288 16.0973 132.848 16.0424 132.407 16.0554C131.784 16.0593 131.162 16.109 130.546 16.204C129.991 16.2784 129.443 16.3967 128.908 16.5578C128.78 16.6044 128.641 16.613 128.508 16.5825C128.423 16.5472 128.366 16.4552 128.335 16.303L127.981 14.8879C127.912 14.619 127.987 14.4421 128.204 14.3572C128.951 14.0801 129.727 13.8901 130.517 13.7911C131.301 13.6875 132.09 13.6332 132.881 13.6283C134.624 13.6283 135.901 14.014 136.712 14.7852C137.524 15.5565 137.932 16.6793 137.937 18.1534V25.6646H137.922ZM134.968 20.9166H132.555C132.272 20.9166 131.964 20.9343 131.639 20.9661C131.314 21.0015 130.997 21.0949 130.705 21.2421C130.411 21.394 130.161 21.6195 129.98 21.8966C129.767 22.2527 129.666 22.6643 129.69 23.0783C129.69 23.7859 129.934 24.3024 130.415 24.5855C131.004 24.892 131.662 25.0395 132.325 25.0136C132.442 25.0136 132.605 25.0136 132.814 25.0136C133.037 25.0065 133.261 24.9864 133.482 24.9534C133.716 24.918 133.963 24.8756 134.222 24.826C134.464 24.7835 134.701 24.7171 134.929 24.6279L134.968 20.9166Z" fill="white"/>
<path d="M143.979 27.0125C143.85 27.0828 143.702 27.1135 143.555 27.101H141.736C141.591 27.1102 141.447 27.0743 141.322 26.9984C141.271 26.9462 141.233 26.8831 141.209 26.8139C141.186 26.7446 141.179 26.671 141.188 26.5986V14.3819C141.18 14.3127 141.188 14.2426 141.211 14.1769C141.234 14.1113 141.272 14.0519 141.322 14.0034C141.447 13.9274 141.591 13.8916 141.736 13.9008H143.555C143.702 13.89 143.849 13.9206 143.979 13.9892C144.064 14.0494 144.103 14.1767 144.103 14.3819V18.8539H149.661V14.3819C149.652 14.3124 149.66 14.2416 149.684 14.1757C149.708 14.1098 149.748 14.0507 149.799 14.0034C149.923 13.9258 150.068 13.8899 150.213 13.9008H152.046C152.194 13.8843 152.344 13.9153 152.474 13.9892C152.559 14.1015 152.596 14.2426 152.577 14.3819V26.5986C152.577 26.8179 152.541 26.9524 152.474 27.0125C152.344 27.0865 152.194 27.1174 152.046 27.101H150.213C150.068 27.1118 149.923 27.0759 149.799 26.9984C149.746 26.9475 149.706 26.8847 149.682 26.8151C149.658 26.7456 149.651 26.6714 149.661 26.5986V21.2279H144.103V26.5986C144.103 26.8179 144.064 26.9524 143.979 27.0125Z" fill="white"/>
<path d="M167.928 26.6374L163.682 20.1028L167.521 14.4031C167.555 14.3621 167.576 14.3128 167.584 14.2604C167.591 14.208 167.584 14.1546 167.564 14.1059C167.543 14.0565 167.508 14.0144 167.463 13.9849C167.418 13.9553 167.366 13.9396 167.312 13.9396H164.705C164.665 13.9396 164.626 13.9482 164.59 13.9646C164.554 13.9811 164.522 14.0052 164.496 14.0351L161.124 18.9069H158.747V14.3076C158.747 14.1236 158.715 14.0104 158.648 13.9538C158.538 13.8999 158.416 13.8767 158.294 13.8865H156.281C156.159 13.8781 156.037 13.9012 155.927 13.9538C155.853 13.9927 155.818 14.1059 155.818 14.3076V26.6905C155.818 26.8709 155.853 26.9842 155.927 27.0443C156.039 27.092 156.16 27.1126 156.281 27.1044H158.294C158.415 27.1139 158.537 27.0932 158.648 27.0443C158.715 26.9983 158.747 26.8851 158.747 26.6905V21.1925H160.962L164.832 26.9948C164.858 27.0274 164.891 27.0539 164.928 27.0722C164.966 27.0906 165.006 27.1004 165.048 27.1009H167.705C167.759 27.1015 167.812 27.0864 167.857 27.0575C167.902 27.0286 167.938 26.9871 167.96 26.9382C167.981 26.889 167.989 26.8349 167.981 26.7818C167.974 26.7287 167.952 26.6787 167.917 26.6374" fill="white"/>
<path d="M95.357 26.6374L91.0937 20.1028L94.9289 14.4031C94.9651 14.3636 94.9886 14.3141 94.9962 14.2611C95.0038 14.208 94.9951 14.1539 94.9713 14.1059C94.9509 14.0563 94.916 14.0139 94.8712 13.9843C94.8264 13.9547 94.7738 13.9391 94.7201 13.9396H92.1162C92.0767 13.9401 92.0376 13.9488 92.0017 13.9653C91.9657 13.9817 91.9336 14.0055 91.9074 14.0351L88.5322 18.907H86.1618V14.3076C86.1618 14.1236 86.1264 14.0104 86.0556 13.9538C85.946 13.8996 85.8237 13.8764 85.7018 13.8866H83.6922C83.5705 13.8781 83.4486 13.9012 83.3384 13.9538C83.2641 13.9927 83.2252 14.1059 83.2252 14.3076V26.6905C83.2252 26.871 83.2641 26.9842 83.3384 27.0443C83.4499 27.0924 83.5712 27.1131 83.6922 27.1045H85.7018C85.8229 27.1144 85.9446 27.0937 86.0556 27.0443C86.1264 26.9971 86.1618 26.8792 86.1618 26.6905V21.1925H88.373L92.2648 26.9948C92.2895 27.0277 92.3215 27.0545 92.3584 27.0729C92.3952 27.0913 92.4359 27.1009 92.4771 27.1009H95.1624C95.2151 27.101 95.2666 27.0857 95.3107 27.0567C95.3547 27.0278 95.3893 26.9866 95.4101 26.9382C95.4316 26.8895 95.4398 26.8359 95.4335 26.783C95.4273 26.7301 95.407 26.6798 95.3747 26.6374" fill="white"/>
<path d="M30.4313 38.2739H7.85898C5.77797 38.2711 3.78289 37.4437 2.31073 35.9728C0.838566 34.502 0.00933127 32.5077 0.00465252 30.4267L0.00465252 7.85432C0.00746066 5.77209 0.835869 3.77594 2.30823 2.30358C3.7806 0.831217 5.77674 0.00280814 7.85898 0L30.4313 0C32.5135 0.00280814 34.5097 0.831217 35.9821 2.30358C37.4544 3.77594 38.2828 5.77209 38.2856 7.85432V30.4267C38.281 32.5077 37.4517 34.502 35.9796 35.9728C34.5074 37.4437 32.5123 38.2711 30.4313 38.2739ZM7.85898 0.555463C5.92377 0.557337 4.06837 1.32692 2.69997 2.69532C1.33158 4.06372 0.561989 5.91912 0.560116 7.85432V30.4267C0.563861 32.3606 1.33427 34.2142 2.70247 35.5811C4.07066 36.948 5.925 37.7166 7.85898 37.7184H30.4313C32.3638 37.7138 34.2158 36.944 35.5822 35.5776C36.9487 34.2111 37.7184 32.3591 37.7231 30.4267V7.85432C37.7212 5.92035 36.9526 4.06601 35.5857 2.69782C34.2189 1.32962 32.3653 0.559209 30.4313 0.555463H7.85898Z" fill="white"/>
<path d="M17.1676 5.57231C17.732 5.24436 18.3691 5.06198 19.0215 5.04162C18.3458 5.06167 17.6865 5.25426 17.1062 5.60104C16.526 5.94783 16.0441 6.4373 15.7064 7.02289L4.25042 26.8427C3.72495 27.7519 3.5822 28.8327 3.85357 29.8472C4.12495 30.8616 4.78821 31.7268 5.69745 32.2523C6.6067 32.7777 7.68744 32.9205 8.70193 32.6491C9.71642 32.3777 10.5816 31.7145 11.107 30.8052L19.1418 16.908L15.7206 10.9677C15.4604 10.5178 15.2914 10.021 15.2233 9.50578C15.1552 8.99052 15.1894 8.4669 15.3237 7.96484C15.4581 7.46278 15.6901 6.99213 16.0065 6.57978C16.3229 6.16744 16.7174 5.82148 17.1676 5.5617" fill="white"/>
<path d="M34.0224 26.8427L22.5771 7.02999C22.2391 6.44462 21.7572 5.95534 21.177 5.60858C20.5968 5.26183 19.9376 5.06911 19.262 5.04872C19.9432 5.07238 20.6068 5.27153 21.1884 5.62688C21.7701 5.98223 22.2502 6.48174 22.5822 7.07706C22.9142 7.67237 23.0868 8.34332 23.0835 9.02494C23.0801 9.70656 22.9008 10.3758 22.5629 10.9678L19.1417 16.908L27.1658 30.8052C27.6913 31.7145 28.5564 32.3777 29.5709 32.6491C30.5854 32.9205 31.6662 32.7777 32.5754 32.2523C33.4847 31.7268 34.1479 30.8617 34.4193 29.8472C34.6907 28.8327 34.5479 27.7519 34.0224 26.8427Z" fill="white"/>
<path d="M21.1159 5.57231C20.5511 5.24532 19.9142 5.06301 19.262 5.04162H19.0214C18.3391 5.06463 17.6744 5.26367 17.0918 5.61941C16.5091 5.97514 16.0284 6.47548 15.6962 7.07185C15.364 7.66822 15.1917 8.34035 15.1959 9.02298C15.2002 9.70561 15.3809 10.3755 15.7204 10.9677L19.1417 16.8974L22.5629 10.9677C22.8231 10.5178 22.992 10.021 23.0601 9.50578C23.1282 8.99052 23.0941 8.4669 22.9597 7.96484C22.8253 7.46278 22.5933 6.99213 22.2769 6.57978C21.9606 6.16744 21.566 5.82148 21.1159 5.5617" fill="white"/>
<path d="M23.2173 28.8487C23.2159 29.6545 22.9757 30.4418 22.527 31.1111C22.0783 31.7804 21.4413 32.3017 20.6964 32.6091C19.9515 32.9165 19.1323 32.9962 18.3421 32.8382C17.552 32.6801 16.8264 32.2914 16.2571 31.7211C15.6878 31.1508 15.3003 30.4246 15.1436 29.6341C14.9869 28.8437 15.0681 28.0246 15.3768 27.2803C15.6855 26.5359 16.2079 25.8998 16.878 25.4522C17.5481 25.0047 18.3358 24.7658 19.1416 24.7658C19.6776 24.7654 20.2083 24.8707 20.7035 25.0758C21.1987 25.2809 21.6485 25.5818 22.0271 25.9611C22.4058 26.3404 22.7058 26.7907 22.9101 27.2862C23.1143 27.7818 23.2187 28.3127 23.2173 28.8487Z" fill="white"/>
</g>
<defs>
<clipPath id="clip0_59_104">
<rect width="167.5" height="38.16" fill="white" transform="scale(1.00299)"/>
</clipPath>
</defs>
</svg>
