<svg width="36" height="37" viewBox="0 0 36 37" fill="none" xmlns="http://www.w3.org/2000/svg">
<path d="M31.1466 34.4971L16.7303 26.864C16.3546 26.6647 15.8964 26.6922 15.5413 26.9327L4.51777 34.5658C4.10542 34.8522 3.92673 35.3722 4.07793 35.851C4.22454 36.3252 4.66897 36.6528 5.16837 36.6528H30.6082C31.1328 36.6528 31.5933 36.2954 31.7193 35.7822C31.8476 35.2714 31.6093 34.7422 31.1466 34.4971Z" fill="#FFC700"/>
<path d="M35.9725 32.3216L32.5821 17.0577C32.4996 16.6843 32.2361 16.3796 31.8811 16.2399C31.5237 16.1001 31.1228 16.1482 30.8112 16.3636L19.7854 23.9967C19.4555 24.2257 19.27 24.6083 19.2952 25.0046C19.3181 25.4055 19.5494 25.7629 19.9022 25.9485L34.3162 33.5816C34.4858 33.6709 34.669 33.7167 34.8523 33.7167C35.0974 33.7167 35.3425 33.6388 35.5464 33.4808C35.9015 33.2104 36.0687 32.7591 35.9725 32.3216Z" fill="#FFC700"/>
<path d="M27.9943 14.5483C27.8431 14.0695 27.4009 13.7442 26.8992 13.7442H16.4438C14.5424 17.1874 11.7293 20.4793 10.5724 21.7668C9.92178 22.4907 8.98941 22.9076 8.0158 22.9076C7.04219 22.9076 6.10982 22.4907 5.45922 21.7668C5.0125 21.2696 4.32067 20.4747 3.52803 19.4897L0.756109 31.9656C0.655312 32.4261 0.845452 32.9003 1.2349 33.1637C1.42733 33.2943 1.65183 33.3584 1.87404 33.3584C2.10313 33.3584 2.32992 33.292 2.52693 33.1545L27.5498 15.8289C27.9645 15.5471 28.1409 15.0271 27.9943 14.5483Z" fill="#FFC700"/>
<path d="M8.01796 0C3.59663 0 0 3.59663 0 8.01796C0 12.1323 6.4327 19.4195 7.16577 20.2373C7.3834 20.4779 7.69266 20.6176 8.01796 20.6176C8.34326 20.6176 8.65252 20.4779 8.87015 20.2373C9.60322 19.4195 16.0359 12.1323 16.0359 8.01796C16.0359 3.59663 12.4393 0 8.01796 0ZM8.01796 11.4542C6.12114 11.4542 4.58169 9.91478 4.58169 8.01796C4.58169 6.12114 6.12114 4.58169 8.01796 4.58169C9.91478 4.58169 11.4542 6.12114 11.4542 8.01796C11.4542 9.91478 9.91478 11.4542 8.01796 11.4542Z" fill="black"/>
</svg>
