<svg width="26" height="27" viewBox="0 0 26 27" fill="none" xmlns="http://www.w3.org/2000/svg">
<path d="M22.4945 24.915L12.0826 19.4021C11.8113 19.2582 11.4803 19.278 11.2239 19.4518L3.26234 24.9646C2.96452 25.1714 2.83547 25.547 2.94467 25.8928C3.05056 26.2353 3.37154 26.4719 3.73222 26.4719H22.1057C22.4846 26.4719 22.8171 26.2138 22.9081 25.8432C23.0008 25.4742 22.8287 25.092 22.4945 24.915Z" fill="black"/>
<path d="M25.9802 23.3437L23.5315 12.3196C23.4719 12.05 23.2816 11.8299 23.0252 11.729C22.7671 11.628 22.4775 11.6628 22.2525 11.8183L14.2893 17.3312C14.0511 17.4966 13.917 17.7729 13.9352 18.0592C13.9518 18.3487 14.1189 18.6068 14.3737 18.7408L24.7839 24.2537C24.9064 24.3182 25.0387 24.3513 25.1711 24.3513C25.3481 24.3513 25.5252 24.2951 25.6724 24.1809C25.9289 23.9857 26.0496 23.6597 25.9802 23.3437Z" fill="black"/>
<path d="M20.2189 10.5075C20.1097 10.1617 19.7904 9.92676 19.428 9.92676H11.8768C10.5035 12.4135 8.47178 14.7911 7.63624 15.7209C7.16636 16.2437 6.49297 16.5448 5.7898 16.5448C5.08663 16.5448 4.41324 16.2437 3.94335 15.7209C3.62072 15.3619 3.12105 14.7877 2.54859 14.0763L0.546619 23.0868C0.47382 23.4194 0.611145 23.7619 0.892414 23.9521C1.03139 24.0464 1.19354 24.0928 1.35403 24.0928C1.51948 24.0928 1.68328 24.0448 1.82556 23.9455L19.8979 11.4324C20.1974 11.2289 20.3248 10.8533 20.2189 10.5075Z" fill="black"/>
<path d="M5.79083 0C2.5976 0 0 2.5976 0 5.79083C0 8.76235 4.6459 14.0254 5.17534 14.616C5.33252 14.7898 5.55588 14.8907 5.79083 14.8907C6.02577 14.8907 6.24913 14.7898 6.40631 14.616C6.93575 14.0254 11.5817 8.76235 11.5817 5.79083C11.5817 2.5976 8.98405 0 5.79083 0ZM5.79083 8.27261C4.42088 8.27261 3.30904 7.16077 3.30904 5.79083C3.30904 4.42088 4.42088 3.30904 5.79083 3.30904C7.16077 3.30904 8.27261 4.42088 8.27261 5.79083C8.27261 7.16077 7.16077 8.27261 5.79083 8.27261Z" fill="black"/>
</svg>
