<svg width="124" height="52" viewBox="0 0 124 52" fill="none" xmlns="http://www.w3.org/2000/svg">
<g opacity="0.1">
<circle cx="98" cy="26" r="26" fill="black"/>
<path d="M108.707 26.7071C109.098 26.3166 109.098 25.6834 108.707 25.2929L102.343 18.9289C101.953 18.5384 101.319 18.5384 100.929 18.9289C100.538 19.3195 100.538 19.9526 100.929 20.3431L106.586 26L100.929 31.6569C100.538 32.0474 100.538 32.6805 100.929 33.0711C101.319 33.4616 101.953 33.4616 102.343 33.0711L108.707 26.7071ZM88 27H108V25H88V27Z" fill="white"/>
</g>
<g opacity="0.1">
<circle r="26" transform="matrix(-1 0 0 1 26 26)" fill="black"/>
<path d="M15.2929 26.7071C14.9024 26.3166 14.9024 25.6834 15.2929 25.2929L21.6569 18.9289C22.0474 18.5384 22.6805 18.5384 23.0711 18.9289C23.4616 19.3195 23.4616 19.9526 23.0711 20.3431L17.4142 26L23.0711 31.6569C23.4616 32.0474 23.4616 32.6805 23.0711 33.0711C22.6805 33.4616 22.0474 33.4616 21.6569 33.0711L15.2929 26.7071ZM36 27H16V25H36V27Z" fill="white"/>
</g>
</svg>
