<svg width="27" height="27" viewBox="0 0 27 27" fill="none" xmlns="http://www.w3.org/2000/svg">
<path d="M20.4682 20.2653C19.4767 21.3664 18.288 22.1607 17.0116 22.6811C13.6262 24.0616 9.5999 23.4152 6.82257 20.72L9.30956 18.233C9.44651 18.0961 9.34791 17.8496 9.14523 17.8167L0.254475 16.4582C0.10657 16.4362 -0.0194234 16.5622 0.00248845 16.7101L1.36103 25.6064C1.39389 25.8091 1.6404 25.9077 1.77735 25.7707L4.26983 23.2782C8.47691 27.3922 14.7875 28.0934 19.7177 25.3927C21.2022 24.582 22.5608 23.459 23.7002 22.0293C25.6339 19.597 26.5597 16.6061 26.4994 13.637L22.8456 13.0782C23.0648 15.6365 22.2759 18.2659 20.4682 20.2653Z" fill="black"/>
<path d="M22.6649 3.7218C18.4578 -0.392155 12.1472 -1.09333 7.21699 1.60731C5.73246 2.41805 4.37392 3.54103 3.2345 4.97078C1.30078 7.403 0.374999 10.394 0.435257 13.363L4.08907 13.9218C3.86995 11.3691 4.65878 8.73415 6.46651 6.73469C7.45802 5.63362 8.64674 4.83931 9.92311 4.3189C13.3085 2.93845 17.3348 3.58485 20.1121 6.28002L17.6251 8.76702C17.4882 8.90397 17.5868 9.15048 17.7895 9.18334L26.6802 10.5419C26.8281 10.5638 26.9541 10.4378 26.9322 10.2899L25.5737 1.39366C25.5408 1.19098 25.2943 1.09785 25.1574 1.22932L22.6649 3.7218Z" fill="black"/>
</svg>
