<svg width="222" height="47" viewBox="0 0 222 47" fill="none" xmlns="http://www.w3.org/2000/svg">
<path d="M13.0547 39.9616C13.8525 40.3242 14.7228 40.5418 15.5931 40.8319L41.4121 19.2919C41.1945 16.1733 40.2517 13.1998 38.8012 10.5889L13.0547 39.9616Z" fill="#D61726"/>
<path d="M20.7423 41.4844C29.3003 41.4844 36.6253 36.2626 39.8164 28.865L19.2192 41.4119C19.7269 41.4119 20.2346 41.4844 20.7423 41.4844Z" fill="#D61726"/>
<path d="M20.7422 0C17.4786 0 14.36 0.725253 11.604 2.10323L5.87451 35.2473C6.52724 35.9725 7.32502 36.6253 8.05027 37.2055L21.1773 0C21.0323 0 20.8872 0 20.7422 0Z" fill="#D61726"/>
<path d="M3.62626 32.4188L4.20647 8.19531C1.52303 11.6765 0 16.028 0 20.7422C0 25.0937 1.30545 29.0826 3.62626 32.4188Z" fill="#D61726"/>
<path d="M26.7615 0.870361L9.35547 38.0758C10.0082 38.511 10.7335 38.9461 11.4587 39.3088L34.7393 5.43946C32.491 3.40875 29.8076 1.81319 26.7615 0.870361Z" fill="#D61726"/>
<path d="M62.5892 13.2724C61.5739 12.9097 60.1959 12.6196 58.0927 12.6196C55.9169 12.6196 54.0312 12.6922 52.4357 12.8372C52.1456 12.9823 52.1456 13.5625 52.3632 13.7075L53.0884 13.78C54.1038 13.9251 54.1763 14.2152 54.1763 16.681V25.3841C54.1763 27.7049 54.0312 27.8499 52.9434 28.0675L52.2906 28.2126C52.0005 28.3576 52.0731 28.9378 52.3632 29.0829C53.6686 29.0103 54.9015 29.0103 56.0619 29.0103C57.2224 29.0103 58.4553 29.0103 59.8333 29.0829C60.1234 28.9378 60.1234 28.3576 59.8333 28.2126L59.0355 28.0675C57.9476 27.9225 57.8026 27.7049 57.8026 25.3841V15.013C57.8026 13.9976 57.8751 13.78 58.7454 13.78C60.9937 13.78 61.864 15.7382 61.864 17.5514C61.864 19.3645 61.4288 20.815 59.3981 21.4677C59.2531 21.6128 59.2531 21.9754 59.4706 22.1204C59.7607 22.1204 59.9783 22.1204 60.2684 22.1204C61.5739 22.1204 65.6353 21.5402 65.6353 17.4788C65.5628 15.158 64.0397 13.8526 62.5892 13.2724Z" fill="#D61726"/>
<path d="M81.446 27.5596C80.2856 26.5442 79.2703 24.7311 77.6022 21.3949C77.4572 21.1048 77.4571 20.9598 77.7473 20.8873C78.9077 20.3071 80.3582 19.3642 80.3582 17.1885C80.3582 15.5929 79.6329 14.36 78.1824 13.5622C77.2396 12.982 75.4264 12.6919 73.3957 12.6919C71.0749 12.6919 69.1167 12.7644 67.3036 12.9095C67.0135 13.0545 67.0135 13.6347 67.2311 13.7798L67.8838 13.8523C68.8992 13.9974 68.9717 14.2875 68.9717 16.7533V25.4563C68.9717 27.7046 68.8266 27.9222 67.7388 28.0673L67.086 28.2123C66.8685 28.3574 66.8685 28.9376 67.086 29.0826C68.3915 29.0101 69.4794 29.0101 70.7123 29.0101C71.8727 29.0101 73.0331 29.0101 74.3386 29.0826C74.4836 28.9376 74.4836 28.3574 74.3386 28.2123L73.6858 28.0673C72.598 27.8497 72.4529 27.7046 72.4529 25.4563V22.4103C72.4529 21.9026 72.5254 21.9026 73.3957 21.9026C74.0485 21.9026 74.4111 22.1202 74.7012 22.7729C75.2814 24.0784 75.8616 25.3113 76.5868 26.6168C77.6747 28.3574 79.1252 29.2277 81.3735 29.2277C82.1713 29.2277 82.8966 29.1551 83.3317 29.0101C83.4768 28.865 83.4767 28.5024 83.2592 28.3574C82.679 28.2123 82.0988 28.0673 81.446 27.5596ZM75.7165 20.0895C75.2814 20.5246 74.7012 20.8147 73.8309 20.8147C72.3804 20.8147 72.3079 20.7422 72.3079 19.8719V15.0852C72.3079 13.9248 72.3804 13.8523 73.3957 13.8523C75.2814 13.8523 76.5868 15.3028 76.5868 17.4786C76.5868 18.8565 76.1517 19.6543 75.7165 20.0895Z" fill="#D61726"/>
<path d="M91.527 12.3293C86.3777 12.3293 82.7515 16.1007 82.7515 20.9599C82.7515 26.1092 86.3777 29.3728 91.3095 29.3728C96.6038 29.3728 100.158 26.1817 100.158 20.8148C100.158 15.738 96.6038 12.3293 91.527 12.3293ZM91.7446 28.2124C87.7557 28.2124 86.6678 23.4257 86.6678 20.3797C86.6678 16.2457 88.2634 13.4172 91.3095 13.4172C94.3555 13.4172 96.2412 16.8259 96.2412 21.0324C96.2412 25.0938 94.9357 28.2124 91.7446 28.2124Z" fill="#D61726"/>
<path d="M109.659 28.1398L108.716 27.9947C107.628 27.8497 107.483 27.6321 107.483 25.3838V22.0477C107.483 21.3949 107.483 21.3224 108.208 21.3224H110.094C111.399 21.3224 111.689 21.54 111.907 22.7004L112.052 23.2806C112.197 23.4982 112.85 23.4982 112.995 23.2806C112.922 22.5553 112.922 21.6125 112.922 20.7422C112.922 19.7994 112.922 18.9291 112.995 18.1313C112.85 17.9137 112.197 17.9137 112.052 18.1313L111.907 18.7115C111.689 19.9444 111.399 20.0895 110.094 20.0895H108.208C107.555 20.0895 107.483 20.0169 107.483 19.3642V14.9402C107.483 13.9974 107.483 13.9248 108.281 13.9248H110.166C111.399 13.9248 112.124 14.2149 112.56 14.7226C112.777 15.0127 112.995 15.6654 113.285 16.6083C113.575 16.8258 114.155 16.7533 114.228 16.5357C114.155 14.8677 114.155 13.127 114.155 12.6919C113.792 12.7644 112.414 12.7644 110.819 12.7644H105.67C104.509 12.7644 103.276 12.7644 102.188 12.6919C101.898 12.7644 101.898 13.4171 102.116 13.5622L102.624 13.6347C103.711 13.7798 103.856 13.9973 103.856 16.3182V25.4563C103.856 27.7772 103.711 27.9222 102.624 28.0673L101.826 28.2123C101.608 28.3574 101.608 28.9376 101.826 29.0826C103.276 29.0101 104.509 29.0101 105.67 29.0101C106.83 29.0101 108.063 29.0101 109.586 29.0826C109.804 28.865 109.804 28.2848 109.659 28.1398Z" fill="#D61726"/>
<path d="M122.858 29.0103C123.075 28.8653 123.075 28.2851 122.858 28.14L122.205 27.995C121.045 27.7774 120.9 27.6324 120.9 25.3116V16.3184C120.9 13.9976 121.045 13.8526 122.205 13.635L122.858 13.4899C123.075 13.3449 123.075 12.7647 122.858 12.6196C121.552 12.6922 120.32 12.6922 119.159 12.6922C117.999 12.6922 116.766 12.6922 115.388 12.6196C115.17 12.7647 115.17 13.3449 115.388 13.4899L116.113 13.635C117.273 13.8526 117.419 13.9976 117.419 16.3184V25.3841C117.419 27.7049 117.273 27.8499 116.113 28.0675L115.388 28.2126C115.17 28.3576 115.17 28.9378 115.388 29.0829C116.693 29.0103 117.926 29.0103 119.159 29.0103C120.32 28.9378 121.552 28.9378 122.858 29.0103Z" fill="#D61726"/>
<path d="M146.284 24.5861C146.139 24.296 145.558 24.2235 145.341 24.4411C144.688 26.1091 143.31 28.2849 140.337 28.2849C137.363 28.2849 134.535 25.674 134.535 20.7423C134.535 15.8105 137.436 13.4897 140.192 13.4897C142.585 13.4897 144.18 14.7227 144.833 17.0435C144.978 17.261 145.703 17.1885 145.776 16.8984C145.558 15.4479 145.486 13.4897 145.486 13.0546C144.761 12.9821 142.947 12.4019 140.409 12.4019C137.871 12.4019 135.332 13.1271 133.592 14.5776C131.924 15.9556 130.618 18.1314 130.618 21.1049C130.618 24.151 131.996 26.1817 133.737 27.5596C135.477 28.8651 137.943 29.4453 140.337 29.4453C142.222 29.4453 144.035 28.9376 145.341 28.5025C145.703 27.8497 146.139 26.3992 146.284 24.5861Z" fill="#D61726"/>
<path d="M176.599 24.9487C175.221 27.7046 174.423 27.7772 172.248 27.7772C170.434 27.7772 169.999 27.5596 169.637 27.1244C169.347 26.6893 169.274 25.8915 169.274 24.8036V21.9026C169.274 21.1774 169.274 21.1048 169.999 21.1048H171.667C172.973 21.1048 173.263 21.3224 173.481 22.4828L173.626 23.063C173.771 23.2806 174.423 23.2806 174.568 23.063C174.496 22.2652 174.496 21.3949 174.496 20.4521C174.496 19.5093 174.496 18.639 174.568 17.8412C174.423 17.6236 173.843 17.6236 173.626 17.8412L173.481 18.4214C173.263 19.5818 172.973 19.7994 171.667 19.7994H169.999C169.347 19.7994 169.274 19.7268 169.274 19.0741V14.7951C169.274 13.8523 169.274 13.8523 170.072 13.8523H172.03C173.263 13.8523 173.988 14.1424 174.423 14.6501C174.713 15.0127 175.076 15.738 175.366 16.6083C175.584 16.8258 176.164 16.7533 176.309 16.5357C176.164 14.8677 176.019 13.127 176.019 12.6919C175.729 12.7644 174.278 12.7644 172.755 12.7644H167.533C166.373 12.7644 165.14 12.7644 163.98 12.6919C163.762 12.8369 163.69 13.4171 163.907 13.5622L164.487 13.7072C165.575 13.9248 165.72 14.0699 165.72 16.3182V25.5289C165.72 27.7772 165.648 27.9222 164.487 28.1398C164.487 28.1398 163.907 28.2848 163.472 28.2848C162.892 28.2848 162.529 28.2123 161.876 27.7046C160.716 26.6893 159.701 24.8761 158.033 21.54C157.888 21.2499 157.888 21.1048 158.178 21.0323C159.338 20.4521 160.789 19.5093 160.789 17.3335C160.789 15.738 160.063 14.505 158.613 13.7072C157.67 13.127 155.857 12.8369 153.754 12.8369C151.433 12.8369 149.475 12.9095 147.662 13.0545C147.371 13.1996 147.371 13.7798 147.589 13.9248L148.242 13.9974C149.257 14.1424 149.33 14.4325 149.33 16.8984V25.6014C149.33 27.8497 149.185 28.0673 148.097 28.2123L147.444 28.3574C147.226 28.5024 147.226 29.0826 147.444 29.2277C148.749 29.1551 149.837 29.1551 151.07 29.1551C152.231 29.1551 153.391 29.1551 154.696 29.2277C154.842 29.0826 154.842 28.5024 154.696 28.3574L154.044 28.2123C152.956 27.9947 152.811 27.8497 152.811 25.6014V22.5553C152.811 22.0477 152.883 22.0477 153.754 22.0477C154.334 22.0477 154.769 22.2652 155.059 22.918C155.639 24.2234 156.22 25.4563 156.945 26.7618C158.033 28.5024 159.338 29.2277 161.659 29.3002C162.529 29.3727 162.892 29.3002 163.4 29.3002C165.213 29.2277 166.446 29.1551 167.606 29.1551H170.797C172.828 29.1551 175.149 29.1551 176.454 29.2277C176.817 28.5749 177.397 26.5442 177.469 25.3113C177.397 24.8036 176.744 24.6586 176.599 24.9487ZM156.147 20.0895C155.712 20.5246 155.132 20.8147 154.261 20.8147C152.811 20.8147 152.738 20.7422 152.738 19.8719V15.0852C152.738 13.9248 152.811 13.8523 153.826 13.8523C155.712 13.8523 157.017 15.3028 157.017 17.4786C157.09 18.8565 156.582 19.6543 156.147 20.0895Z" fill="#D61726"/>
<path d="M191.104 13.4174C189.436 12.8372 187.405 12.6196 185.375 12.6196C182.764 12.6196 180.878 12.6922 178.775 12.8372C178.485 12.8372 178.485 13.5625 178.702 13.7075L179.137 13.78C180.298 13.9251 180.298 14.3602 180.298 16.681V25.3841C180.298 27.6324 180.153 27.8499 179.065 27.995L178.267 28.14C178.05 28.2851 178.05 28.8653 178.267 29.0103C179.645 28.9378 180.951 28.9378 182.111 28.9378C182.981 28.9378 184.214 29.0829 185.375 29.0829C187.913 29.0829 189.944 28.7928 191.612 27.9225C194.44 26.5445 196.036 23.8611 196.036 20.5974C196.036 17.4788 194.295 14.5778 191.104 13.4174ZM186.39 27.995C185.52 27.995 184.794 27.7774 184.359 27.2697C183.924 26.7621 183.852 25.8918 183.852 24.5138V15.5206C183.852 14.7229 183.852 14.2877 183.997 14.0701C184.142 13.8526 184.577 13.78 185.302 13.78C189.726 13.78 192.12 16.3909 192.12 20.815C192.12 24.1512 190.669 27.995 186.39 27.995Z" fill="#D61726"/>
<path d="M204.667 13.635L205.319 13.4899C205.537 13.3449 205.537 12.7647 205.319 12.6196C204.014 12.6922 202.781 12.6922 201.621 12.6922C200.46 12.6922 199.227 12.6922 197.849 12.6196C197.632 12.7647 197.632 13.3449 197.849 13.4899L198.574 13.635C199.735 13.8526 199.88 13.9976 199.88 16.3184V25.3841C199.88 27.7049 199.735 27.8499 198.574 28.0675L197.849 28.2126C197.632 28.3576 197.632 28.9378 197.849 29.0829C199.155 29.0103 200.388 29.0103 201.621 29.0103C202.781 29.0103 204.014 29.0103 205.319 29.0829C205.537 28.9378 205.537 28.3576 205.319 28.2126L204.667 28.0675C203.506 27.8499 203.361 27.7049 203.361 25.3841V16.3184C203.361 13.9976 203.506 13.78 204.667 13.635Z" fill="#D61726"/>
<path d="M222 12.2569C221.928 12.1843 221.783 12.1118 221.638 12.1118C221.492 12.1118 221.42 12.1118 221.347 12.1843C221.13 12.692 220.767 12.692 219.099 12.692H209.961C208.075 12.692 208.003 12.6195 207.93 12.1843C207.858 12.1118 207.713 12.1118 207.568 12.1118C207.423 12.1118 207.35 12.1843 207.205 12.2569C207.06 13.1997 206.915 14.7227 206.407 16.4633C206.552 16.7534 207.06 16.826 207.35 16.6809C208.075 14.8678 208.583 13.9249 210.396 13.9249H211.919C212.499 13.9249 212.499 14.07 212.499 14.6502V25.529C212.499 27.8498 212.354 28.0674 211.266 28.1399L210.179 28.285C209.961 28.43 209.961 29.0102 210.179 29.1553C211.919 29.0827 213.152 29.0827 214.385 29.0827C215.473 29.0827 216.706 29.0827 218.301 29.1553C218.446 29.0102 218.446 28.43 218.301 28.285L217.286 28.1399C216.198 27.9949 216.053 27.7773 216.053 25.529V14.6502C216.053 13.9975 216.126 13.9249 216.706 13.9249H218.156C219.969 13.9249 220.332 15.0854 220.767 16.6809C220.912 16.8985 221.565 16.826 221.71 16.6084C221.565 15.0854 221.783 13.1272 222 12.2569Z" fill="#D61726"/>
<path d="M101.753 36.2627C100.883 36.2627 100.23 36.3352 99.7222 36.4077V44.4581H100.81V41.1944C101.028 41.2669 101.318 41.2669 101.68 41.2669C102.696 41.2669 103.639 40.9768 104.146 40.3966C104.581 39.9615 104.799 39.3813 104.799 38.656C104.799 37.9308 104.509 37.3506 104.074 36.9879C103.566 36.4803 102.768 36.2627 101.753 36.2627ZM101.68 40.3966C101.318 40.3966 101.028 40.3966 100.81 40.3241V37.133C101.028 37.0605 101.318 37.0605 101.825 37.0605C102.986 37.0605 103.784 37.5682 103.784 38.656C103.711 39.8164 102.913 40.3966 101.68 40.3966Z" fill="black"/>
<path d="M106.902 39.7439L106.83 38.5835H105.887C105.959 39.1637 105.959 39.7439 105.959 40.3967V44.4581H107.047V41.3395C107.047 41.1944 107.047 40.9769 107.047 40.8318C107.192 40.034 107.7 39.4538 108.498 39.4538C108.643 39.4538 108.788 39.4538 108.86 39.4538V38.4385C108.788 38.4385 108.643 38.4385 108.57 38.4385C107.845 38.4385 107.192 38.9462 106.902 39.7439Z" fill="black"/>
<path d="M112.269 38.4385C110.674 38.4385 109.368 39.5989 109.368 41.5571C109.368 43.4427 110.601 44.6031 112.197 44.6031C113.575 44.6031 115.098 43.6603 115.098 41.4845C115.098 39.6714 113.937 38.4385 112.269 38.4385ZM112.197 43.8053C111.181 43.8053 110.456 42.8625 110.456 41.5571C110.456 40.4692 111.036 39.3088 112.269 39.3088C113.502 39.3088 114.01 40.5417 114.01 41.5571C114.01 42.8625 113.212 43.8053 112.197 43.8053Z" fill="black"/>
<path d="M117.563 38.2935C117.563 37.3507 117.926 36.5529 119.014 36.5529C119.522 36.5529 119.957 36.698 120.247 36.9155L120.537 36.1178C120.247 35.9002 119.594 35.7551 119.014 35.7551C117.346 35.7551 116.476 36.7705 116.476 38.2935V38.6561H115.678V39.4539H116.476V44.5307H117.563V39.4539H119.884V44.5307H120.972V38.6561H117.563V38.2935Z" fill="black"/>
<path d="M123.728 39.7439L123.656 38.5835H122.713C122.785 39.1637 122.785 39.7439 122.785 40.3967V44.4581H123.873V41.3395C123.873 41.1944 123.873 40.9769 123.873 40.8318C124.018 40.034 124.526 39.4538 125.324 39.4538C125.469 39.4538 125.541 39.4538 125.686 39.4538V38.4385C125.614 38.4385 125.541 38.4385 125.396 38.4385C124.599 38.4385 123.946 38.9462 123.728 39.7439Z" fill="black"/>
<path d="M128.878 38.4385C127.137 38.4385 126.122 39.8165 126.122 41.6296C126.122 43.3702 127.209 44.6031 129.023 44.6031C129.965 44.6031 130.618 44.3856 130.981 44.2405L130.763 43.4427C130.401 43.5878 129.893 43.7328 129.168 43.7328C128.08 43.7328 127.209 43.1526 127.137 41.7021H131.271C131.271 41.5571 131.343 41.412 131.343 41.1944C131.343 40.1791 130.836 38.4385 128.878 38.4385ZM127.209 40.9769C127.282 40.2516 127.79 39.2363 128.878 39.2363C130.038 39.2363 130.328 40.3241 130.328 40.9769H127.209Z" fill="black"/>
<path d="M136.783 40.8318C136.783 39.6714 136.348 38.4385 134.535 38.4385C133.809 38.4385 133.084 38.6561 132.577 38.9462L132.794 39.6714C133.229 39.3813 133.737 39.2363 134.317 39.2363C135.55 39.2363 135.623 40.1066 135.623 40.6142V40.7593C133.374 40.7593 132.069 41.5571 132.069 42.935C132.069 43.8053 132.649 44.6031 133.882 44.6031C134.752 44.6031 135.332 44.168 135.695 43.7328H135.768L135.84 44.4581H136.783C136.71 44.0229 136.71 43.5878 136.71 43.0801V40.8318H136.783ZM135.695 42.4999C135.695 42.5724 135.695 42.7175 135.623 42.8625C135.478 43.3702 134.97 43.8779 134.172 43.8779C133.664 43.8779 133.157 43.5878 133.157 42.8625C133.157 41.7021 134.462 41.4845 135.623 41.5571V42.4999H135.695Z" fill="black"/>
<path d="M139.539 35.8276H138.451V44.3856H139.539V35.8276Z" fill="black"/>
<path d="M147.444 41.0493H149.112V43.5152C148.894 43.6603 148.387 43.7328 147.734 43.7328C145.848 43.7328 144.615 42.4999 144.615 40.4691C144.615 38.4384 145.921 37.2055 147.879 37.2055C148.677 37.2055 149.257 37.3506 149.692 37.5681L149.982 36.6978C149.619 36.5528 148.894 36.3352 147.951 36.3352C145.195 36.3352 143.527 38.1483 143.527 40.5417C143.527 41.8471 143.962 42.935 144.688 43.5877C145.486 44.3855 146.501 44.6756 147.734 44.6756C148.822 44.6756 149.765 44.3855 150.272 44.2405V40.3241H147.589V41.0493H147.444Z" fill="black"/>
<path d="M152.666 39.7439L152.593 38.5835H151.65C151.65 39.1637 151.723 39.7439 151.723 40.3967V44.4581H152.811V41.3395C152.811 41.1944 152.811 40.9769 152.883 40.8318C153.028 40.034 153.536 39.4538 154.334 39.4538C154.479 39.4538 154.624 39.4538 154.696 39.4538V38.4385C154.624 38.4385 154.479 38.4385 154.406 38.4385C153.609 38.4385 152.956 38.9462 152.666 39.7439Z" fill="black"/>
<path d="M158.032 38.4385C156.437 38.4385 155.131 39.5989 155.131 41.5571C155.131 43.4427 156.364 44.6031 157.96 44.6031C159.338 44.6031 160.861 43.6603 160.861 41.4845C160.861 39.6714 159.7 38.4385 158.032 38.4385ZM157.96 43.8053C156.944 43.8053 156.219 42.8625 156.219 41.5571C156.219 40.4692 156.799 39.3088 158.032 39.3088C159.265 39.3088 159.773 40.5417 159.773 41.5571C159.773 42.8625 158.975 43.8053 157.96 43.8053Z" fill="black"/>
<path d="M167.098 38.5835H166.01V42.1372C166.01 42.3548 166.01 42.5724 165.938 42.7174C165.72 43.2251 165.213 43.7328 164.56 43.7328C163.617 43.7328 163.254 43.0075 163.254 41.8471V38.5835H162.167V41.9922C162.167 44.0229 163.254 44.5306 164.197 44.5306C165.213 44.5306 165.865 43.8778 166.155 43.4427L166.228 44.3855H167.171C167.171 43.9504 167.098 43.3702 167.098 42.79V38.5835Z" fill="black"/>
<path d="M171.885 38.4385C170.942 38.4385 170.217 38.8736 169.782 39.5989L169.709 38.5835H168.767C168.767 39.1637 168.839 39.7439 168.839 40.4692V46.8514H169.927V43.6603C170.29 44.2405 170.942 44.6031 171.74 44.6031C173.118 44.6031 174.424 43.5878 174.424 41.4845C174.424 39.6714 173.336 38.4385 171.885 38.4385ZM171.523 43.7328C170.797 43.7328 170.145 43.2251 169.927 42.4999C169.854 42.3548 169.854 42.2098 169.854 42.0647V41.0494C169.854 40.9043 169.927 40.7593 169.927 40.6142C170.145 39.8165 170.797 39.3088 171.523 39.3088C172.683 39.3088 173.263 40.3241 173.263 41.4845C173.336 42.8625 172.683 43.7328 171.523 43.7328Z" fill="black"/>
</svg>
