<svg width="32" height="32" viewBox="0 0 32 32" fill="none" xmlns="http://www.w3.org/2000/svg">
<path d="M14.8204 22.3691H1.23076V18.564H8.09226C8.25547 18.564 8.41199 18.4992 8.5274 18.3837C8.6428 18.2683 8.70764 18.1118 8.70764 17.9486V17.4563C8.70899 16.9566 8.6119 16.4615 8.42192 15.9994C8.23194 15.5372 7.95279 15.117 7.60041 14.7627C7.24802 14.4084 6.82931 14.127 6.36816 13.9345C5.90702 13.742 5.41249 13.6423 4.91279 13.6409H1.25128C1.278 12.8919 1.59653 12.1829 2.13886 11.6655C2.68118 11.1481 3.40431 10.8632 4.15382 10.8717H27.8152C28.5049 10.8744 29.1715 11.1209 29.6971 11.5676C30.2226 12.0143 30.5732 12.6324 30.687 13.3127C30.7128 13.4746 30.8019 13.6195 30.9346 13.7157C31.0673 13.8119 31.2328 13.8514 31.3947 13.8256C31.5565 13.7997 31.7015 13.7106 31.7977 13.5779C31.8938 13.4452 31.9333 13.2797 31.9075 13.1179C31.7677 12.2788 31.3743 11.5027 30.7802 10.894C30.1861 10.2852 29.4198 9.87299 28.5844 9.71276C28.7089 9.15362 29.0128 8.65052 29.4498 8.28017C29.8868 7.90983 30.433 7.69256 31.0049 7.66149C31.1681 7.66149 31.3247 7.59666 31.4401 7.48125C31.5555 7.36584 31.6203 7.20932 31.6203 7.04611C31.6203 6.8829 31.5555 6.72638 31.4401 6.61097C31.3247 6.49556 31.1681 6.43073 31.0049 6.43073C30.3419 6.43182 29.6922 6.61761 29.1288 6.96724C28.5654 7.31687 28.1105 7.81654 27.8152 8.4102L24.8922 0.399997C24.8484 0.282868 24.77 0.18185 24.6674 0.110392C24.5648 0.0389338 24.4428 0.000427446 24.3178 0H7.66149C7.53646 0.000427446 7.41452 0.0389338 7.31191 0.110392C7.2093 0.18185 7.1309 0.282868 7.08714 0.399997L4.15382 8.45123C3.85849 7.85756 3.40362 7.3579 2.84022 7.00826C2.27682 6.65863 1.62717 6.47285 0.964098 6.47175C0.883285 6.47175 0.803263 6.48767 0.728602 6.5186C0.65394 6.54952 0.586101 6.59485 0.528958 6.65199C0.471815 6.70914 0.426486 6.77698 0.39556 6.85164C0.364635 6.9263 0.348717 7.00632 0.348717 7.08714C0.348717 7.16795 0.364635 7.24797 0.39556 7.32263C0.426486 7.39729 0.471815 7.46513 0.528958 7.52228C0.586101 7.57942 0.65394 7.62475 0.728602 7.65567C0.803263 7.6866 0.883285 7.70252 0.964098 7.70252C1.53608 7.73358 2.08221 7.95085 2.51922 8.3212C2.95623 8.69154 3.26013 9.19464 3.3846 9.75379C2.57251 9.89833 1.82433 10.2885 1.24102 10.8717C0.847827 11.2544 0.535403 11.7122 0.322238 12.2178C0.109073 12.7234 -0.000500243 13.2666 1.71683e-06 13.8153V26.5434C1.71683e-06 27.0331 0.194505 27.5026 0.540724 27.8488C0.886943 28.1951 1.35652 28.3896 1.84614 28.3896H5.74356C6.23318 28.3896 6.70276 28.1951 7.04898 27.8488C7.39519 27.5026 7.5897 27.0331 7.5897 26.5434V23.5999H14.7691C14.9323 23.5999 15.0889 23.535 15.2043 23.4196C15.3197 23.3042 15.3845 23.1477 15.3845 22.9845C15.3845 22.8213 15.3197 22.6647 15.2043 22.5493C15.0889 22.4339 14.9323 22.3691 14.7691 22.3691H14.8204ZM8.09226 1.23076H23.887L26.9639 9.66148H5.02561L8.09226 1.23076ZM7.47688 17.3332H1.23076V14.8717H4.91279C5.57467 14.8737 6.21035 15.1306 6.68782 15.5889C7.1653 16.0473 7.44787 16.672 7.47688 17.3332ZM6.36919 26.5639C6.36655 26.7263 6.30087 26.8813 6.18603 26.9962C6.07119 27.111 5.9162 27.1767 5.75381 27.1793H1.84614C1.68376 27.1767 1.52876 27.111 1.41393 26.9962C1.29909 26.8813 1.2334 26.7263 1.23076 26.5639V23.5999H6.35894L6.36919 26.5639Z" fill="black"/>
<path d="M14.8218 17.3026H12.4218L11.3962 15.6719C11.3643 15.5866 11.314 15.5094 11.2487 15.4459C11.1834 15.3824 11.1048 15.3342 11.0186 15.3047C10.9325 15.2753 10.8408 15.2653 10.7503 15.2756C10.6599 15.2859 10.5728 15.3161 10.4954 15.364C10.418 15.412 10.3522 15.4766 10.3028 15.5531C10.2533 15.6296 10.2215 15.7161 10.2096 15.8064C10.1976 15.8966 10.2059 15.9885 10.2337 16.0752C10.2616 16.1619 10.3083 16.2413 10.3705 16.3078L11.5398 18.236C11.5942 18.3262 11.6709 18.4009 11.7625 18.453C11.8541 18.5051 11.9575 18.5328 12.0628 18.5334H14.8115C14.9748 18.5334 15.1313 18.4686 15.2467 18.3532C15.3621 18.2378 15.4269 18.0812 15.4269 17.918C15.4269 17.7548 15.3621 17.5983 15.2467 17.4829C15.1313 17.3675 14.9748 17.3026 14.8115 17.3026H14.8218ZM31.9396 17.6308C31.6217 15.5796 28.0627 14.5539 24.6884 14.5539C21.1602 14.5539 17.4064 15.7334 17.4064 17.918C17.3999 18.0068 17.3999 18.0959 17.4064 18.1847V28.6359C17.4064 30.8205 21.1602 32 24.6884 32C28.2166 32 31.9704 30.8205 31.9704 28.6359V17.8873C31.9787 17.8006 31.9682 17.7131 31.9396 17.6308ZM30.7704 25.0052V25.0975C30.7704 25.9898 28.473 27.2308 24.7192 27.2308C20.9654 27.2308 18.6679 25.9898 18.6679 25.0975V23.4565C20.5169 24.4765 22.609 24.9729 24.7192 24.8923C26.8293 24.9729 28.9214 24.4765 30.7704 23.4565V25.0052ZM18.6782 21.4565V19.8667C20.5214 20.8708 22.6011 21.3598 24.6987 21.2821C26.818 21.3639 28.9188 20.86 30.7704 19.8257V21.518C30.7704 22.4103 28.473 23.6513 24.7192 23.6513C20.9654 23.6513 18.6679 22.4103 18.6679 21.518L18.6782 21.4565ZM24.6987 15.7745C28.4422 15.7745 30.7499 17.0155 30.7499 17.9078C30.7499 18.8001 28.4422 20.1026 24.6987 20.1026C20.9551 20.1026 18.832 18.9437 18.6782 18.0514V17.9283C18.7807 16.9642 21.0371 15.7847 24.6987 15.7847V15.7745ZM24.6987 30.759C20.9551 30.759 18.6474 29.518 18.6474 28.6257V27.0154C20.4964 28.0354 22.5885 28.5319 24.6987 28.4513C26.8088 28.5319 28.9009 28.0354 30.7499 27.0154V28.6257C30.7704 29.5282 28.473 30.7692 24.7192 30.7692L24.6987 30.759Z" fill="black"/>
</svg>
