<svg width="222" height="47" viewBox="0 0 222 47" fill="none" xmlns="http://www.w3.org/2000/svg">
<path d="M13.0547 39.9615C13.8525 40.3241 14.7228 40.5417 15.5931 40.8318L41.4121 19.2918C41.1945 16.1732 40.2517 13.1997 38.8012 10.5887L13.0547 39.9615Z" fill="#D61726"/>
<path d="M20.7423 41.4845C29.3003 41.4845 36.6253 36.2627 39.8164 28.8651L19.2192 41.412C19.7269 41.412 20.2346 41.4845 20.7423 41.4845Z" fill="#D61726"/>
<path d="M20.7432 0C17.4795 0 14.3609 0.725253 11.605 2.10323L5.87549 35.2473C6.52822 35.9725 7.32599 36.6253 8.05125 37.2055L21.1783 0C21.0333 0 20.8882 0 20.7432 0Z" fill="#D61726"/>
<path d="M3.62626 32.4189L4.20647 8.19543C1.52303 11.6766 0 16.0282 0 20.7423C0 25.0938 1.30545 29.0827 3.62626 32.4189Z" fill="#D61726"/>
<path d="M26.7615 0.870483L9.35547 38.076C10.0082 38.5111 10.7335 38.9463 11.4587 39.3089L34.7393 5.43958C32.491 3.40887 29.8076 1.81331 26.7615 0.870483Z" fill="#D61726"/>
<path d="M62.5892 13.2722C61.5739 12.9096 60.1959 12.6195 58.0927 12.6195C55.9169 12.6195 54.0312 12.692 52.4357 12.8371C52.1456 12.9821 52.1456 13.5623 52.3632 13.7074L53.0884 13.7799C54.1038 13.925 54.1763 14.2151 54.1763 16.6809V25.384C54.1763 27.7048 54.0312 27.8498 52.9434 28.0674L52.2906 28.2124C52.0005 28.3575 52.0731 28.9377 52.3632 29.0828C53.6686 29.0102 54.9015 29.0102 56.0619 29.0102C57.2224 29.0102 58.4553 29.0102 59.8333 29.0828C60.1234 28.9377 60.1234 28.3575 59.8333 28.2124L59.0355 28.0674C57.9476 27.9223 57.8026 27.7048 57.8026 25.384V15.0128C57.8026 13.9975 57.8751 13.7799 58.7454 13.7799C60.9937 13.7799 61.864 15.7381 61.864 17.5512C61.864 19.3644 61.4288 20.8149 59.3981 21.4676C59.2531 21.6126 59.2531 21.9753 59.4706 22.1203C59.7607 22.1203 59.9783 22.1203 60.2684 22.1203C61.5739 22.1203 65.6353 21.5401 65.6353 17.4787C65.5628 15.1579 64.0397 13.8524 62.5892 13.2722Z" fill="#D61726"/>
<path d="M81.446 27.5596C80.2856 26.5442 79.2703 24.7311 77.6022 21.3949C77.4572 21.1048 77.4571 20.9598 77.7473 20.8873C78.9077 20.3071 80.3582 19.3642 80.3582 17.1885C80.3582 15.5929 79.6329 14.36 78.1824 13.5622C77.2396 12.982 75.4264 12.6919 73.3957 12.6919C71.0749 12.6919 69.1167 12.7644 67.3036 12.9095C67.0135 13.0545 67.0135 13.6347 67.2311 13.7798L67.8838 13.8523C68.8992 13.9974 68.9717 14.2875 68.9717 16.7533V25.4563C68.9717 27.7046 68.8266 27.9222 67.7388 28.0673L67.086 28.2123C66.8685 28.3574 66.8685 28.9376 67.086 29.0826C68.3915 29.0101 69.4794 29.0101 70.7123 29.0101C71.8727 29.0101 73.0331 29.0101 74.3386 29.0826C74.4836 28.9376 74.4836 28.3574 74.3386 28.2123L73.6858 28.0673C72.598 27.8497 72.4529 27.7046 72.4529 25.4563V22.4103C72.4529 21.9026 72.5254 21.9026 73.3957 21.9026C74.0485 21.9026 74.4111 22.1202 74.7012 22.7729C75.2814 24.0784 75.8616 25.3113 76.5868 26.6168C77.6747 28.3574 79.1252 29.2277 81.3735 29.2277C82.1713 29.2277 82.8966 29.1551 83.3317 29.0101C83.4768 28.865 83.4767 28.5024 83.2592 28.3574C82.679 28.2123 82.0988 28.0673 81.446 27.5596ZM75.7165 20.0895C75.2814 20.5246 74.7012 20.8147 73.8309 20.8147C72.3804 20.8147 72.3079 20.7422 72.3079 19.8719V15.0852C72.3079 13.9248 72.3804 13.8523 73.3957 13.8523C75.2814 13.8523 76.5868 15.3028 76.5868 17.4786C76.5868 18.8565 76.1517 19.6543 75.7165 20.0895Z" fill="#D61726"/>
<path d="M91.527 12.3293C86.3777 12.3293 82.7515 16.1007 82.7515 20.9599C82.7515 26.1092 86.3777 29.3728 91.3095 29.3728C96.6038 29.3728 100.158 26.1817 100.158 20.8148C100.158 15.738 96.6038 12.3293 91.527 12.3293ZM91.7446 28.2124C87.7557 28.2124 86.6678 23.4257 86.6678 20.3797C86.6678 16.2457 88.2634 13.4172 91.3095 13.4172C94.3555 13.4172 96.2412 16.8259 96.2412 21.0324C96.2412 25.0938 94.9357 28.2124 91.7446 28.2124Z" fill="#D61726"/>
<path d="M109.659 28.1398L108.716 27.9947C107.628 27.8497 107.483 27.6321 107.483 25.3838V22.0477C107.483 21.3949 107.483 21.3224 108.208 21.3224H110.094C111.399 21.3224 111.689 21.54 111.907 22.7004L112.052 23.2806C112.197 23.4982 112.85 23.4982 112.995 23.2806C112.922 22.5553 112.922 21.6125 112.922 20.7422C112.922 19.7994 112.922 18.9291 112.995 18.1313C112.85 17.9137 112.197 17.9137 112.052 18.1313L111.907 18.7115C111.689 19.9444 111.399 20.0895 110.094 20.0895H108.208C107.555 20.0895 107.483 20.0169 107.483 19.3642V14.9402C107.483 13.9974 107.483 13.9248 108.281 13.9248H110.166C111.399 13.9248 112.124 14.2149 112.56 14.7226C112.777 15.0127 112.995 15.6654 113.285 16.6083C113.575 16.8258 114.155 16.7533 114.228 16.5357C114.155 14.8677 114.155 13.127 114.155 12.6919C113.792 12.7644 112.414 12.7644 110.819 12.7644H105.67C104.509 12.7644 103.276 12.7644 102.188 12.6919C101.898 12.7644 101.898 13.4171 102.116 13.5622L102.624 13.6347C103.711 13.7798 103.856 13.9973 103.856 16.3182V25.4563C103.856 27.7772 103.711 27.9222 102.624 28.0673L101.826 28.2123C101.608 28.3574 101.608 28.9376 101.826 29.0826C103.276 29.0101 104.509 29.0101 105.67 29.0101C106.83 29.0101 108.063 29.0101 109.586 29.0826C109.804 28.865 109.804 28.2848 109.659 28.1398Z" fill="#D61726"/>
<path d="M122.858 29.0102C123.075 28.8652 123.075 28.285 122.858 28.1399L122.205 27.9949C121.045 27.7773 120.9 27.6322 120.9 25.3114V16.3183C120.9 13.9975 121.045 13.8524 122.205 13.6349L122.858 13.4898C123.075 13.3448 123.075 12.7646 122.858 12.6195C121.552 12.692 120.32 12.692 119.159 12.692C117.999 12.692 116.766 12.692 115.388 12.6195C115.17 12.7646 115.17 13.3448 115.388 13.4898L116.113 13.6349C117.273 13.8524 117.419 13.9975 117.419 16.3183V25.384C117.419 27.7048 117.273 27.8498 116.113 28.0674L115.388 28.2124C115.17 28.3575 115.17 28.9377 115.388 29.0828C116.693 29.0102 117.926 29.0102 119.159 29.0102C120.32 28.9377 121.552 28.9377 122.858 29.0102Z" fill="#D61726"/>
<path d="M146.284 24.5861C146.139 24.296 145.558 24.2235 145.341 24.4411C144.688 26.1091 143.31 28.2849 140.337 28.2849C137.363 28.2849 134.535 25.674 134.535 20.7423C134.535 15.8105 137.436 13.4897 140.192 13.4897C142.585 13.4897 144.18 14.7227 144.833 17.0435C144.978 17.261 145.703 17.1885 145.776 16.8984C145.558 15.4479 145.486 13.4897 145.486 13.0546C144.761 12.9821 142.947 12.4019 140.409 12.4019C137.871 12.4019 135.332 13.1271 133.592 14.5776C131.924 15.9556 130.618 18.1314 130.618 21.1049C130.618 24.151 131.996 26.1817 133.737 27.5596C135.477 28.8651 137.943 29.4453 140.337 29.4453C142.222 29.4453 144.035 28.9376 145.341 28.5025C145.703 27.8497 146.139 26.3992 146.284 24.5861Z" fill="#D61726"/>
<path d="M176.6 24.9487C175.222 27.7046 174.424 27.7772 172.249 27.7772C170.435 27.7772 170 27.5596 169.638 27.1244C169.348 26.6893 169.275 25.8915 169.275 24.8036V21.9026C169.275 21.1774 169.275 21.1048 170 21.1048H171.668C172.974 21.1048 173.264 21.3224 173.482 22.4828L173.627 23.063C173.772 23.2806 174.424 23.2806 174.569 23.063C174.497 22.2652 174.497 21.3949 174.497 20.4521C174.497 19.5093 174.497 18.639 174.569 17.8412C174.424 17.6236 173.844 17.6236 173.627 17.8412L173.482 18.4214C173.264 19.5818 172.974 19.7994 171.668 19.7994H170C169.348 19.7994 169.275 19.7268 169.275 19.0741V14.7951C169.275 13.8523 169.275 13.8523 170.073 13.8523H172.031C173.264 13.8523 173.989 14.1424 174.424 14.6501C174.714 15.0127 175.077 15.738 175.367 16.6083C175.585 16.8258 176.165 16.7533 176.31 16.5357C176.165 14.8677 176.02 13.127 176.02 12.6919C175.73 12.7644 174.279 12.7644 172.756 12.7644H167.534C166.374 12.7644 165.141 12.7644 163.981 12.6919C163.763 12.8369 163.691 13.4171 163.908 13.5622L164.488 13.7072C165.576 13.9248 165.721 14.0699 165.721 16.3182V25.5289C165.721 27.7772 165.649 27.9222 164.488 28.1398C164.488 28.1398 163.908 28.2848 163.473 28.2848C162.893 28.2848 162.53 28.2123 161.877 27.7046C160.717 26.6893 159.702 24.8761 158.034 21.54C157.889 21.2499 157.889 21.1048 158.179 21.0323C159.339 20.4521 160.79 19.5093 160.79 17.3335C160.79 15.738 160.064 14.505 158.614 13.7072C157.671 13.127 155.858 12.8369 153.755 12.8369C151.434 12.8369 149.476 12.9095 147.662 13.0545C147.372 13.1996 147.372 13.7798 147.59 13.9248L148.243 13.9974C149.258 14.1424 149.331 14.4325 149.331 16.8984V25.6014C149.331 27.8497 149.186 28.0673 148.098 28.2123L147.445 28.3574C147.227 28.5024 147.227 29.0826 147.445 29.2277C148.75 29.1551 149.838 29.1551 151.071 29.1551C152.232 29.1551 153.392 29.1551 154.697 29.2277C154.843 29.0826 154.843 28.5024 154.697 28.3574L154.045 28.2123C152.957 27.9947 152.812 27.8497 152.812 25.6014V22.5553C152.812 22.0477 152.884 22.0477 153.755 22.0477C154.335 22.0477 154.77 22.2652 155.06 22.918C155.64 24.2234 156.22 25.4563 156.946 26.7618C158.034 28.5024 159.339 29.2277 161.66 29.3002C162.53 29.3727 162.893 29.3002 163.4 29.3002C165.214 29.2277 166.447 29.1551 167.607 29.1551H170.798C172.829 29.1551 175.15 29.1551 176.455 29.2277C176.818 28.5749 177.398 26.5442 177.47 25.3113C177.398 24.8036 176.745 24.6586 176.6 24.9487ZM156.148 20.0895C155.713 20.5246 155.133 20.8147 154.262 20.8147C152.812 20.8147 152.739 20.7422 152.739 19.8719V15.0852C152.739 13.9248 152.812 13.8523 153.827 13.8523C155.713 13.8523 157.018 15.3028 157.018 17.4786C157.091 18.8565 156.583 19.6543 156.148 20.0895Z" fill="#D61726"/>
<path d="M191.106 13.4173C189.438 12.8371 187.407 12.6195 185.376 12.6195C182.765 12.6195 180.88 12.692 178.776 12.8371C178.486 12.8371 178.486 13.5623 178.704 13.7074L179.139 13.7799C180.299 13.925 180.299 14.3601 180.299 16.6809V25.384C180.299 27.6322 180.154 27.8498 179.066 27.9949L178.269 28.1399C178.051 28.285 178.051 28.8652 178.269 29.0102C179.647 28.9377 180.952 28.9377 182.112 28.9377C182.983 28.9377 184.216 29.0828 185.376 29.0828C187.915 29.0828 189.945 28.7927 191.613 27.9223C194.442 26.5444 196.037 23.8609 196.037 20.5973C196.037 17.4787 194.297 14.5777 191.106 13.4173ZM186.391 27.9949C185.521 27.9949 184.796 27.7773 184.361 27.2696C183.926 26.7619 183.853 25.8916 183.853 24.5137V15.5205C183.853 14.7227 183.853 14.2876 183.998 14.07C184.143 13.8524 184.578 13.7799 185.304 13.7799C189.728 13.7799 192.121 16.3908 192.121 20.8149C192.121 24.151 190.67 27.9949 186.391 27.9949Z" fill="#D61726"/>
<path d="M204.666 13.6349L205.319 13.4898C205.536 13.3448 205.536 12.7646 205.319 12.6195C204.013 12.692 202.78 12.692 201.62 12.692C200.46 12.692 199.227 12.692 197.849 12.6195C197.631 12.7646 197.631 13.3448 197.849 13.4898L198.574 13.6349C199.734 13.8524 199.879 13.9975 199.879 16.3183V25.384C199.879 27.7048 199.734 27.8498 198.574 28.0674L197.849 28.2124C197.631 28.3575 197.631 28.9377 197.849 29.0828C199.154 29.0102 200.387 29.0102 201.62 29.0102C202.78 29.0102 204.013 29.0102 205.319 29.0828C205.536 28.9377 205.536 28.3575 205.319 28.2124L204.666 28.0674C203.506 27.8498 203.361 27.7048 203.361 25.384V16.3183C203.361 13.9975 203.506 13.7799 204.666 13.6349Z" fill="#D61726"/>
<path d="M222 12.2569C221.928 12.1843 221.783 12.1118 221.638 12.1118C221.492 12.1118 221.42 12.1118 221.347 12.1843C221.13 12.692 220.767 12.692 219.099 12.692H209.961C208.075 12.692 208.003 12.6195 207.93 12.1843C207.858 12.1118 207.713 12.1118 207.568 12.1118C207.423 12.1118 207.35 12.1843 207.205 12.2569C207.06 13.1997 206.915 14.7227 206.407 16.4633C206.552 16.7534 207.06 16.826 207.35 16.6809C208.075 14.8678 208.583 13.9249 210.396 13.9249H211.919C212.499 13.9249 212.499 14.07 212.499 14.6502V25.529C212.499 27.8498 212.354 28.0674 211.266 28.1399L210.179 28.285C209.961 28.43 209.961 29.0102 210.179 29.1553C211.919 29.0827 213.152 29.0827 214.385 29.0827C215.473 29.0827 216.706 29.0827 218.301 29.1553C218.446 29.0102 218.446 28.43 218.301 28.285L217.286 28.1399C216.198 27.9949 216.053 27.7773 216.053 25.529V14.6502C216.053 13.9975 216.126 13.9249 216.706 13.9249H218.156C219.969 13.9249 220.332 15.0854 220.767 16.6809C220.912 16.8985 221.565 16.826 221.71 16.6084C221.565 15.0854 221.783 13.1272 222 12.2569Z" fill="#D61726"/>
<path d="M101.754 36.2627C100.884 36.2627 100.231 36.3352 99.7231 36.4077V44.4581H100.811V41.1944C101.029 41.2669 101.319 41.2669 101.681 41.2669C102.697 41.2669 103.64 40.9768 104.147 40.3966C104.582 39.9615 104.8 39.3813 104.8 38.656C104.8 37.9308 104.51 37.3506 104.075 36.9879C103.567 36.4803 102.769 36.2627 101.754 36.2627ZM101.681 40.3966C101.319 40.3966 101.029 40.3966 100.811 40.3241V37.133C101.029 37.0605 101.319 37.0605 101.826 37.0605C102.987 37.0605 103.785 37.5682 103.785 38.656C103.712 39.8164 102.914 40.3966 101.681 40.3966Z" fill="black"/>
<path d="M106.902 39.7438L106.83 38.5834H105.887C105.959 39.1636 105.959 39.7438 105.959 40.3965V44.458H107.047V41.3394C107.047 41.1943 107.047 40.9767 107.047 40.8317C107.192 40.0339 107.7 39.4537 108.498 39.4537C108.643 39.4537 108.788 39.4537 108.86 39.4537V38.4384C108.788 38.4384 108.643 38.4384 108.57 38.4384C107.845 38.4384 107.192 38.946 106.902 39.7438Z" fill="black"/>
<path d="M112.269 38.4384C110.674 38.4384 109.368 39.5988 109.368 41.5569C109.368 43.4426 110.601 44.603 112.197 44.603C113.575 44.603 115.098 43.6602 115.098 41.4844C115.098 39.6713 113.937 38.4384 112.269 38.4384ZM112.197 43.8052C111.181 43.8052 110.456 42.8624 110.456 41.5569C110.456 40.4691 111.036 39.3087 112.269 39.3087C113.502 39.3087 114.01 40.5416 114.01 41.5569C114.01 42.8624 113.212 43.8052 112.197 43.8052Z" fill="black"/>
<path d="M117.563 38.2934C117.563 37.3506 117.926 36.5528 119.014 36.5528C119.522 36.5528 119.957 36.6978 120.247 36.9154L120.537 36.1176C120.247 35.9001 119.594 35.755 119.014 35.755C117.346 35.755 116.476 36.7704 116.476 38.2934V38.656H115.678V39.4538H116.476V44.5306H117.563V39.4538H119.884V44.5306H120.972V38.656H117.563V38.2934Z" fill="black"/>
<path d="M123.728 39.7438L123.656 38.5834H122.713C122.785 39.1636 122.785 39.7438 122.785 40.3965V44.458H123.873V41.3394C123.873 41.1943 123.873 40.9767 123.873 40.8317C124.018 40.0339 124.526 39.4537 125.324 39.4537C125.469 39.4537 125.541 39.4537 125.686 39.4537V38.4384C125.614 38.4384 125.541 38.4384 125.396 38.4384C124.599 38.4384 123.946 38.946 123.728 39.7438Z" fill="black"/>
<path d="M128.878 38.4384C127.137 38.4384 126.122 39.8163 126.122 41.6295C126.122 43.3701 127.209 44.603 129.023 44.603C129.965 44.603 130.618 44.3854 130.981 44.2404L130.763 43.4426C130.401 43.5876 129.893 43.7327 129.168 43.7327C128.08 43.7327 127.209 43.1525 127.137 41.702H131.271C131.271 41.5569 131.343 41.4119 131.343 41.1943C131.343 40.179 130.836 38.4384 128.878 38.4384ZM127.209 40.9767C127.282 40.2515 127.79 39.2361 128.878 39.2361C130.038 39.2361 130.328 40.324 130.328 40.9767H127.209Z" fill="black"/>
<path d="M136.783 40.8317C136.783 39.6713 136.348 38.4384 134.535 38.4384C133.809 38.4384 133.084 38.6559 132.577 38.946L132.794 39.6713C133.229 39.3812 133.737 39.2361 134.317 39.2361C135.55 39.2361 135.623 40.1064 135.623 40.6141V40.7592C133.374 40.7592 132.069 41.5569 132.069 42.9349C132.069 43.8052 132.649 44.603 133.882 44.603C134.752 44.603 135.332 44.1679 135.695 43.7327H135.768L135.84 44.458H136.783C136.71 44.0228 136.71 43.5876 136.71 43.08V40.8317H136.783ZM135.695 42.4998C135.695 42.5723 135.695 42.7173 135.623 42.8624C135.478 43.3701 134.97 43.8778 134.172 43.8778C133.664 43.8778 133.157 43.5876 133.157 42.8624C133.157 41.702 134.462 41.4844 135.623 41.5569V42.4998H135.695Z" fill="black"/>
<path d="M139.54 35.8276H138.452V44.3856H139.54V35.8276Z" fill="black"/>
<path d="M147.444 41.0493H149.112V43.5152C148.894 43.6603 148.387 43.7328 147.734 43.7328C145.848 43.7328 144.615 42.4999 144.615 40.4691C144.615 38.4384 145.921 37.2055 147.879 37.2055C148.677 37.2055 149.257 37.3506 149.692 37.5681L149.982 36.6978C149.619 36.5528 148.894 36.3352 147.951 36.3352C145.195 36.3352 143.527 38.1483 143.527 40.5417C143.527 41.8471 143.962 42.935 144.688 43.5877C145.486 44.3855 146.501 44.6756 147.734 44.6756C148.822 44.6756 149.765 44.3855 150.272 44.2405V40.3241H147.589V41.0493H147.444Z" fill="black"/>
<path d="M152.666 39.7438L152.593 38.5834H151.65C151.65 39.1636 151.723 39.7438 151.723 40.3965V44.458H152.811V41.3394C152.811 41.1943 152.811 40.9767 152.883 40.8317C153.028 40.0339 153.536 39.4537 154.334 39.4537C154.479 39.4537 154.624 39.4537 154.696 39.4537V38.4384C154.624 38.4384 154.479 38.4384 154.406 38.4384C153.609 38.4384 152.956 38.946 152.666 39.7438Z" fill="black"/>
<path d="M158.032 38.4384C156.437 38.4384 155.131 39.5988 155.131 41.5569C155.131 43.4426 156.364 44.603 157.96 44.603C159.338 44.603 160.861 43.6602 160.861 41.4844C160.861 39.6713 159.7 38.4384 158.032 38.4384ZM157.96 43.8052C156.944 43.8052 156.219 42.8624 156.219 41.5569C156.219 40.4691 156.799 39.3087 158.032 39.3087C159.265 39.3087 159.773 40.5416 159.773 41.5569C159.773 42.8624 158.975 43.8052 157.96 43.8052Z" fill="black"/>
<path d="M167.099 38.5836H166.011V42.1374C166.011 42.3549 166.011 42.5725 165.939 42.7176C165.721 43.2252 165.214 43.7329 164.561 43.7329C163.618 43.7329 163.255 43.0077 163.255 41.8473V38.5836H162.167V41.9923C162.167 44.023 163.255 44.5307 164.198 44.5307C165.214 44.5307 165.866 43.878 166.156 43.4428L166.229 44.3856H167.172C167.172 43.9505 167.099 43.3703 167.099 42.7901V38.5836Z" fill="black"/>
<path d="M171.885 38.4384C170.942 38.4384 170.217 38.8735 169.782 39.5988L169.709 38.5834H168.767C168.767 39.1636 168.839 39.7438 168.839 40.4691V46.8513H169.927V43.6602C170.29 44.2404 170.942 44.603 171.74 44.603C173.118 44.603 174.424 43.5876 174.424 41.4844C174.424 39.6713 173.336 38.4384 171.885 38.4384ZM171.523 43.7327C170.797 43.7327 170.145 43.225 169.927 42.4998C169.854 42.3547 169.854 42.2097 169.854 42.0646V41.0493C169.854 40.9042 169.927 40.7592 169.927 40.6141C170.145 39.8163 170.797 39.3087 171.523 39.3087C172.683 39.3087 173.263 40.324 173.263 41.4844C173.336 42.8624 172.683 43.7327 171.523 43.7327Z" fill="black"/>
</svg>
